<?xml version="1.0" encoding="utf-8"?>
<!-- Generator: Adobe Illustrator 19.1.1, SVG Export Plug-In . SVG Version: 6.00 Build 0)  -->
<svg version="1.1" id="Layer_3" xmlns="http://www.w3.org/2000/svg" xmlns:xlink="http://www.w3.org/1999/xlink" x="0px" y="0px"
	 viewBox="0 0 163 222.7" style="enable-background:new 0 0 163 222.7;" xml:space="preserve">
<style type="text/css">
	.st0{fill:#EAA223;}
	.st1{fill:#EAA223;stroke:#FFFFFF;stroke-width:0.5;stroke-miterlimit:10;}
	.st2{fill:none;stroke:#FCC727;stroke-width:14;stroke-miterlimit:10;}
	.st3{fill:none;stroke:#FFFFFF;stroke-miterlimit:10;}
	.st4{fill:#E6E7E8;}
	.st5{fill:#D1D3D4;}
	.st6{fill:#939598;}
	.st7{fill:#6D6E71;}
	.st8{fill:#F1F2F2;}
</style>
<g>
	<g>
		<path class="st0" d="M148.8,117c0.2-2,2.1-7,2.1-9c0-4.5-2.3-3.5-3.2-10.7c-1-7.6,0.6-6.5-0.7-9.9c-1.3-3.2-2.7-1.4-6.6-8.3
			c-3.4-6-1.8-6.7-3.7-9.1c-2-2.5-4.4-2.1-7.9-5.6c-4.7-4.7-3.4-6.3-6.3-8.3c-2.5-1.8-6.2-0.8-10.6-3.2c-3.2-1.8-5.4-5.1-8.9-6.2
			c-3.1-1-3.8,0.8-10-0.3c-2.8-0.5-6.6-3.7-9.5-3.7c-2.3,0-6.4,2.8-8.7,3.1c-8.2,0.9-7.8-1.7-11.7-0.7c-3.8,1-2.5,3.5-10.5,6.6
			c-5.7,2.2-6.7,0.5-9.3,2c-3.2,2-1.6,3.8-7.3,9.6c-3.3,3.3-5.9,1.7-8.1,4.3c-2.2,2.6-0.3,3.7-4,9.9c-3.3,5.5-5.7,4.2-7,7.2
			c-1.2,2.9,1.1,5.4-1.2,12.6c-1.7,5.4-3.4,4.2-3.8,7.1c-0.3,2.7,2.7,3.6,2.8,10c0.1,3.9-2,5.5-1.9,8.8c0.1,3.6,3.4,7.2,5,10.3
			c2,3.9-0.5,6.6,1.2,9.7c1.6,2.9,4.9,3.6,8.5,8.2c3.7,4.9,2.2,6.5,4.7,8.9c2.1,2,3.3,0.5,9,4.6c2.9,2.1,4.6,5.9,7.8,7.5
			c2.4,1.3,5.7-0.4,12.3,2.3c4.5,1.9,3.9,3.4,7.7,4.2c4.1,0.8,4.6-2.3,12-1.7c3.7,0.3,5.8,3,8.3,2.7c3.6-0.4,6.4-3.9,9.8-4.8
			c3.2-0.9,8,0.3,10.9-0.9c3-1.3,4.8-4.5,7.6-6.2c6.6-4.1,7.5-1.7,10.2-4c2.3-2,0-4.2,4.9-8.7c6.4-5.9,6.6-3.3,8.6-6.4
			c1.6-2.6-0.2-4.4,2.4-10.6c2.7-6.4,4.4-4.6,5.3-8.4C149.7,126.9,148.5,120.3,148.8,117z M81.4,158c-25.8,0-46.6-20.9-46.6-46.6
			c0-25.8,20.9-46.6,46.6-46.6c25.8,0,46.6,20.9,46.6,46.6C128,137.1,107.1,158,81.4,158z"/>
		<path class="st1" d="M147.6,116.9c0.2-2,2-6.9,2-8.9c0-4.4-2.2-3.5-3.2-10.5c-1-7.4,0.6-6.4-0.7-9.7c-1.2-3.2-2.7-1.4-6.5-8.2
			c-3.4-5.9-1.7-6.6-3.6-9c-1.9-2.5-4.3-2-7.8-5.5c-4.7-4.6-3.4-6.1-6.2-8.1c-2.5-1.8-6.1-0.8-10.4-3.1c-3.2-1.7-5.3-5-8.7-6.1
			c-3.1-1-3.8,0.8-9.8-0.3C90,47.1,86.4,44,83.5,44c-2.3,0-6.3,2.8-8.6,3c-8,0.9-7.7-1.7-11.5-0.7c-3.8,1-2.5,3.5-10.3,6.5
			c-5.6,2.1-6.6,0.5-9.1,2c-3.1,1.9-1.5,3.8-7.1,9.4c-3.2,3.2-5.8,1.6-8,4.2c-2.1,2.5-0.3,3.7-4,9.7c-3.3,5.4-5.6,4.1-6.9,7
			c-1.2,2.8,1.1,5.3-1.2,12.4c-1.7,5.3-3.4,4.1-3.7,7c-0.3,2.6,2.7,3.6,2.8,9.8c0.1,3.8-1.9,5.4-1.8,8.6c0.1,3.5,3.4,7.1,4.9,10.2
			c1.9,3.8-0.5,6.5,1.2,9.6c1.6,2.8,4.8,3.5,8.3,8.1c3.6,4.8,2.2,6.4,4.7,8.7c2.1,2,3.3,0.5,8.8,4.5c2.8,2,4.5,5.8,7.7,7.4
			c2.4,1.2,5.6-0.4,12.1,2.2c4.5,1.8,3.8,3.4,7.6,4.1c4,0.8,4.5-2.2,11.8-1.6c3.6,0.3,5.7,2.9,8.2,2.7c3.5-0.4,6.3-3.8,9.6-4.7
			c3.1-0.8,7.8,0.3,10.7-0.9c3-1.3,4.7-4.4,7.4-6.1c6.4-4,7.3-1.6,10-3.9c2.2-1.9,0-4.1,4.8-8.5c6.2-5.8,6.5-3.2,8.4-6.3
			c1.6-2.5-0.2-4.3,2.3-10.4c2.6-6.3,4.3-4.6,5.2-8.2C148.4,126.6,147.3,120.1,147.6,116.9z M81.4,158c-25.8,0-46.6-20.9-46.6-46.6
			c0-25.8,20.9-46.6,46.6-46.6c25.8,0,46.6,20.9,46.6,46.6C128,137.1,107.1,158,81.4,158z"/>
		<circle class="st2" cx="81.4" cy="111.4" r="46.6"/>
		<circle class="st3" cx="81.4" cy="111.4" r="42"/>
		<g>
			<g>
				<g>
					<path class="st0" d="M26.8,59.4c-7.1-7.6-14.1-15.2-21.2-22.8c-0.7,0.7-1.1,1-1.8,1.7c-0.3-0.3-0.5-0.5-0.8-0.9
						c2.5-2.4,3.7-3.5,6.4-5.7C16.2,40,23.1,48.3,30,56.5C28.7,57.6,28,58.2,26.8,59.4z M36.8,32.7c1,2,1.6,4,1.8,6.2
						c0.2,2.1,0.1,4.1-0.3,6.1c-0.4,1.9-1.1,3.7-2,5.4c-1,1.7-2.2,3-3.7,4.2c-0.9,0.7-1.3,1-2.1,1.7c-6.8-8.3-13.7-16.7-20.5-25
						c1.2-1,1.8-1.4,3-2.3c2.2-1.6,4.5-2.8,6.9-3.4c2.4-0.6,4.7-0.7,6.9-0.2c2.2,0.4,4.1,1.3,5.9,2.6C34.4,29,35.8,30.7,36.8,32.7z
						 M35.7,33.2c-1-1.8-2.3-3.3-3.9-4.5c-1.6-1.2-3.5-2-5.5-2.3c-2-0.4-4.2-0.3-6.4,0.2c-2.2,0.5-4.3,1.6-6.3,3.1
						c-0.7,0.5-1.1,0.8-1.8,1.4c6.2,7.8,12.4,15.6,18.6,23.3c0.5-0.4,0.8-0.6,1.3-1c1.5-1.1,2.6-2.4,3.5-3.9c0.9-1.5,1.5-3.2,1.9-5
						c0.4-1.8,0.5-3.7,0.3-5.6C37.3,36.9,36.7,35,35.7,33.2z"/>
					<path class="st0" d="M47.3,45.5c-4.4-9.4-8.8-18.8-13.3-28.2c-0.8,0.4-1.2,0.6-2,1c-0.2-0.4-0.3-0.6-0.5-1.1
						c2.9-1.5,4.4-2.1,7.4-3.4c4.1,10,8.2,20,12.2,29.9C49.7,44.4,48.9,44.8,47.3,45.5z M60.2,22.5c0.5,2.3,0.5,4.6,0,6.8
						c-0.5,2.2-1.3,4.2-2.6,6c1.9,1.9,2.8,2.9,4.5,4.9c-0.5,0.1-0.7,0.2-1.1,0.3c-1.5-1.8-2.4-2.6-4-4.3c-1.5,1.8-3.2,3.2-5.2,4.1
						c0.4,1.1,0.7,1.7,1.1,2.9c-0.4,0.1-0.6,0.2-0.9,0.4c-4-10-8-20-11.9-30.1c0.3-0.1,0.4-0.2,0.7-0.3c2.2-0.9,4.4-1.2,6.6-1.1
						c2.2,0.1,4.2,0.6,6,1.5c1.8,0.9,3.3,2.1,4.5,3.7C59,18.7,59.8,20.5,60.2,22.5z M59,22.7c-0.4-1.8-1.1-3.3-2.2-4.7
						c-1.1-1.4-2.4-2.5-3.9-3.3c-1.6-0.8-3.3-1.3-5.2-1.5c-1.9-0.1-3.9,0.1-5.9,0.8c3.8,10,5.7,15,9.6,25c1.5-0.6,2.7-1.5,3.8-2.6
						c1.1-1.1,2-2.4,2.7-3.8c0.7-1.4,1.2-3,1.4-4.7C59.5,26.2,59.4,24.5,59,22.7z"/>
					<path class="st0" d="M79.9,29.5c0,1.2-0.2,2.3-0.5,3.4c-0.4,1.1-0.9,2-1.5,2.8c-0.6,0.8-1.4,1.5-2.2,2
						c-0.8,0.5-1.7,0.8-2.7,0.9c-1,0.1-1.9,0-2.9-0.3c-0.9-0.3-1.8-0.8-2.6-1.5c-0.8-0.6-1.5-1.4-2.1-2.4c-0.6-1-1-2-1.3-3.2
						c-1.9-9.4-2.9-14.1-4.8-23.5c0.7-0.1,1-0.2,1.7-0.3c1.8,9.4,2.6,14.1,4.4,23.6c0.2,1,0.5,1.9,1,2.7c0.5,0.8,1.1,1.5,1.7,2.1
						c0.7,0.6,1.4,1,2.2,1.2c0.8,0.3,1.6,0.3,2.4,0.3c0.8-0.1,1.6-0.4,2.3-0.8c0.7-0.4,1.3-1,1.8-1.7c0.5-0.7,0.9-1.5,1.2-2.4
						c0.3-0.9,0.4-1.8,0.4-2.8c-0.4-9.6-0.5-14.4-0.9-23.9c0.7,0,1,0,1.6,0C79.6,15.1,79.7,19.9,79.9,29.5z M77.8,29.4
						c0,0.7,0,1.5-0.2,2.2c-0.2,0.7-0.5,1.4-0.8,1.9c-0.4,0.6-0.8,1.1-1.3,1.5c-0.5,0.4-1,0.8-1.6,1c-1-10-2-20.1-2.9-30.1
						c2.3-0.2,3.5-0.3,5.8-0.4C77.1,15.1,77.4,19.9,77.8,29.4z"/>
					<path class="st0" d="M81.7,6.6c0-0.5,0-0.7,0-1.2c3.2,0,4.8,0,8,0.3c-0.7,10.8-1.5,21.5-2.2,32.3c-1.6-0.1-2.4-0.1-4-0.2
						C83.6,27.4,83.8,17,84,6.7C83.1,6.6,82.6,6.6,81.7,6.6z M88.2,38c0.8-10.7,1.7-21.5,2.5-32.2c1.6,0.1,3,0.5,4.2,1.1
						c1.2,0.6,2.1,1.5,2.7,2.7c0.2-1.2,0.3-1.8,0.4-3c0.6,0.1,0.8,0.1,1.4,0.2c-1.7,10.6-3.3,21.3-5,31.9c-0.4-0.1-0.6-0.1-1-0.1
						c1.4-10,2.2-15.1,3.6-25.1c0.1-0.7,0.1-1.4-0.1-2.1c-0.2-0.7-0.5-1.3-1-1.9c-0.5-0.6-1-1.1-1.7-1.5c-0.7-0.4-1.4-0.7-2.2-0.9
						c-0.9,10.3-1.9,20.6-2.8,31C88.8,38.1,88.6,38.1,88.2,38z"/>
					<path class="st0" d="M97.8,39.3c2-10.2,4.1-20.4,6.1-30.5c-0.9-0.2-1.3-0.3-2.2-0.4c0.1-0.5,0.1-0.7,0.2-1.2
						c3.1,0.6,4.7,0.9,7.8,1.7c-2.6,10.5-5.3,20.9-7.9,31.4C100.2,39.8,99.4,39.7,97.8,39.3z M109.5,42.6c0.4-1,0.5-2,0.6-3
						c0-1-0.1-2-0.5-3c-0.3-0.9-0.8-1.8-1.5-2.5c-0.7-0.7-1.5-1.2-2.4-1.6c-0.9,3.2-1.3,4.9-2.2,8.1c-0.4-0.1-0.6-0.2-1-0.3
						c2.7-10.4,5.5-20.9,8.2-31.3c0.5,0.1,0.8,0.2,1.4,0.4c-2.4,8.8-3.6,13.1-6,21.9c0.4,0.2,0.9,0.4,1.3,0.6
						c4.5-8.2,7.1-12.3,12.6-20.1c0.5,0.2,0.8,0.3,1.4,0.5c-5.7,7.9-8.3,11.9-13,20.2c0.7,0.6,1.3,1.3,1.7,2.1
						c0.5,0.8,0.8,1.7,1,2.6c0.2,0.9,0.2,1.9,0.1,2.8c-0.1,1-0.3,1.9-0.6,2.8C110.1,42.8,109.9,42.7,109.5,42.6z"/>
					<path class="st0" d="M113.6,44.2c4.1-9.6,8.1-19.1,12.2-28.7c-0.8-0.4-1.3-0.5-2.1-0.9c0.2-0.4,0.3-0.7,0.4-1.1
						c3,1.2,4.5,1.9,7.5,3.3c-4.7,9.7-9.4,19.4-14.2,29.1C115.9,45.2,115.1,44.9,113.6,44.2z M118,46.2c4.8-9.7,9.6-19.3,14.4-29
						c4.8,2.4,7.2,3.8,11.8,6.8c-0.3,0.4-0.4,0.6-0.7,1c-4-2.7-6.1-3.9-10.4-6.1c-1.1,2.2-1.7,3.3-2.8,5.4c3.1,1.6,4.7,2.5,7.7,4.4
						c-0.3,0.4-0.4,0.6-0.6,1c-3-1.9-4.5-2.7-7.6-4.3c-4.1,8-6.2,12-10.3,20c3.1,1.6,4.6,2.5,7.6,4.4c-0.3,0.4-0.4,0.6-0.7,1.1
						C123.2,48.9,121.5,48,118,46.2z"/>
					<path class="st0" d="M145.6,26.5c0.3-0.4,0.4-0.6,0.7-1c2.7,1.9,4.1,2.9,6.7,5c-6.8,8.4-13.5,16.8-20.3,25.2
						c-1.3-1.1-2-1.6-3.4-2.6c6.1-8.4,12.1-16.8,18.2-25.3C146.8,27.3,146.4,27,145.6,26.5z M133.4,56.2c6.8-8.3,13.7-16.7,20.5-25
						c1.3,1.1,2.3,2.2,2.9,3.5c0.7,1.2,0.9,2.5,0.9,3.9c0.8-0.9,1.2-1.3,2.1-2.2c0.4,0.4,0.6,0.6,1.1,1c-7.5,7.7-15,15.5-22.5,23.2
						c-0.3-0.3-0.5-0.4-0.8-0.7c7-7.4,10.5-11.1,17.4-18.5c0.5-0.5,0.9-1.1,1.1-1.8c0.2-0.7,0.3-1.4,0.2-2.2
						c-0.1-0.8-0.3-1.5-0.6-2.3c-0.4-0.8-0.8-1.4-1.4-2.1c-6.7,7.9-13.4,15.8-20,23.8C133.8,56.6,133.7,56.5,133.4,56.2z"/>
				</g>
			</g>
			<g>
				<g>
					<path class="st0" d="M10.8,189c-0.6-2.7-0.6-5.3,0-7.5c0.6-2.3,1.8-4.3,3.5-6.1c1.6-1.7,3.4-2.9,5.6-3.7
						c2.1-0.9,4.3-1.3,6.5-1.5C20.2,177.7,17,181.4,10.8,189z M33.8,204.1c-2.3,0.4-4.6,0.4-7-0.1c-2.4-0.5-4.7-1.5-6.9-2.9
						c-2.1-1.3-3.9-3-5.5-4.9c-1.5-1.9-2.6-3.9-3.3-6.1c6.5-8,9.8-12.1,16.4-20.1c1.9,0,3.7,0.1,5.4,0.6c1.7,0.4,3.3,1.1,4.8,2.1
						c1.5,1,2.9,2.2,4.1,3.6c1.2,1.4,2.1,3,2.8,4.9c-0.4,0.2-0.6,0.3-1.1,0.5c-0.6-1.7-1.5-3.3-2.6-4.6c-1.1-1.3-2.4-2.4-3.9-3.4
						c-1.3-0.8-2.7-1.5-4.3-1.9c-1.5-0.4-3.1-0.6-4.8-0.6c-6.1,7.8-9.2,11.6-15.3,19.4c0.7,1.9,1.7,3.6,3.1,5.3c1.4,1.6,3,3,4.8,4.2
						c2,1.3,4.2,2.2,6.4,2.6c2.2,0.5,4.4,0.5,6.5,0.1C33.6,203.3,33.7,203.6,33.8,204.1z"/>
					<path class="st0" d="M53,214.6c-0.2-1.4-0.3-2-0.4-3.4c-5.2-1.3-7.8-2.2-12.8-4.2c-0.9,1-1.4,1.5-2.4,2.5
						c-0.6-0.2-0.9-0.4-1.5-0.6c1-1,1.5-1.4,2.5-2.4c-0.9-0.4-1.4-0.6-2.4-1c0.2-0.4,0.3-0.7,0.5-1.1c1.1,0.5,1.7,0.7,2.8,1.2
						c5.7-5.9,8.4-9,13.2-15.5c0,9.9,0.5,14.9,2.1,24.9C53.9,214.8,53.6,214.7,53,214.6z M51.2,193.6c-3.9,5.2-6,7.7-10.5,12.5
						c4.6,1.8,6.9,2.5,11.7,3.8C51.6,203.4,51.3,200.1,51.2,193.6z M56.1,215.3c-2.1-10.7-2.6-16-2.7-26.5c1.8-2.5,2.7-3.7,4.3-6.3
						c0.7,11.7,2.1,22.4,4.5,33.9C59.7,216,58.5,215.8,56.1,215.3z"/>
					<path class="st0" d="M67,217.1c1.2-10.3,2.4-20.6,3.6-30.9c-0.7-0.1-1-0.1-1.7-0.2c0.1-0.5,0.1-0.7,0.2-1.2
						c2.4,0.3,3.6,0.4,6,0.6c-0.7,10.8-1.3,21.5-2,32.3C70.7,217.5,69.4,217.4,67,217.1z M90.9,199.5c0.3,2.3,0,4.6-1,6.7
						c-0.9,2.2-2.5,4-4.6,5.5c1.8,2.3,2.7,3.4,4.7,5.6c-0.7,0.1-1,0.1-1.7,0.1c-1.7-2-2.5-3-4.1-5c-2.5,1.4-5.4,2.2-8.4,2.2
						c0,1.2-0.1,1.8-0.1,3.1c-0.6,0-0.9,0-1.5-0.1c0.5-10.8,1.1-21.5,1.6-32.3c0.2,0,0.3,0,0.5,0c1.8,0.1,3.4,0.5,5,1.2
						c1.6,0.7,3,1.7,4.3,3c1.3,1.2,2.4,2.7,3.4,4.4C90.1,195.7,90.7,197.5,90.9,199.5z M89.7,199.6c-0.2-1.8-0.7-3.4-1.5-5
						c-0.8-1.5-1.8-2.8-2.9-4c-1.2-1.1-2.4-2-3.8-2.7c-1.4-0.7-2.9-1.1-4.5-1.3c-0.4,10.7-0.6,16-1,26.7c2.1,0,4.1-0.4,5.9-1.2
						c1.8-0.8,3.3-1.8,4.6-3.1c1.2-1.3,2.1-2.8,2.7-4.4C89.7,203.1,89.9,201.4,89.7,199.6z"/>
					<path class="st0" d="M98,216.4c-1.7-10.2-3.3-20.5-5-30.7c-0.7,0.1-1.1,0.2-1.8,0.3c-0.1-0.5-0.1-0.7-0.2-1.2
						c2.4-0.3,3.6-0.5,6-1.1c2.3,10.5,4.6,21.1,6.9,31.6C101.6,215.8,100.4,216,98,216.4z M120.7,192.6c0.9,2,1.4,4.1,1.3,6.3
						c-0.1,2.2-0.7,4.3-1.7,6.3c-1.1,2-2.6,3.8-4.6,5.4c-2,1.6-4.4,2.7-7,3.4c-1.5,0.4-2.2,0.6-3.7,0.9c-2.4-10.5-4.8-21-7.2-31.5
						c1.1-0.2,1.6-0.4,2.6-0.6c1.9-0.5,3.8-0.6,5.7-0.4c1.9,0.2,3.8,0.8,5.6,1.6c1.8,0.8,3.5,2,5.1,3.4
						C118.4,188.9,119.7,190.6,120.7,192.6z M119.5,193.2c-0.8-1.9-2-3.5-3.5-4.8c-1.5-1.3-3-2.4-4.7-3.2c-1.7-0.8-3.5-1.3-5.3-1.5
						c-1.8-0.2-3.6-0.1-5.4,0.4c-0.6,0.2-1,0.2-1.6,0.4c2.3,9.7,4.7,19.3,7,29c0.9-0.2,1.3-0.3,2.2-0.6c2.4-0.6,4.6-1.7,6.5-3.1
						c1.8-1.4,3.3-3.1,4.3-5c1-1.9,1.6-3.8,1.7-5.8C120.8,197,120.4,195.1,119.5,193.2z"/>
					<path class="st0" d="M149.9,191.9c-0.6,1.3-1.4,2.4-2.4,3.6c-1,1.1-2.1,2.1-3.3,3c-1.9,1.3-3.9,2.2-5.9,2.6
						c-2,0.5-4,0.5-5.8,0.2c-1.8-0.3-3.4-1-4.8-2c-1.4-1-2.5-2.3-3.3-3.9c0.5-0.2,0.7-0.4,1.2-0.6c0.7,1.4,1.7,2.6,3,3.5
						c1.3,0.9,2.7,1.5,4.4,1.8c1.6,0.3,3.4,0.2,5.2-0.2c1.8-0.4,3.6-1.2,5.3-2.4c1-0.7,1.9-1.4,2.7-2.3c0.8-0.9,1.5-1.8,2-2.8
						c-5-6.3-7.4-9.4-12.4-15.7c-2.3,0.8-3.4,1.1-5.6,1.7c-1.6,0.4-2.9,0.4-4,0c-1-0.4-1.8-1-2.3-1.8c-0.6-0.9-0.8-1.9-0.6-3
						c0.2-1.1,0.7-1.9,1.7-2.6c0.7-0.5,1.5-0.7,2.3-0.7c0.9,0,1.7,0.2,2.5,0.7c-0.2,0.4-0.3,0.6-0.6,1c-0.6-0.4-1.2-0.5-1.8-0.5
						c-0.6,0-1.2,0.2-1.7,0.5c-0.7,0.5-1.2,1.1-1.3,1.8c-0.1,0.7,0,1.4,0.4,2c0.4,0.6,0.9,1,1.7,1.3c0.8,0.3,1.7,0.3,2.8,0.1
						c2.7-0.7,4.1-1.1,6.9-2C141.8,181.8,144.5,185.2,149.9,191.9z M148.5,178.5c1.5,1.5,2.4,3.4,2.7,5.6c0.3,2.2,0.1,4.5-0.9,6.8
						c-5.3-6.4-7.9-9.6-13.1-15.9c2.1-0.2,4.2-0.1,6.2,0.5C145.4,176,147.1,177,148.5,178.5z"/>
				</g>
			</g>
		</g>
	</g>
	<g>
		<path class="st0" d="M20.9,157.4c0,1.5-1.1,2.6-2.5,2.6c-1.4,0-2.6-1.2-2.6-2.6c0-1.4,1.1-2.6,2.6-2.6
			C19.7,154.8,20.9,156,20.9,157.4z M16.2,157.4c0,1.3,0.9,2.2,2.1,2.2c1.2,0,2.1-1,2.1-2.3c0-1.3-0.9-2.3-2.1-2.3
			C17.1,155.2,16.2,156.2,16.2,157.4z M19.3,156.4c-0.1-0.1-0.4-0.2-0.8-0.2c-0.8,0-1.2,0.5-1.2,1.2c0,0.7,0.4,1.2,1.2,1.2
			c0.3,0,0.7-0.1,0.9-0.2l0.1,0.3c-0.3,0.2-0.7,0.3-1,0.3c-1,0-1.5-0.7-1.5-1.5c0-1,0.8-1.6,1.6-1.6c0.4,0,0.8,0.1,0.9,0.2
			L19.3,156.4z"/>
	</g>
	<g>
		<g>
			<g>
				
					<ellipse transform="matrix(-8.718859e-004 -1 1 -8.718859e-004 -28.6793 192.7476)" class="st4" cx="82" cy="110.7" rx="25.2" ry="24.5"/>
				<path d="M81.9,85.5c0,0,0.6,0,1.8,0.1c0.6,0,1.3,0.1,2.1,0.2c0.4,0.1,0.9,0.1,1.3,0.2c0.5,0.1,1,0.2,1.5,0.4
					c2,0.6,4.5,1.5,7,3.2c2.4,1.7,5,4,6.9,7.1c2,3.1,3.4,6.9,3.9,11.1c0.1,1,0.2,2.1,0.2,3.2c-0.1,1.1,0,2.2-0.2,3.3
					c-0.2,2.2-0.9,4.4-1.8,6.5c-0.9,2.1-2.1,4.1-3.6,6c-1.5,1.8-3.3,3.5-5.2,4.9c-2,1.4-4.2,2.5-6.5,3.3c-2.4,0.7-4.8,1.1-7.3,1.2
					c-2.4-0.1-4.9-0.4-7.3-1.1c-2.3-0.8-4.5-1.9-6.5-3.2c-2-1.4-3.7-3.1-5.2-4.9c-1.4-1.9-2.7-3.9-3.6-6c-1.8-4.3-2.3-8.8-1.9-13
					c0.5-4.2,2-8,3.9-11.1c2-3.1,4.5-5.5,6.9-7.1c2.5-1.7,4.9-2.6,7-3.3c0.5-0.1,1-0.3,1.5-0.4c0.5-0.1,0.9-0.2,1.3-0.2
					c0.8-0.1,1.5-0.2,2.1-0.2C81.3,85.5,81.9,85.5,81.9,85.5z M81.9,85.5c0,0-0.6,0-1.8,0.1c-0.6,0-1.3,0.1-2.1,0.3
					c-0.4,0.1-0.9,0.1-1.3,0.2c-0.5,0.1-0.9,0.3-1.5,0.4c-2,0.6-4.5,1.6-6.9,3.3c-2.4,1.7-4.9,4-6.8,7.2c-1.9,3.1-3.4,6.9-3.8,11
					c-0.4,4.2,0.2,8.6,1.9,12.8c0.9,2.1,2.1,4.1,3.6,5.9c1.5,1.8,3.2,3.4,5.2,4.8c2,1.3,4.1,2.4,6.4,3.1c2.3,0.7,4.7,1,7.1,1.1
					c2.4,0,4.8-0.4,7.1-1.1c2.3-0.8,4.4-1.8,6.4-3.1c1.9-1.4,3.7-3,5.2-4.8c1.4-1.8,2.6-3.8,3.5-5.9c1.8-4.2,2.3-8.7,1.9-12.8
					c-0.5-4.2-1.9-7.9-3.8-11c-1.9-3.1-4.4-5.4-6.8-7.1c-2.4-1.7-4.9-2.7-6.9-3.3c-0.5-0.1-1-0.3-1.5-0.4c-0.5-0.1-0.9-0.2-1.3-0.2
					c-0.8-0.1-1.5-0.3-2.1-0.3C82.5,85.5,81.9,85.5,81.9,85.5z"/>
			</g>
			<ellipse cx="81.5" cy="107.9" rx="3.8" ry="7.1"/>
			<ellipse cx="99.3" cy="110.7" rx="1.9" ry="4.6"/>
			<g>
				<polygon class="st4" points="77.4,106.9 80.6,106.3 77.7,102.8 				"/>
			</g>
			<g>
				<polygon class="st4" points="95.8,110.7 99,110.1 96.1,106.6 				"/>
			</g>
			<g>
				<path d="M84.4,99.4c0,0-0.5-0.6-1.3-1.4c-0.4-0.4-0.9-0.9-1.4-1.4c-0.5-0.5-1-1-1.6-1.5c-0.6-0.5-1.2-0.9-1.8-1
					c-0.3,0-0.6,0-0.7,0.2c-0.2,0.2-0.3,0.5-0.4,0.7c-0.1,0.3-0.1,0.5-0.2,0.7c0,0.2-0.1,0.4-0.1,0.6c0,0.3-0.1,0.5-0.1,0.5
					s0-0.2-0.1-0.5c0-0.3-0.1-0.8,0.1-1.4c0.1-0.3,0.1-0.6,0.4-0.9c0.2-0.3,0.7-0.5,1.1-0.4c0.8,0.1,1.5,0.6,2.1,1.1
					c1.2,1,2.2,2.3,2.9,3.2C84,98.8,84.4,99.4,84.4,99.4z"/>
			</g>
			<g>
				<path d="M96.3,104.3c0,0,0.3,0.5,0.8,0.8c0.3,0.1,0.6,0.1,0.9-0.2c0.1-0.1,0.3-0.3,0.4-0.5c0.1-0.2,0.3-0.4,0.4-0.6
					c0.3-0.4,0.7-0.7,1.1-0.9c0.4-0.2,0.9-0.3,1.3-0.3c0.4,0,0.7,0.2,0.8,0.3c0.2,0.1,0.3,0.2,0.3,0.2s-0.1,0-0.3-0.1
					c-0.2-0.1-0.5-0.1-0.8-0.1c-0.3,0-0.7,0.2-1,0.4c-0.3,0.2-0.7,0.5-1,0.8c-0.2,0.2-0.3,0.3-0.4,0.5c-0.2,0.2-0.3,0.4-0.5,0.5
					c-0.2,0.2-0.5,0.3-0.7,0.3c-0.3,0-0.5-0.1-0.7-0.2c-0.3-0.2-0.4-0.5-0.5-0.7C96.3,104.4,96.3,104.3,96.3,104.3z"/>
			</g>
			<g>
				<ellipse class="st5" cx="92.4" cy="119.3" rx="3.9" ry="2.8"/>
				<path d="M88.5,119.3c0,0,0-0.1,0-0.2c0-0.2,0-0.4,0.2-0.6c0-0.1,0.1-0.3,0.2-0.4c0.1-0.1,0.2-0.3,0.4-0.4
					c0.3-0.3,0.7-0.5,1.1-0.8c0.2-0.1,0.5-0.2,0.7-0.3c0.3-0.1,0.5-0.1,0.8-0.2c0.6-0.1,1.2,0,1.8,0.1c0.6,0.2,1.3,0.4,1.8,0.9
					c0.5,0.5,0.9,1.1,0.9,1.9l-0.1,0.5c0,0.2-0.1,0.4-0.2,0.5c-0.1,0.2-0.2,0.3-0.3,0.5c-0.1,0.1-0.2,0.3-0.4,0.4
					c-0.5,0.5-1.2,0.7-1.8,0.9c-0.6,0.1-1.2,0.2-1.8,0.1c-0.3,0-0.6-0.1-0.8-0.2c-0.3-0.1-0.5-0.2-0.7-0.3c-0.5-0.2-0.8-0.5-1.1-0.8
					c-0.2-0.1-0.3-0.3-0.4-0.4c-0.1-0.1-0.2-0.3-0.2-0.4c-0.1-0.3-0.2-0.5-0.2-0.6C88.5,119.4,88.5,119.3,88.5,119.3z M88.5,119.3
					c0,0,0,0.1,0,0.2c0,0.2,0,0.4,0.2,0.6c0,0.1,0.1,0.3,0.2,0.4c0.1,0.1,0.2,0.3,0.4,0.4c0.3,0.3,0.7,0.5,1.1,0.7
					c0.2,0.1,0.5,0.2,0.7,0.2c0.2,0.1,0.5,0.1,0.8,0.1c0.5,0,1.1-0.1,1.7-0.2c0.5-0.2,1.1-0.5,1.5-0.9c0.4-0.4,0.7-0.9,0.7-1.5
					c0-0.6-0.3-1.1-0.7-1.5c-0.4-0.4-1-0.7-1.5-0.9c-0.5-0.2-1.2-0.3-1.7-0.2c-0.3,0-0.5,0-0.8,0.1c-0.3,0-0.5,0.1-0.7,0.2
					c-0.5,0.2-0.8,0.4-1.1,0.7c-0.2,0.1-0.3,0.3-0.4,0.4c-0.1,0.1-0.2,0.3-0.2,0.4c-0.1,0.3-0.2,0.5-0.2,0.6
					C88.5,119.2,88.5,119.3,88.5,119.3z"/>
			</g>
			<g>
				<path class="st6" d="M59.1,102.3c0,0,5.2-5,11.6-5.4l-1.6-2.6c0,0-0.9-3.1,1.2-5c0,0,17.1,5.4,23.4,5.7c0,0,3.8,0.7,6.3-1.3
					c0,0,1.6,1.9,2.2,2.9v1.3l1.2,0.6c0,0,0.8,1.5,1.2,2.6c0,0,1.5-6.7,0.4-13l-5.6-5.6c0,0-1.7-13.2-16.2-17.7
					c0,0-2.9-4.1-17.5-3.7c0,0-2.2,0.3-6.5-1.8c0,0,1.5,0.8,2.4,3s1.8,5,2.6,6.2l-2.9,3.7c0,0,2.2,1.9,3.5,4.7c0,0-8.8,2.3-15.5,9.9
					c0,0,4.5,1.3,7.9,15.1C57.1,101.9,57.3,101.8,59.1,102.3z"/>
				<path d="M59.1,102.3c0.8-0.7,1.6-1.4,2.5-2c0.9-0.6,1.8-1.2,2.8-1.7c0.5-0.3,1-0.5,1.5-0.7c0.2-0.1,0.5-0.2,0.8-0.3
					c0.3-0.1,0.5-0.2,0.8-0.3c0.5-0.2,1.1-0.3,1.6-0.4c0.5-0.1,1.1-0.1,1.6-0.2L70.7,97L69,94.4l0,0l0,0c-0.2-0.9-0.3-1.9-0.1-2.8
					c0-0.2,0.1-0.5,0.2-0.7c0.1-0.2,0.2-0.4,0.3-0.6c0.2-0.4,0.5-0.8,0.9-1.1l0.1-0.1l0.1,0c3.8,1.2,7.7,2.3,11.6,3.3
					c1.9,0.5,3.9,1,5.9,1.4c1,0.2,2,0.4,2.9,0.6c1,0.2,2,0.3,3,0.4l0,0l0,0c1,0.2,2.1,0.1,3.2,0c0.5-0.1,1-0.2,1.5-0.4
					c0.2-0.1,0.5-0.2,0.7-0.4c0.2-0.1,0.4-0.3,0.7-0.4l0.2-0.1l0.1,0.1c0.8,1,1.5,1.9,2.2,2.9l0,0l0,0.1l0,1.3l-0.1-0.2l1.1,0.6l0,0
					l0,0c0.2,0.4,0.4,0.9,0.7,1.3c0.2,0.4,0.4,0.9,0.6,1.3l-0.3,0c0.4-2.1,0.7-4.3,0.8-6.5c0.1-2.2,0-4.4-0.3-6.5l0,0.1
					c-1.9-1.9-3.7-3.7-5.6-5.6l0,0l0,0c-0.2-1-0.5-2-0.8-3c-0.3-1-0.8-1.9-1.2-2.9c-1-1.9-2.2-3.6-3.6-5.1c-1.4-1.5-3.1-2.8-4.9-3.9
					c-0.9-0.5-1.8-1-2.8-1.4c-1-0.4-1.9-0.8-2.9-1.1l-0.1,0L83,64.9c-0.2-0.2-0.5-0.5-0.8-0.7c-0.3-0.2-0.6-0.4-1-0.6
					c-0.7-0.3-1.4-0.6-2.1-0.9c-0.7-0.2-1.4-0.4-2.2-0.6c-0.4-0.1-0.7-0.2-1.1-0.2l-1.1-0.2c-0.4-0.1-0.8-0.1-1.1-0.1
					c-0.4,0-0.8-0.1-1.1-0.1c-0.8,0-1.5-0.1-2.3-0.1c-0.8,0-1.5-0.1-2.3,0l-2.3,0l0,0c-0.3,0-0.6,0-0.9,0c-0.3,0-0.6-0.1-0.9-0.1
					c-0.6-0.1-1.1-0.2-1.7-0.4c-0.6-0.2-1.1-0.4-1.6-0.6l-1.6-0.7l0.3-0.5c0.4,0.3,0.8,0.6,1.1,0.9c0.3,0.3,0.6,0.7,0.8,1.1
					c0.3,0.4,0.4,0.8,0.6,1.2l0.5,1.2l1,2.5c0.3,0.8,0.7,1.7,1.1,2.4l0.1,0.2l-0.1,0.2l-2.9,3.7l0-0.4c0.4,0.3,0.7,0.7,1.1,1.1
					c0.2,0.2,0.3,0.4,0.5,0.6c0.2,0.2,0.3,0.4,0.5,0.6c0.3,0.4,0.6,0.8,0.9,1.2c0.3,0.4,0.5,0.9,0.7,1.3l0.2,0.3l-0.4,0.1
					c-1.5,0.4-2.9,1-4.3,1.6c-1.4,0.6-2.8,1.4-4.1,2.2c-0.7,0.4-1.3,0.8-1.9,1.3c-0.6,0.5-1.2,0.9-1.8,1.4c-0.6,0.5-1.2,1-1.7,1.5
					c-0.6,0.5-1.1,1.1-1.6,1.6l-0.1-0.3c0.4,0.2,0.7,0.4,1,0.6c0.3,0.2,0.6,0.5,0.8,0.8c0.5,0.5,1,1.1,1.4,1.7
					c0.2,0.3,0.4,0.6,0.6,0.9c0.2,0.3,0.4,0.6,0.5,1c0.4,0.6,0.6,1.3,0.9,2l0.4,1c0.1,0.3,0.3,0.7,0.4,1c0.2,0.7,0.5,1.4,0.7,2.1
					c0.2,0.7,0.4,1.4,0.6,2.1l0.5,2.1l-0.1,0c0.1,0,0.1,0,0.2,0l0.1,0c0.1,0,0.2,0,0.3,0c0.2,0,0.3,0.1,0.5,0.1
					C58.5,102.1,58.8,102.2,59.1,102.3z M59.1,102.3c-0.3-0.1-0.7-0.2-1-0.3c-0.2,0-0.3-0.1-0.5-0.1c-0.1,0-0.2,0-0.3,0l-0.1,0
					c0,0-0.1,0-0.1,0l-0.1,0l-0.6-2.1c-0.2-0.7-0.4-1.4-0.6-2.1c-0.2-0.7-0.5-1.4-0.7-2.1c-0.1-0.3-0.3-0.7-0.4-1l-0.4-1
					c-0.3-0.7-0.6-1.3-1-1.9c-0.2-0.3-0.3-0.6-0.5-0.9c-0.2-0.3-0.4-0.6-0.6-0.9c-0.4-0.6-0.8-1.2-1.3-1.7c-0.2-0.3-0.5-0.5-0.8-0.7
					c-0.3-0.2-0.6-0.4-0.9-0.5l-0.3-0.1l0.2-0.2c0.5-0.6,1.1-1.2,1.6-1.7c0.6-0.5,1.1-1.1,1.7-1.6c0.6-0.5,1.2-1,1.8-1.5
					c0.6-0.4,1.3-0.9,1.9-1.3c1.3-0.8,2.7-1.6,4.1-2.3c1.4-0.7,2.9-1.3,4.4-1.7L64.6,77c-0.2-0.4-0.4-0.9-0.7-1.3
					c-0.2-0.4-0.5-0.8-0.8-1.2c-0.1-0.2-0.3-0.4-0.5-0.6c-0.2-0.2-0.3-0.4-0.5-0.5c-0.3-0.4-0.7-0.7-1-1l-0.2-0.2l0.2-0.2l2.9-3.7
					l0,0.3c-0.5-0.8-0.8-1.6-1.1-2.5l-1-2.5l-0.5-1.2c-0.2-0.4-0.4-0.8-0.6-1.1c-0.2-0.4-0.5-0.7-0.8-1c-0.3-0.3-0.6-0.6-0.9-0.8
					l0.3-0.5l1.5,0.7c0.5,0.2,1,0.4,1.6,0.6c0.5,0.2,1.1,0.3,1.6,0.4c0.3,0,0.5,0.1,0.8,0.1l0.4,0c0.1,0,0.3,0,0.4,0l0,0l0,0l2.3,0
					c0.8,0,1.5,0,2.3,0.1c0.8,0,1.5,0.1,2.3,0.1c0.4,0,0.8,0.1,1.1,0.1c0.4,0,0.8,0.1,1.1,0.1l1.1,0.2c0.4,0.1,0.8,0.2,1.1,0.2
					c0.8,0.2,1.5,0.4,2.2,0.6c0.7,0.2,1.5,0.5,2.1,0.9c0.3,0.2,0.7,0.4,1,0.6c0.3,0.2,0.6,0.5,0.9,0.8l-0.1-0.1c1,0.3,2,0.7,3,1.1
					c1,0.4,1.9,0.9,2.8,1.5c1.8,1.1,3.5,2.5,4.9,4c1.4,1.6,2.6,3.3,3.6,5.2c0.5,0.9,0.9,1.9,1.2,2.9c0.3,1,0.6,2,0.8,3.1l0-0.1
					c1.9,1.9,3.7,3.7,5.6,5.6l0,0l0,0c0.3,2.2,0.5,4.4,0.4,6.6c-0.1,2.2-0.3,4.4-0.7,6.5l-0.1,0.5l-0.2-0.5
					c-0.2-0.4-0.4-0.9-0.6-1.3c-0.2-0.4-0.4-0.9-0.7-1.3l0.1,0.1l-1.2-0.6l-0.1-0.1l0-0.1l0-1.3l0,0.1c-0.7-1-1.5-1.9-2.2-2.9l0.3,0
					c-0.2,0.2-0.4,0.4-0.7,0.5c-0.2,0.2-0.5,0.3-0.8,0.4c-0.5,0.2-1.1,0.4-1.6,0.5c-1.1,0.2-2.2,0.2-3.4,0.1l0,0c-1-0.1-2-0.2-3-0.3
					c-1-0.2-2-0.3-3-0.6c-2-0.4-3.9-0.9-5.9-1.4c-3.9-1-7.7-2.2-11.6-3.4l0.2,0c-0.3,0.3-0.6,0.6-0.8,1c-0.1,0.2-0.2,0.4-0.3,0.6
					c-0.1,0.2-0.1,0.4-0.2,0.6c-0.2,0.9-0.1,1.8,0.1,2.6l0,0l1.6,2.6L71,97l-0.3,0c-0.5,0.1-1.1,0.1-1.6,0.2
					c-0.5,0.1-1.1,0.2-1.6,0.4c-0.3,0.1-0.5,0.2-0.8,0.2c-0.3,0.1-0.5,0.2-0.8,0.3c-0.5,0.2-1,0.4-1.5,0.6c-1,0.5-1.9,1-2.8,1.6
					C60.9,100.9,60,101.6,59.1,102.3L59.1,102.3L59.1,102.3z"/>
			</g>
			<g>
				<path class="st4" d="M60.6,104.8c0,0-0.5-3-3-3c-2.5,0-4.3,3.5-4.2,6.3c0.1,2.8,0.8,8.6,5.3,9.7c0,0,1,0.1,2-0.7"/>
				<path d="M60.6,104.8c-0.3-1-0.8-2-1.6-2.5c-0.4-0.2-0.9-0.4-1.4-0.4c-0.5,0-0.9,0.2-1.4,0.4c-0.4,0.3-0.8,0.6-1.1,1
					c-0.3,0.4-0.6,0.8-0.8,1.3c-0.4,0.9-0.7,1.9-0.7,2.9c0,0.5,0,1,0.1,1.5c0,0.5,0.1,1,0.2,1.5c0.1,0.5,0.2,1,0.3,1.5
					c0.1,0.5,0.3,1,0.4,1.4c0.2,0.5,0.4,0.9,0.6,1.4l0.4,0.6l0.5,0.6c0.2,0.2,0.4,0.4,0.5,0.5c0.2,0.1,0.4,0.3,0.6,0.4
					c0.2,0.1,0.4,0.2,0.7,0.4l0.7,0.3l0,0c0.2,0,0.3,0,0.5,0c0.2,0,0.3-0.1,0.5-0.1c0.2,0,0.3-0.1,0.5-0.2l0.5-0.2l-0.5,0.3
					c-0.2,0.1-0.3,0.2-0.5,0.2c-0.2,0.1-0.3,0.1-0.5,0.2c-0.2,0-0.4,0.1-0.5,0.1h0l0,0l-0.8-0.2c-0.2-0.1-0.5-0.2-0.7-0.3
					c-0.2-0.1-0.4-0.3-0.7-0.4c-0.2-0.2-0.4-0.3-0.6-0.5l-0.5-0.6l-0.5-0.7l-0.4-0.7l-0.3-0.7c-0.2-0.5-0.4-1-0.5-1.5
					c-0.1-0.5-0.2-1-0.3-1.5c-0.1-0.5-0.2-1-0.2-1.6c-0.1-0.5-0.1-1,0-1.6c0.1-1.1,0.4-2.1,0.8-3.1c0.5-1,1.1-1.9,2.1-2.4
					c0.5-0.3,1.1-0.4,1.6-0.4c0.6,0,1.1,0.2,1.6,0.5C60,102.8,60.4,103.8,60.6,104.8z"/>
			</g>
			<g>
				<path d="M82.7,64.1c0,0,0.2,0.1,0.6,0.4c0.2,0.1,0.4,0.3,0.6,0.5c0.2,0.2,0.5,0.4,0.8,0.7c0.3,0.3,0.6,0.6,0.9,0.9
					c0.3,0.3,0.6,0.7,0.9,1.1c0.3,0.4,0.6,0.8,0.9,1.2c0.3,0.4,0.6,0.9,0.9,1.3c0.3,0.4,0.6,0.9,0.8,1.3c0.2,0.4,0.5,0.9,0.7,1.3
					c0.2,0.4,0.5,0.8,0.7,1.2c0.2,0.4,0.3,0.8,0.5,1.1c0.6,1.4,1,2.4,1,2.4s-0.4-0.9-1.1-2.3c-0.2-0.3-0.4-0.7-0.5-1.1
					c-0.2-0.4-0.5-0.8-0.7-1.2c-0.2-0.4-0.5-0.8-0.8-1.3c-0.2-0.4-0.6-0.9-0.9-1.3c-0.3-0.4-0.6-0.8-0.9-1.2
					c-0.3-0.4-0.6-0.8-0.9-1.1c-0.3-0.4-0.6-0.7-0.9-1c-0.3-0.3-0.6-0.6-0.9-0.9c-0.3-0.3-0.6-0.5-0.8-0.7c-0.2-0.2-0.4-0.4-0.6-0.5
					c-0.3-0.3-0.6-0.4-0.6-0.4L82.7,64.1z"/>
			</g>
			<g>
				<path class="st6" d="M85.2,72.1c11.4,16.2,7.9,22.8,7.9,22.8"/>
				<path d="M85.2,72.1c0,0,0.2,0.3,0.6,0.9c0.2,0.3,0.4,0.6,0.7,1c0.3,0.4,0.6,0.8,0.9,1.3c0.3,0.5,0.7,1,1,1.6
					c0.4,0.6,0.7,1.2,1.1,1.8c0.3,0.6,0.8,1.3,1.1,2c0.3,0.7,0.7,1.4,1,2.1c0.3,0.7,0.6,1.4,0.9,2.2c0.3,0.7,0.5,1.4,0.7,2.2
					c0.2,0.7,0.4,1.4,0.4,2.1c0.1,0.7,0.1,1.3,0.2,1.9c0,0.6,0,1.1-0.1,1.6c-0.1,0.5-0.1,0.9-0.2,1.2c-0.2,0.7-0.4,1-0.4,1l-0.1,0
					c0,0,0.1-0.4,0.2-1c0.1-0.3,0.1-0.7,0.1-1.2c0-0.5,0-1-0.1-1.6c-0.1-0.6-0.1-1.2-0.3-1.8c-0.1-0.3-0.1-0.7-0.2-1
					c-0.1-0.3-0.2-0.7-0.3-1c-0.2-0.7-0.4-1.4-0.6-2.1c-0.2-0.7-0.5-1.4-0.8-2.2c-0.3-0.7-0.6-1.4-0.9-2.1c-0.3-0.7-0.7-1.3-1-2
					c-0.6-1.3-1.4-2.4-2-3.5c-0.3-0.5-0.6-0.9-0.8-1.3c-0.3-0.4-0.5-0.7-0.7-1C85.4,72.5,85.2,72.2,85.2,72.1L85.2,72.1z"/>
			</g>
			<g>
				<path d="M93.5,94.8c0,0,0.1-0.2,0.2-0.5c0.1-0.2,0.1-0.4,0.2-0.6c0.1-0.3,0.2-0.5,0.2-0.9c0.1-0.3,0.1-0.7,0.2-1.1
					c0-0.4,0-0.8,0-1.2c0-0.4,0-0.9,0-1.3c0-0.4-0.1-0.9-0.1-1.3c0-0.5-0.1-0.9-0.2-1.3c-0.1-0.4-0.2-0.9-0.2-1.3
					c-0.1-0.4-0.1-0.8-0.2-1.2c-0.1-0.4-0.2-0.7-0.3-1.1c-0.4-1.3-0.6-2.2-0.6-2.2s0.3,0.9,0.7,2.1c0.1,0.3,0.2,0.7,0.3,1
					c0.1,0.4,0.2,0.8,0.3,1.2c0.1,0.4,0.2,0.8,0.3,1.3c0.1,0.4,0.2,0.9,0.2,1.3c0.1,0.5,0.1,0.9,0.2,1.4c0.1,0.4,0.1,0.9,0.1,1.3
					c0,0.4,0,0.8,0,1.2c0,0.4-0.1,0.8-0.1,1.1c0,0.3-0.1,0.7-0.2,0.9c-0.1,0.3-0.1,0.5-0.2,0.7c-0.1,0.4-0.3,0.6-0.3,0.6L93.5,94.8z
					"/>
			</g>
			<g>
				<path d="M65.1,76.7c0,0,0.6,1.2,1.1,2.4c0.3,0.6,0.5,1.2,0.7,1.7c0.2,0.5,0.3,0.8,0.3,0.8s-0.1-0.3-0.4-0.7
					c-0.2-0.5-0.5-1-0.9-1.6c-0.7-1.1-1.4-2.3-1.4-2.3L65.1,76.7z"/>
			</g>
			<g>
				<path d="M61.2,103.1c0,0,1.7-1.5,3.6-2.6c0.5-0.3,1-0.6,1.5-0.8c0.5-0.2,1-0.3,1.4-0.4c0.2,0,0.4,0,0.6,0c0.2,0,0.3,0,0.5,0
					c0.3,0.1,0.4,0.1,0.4,0.1l0,0.1c0,0-0.1,0-0.4,0.1c-0.2,0-0.6,0.1-0.9,0.2c-0.2,0.1-0.4,0.1-0.6,0.2c-0.2,0.1-0.4,0.2-0.7,0.3
					c-0.5,0.2-1,0.4-1.5,0.6C63,101.9,61.2,103.2,61.2,103.1L61.2,103.1z"/>
			</g>
			<g>
				<path class="st4" d="M61.7,104.8c0,0,2.6-1.8,4.7-2.5"/>
				<path d="M61.7,104.8c0,0,0.3-0.2,0.7-0.5c0.2-0.2,0.4-0.3,0.7-0.5c0.3-0.2,0.5-0.4,0.8-0.5c0.3-0.2,0.6-0.4,0.8-0.5
					c0.3-0.1,0.6-0.2,0.8-0.3c0.5-0.1,0.9-0.1,0.9-0.1l0,0.1c0,0-0.3,0.2-0.7,0.5c-0.2,0.1-0.5,0.3-0.7,0.4
					c-0.3,0.1-0.6,0.3-0.9,0.4c-0.3,0.1-0.6,0.3-0.9,0.4c-0.3,0.1-0.5,0.3-0.8,0.4C62,104.7,61.8,104.8,61.7,104.8L61.7,104.8z"/>
			</g>
			<g>
				<line class="st4" x1="62.1" y1="106.2" x2="64.1" y2="105.5"/>
				<path d="M62.1,106.1c0,0,0.4-0.3,0.9-0.5c0.1-0.1,0.2-0.1,0.3-0.2c0.1,0,0.2,0,0.3,0c0.2,0,0.4,0.1,0.4,0.1l0,0.1
					c0,0-0.1,0.2-0.2,0.3c-0.1,0.1-0.2,0.1-0.3,0.2c-0.1,0-0.3,0-0.4,0.1C62.7,106.1,62.1,106.2,62.1,106.1L62.1,106.1z"/>
			</g>
			<g>
				<path class="st4" d="M70.2,122.3c0,0,2.1-2.5,4.7-2.1"/>
				<path d="M70.2,122.3c0,0,0.1-0.3,0.5-0.7c0.2-0.2,0.4-0.4,0.6-0.6c0.2-0.2,0.5-0.4,0.9-0.6c0.3-0.1,0.6-0.3,1-0.3
					c0.2,0,0.3-0.1,0.5-0.1c0.2,0,0.3,0,0.4,0c0.5,0,0.8,0.2,0.8,0.2c0,0-0.1,0-0.2,0c-0.1,0-0.3,0.1-0.6,0.1
					c-0.2,0-0.5,0.1-0.8,0.2c-0.3,0.1-0.6,0.2-0.8,0.4c-0.6,0.3-1.1,0.6-1.5,0.9C70.5,122.1,70.2,122.3,70.2,122.3z"/>
			</g>
			<g>
				<path d="M72.3,120.7c0,0,0.1,0.3,0.4,0.9c0.2,0.3,0.3,0.6,0.6,1c0.2,0.4,0.5,0.8,0.9,1.2c0.4,0.4,0.7,0.9,1.2,1.2
					c0.4,0.4,1,0.8,1.5,1.2c0.5,0.4,1.2,0.7,1.8,1.1c0.7,0.3,1.3,0.6,2,0.8c0.7,0.2,1.4,0.5,2.1,0.6c0.7,0.1,1.4,0.3,2,0.4
					c0.7,0.1,1.3,0.2,1.9,0.3c0.6,0,1.2,0.1,1.7,0.1c0.5,0.1,1,0.1,1.5,0.1c0.4,0,0.8,0,1.1,0c0.6,0,1,0,1,0l0,0.1c0,0-0.4,0-1,0.1
					c-0.3,0-0.7,0.1-1.1,0.1c-0.4,0-0.9,0.1-1.5,0.1c-0.5,0-1.1,0-1.8,0c-0.6,0-1.3-0.1-2-0.2c-0.7-0.1-1.4-0.3-2.1-0.4
					c-0.7-0.1-1.4-0.4-2.1-0.7c-0.7-0.2-1.3-0.6-2-0.9c-0.6-0.4-1.2-0.7-1.8-1.1c-0.5-0.4-1.1-0.8-1.5-1.3c-0.5-0.4-0.8-0.9-1.2-1.3
					c-0.3-0.4-0.6-0.8-0.8-1.2c-0.2-0.4-0.4-0.7-0.5-1C72.3,121.1,72.2,120.8,72.3,120.7L72.3,120.7z"/>
			</g>
		</g>
		<g>
			<g>
				<path class="st7" d="M65.1,129.7c0,0,3.7-3.5,5.8-1.2c2.1,2.3,1,4,0.3,4.9c-0.7,0.9-8.8,8.3-9.2,9.8c0,0-4.9-2.3-7.6,0
					C54.5,143.2,55.7,137.8,65.1,129.7z"/>
				<path d="M65.1,129.7c0.8-0.7,1.7-1.3,2.7-1.8c0.5-0.2,1-0.3,1.6-0.3c0.6,0,1.1,0.2,1.5,0.6c0.2,0.2,0.4,0.4,0.6,0.6
					c0.2,0.2,0.3,0.4,0.5,0.7c0.1,0.3,0.3,0.5,0.3,0.8c0.1,0.3,0.2,0.6,0.1,0.9c0,0.6-0.2,1.2-0.4,1.6c-0.3,0.5-0.6,0.9-1,1.3
					c-1.5,1.5-3.1,2.9-4.7,4.4c-0.8,0.7-1.5,1.5-2.2,2.3c-0.4,0.4-0.7,0.8-1,1.2c-0.3,0.4-0.7,0.8-0.8,1.3l-0.1,0.2l-0.2-0.1
					c-1.2-0.5-2.5-0.8-3.8-0.9c-0.3,0-0.6,0-1,0c-0.3,0-0.6,0.1-0.9,0.1c-0.2,0-0.3,0.1-0.4,0.1c-0.2,0-0.3,0.1-0.4,0.2
					c-0.1,0.1-0.3,0.1-0.4,0.2l-0.4,0.3l-0.7,0.5l0.2-0.8c0.1-0.4,0.2-0.7,0.4-1.1l0.4-1c0.2-0.3,0.4-0.6,0.5-1
					c0.2-0.3,0.3-0.6,0.6-0.9l1.2-1.8c0.5-0.6,0.9-1.1,1.4-1.7c0.2-0.3,0.5-0.6,0.7-0.8l0.8-0.8l1.6-1.5
					C63,131.6,64,130.7,65.1,129.7z M65.2,129.8c-1.1,1-2.1,2-3.1,3l-1.4,1.6l-0.7,0.8c-0.3,0.3-0.5,0.6-0.7,0.8
					c-0.4,0.6-0.9,1.1-1.3,1.7l-1.2,1.8c-0.2,0.3-0.4,0.6-0.5,0.9c-0.2,0.3-0.4,0.6-0.5,0.9l-0.4,1c-0.1,0.3-0.3,0.7-0.3,1l-0.5-0.3
					l0.4-0.3c0.1-0.1,0.3-0.2,0.5-0.3c0.2-0.1,0.3-0.2,0.5-0.2c0.2,0,0.3-0.1,0.5-0.1c0.3-0.1,0.7-0.1,1-0.1c0.3,0,0.7,0,1,0
					c1.4,0.1,2.7,0.5,3.9,1.1l-0.2,0.1c0.2-0.6,0.6-0.9,0.9-1.4l1.1-1.2c0.7-0.8,1.5-1.5,2.2-2.3c1.5-1.5,3-3,4.4-4.6
					c0.4-0.4,0.7-0.8,0.9-1.2c0.2-0.4,0.4-0.9,0.4-1.4c0-0.2,0-0.5-0.1-0.7c0-0.2-0.2-0.5-0.3-0.7c-0.1-0.2-0.3-0.4-0.4-0.6
					c-0.2-0.2-0.3-0.4-0.5-0.6c-0.7-0.8-1.9-0.8-2.8-0.4C66.9,128.4,66,129.1,65.2,129.8z"/>
			</g>
			<g>
				<path class="st7" d="M58.3,138c0,0,3.5-0.7,5.8,1.8"/>
				<path d="M58.3,138c0,0,0.4-0.2,1-0.3c0.3,0,0.7-0.1,1-0.1c0.4,0,0.8,0.1,1.2,0.2c0.4,0.1,0.8,0.3,1.1,0.5
					c0.3,0.2,0.6,0.4,0.8,0.6c0.2,0.2,0.4,0.4,0.5,0.6c0.1,0.1,0.1,0.2,0.1,0.2s-0.1-0.1-0.2-0.2c-0.1-0.1-0.3-0.2-0.6-0.4
					c-0.2-0.2-0.5-0.3-0.9-0.4c-0.3-0.1-0.7-0.3-1-0.4c-0.4-0.1-0.7-0.2-1.1-0.3c-0.4-0.1-0.7-0.1-1-0.1C58.7,138,58.3,138,58.3,138
					z"/>
			</g>
			<g>
				<path class="st4" d="M62.1,143.2c0,0,0.7,2.1,11.9,2.3c0,0,0.9,0.9,0.9,3.1s-1,3-1,3l-13.3-0.4c0,0-7.7-1.4-6-7.9
					C54.5,143.2,56.7,140.7,62.1,143.2z"/>
				<path d="M62.1,143.2c0.1,0.2,0.3,0.4,0.6,0.5c0.2,0.1,0.5,0.2,0.7,0.3c0.5,0.2,1,0.3,1.5,0.4c1,0.2,2,0.4,3,0.5
					c2,0.2,4.1,0.3,6.1,0.3h0.1l0.1,0.1c0.2,0.2,0.4,0.5,0.5,0.8c0.1,0.3,0.2,0.5,0.3,0.8c0.1,0.3,0.1,0.6,0.2,0.8
					c0,0.3,0,0.6,0.1,0.8c0,0.2,0,0.3,0,0.4l0,0.4c-0.1,0.3-0.1,0.6-0.2,0.9c-0.1,0.3-0.2,0.6-0.3,0.8c-0.2,0.3-0.3,0.5-0.6,0.7
					l-0.1,0.1l-0.1,0l-6.7-0.2l-6.7-0.2l0,0l0,0c-1-0.2-1.9-0.5-2.7-1c-0.9-0.4-1.7-1-2.3-1.8c-0.7-0.7-1.1-1.7-1.3-2.6
					c-0.2-1-0.1-2,0.2-2.9l0,0l0,0c0.3-0.3,0.6-0.5,0.9-0.6c0.3-0.2,0.6-0.3,1-0.3c0.3-0.1,0.7-0.1,1-0.1c0.3,0,0.7,0,1,0
					c0.3,0,0.7,0.1,1,0.2c0.3,0.1,0.6,0.2,1,0.3C60.9,142.7,61.5,143,62.1,143.2z M62.1,143.2c-0.6-0.3-1.2-0.5-1.9-0.7
					c-0.3-0.1-0.6-0.2-1-0.2c-0.3,0-0.7-0.1-1-0.1c-0.3,0-0.7,0-1,0c-0.3,0-0.6,0.1-1,0.2c-0.3,0.1-0.6,0.2-0.9,0.4
					c-0.3,0.1-0.6,0.3-0.8,0.6l0-0.1c-0.2,0.9-0.3,1.8-0.1,2.7c0.2,0.9,0.6,1.7,1.2,2.4c0.6,0.7,1.4,1.2,2.2,1.6
					c0.8,0.4,1.7,0.7,2.6,0.9l0,0l6.7,0.2l6.7,0.2l-0.2,0.1c0.1-0.1,0.2-0.2,0.2-0.2c0.1-0.1,0.1-0.2,0.2-0.3
					c0.1-0.2,0.2-0.5,0.3-0.7c0.1-0.2,0.1-0.5,0.2-0.7l0-0.4c0-0.1,0-0.3,0-0.4c0-0.3,0-0.5,0-0.8c0-0.3-0.1-0.5-0.1-0.8
					c-0.1-0.3-0.1-0.5-0.2-0.7c-0.1-0.2-0.2-0.5-0.4-0.6l0.2,0.1c-1,0-2.1-0.1-3.1-0.1c-1-0.1-2.1-0.2-3.1-0.3c-1-0.1-2-0.3-3-0.6
					c-0.5-0.1-1-0.3-1.5-0.5c-0.2-0.1-0.5-0.2-0.7-0.4C62.5,143.6,62.2,143.5,62.1,143.2z"/>
			</g>
			<g>
				<path class="st8" d="M74,145.5c0,0,0-1.6,2.1-1.6c2.1,0,3,3.6,3,3.6s0,3.1-0.6,4.4l-4.4-0.2C74.1,151.6,75.6,148.5,74,145.5z"/>
				<path d="M74,145.5c0-0.3,0.1-0.7,0.3-1c0.2-0.3,0.5-0.5,0.8-0.7c0.3-0.1,0.7-0.2,1-0.2c0.3,0,0.8,0.1,1.1,0.3
					c0.7,0.4,1.1,1,1.4,1.6c0.3,0.6,0.5,1.3,0.6,1.9l0,0v0c0,0.8-0.1,1.5-0.1,2.3c-0.1,0.7-0.1,1.5-0.4,2.3l0,0.1l-0.1,0
					c-1.5,0-3,0-4.5-0.1l-0.5,0l0.2-0.4c0.2-0.4,0.4-0.9,0.5-1.4c0.1-0.5,0.2-1,0.2-1.5c0-0.5,0-1-0.1-1.5c0-0.3-0.1-0.5-0.2-0.8
					C74.2,146,74,145.8,74,145.5L74,145.5L74,145.5z M74,145.5c0.3,0.4,0.5,0.9,0.7,1.4c0.2,0.5,0.3,1.1,0.3,1.6
					c0,0.5,0,1.1-0.1,1.6c-0.1,0.5-0.2,1.1-0.5,1.6l-0.3-0.5c1.5,0.1,3,0.2,4.4,0.3l-0.2,0.1c0.3-0.6,0.5-1.4,0.6-2.1
					c0.1-0.7,0.1-1.5,0.1-2.2l0,0c-0.2-0.6-0.5-1.2-0.8-1.8c-0.3-0.5-0.8-1-1.3-1.3c-0.3-0.2-0.5-0.2-0.8-0.2c-0.3,0-0.6,0-0.9,0.1
					c-0.3,0.1-0.6,0.2-0.8,0.5C74.2,144.9,74.1,145.2,74,145.5z"/>
			</g>
			<g>
				<path class="st8" d="M78.7,145.5c0,0,3.2,0.3,6.1,5.7l-6.1,0.7C78.7,151.9,80.2,149.3,78.7,145.5z"/>
				<path d="M78.7,145.5c0.7,0.1,1.4,0.4,2,0.7c0.6,0.4,1.2,0.8,1.7,1.3c0.5,0.5,1,1.1,1.4,1.6c0.4,0.6,0.8,1.2,1.2,1.8l0.2,0.4
					l-0.4,0.1c-1,0.1-2,0.3-3,0.4c-1,0.1-2,0.2-3.1,0.3l-0.5,0l0.2-0.4c0.1-0.2,0.2-0.5,0.3-0.7c0.1-0.3,0.2-0.5,0.2-0.8
					c0.1-0.5,0.2-1.1,0.2-1.6c0-0.5,0-1.1-0.1-1.6C79,146.5,78.8,146,78.7,145.5z M78.7,145.5c0.2,0.5,0.4,1,0.6,1.6
					c0.2,0.5,0.2,1.1,0.3,1.7c0,0.6,0,1.1-0.1,1.7c0,0.3-0.1,0.6-0.2,0.8c-0.1,0.3-0.2,0.5-0.3,0.8l-0.2-0.4c1-0.2,2-0.3,3-0.4
					c1-0.1,2-0.3,3-0.4l-0.2,0.4c-0.3-0.6-0.7-1.2-1.1-1.8c-0.4-0.6-0.8-1.1-1.3-1.7c-0.5-0.5-1-1-1.6-1.4
					C80,146,79.4,145.6,78.7,145.5z"/>
			</g>
			<g>
				<path class="st7" d="M69.2,145.1c0,0,4.2-6.2,4.7-10.1l-2.5-1.6c0,0-8.3,7.5-9.2,9.5C61.3,144.9,69.2,145.1,69.2,145.1z"/>
				<path d="M69.2,145.1c1-1.6,1.9-3.3,2.7-4.9c0.4-0.8,0.8-1.7,1.1-2.6c0.2-0.4,0.3-0.9,0.4-1.3c0.1-0.4,0.2-0.9,0.3-1.3l0.1,0.3
					l-2.5-1.6l0.3,0l-3.9,3.6c-1.3,1.2-2.5,2.5-3.7,3.8c-0.3,0.3-0.6,0.7-0.9,1c-0.3,0.3-0.6,0.7-0.7,1c-0.2,0.3,0,0.6,0.4,0.9
					c0.3,0.2,0.8,0.4,1.2,0.5C65.6,144.7,67.4,145,69.2,145.1z M69.2,145.1c-0.9,0-1.8,0-2.7-0.1c-0.9-0.1-1.8-0.2-2.6-0.4
					c-0.4-0.1-0.9-0.3-1.3-0.5c-0.2-0.1-0.4-0.3-0.6-0.5c-0.2-0.2-0.2-0.6,0-0.8c0.2-0.5,0.5-0.8,0.7-1.2c0.3-0.4,0.6-0.7,0.9-1
					c1.2-1.3,2.4-2.6,3.7-3.8c1.3-1.2,2.6-2.4,3.9-3.6l0.2-0.1l0.2,0.1l2.5,1.6l0.1,0.1l0,0.2c-0.1,0.5-0.2,1-0.3,1.4
					c-0.1,0.5-0.3,0.9-0.5,1.3c-0.3,0.9-0.8,1.7-1.2,2.6C71.3,142,70.3,143.6,69.2,145.1z"/>
			</g>
			<g>
				<path d="M71.2,134.7l-1.3,1.4l0-0.1l1.5,2.4l0.1,0.2l-0.2,0.1l-1.4,0.8l0.1-0.2c0,0.8,0,1.6-0.2,2.4c-0.1,0.4-0.1,0.8-0.3,1.2
					c-0.1,0.2-0.1,0.4-0.2,0.6c-0.1,0.2-0.2,0.4-0.3,0.5l-0.1,0c0-0.2,0.1-0.4,0.1-0.6l0.1-0.6c0-0.2,0-0.4,0-0.6c0-0.2,0-0.4,0-0.6
					c0-0.8,0.1-1.6,0.2-2.3l0-0.2l0.1-0.1l1.4-0.7l-0.1,0.3l-1.3-2.5l0-0.1l0.1-0.1L71.2,134.7L71.2,134.7z"/>
			</g>
			<g>
				<path class="st4" d="M73.5,137.5l1.4,3.8c0,0,2.4-0.5,5.3-3.3l1.1-2l-3.1-0.4l-4.1-1.1C74,134.5,74,136.1,73.5,137.5z"/>
				<path d="M73.5,137.5c0.6,1.2,1.1,2.5,1.6,3.8l-0.2-0.1c0.5-0.1,0.9-0.4,1.4-0.6c0.4-0.3,0.9-0.5,1.3-0.8
					c0.4-0.3,0.8-0.6,1.2-0.9c0.4-0.3,0.8-0.7,1.2-1l-0.1,0.1c0.3-0.7,0.7-1.3,1.1-2l0.2,0.4l-3.1-0.5l0,0l0,0
					c-1.4-0.4-2.7-0.8-4.1-1.2l0.2-0.1C74.1,135.5,73.9,136.5,73.5,137.5z M73.5,137.5c0.3-1,0.4-2,0.4-3l0-0.2l0.2,0
					c1.4,0.3,2.8,0.6,4.2,1l0,0l3.1,0.4l0.4,0.1l-0.2,0.4c-0.3,0.7-0.7,1.3-1.1,2l0,0l0,0c-0.4,0.3-0.8,0.7-1.2,1
					c-0.4,0.3-0.8,0.7-1.3,0.9c-0.4,0.3-0.9,0.6-1.4,0.8c-0.5,0.2-1,0.4-1.5,0.5l-0.2,0l-0.1-0.2C74.3,140.1,73.9,138.8,73.5,137.5z
					"/>
			</g>
			<g>
				<path d="M73.5,137.5l1.4,3.8c0,0,4.5-2.4,5.3-3.4c0,0-2.6,4.6-4.1,5.8c0,0-2.2-0.2-2.2,1.8l-4.8-0.4
					C69.2,145.1,73.5,137.7,73.5,137.5z"/>
				<path d="M73.5,137.4l1.5,3.9l-0.1,0c0.9-0.5,1.8-1.1,2.7-1.6c0.4-0.3,0.9-0.6,1.3-0.9l0.6-0.5c0.2-0.2,0.4-0.3,0.6-0.5l0.7-0.6
					l-0.5,0.8c-0.6,1-1.2,2-1.8,3c-0.3,0.5-0.7,1-1,1.5l-0.6,0.7c-0.2,0.2-0.4,0.4-0.6,0.7l-0.1,0.1l-0.1,0c-0.5,0-1,0.1-1.4,0.4
					c-0.4,0.3-0.5,0.7-0.5,1.2l0,0.3l-0.3,0c-1.6-0.1-3.2-0.2-4.8-0.4l-0.5,0l0.2-0.4l2.3-3.7l1.2-1.9
					C72.7,138.7,73.2,138.1,73.5,137.4L73.5,137.4z M73.5,137.5c-0.3,0.7-0.6,1.3-0.9,1.9l-1,1.9c-0.7,1.3-1.4,2.6-2.1,3.8l-0.2-0.5
					c1.6,0.1,3.2,0.3,4.8,0.4l-0.3,0.3c0-0.3,0.1-0.6,0.2-0.9c0.1-0.3,0.3-0.6,0.6-0.7c0.3-0.2,0.6-0.3,0.8-0.4
					c0.3-0.1,0.6-0.1,0.9-0.1l-0.2,0.1c0.2-0.2,0.4-0.4,0.6-0.6l0.6-0.7c0.3-0.5,0.7-0.9,1-1.4c0.7-1,1.3-2,1.9-3l0.3,0.2
					c-0.2,0.2-0.4,0.4-0.6,0.5l-0.7,0.5c-0.4,0.3-0.9,0.6-1.4,0.8c-0.9,0.5-1.8,1.1-2.8,1.5l-0.1,0l0-0.1L73.5,137.5z"/>
			</g>
			<g>
				<path class="st7" d="M86,135.9l-8.1,8.8c0,0,0.4-0.6-1.6-1.1c0,0,4.8-6.4,5.2-7.6c0,0,2.3,0.3,4.3-0.1"/>
				<path d="M86,136c-0.6,0.8-1.2,1.6-1.9,2.3c-0.7,0.8-1.3,1.5-2,2.2c-0.7,0.7-1.4,1.4-2.1,2.1c-0.7,0.7-1.4,1.4-2.1,2.2l-0.5,0.6
					l0.3-0.7c0,0,0-0.1,0-0.2c0-0.1-0.1-0.1-0.1-0.2c-0.1-0.1-0.3-0.2-0.4-0.3c-0.3-0.1-0.7-0.2-1-0.3l-0.2,0l0.1-0.2
					c0.9-1.3,1.7-2.5,2.6-3.8l1.3-1.9l0.6-1c0.2-0.3,0.4-0.6,0.6-0.9l0.1-0.2l0.2,0c1.4,0.2,2.9,0.2,4.3,0.1l0,0.1
					c-0.7,0.2-1.4,0.3-2.2,0.3c-0.7,0.1-1.5,0.1-2.2,0l0.3-0.2c-0.2,0.4-0.4,0.7-0.6,1.1l-0.6,1c-0.4,0.6-0.9,1.3-1.3,1.9
					c-0.9,1.2-1.8,2.5-2.8,3.7l-0.1-0.3c0.4,0.1,0.7,0.2,1,0.4c0.2,0.1,0.3,0.2,0.5,0.3c0.1,0.1,0.3,0.4,0.2,0.6l-0.2-0.1
					c0.7-0.7,1.4-1.5,2-2.2c0.6-0.8,1.3-1.5,1.9-2.3c0.7-0.7,1.4-1.5,2.1-2.2C84.5,137.3,85.2,136.6,86,136L86,136z"/>
			</g>
			<g>
				<polygon class="st7" points="87.3,150.9 89.4,150.5 93,149.4 86,135.9 81.3,141 				"/>
				<path d="M87.3,150.9l2.1-0.4l0,0c1.2-0.4,2.3-0.8,3.5-1.2l-0.1,0.2c-1.2-2.2-2.4-4.4-3.6-6.7c-1.2-2.2-2.4-4.5-3.5-6.7l0.5,0.1
					l-4.7,5.1l0-0.3l2.9,5C85.4,147.5,86.3,149.2,87.3,150.9z M87.3,150.9c-1-1.6-2.1-3.2-3.1-4.8l-3.1-4.9L81,141l0.1-0.1l4.6-5.1
					l0.3-0.3l0.2,0.4c1.2,2.2,2.3,4.5,3.5,6.7c1.2,2.2,2.3,4.5,3.4,6.8l0.1,0.2l-0.2,0.1c-1.2,0.4-2.4,0.7-3.6,1l0,0h0L87.3,150.9z"
					/>
			</g>
			<g>
				<path class="st7" d="M86.6,148.7c0,0,1.5-1.6,4.1-2"/>
				<path d="M86.6,148.7c0,0,0.1-0.3,0.4-0.6c0.2-0.2,0.3-0.3,0.6-0.5c0.2-0.2,0.5-0.3,0.8-0.5c0.3-0.1,0.5-0.2,0.8-0.3
					c0.3-0.1,0.5-0.1,0.8-0.1c0.5,0,0.7,0,0.7,0s-0.3,0.2-0.7,0.3c-0.2,0.1-0.4,0.2-0.7,0.3c-0.2,0.1-0.5,0.2-0.7,0.3
					c-0.3,0.1-0.5,0.3-0.7,0.4c-0.2,0.1-0.5,0.2-0.6,0.3c-0.2,0.1-0.4,0.2-0.5,0.2C86.6,148.6,86.6,148.7,86.6,148.7z"/>
			</g>
			<g>
				<path class="st7" d="M78.3,143.2c0,0,1.8-2.8,3.1-2.9l-0.2-1.1l1.7-0.7c0,0-0.4-1-0.4-1.8"/>
				<path d="M78.3,143.2c0.4-0.6,0.8-1.2,1.2-1.8c0.2-0.3,0.5-0.5,0.8-0.8c0.1-0.1,0.3-0.2,0.5-0.3c0.2-0.1,0.4-0.2,0.6-0.2
					l-0.2,0.3l-0.2-1.1l0-0.2l0.2-0.1c0.6-0.3,1.1-0.5,1.7-0.7l-0.1,0.3c-0.1-0.3-0.2-0.6-0.2-0.9c0-0.2,0-0.3,0-0.5
					c0-0.2,0-0.3,0-0.5h0.1c0.1,0.3,0.2,0.6,0.3,0.9c0.1,0.3,0.2,0.6,0.3,0.8l0.1,0.2l-0.2,0.1c-0.5,0.3-1.1,0.5-1.7,0.7l0.2-0.3
					l0.1,1.2l0,0.2l-0.2,0c-0.1,0-0.3,0.1-0.4,0.1c-0.1,0.1-0.3,0.2-0.4,0.3c-0.3,0.2-0.6,0.4-0.8,0.7
					C79.2,142.1,78.8,142.7,78.3,143.2L78.3,143.2z"/>
			</g>
		</g>
	</g>
</g>
</svg>
