<?xml version="1.0" encoding="utf-8"?>
<!-- Generator: Adobe Illustrator 19.1.1, SVG Export Plug-In . SVG Version: 6.00 Build 0)  -->
<svg version="1.1" xmlns="http://www.w3.org/2000/svg" xmlns:xlink="http://www.w3.org/1999/xlink" x="0px" y="0px"
	 viewBox="0 0 181.4 252.3" style="enable-background:new 0 0 181.4 252.3;" xml:space="preserve">
<style type="text/css">
	.st0{fill:#512B8B;}
	.st1{fill:#FFFFFF;}
	.st2{fill:#58595B;}
	.st3{fill:#D1D3D4;}
	.st4{fill:#A7A9AC;}
	.st5{fill:#414042;}
	.st6{fill:#939598;}
	.st7{fill:#939598;stroke:#000000;stroke-miterlimit:10;}
</style>
<g id="BG">
</g>
<g id="Layer_2">
	<g id="Layer_3">
		<rect y="184.3" class="st0" width="181.4" height="67.9"/>
	</g>
	<g id="Layer_4">
		<g>
			<path class="st0" d="M0,22.5h29.7c0.4,0,0.7,0.1,0.9,0.4c0.3,0.2,0.4,0.6,0.4,1c0,0.4-0.1,0.8-0.3,1c-0.2,0.2-0.5,0.4-1,0.4H23
				L32.6,147l13-110.5c0.1-1,0.2-2,0.2-3.1c0-2.4-0.3-4.2-1-5.5c-0.7-1.2-1.6-2-2.9-2.3l-3.5-0.3c-0.4-0.3-0.7-0.7-0.7-1.3
				c0-0.4,0.4-0.9,1.2-1.4h16.6c0.4,0,0.7,0.1,0.9,0.3c0.2,0.2,0.3,0.5,0.3,0.9c0,0.4-0.1,0.7-0.3,0.9c-0.2,0.2-0.5,0.4-0.9,0.4
				c-1.8,0.2-3.1,1-4.1,2.3c-1.5,2.3-2.6,6-3.2,11.3l-16.7,139c-0.7,5.7-1.1,8.8-1.4,9.3c-0.3,0.5-0.8,0.8-1.6,0.8H18.2
				c-0.6,0-1-0.3-1.3-0.9c-0.3-0.6-0.8-4.8-1.6-12.6l-15-149H0"/>
		</g>
	</g>
</g>
<g id="Text">
	<g id="Effect">
	</g>
	<g id="Title">
		<g>
			<path d="M132.3,17.3h-5.2V7.5h5v1h-3.8v3.3h3.5v1h-3.5v3.4h4V17.3z"/>
			<path d="M139.3,17.3h-5.1V7.5h1.1v8.8h3.9V17.3z"/>
			<path d="M145.8,13.6v3.7h-1.1V7.5h2.7c1,0,1.9,0.3,2.4,0.8c0.6,0.5,0.9,1.2,0.9,2.2c0,0.9-0.3,1.7-1,2.3
				c-0.6,0.6-1.5,0.9-2.6,0.9H145.8z M145.8,8.5v4h1.2c0.8,0,1.4-0.2,1.8-0.5c0.4-0.4,0.6-0.9,0.6-1.5c0-1.3-0.8-1.9-2.3-1.9H145.8z
				"/>
			<path d="M154.6,7.5v1h-1v7.8h1v1h-3.1v-1h1V8.5h-1v-1H154.6z"/>
			<path d="M164.1,17.3h-1.4l-5-7.8c-0.1-0.2-0.2-0.4-0.3-0.6h0c0,0.2,0.1,0.7,0.1,1.3v7.1h-1.1V7.5h1.5l4.9,7.7
				c0.2,0.3,0.3,0.5,0.4,0.7h0c0-0.3-0.1-0.8-0.1-1.4V7.5h1.1V17.3z"/>
			<path d="M170.6,17.5c-1.4,0-2.5-0.5-3.3-1.4c-0.8-0.9-1.3-2.1-1.3-3.6c0-1.6,0.4-2.8,1.3-3.8c0.9-0.9,2-1.4,3.5-1.4
				c1.4,0,2.4,0.5,3.3,1.4c0.8,0.9,1.2,2.1,1.2,3.6c0,1.6-0.4,2.9-1.3,3.8C173.2,17,172.1,17.5,170.6,17.5z M170.7,8.4
				c-1,0-1.9,0.4-2.5,1.1c-0.6,0.7-1,1.7-1,2.9c0,1.2,0.3,2.2,0.9,2.9c0.6,0.7,1.4,1.1,2.5,1.1c1.1,0,1.9-0.4,2.5-1.1
				c0.6-0.7,0.9-1.7,0.9-2.9c0-1.3-0.3-2.3-0.9-3C172.6,8.7,171.8,8.4,170.7,8.4z"/>
		</g>
	</g>
</g>
<g id="Image">
	<g>
		<g>
			<path d="M37,168.9c0,0,2.2-0.1,6.1-0.4c3.9-0.2,9.5-0.6,16.2-1c6.7-0.4,14.5-0.8,22.9-1.2c8.4-0.3,17.3-0.7,26.2-1.1
				c8.9-0.3,17.9-0.5,26.3-0.7c4.2-0.1,8.2-0.1,12.1-0.2c3.8,0,7.5,0,10.8,0c3.4,0,6.4,0.1,9.2,0.1c2.7,0.1,5.1,0.2,7.1,0.3
				c3.9,0.3,6.1,0.4,6.1,0.4s-2.2-0.1-6.1-0.3c-2,0-4.3,0-7-0.1c-2.7,0-5.8,0-9.1,0c-3.3,0-7,0.1-10.8,0.2
				c-3.8,0.1-7.9,0.2-12.1,0.3c-8.4,0.2-17.3,0.5-26.2,0.8c-8.9,0.3-17.9,0.6-26.2,0.9c-8.4,0.3-16.2,0.6-22.9,0.9
				C45.9,168.6,37,168.9,37,168.9z"/>
		</g>
		<g>
			<g>
				<g>
					<path class="st1" d="M82.4,169.8c0,0-2-2-1.2-5c0.8-3,10.6-3.3,10.6-3.3l9.5-3.5l4.8,2l7.2,7.1c0,0-6,4.6-11.2,4.3
						c-5.2-0.4-11.7,0-14.4,1C85,173.3,83.1,171.2,82.4,169.8c-0.7-1.4,0.4-6,11.7-7.5"/>
					<path d="M82.4,169.8c-0.2-0.3-0.5-0.5-0.6-0.8c-0.2-0.3-0.4-0.6-0.5-1c-0.2-0.3-0.2-0.7-0.3-1c-0.1-0.4-0.1-0.7-0.1-1.1
						c0-0.4,0.1-0.7,0.2-1.1c0.1-0.4,0.3-0.7,0.5-1c0.5-0.5,1.2-0.8,1.8-1.1c1.3-0.5,2.7-0.8,4.1-1c1.4-0.2,2.8-0.4,4.2-0.4l-0.1,0
						c1.6-0.6,3.2-1.2,4.8-1.7l4.8-1.7l0.1,0l0.1,0l4.7,2l0,0l0,0c1.2,1.2,2.4,2.4,3.6,3.6l3.6,3.5l0.1,0.1l-0.1,0.1
						c-1.6,1.2-3.4,2.3-5.2,3.1c-1.9,0.8-3.9,1.4-6,1.3c-1,0-2-0.1-3-0.1c-1,0-2,0-3,0c-1,0-2,0.1-3,0.2c-1,0.1-2,0.2-3,0.3
						c-0.5,0.1-1,0.2-1.5,0.3l-1.5,0.4c-1.1,0.2-2.2,0-3.1-0.6c-0.9-0.6-1.5-1.5-2-2.5c-0.3-1.1,0.2-2.2,0.8-3
						c0.6-0.8,1.5-1.4,2.4-2c0.9-0.5,1.8-0.9,2.8-1.2c0.5-0.2,1-0.3,1.5-0.4c0.5-0.1,1-0.3,1.5-0.3c1-0.2,2-0.3,3-0.5l0,0
						c-1,0.2-2,0.3-3,0.6c-0.5,0.1-1,0.2-1.5,0.4c-0.5,0.1-1,0.3-1.4,0.5c-1,0.3-1.9,0.8-2.7,1.3c-0.8,0.5-1.6,1.1-2.2,1.9
						c-0.6,0.8-1,1.8-0.7,2.6c0.4,0.9,1,1.7,1.8,2.2c0.8,0.6,1.8,0.8,2.7,0.6l1.5-0.4c0.5-0.1,1-0.2,1.5-0.3c1-0.2,2-0.3,3-0.4
						c1-0.1,2-0.1,3-0.2c1,0,2,0,3,0c1,0,2,0.1,3,0.1c2,0.1,4-0.4,5.8-1.2c1.8-0.8,3.6-1.8,5.2-3l0,0.2l-3.6-3.6
						c-1.2-1.2-2.4-2.4-3.6-3.5l0,0l-4.8-1.9l0.1,0l-4.7,1.8c-1.6,0.6-3.2,1.2-4.8,1.7l0,0l0,0c-1.4,0-2.8,0.2-4.2,0.4
						c-1.4,0.2-2.8,0.5-4.1,0.9c-0.6,0.2-1.3,0.6-1.8,1c-0.2,0.2-0.4,0.5-0.5,0.8c-0.1,0.3-0.1,0.7-0.2,1c0,0.3,0,0.7,0,1
						c0.1,0.3,0.1,0.7,0.2,1c0.1,0.3,0.3,0.6,0.4,1C82,169.2,82.2,169.5,82.4,169.8L82.4,169.8z"/>
				</g>
				<g>
					<path class="st1" d="M108.8,163.6c0,0-7.6-2.5-7.4-7.5c0,0-0.3-2.5,3.2-3.4c3.5-0.9,7.5,0,7.5,0L108.8,163.6z"/>
					<path d="M108.8,163.7c-0.9-0.3-1.8-0.6-2.6-1c-0.8-0.4-1.7-0.9-2.4-1.5c-0.2-0.1-0.4-0.3-0.5-0.5c-0.2-0.2-0.4-0.3-0.5-0.5
						l-0.5-0.6l-0.4-0.6c-0.1-0.2-0.2-0.4-0.3-0.7c-0.1-0.2-0.2-0.5-0.2-0.7c0-0.2-0.1-0.5-0.1-0.7l0-0.7l0,0c0-0.3,0-0.6,0.1-0.8
						c0.1-0.3,0.2-0.5,0.3-0.7c0.2-0.2,0.3-0.5,0.5-0.6c0.2-0.2,0.4-0.4,0.6-0.5c0.2-0.1,0.4-0.3,0.7-0.4l0.8-0.3
						c0.5-0.2,1-0.2,1.5-0.4c1-0.2,2.1-0.2,3.2-0.2c1.1,0,2.1,0.1,3.2,0.3l0.3,0l-0.1,0.3c-0.2,0.9-0.5,1.8-0.8,2.7
						c-0.3,0.9-0.5,1.8-0.8,2.7C110,160.1,109.4,161.9,108.8,163.7L108.8,163.7L108.8,163.7z M108.8,163.6c0.4-1.8,0.9-3.6,1.4-5.4
						c0.2-0.9,0.5-1.8,0.8-2.7c0.3-0.9,0.5-1.8,0.8-2.7l0.2,0.3c-1-0.2-2-0.3-3.1-0.4c-1-0.1-2.1-0.1-3.1,0
						c-0.5,0.1-1.1,0.1-1.5,0.3l-0.7,0.2c-0.2,0.1-0.4,0.3-0.7,0.4c-0.2,0.1-0.4,0.3-0.6,0.5c-0.2,0.2-0.3,0.4-0.4,0.6
						c-0.1,0.2-0.2,0.5-0.3,0.7c0,0.2-0.1,0.5,0,0.7l0,0l0.1,0.7c0,0.2,0.1,0.4,0.2,0.7c0.1,0.2,0.1,0.4,0.2,0.6
						c0.1,0.2,0.2,0.4,0.3,0.6l0.4,0.6l0.4,0.5c0.1,0.2,0.3,0.3,0.5,0.5c0.2,0.2,0.3,0.3,0.5,0.5c0.3,0.3,0.7,0.6,1.1,0.8
						c0.4,0.3,0.8,0.5,1.2,0.7C107.1,162.8,107.9,163.3,108.8,163.6z"/>
				</g>
			</g>
			<g>
				<path class="st2" d="M147.8,65.5c0.9-8.6-6.9-15.7-15.5-15.8c-8.6,0-15.7,6.9-15.7,15.6c0,0-0.9,7.3,5.9,10.9
					c0,0,2.2,2.1,0.7,6.6c-1.5,4.4-5.1,13.3-5.1,13.3s13.7,3.8,19.6,0.5C137.6,96.6,145.9,83.3,147.8,65.5z"/>
				<path d="M147.8,65.5c0.2-2-0.1-4.1-0.8-6c-0.8-1.9-2-3.6-3.5-5c-1.5-1.4-3.2-2.5-5.1-3.3c-1.9-0.8-3.9-1.2-6-1.2
					c-2,0-4.1,0.4-6,1.1c-1.9,0.7-3.6,1.9-5.1,3.3c-1.5,1.4-2.6,3.1-3.4,5c-0.8,1.9-1.2,3.9-1.2,6v0v0c-0.1,1.1,0,2.2,0.2,3.2
					c0.2,1.1,0.6,2.1,1.1,3.1c0.5,1,1.2,1.8,2,2.6c0.8,0.7,1.7,1.4,2.7,1.9l0,0l0,0c0.6,0.7,1,1.5,1.1,2.4c0.1,0.4,0.1,0.9,0.1,1.3
					c0,0.4-0.1,0.9-0.1,1.3c-0.1,0.4-0.2,0.9-0.3,1.3c-0.1,0.4-0.3,0.8-0.4,1.3l-0.9,2.5c-0.6,1.7-1.2,3.3-1.9,5l-1.9,4.9l-0.2-0.3
					c3.2,0.8,6.5,1.4,9.8,1.7c1.6,0.1,3.3,0.2,4.9,0c1.6-0.2,3.3-0.5,4.7-1.3l-0.1,0.1c1.4-2.3,2.6-4.8,3.7-7.3
					c0.6-1.2,1.1-2.5,1.6-3.8c0.5-1.3,1-2.6,1.4-3.9c0.2-0.6,0.4-1.3,0.6-2l0.6-2c0.3-1.3,0.7-2.6,1-4c0.3-1.3,0.6-2.7,0.8-4
					C147.4,68.2,147.6,66.9,147.8,65.5z M147.8,65.5c-0.2,1.4-0.3,2.7-0.5,4.1l-0.3,2c-0.1,0.7-0.3,1.3-0.4,2
					c-0.3,1.4-0.6,2.7-0.9,4c-0.2,0.7-0.4,1.3-0.6,2c-0.2,0.7-0.4,1.3-0.6,2c-0.4,1.3-0.9,2.6-1.3,3.9c-0.5,1.3-1,2.6-1.5,3.8
					c-1.1,2.5-2.3,5-3.7,7.4l0,0.1l-0.1,0c-1.5,0.8-3.2,1.2-4.9,1.3c-1.7,0.1-3.4,0.1-5,0c-3.3-0.3-6.6-0.9-9.8-1.8l-0.2-0.1
					l0.1-0.2c1.3-3.3,2.6-6.5,3.9-9.8l0.9-2.5c0.1-0.4,0.3-0.8,0.4-1.2c0.1-0.4,0.2-0.8,0.3-1.3c0.1-0.4,0.1-0.9,0.1-1.3
					c0-0.4,0-0.9-0.1-1.3c-0.2-0.8-0.5-1.7-1.1-2.3l0,0c-1-0.5-1.9-1.2-2.7-1.9c-0.8-0.8-1.5-1.7-2-2.7c-0.5-1-0.9-2-1.1-3.1
					c-0.2-1.1-0.3-2.2-0.2-3.3v0c0-2.1,0.4-4.1,1.2-6.1c0.8-1.9,2-3.7,3.4-5.2c1.5-1.5,3.2-2.6,5.2-3.4c1.9-0.8,4-1.2,6.1-1.1
					c2.1,0,4.2,0.5,6.1,1.3c1.9,0.8,3.7,2,5.1,3.4c1.5,1.5,2.7,3.2,3.4,5.1C147.7,61.4,148,63.5,147.8,65.5z"/>
			</g>
			<g>
				<g>
					<path class="st3" d="M130.1,94.9c0,0,2.4-8.6-2.9-9.2c-5.3-0.6-6.9,9.9-6.9,9.9"/>
					<path d="M130.1,94.9c0,0,0.1-0.4,0.2-1c0.1-0.6,0.2-1.6,0.2-2.7c0-0.6,0-1.2-0.1-1.8c-0.1-0.6-0.3-1.3-0.6-1.9
						c-0.4-0.5-0.8-1.1-1.5-1.3c-0.3-0.2-0.7-0.2-1-0.3c-0.1,0-0.4,0-0.5,0c-0.2,0-0.3,0-0.5,0.1c-0.7,0.1-1.3,0.5-1.9,1
						c-0.5,0.5-1,1-1.3,1.6c-0.7,1.2-1.2,2.4-1.6,3.4c-0.4,1.1-0.6,2-0.8,2.6c-0.2,0.6-0.2,1-0.2,1s0.1-1.5,0.8-3.7
						c0.3-1.1,0.8-2.4,1.5-3.6c0.4-0.6,0.8-1.2,1.4-1.8c0.6-0.5,1.3-1,2.1-1.1c0.2-0.1,0.4,0,0.6-0.1c0.2,0,0.4,0,0.6,0
						c0.4,0.1,0.8,0.1,1.1,0.3c0.8,0.3,1.3,0.9,1.7,1.5c0.3,0.7,0.5,1.3,0.6,2c0.1,0.7,0.1,1.3,0.1,1.8c-0.1,1.1-0.3,2.1-0.4,2.7
						C130.2,94.5,130.1,94.9,130.1,94.9z"/>
				</g>
				<g>
					<path class="st3" d="M122,95.1c15.8-2.9,31,7.7,33.9,23.5c2.9,15.9-7.6,31.1-23.5,34c-15.8,2.9-31-7.7-33.9-23.5
						C95.6,113.2,106.1,98,122,95.1z"/>
					<path d="M122,95.1c0,0,0.7-0.1,2-0.3c0.3,0,0.7-0.1,1.1-0.1c0.4,0,0.9,0,1.4,0c0.5,0,1-0.1,1.6,0c0.6,0,1.2,0.1,1.8,0.1
						c2.5,0.2,5.5,0.8,8.8,2.2c3.2,1.4,6.7,3.5,9.7,6.6c3,3.1,5.6,7.2,7,11.9c0.2,0.6,0.3,1.2,0.4,1.8c0.1,0.6,0.3,1.2,0.4,1.9
						c0.1,1.3,0.4,2.5,0.3,3.8c0.1,2.6-0.2,5.3-0.8,7.9c-0.6,2.6-1.7,5.2-3,7.6c-1.4,2.4-3.2,4.6-5.2,6.6c-2,2-4.4,3.6-6.9,5
						c-2.6,1.3-5.3,2.2-8.1,2.8c-2.8,0.5-5.7,0.6-8.6,0.3c-2.8-0.4-5.6-1.1-8.3-2.2c-2.6-1.2-5-2.6-7.2-4.4c-2.1-1.8-4-3.8-5.5-6.1
						c-3-4.5-4.7-9.7-5-14.6c-0.3-5,0.7-9.7,2.4-13.7c1.8-4,4.2-7.2,6.8-9.6c2.5-2.4,5.2-4,7.5-5.1c0.6-0.3,1.1-0.5,1.6-0.7
						c0.5-0.2,1-0.4,1.5-0.5c0.5-0.2,0.9-0.3,1.3-0.4c0.4-0.1,0.8-0.2,1.1-0.3C121.3,95.3,122,95.1,122,95.1z M122,95.2
						c0,0-0.7,0.2-2,0.5c-0.3,0.1-0.7,0.1-1.1,0.3c-0.4,0.1-0.8,0.3-1.3,0.4c-0.5,0.2-1,0.3-1.5,0.5c-0.5,0.2-1,0.5-1.6,0.8
						c-2.2,1.1-4.9,2.7-7.4,5.1c-2.5,2.4-4.9,5.6-6.6,9.5c-1.7,3.9-2.5,8.6-2.3,13.4c0,0.6,0.1,1.2,0.2,1.8c0.1,0.6,0.1,1.3,0.3,1.8
						c0.3,1.2,0.5,2.5,1,3.7c0.7,2.5,2,4.8,3.4,7c1.5,2.2,3.3,4.2,5.4,6c2.1,1.8,4.5,3.2,7,4.4c2.6,1.1,5.3,1.8,8.1,2.2
						c2.8,0.3,5.7,0.2,8.5-0.2c2.8-0.6,5.5-1.4,8.1-2.7c2.5-1.3,4.9-3,6.9-4.9c2-2,3.7-4.2,5.1-6.6c1.3-2.4,2.4-5,2.9-7.6
						c0.6-2.6,0.9-5.2,0.7-7.8c0-1.3-0.2-2.5-0.4-3.8c-0.1-0.6-0.3-1.2-0.4-1.8c-0.2-0.6-0.3-1.2-0.5-1.8c-1.5-4.7-3.9-8.7-6.9-11.8
						c-2.9-3.1-6.3-5.2-9.5-6.6c-3.2-1.4-6.2-2-8.7-2.2c-0.6,0-1.2-0.1-1.8-0.1c-0.6,0-1.1,0-1.6,0c-0.5,0-0.9,0-1.3,0
						c-0.4,0-0.8,0.1-1.1,0.1C122.7,95.1,122,95.2,122,95.2z"/>
				</g>
				<g>
					<path class="st3" d="M98,123.6c0,0-11-18.1,21.7-27.9"/>
					<path d="M97.8,123.7c0,0-0.3-0.6-0.7-1.6c-0.4-1.1-0.9-2.6-1-4.6c-0.1-1,0-2,0.1-3.1c0.2-1.1,0.5-2.2,1-3.4
						c0.5-1.1,1.1-2.2,1.8-3.2c0.8-1,1.6-2,2.5-2.9c0.5-0.4,0.9-0.9,1.5-1.3c0.5-0.4,1-0.8,1.5-1.1c1-0.7,2.1-1.4,3.1-2
						c0.5-0.3,1.1-0.6,1.6-0.8c0.5-0.2,1-0.5,1.5-0.7c1-0.5,2-0.8,2.9-1.2c0.9-0.4,1.7-0.6,2.5-0.9c0.7-0.3,1.4-0.5,1.9-0.6
						c1.1-0.3,1.7-0.5,1.7-0.5s-0.6,0.2-1.7,0.5c-0.5,0.2-1.2,0.4-1.9,0.7c-0.7,0.3-1.6,0.6-2.4,0.9c-0.9,0.4-1.9,0.8-2.8,1.3
						c-0.5,0.2-1,0.5-1.5,0.7c-0.5,0.3-1,0.6-1.5,0.8c-1,0.6-2.1,1.2-3.1,2c-0.5,0.4-1,0.8-1.5,1.2c-0.5,0.4-1,0.8-1.4,1.3
						c-0.9,0.9-1.8,1.8-2.5,2.9c-0.7,1-1.3,2.1-1.8,3.2c-0.4,1.1-0.7,2.2-0.9,3.3c-0.1,1.1-0.2,2.1-0.1,3c0.1,1.9,0.6,3.4,1,4.4
						c0.4,1,0.7,1.6,0.7,1.6L97.8,123.7z"/>
				</g>
			</g>
			<ellipse cx="127.2" cy="129" rx="3.8" ry="9"/>
			<g>
				<path class="st3" d="M136,100.7c0,0-14.3,1.1-14.3,15.5c0,14.4,14.3,13.7,14.3,13.7"/>
				<path d="M136,100.7c0,0-0.7,0.1-1.9,0.4c-1.2,0.3-2.9,0.8-4.8,1.9c-0.9,0.5-1.9,1.2-2.8,2c-0.5,0.4-0.9,0.9-1.3,1.3
					c-0.4,0.5-0.8,1-1.2,1.6c-0.3,0.6-0.6,1.2-0.9,1.8c-0.2,0.6-0.5,1.3-0.7,2c-0.1,0.7-0.3,1.4-0.4,2.1c0,0.7-0.1,1.4-0.1,2.1
					c-0.1,0.7,0.1,1.4,0.1,2.1c0,0.7,0.2,1.4,0.3,2.1c0.1,0.3,0.1,0.7,0.2,1c0.1,0.3,0.2,0.6,0.4,1c0.1,0.3,0.2,0.6,0.4,0.9
					c0.2,0.3,0.3,0.6,0.5,0.9c0.6,1.2,1.6,2.1,2.4,2.9c0.5,0.4,1,0.7,1.4,1c0.5,0.3,1,0.6,1.5,0.8c1,0.4,1.9,0.7,2.7,0.9
					c0.8,0.2,1.6,0.3,2.2,0.4c1.2,0.2,2,0.1,2,0.1l0,0.1c0,0-0.7,0.1-2,0c-1.3-0.1-3.1-0.4-5.1-1.2c-0.5-0.2-1-0.5-1.5-0.7
					c-0.5-0.3-1-0.6-1.5-1c-1-0.8-1.9-1.8-2.6-3c-0.2-0.3-0.3-0.6-0.5-0.9c-0.2-0.3-0.3-0.6-0.4-1c-0.1-0.3-0.2-0.7-0.4-1
					c-0.1-0.3-0.1-0.7-0.2-1.1c-0.1-0.7-0.3-1.4-0.3-2.1c0-0.7-0.1-1.4-0.1-2.2c0.1-0.7,0.1-1.4,0.2-2.2c0.1-0.7,0.3-1.4,0.4-2.1
					c0.2-0.7,0.5-1.3,0.7-2c0.3-0.6,0.7-1.2,1-1.8c0.4-0.5,0.8-1.1,1.2-1.6c0.5-0.5,0.9-0.9,1.4-1.3c0.9-0.8,1.9-1.5,2.9-2
					c1.9-1,3.7-1.5,4.9-1.8C135.3,100.7,136,100.6,136,100.7L136,100.7z"/>
			</g>
			<g>
				<path class="st3" d="M123.2,109c0,0-6.3-4.2-15.2-1.1c0,0,4,5.6,2.6,7.3"/>
				<path d="M123.1,109.1c-0.6-0.3-1.2-0.6-1.8-0.8c-0.6-0.2-1.2-0.4-1.9-0.6c-0.3-0.1-0.6-0.2-0.9-0.2c-0.3-0.1-0.6-0.1-1-0.2
					l-1-0.1l-1-0.1c-0.3,0-0.6,0-1,0c-0.3,0-0.6,0-1,0c-0.6,0-1.3,0.1-1.9,0.2c-0.6,0.1-1.3,0.3-1.9,0.4c-0.3,0.1-0.6,0.2-0.9,0.3
					l-0.9,0.3l0.2-0.8c0.4,0.6,0.8,1.1,1.1,1.7c0.3,0.6,0.7,1.2,0.9,1.9c0.3,0.6,0.5,1.3,0.6,2c0,0.2,0,0.4,0.1,0.5
					c0,0.2,0,0.4,0,0.5c0,0.2-0.1,0.4-0.1,0.5c-0.1,0.2-0.2,0.3-0.3,0.5l-0.1-0.1c0-0.2,0.1-0.3,0.1-0.5c0-0.2,0.1-0.3,0-0.5
					c0-0.2,0-0.3-0.1-0.5c0-0.2-0.1-0.3-0.1-0.5c-0.2-0.6-0.5-1.2-0.8-1.8c-0.6-1.2-1.4-2.3-2.1-3.4l-0.4-0.6l0.6-0.2l1-0.3
					c0.3-0.1,0.6-0.2,1-0.2c0.7-0.1,1.3-0.3,2-0.3c0.7-0.1,1.3-0.1,2-0.1c0.3,0,0.7,0,1,0c0.3,0,0.7,0,1,0.1l1,0.1l1,0.2
					c0.3,0.1,0.6,0.2,1,0.2c0.3,0.1,0.6,0.2,1,0.3c0.6,0.2,1.2,0.5,1.8,0.7C122,108.3,122.6,108.6,123.1,109.1L123.1,109.1z"/>
			</g>
			<g>
				<path d="M114.6,107c-0.3-0.1-0.6-0.2-0.8-0.3c-0.1-0.1-0.3-0.1-0.4-0.2c-0.1-0.1-0.2-0.2-0.4-0.3c-0.2-0.2-0.4-0.4-0.6-0.6
					c-0.2-0.2-0.3-0.5-0.5-0.7l-0.1-0.2l0.3,0c1-0.1,1.9-0.3,2.9-0.6c0.5-0.2,0.9-0.4,1.3-0.6c0.2-0.1,0.4-0.3,0.5-0.5l0.2-0.3
					l0.1-0.4l-0.1,0.4l-0.2,0.3c-0.2,0.2-0.3,0.4-0.5,0.5c-0.4,0.3-0.8,0.5-1.3,0.7c-0.9,0.4-1.9,0.6-2.9,0.8l0.1-0.2
					c0.2,0.2,0.3,0.5,0.5,0.6c0.2,0.2,0.4,0.4,0.6,0.5c0.1,0.1,0.2,0.1,0.3,0.2c0.1,0.1,0.2,0.1,0.3,0.2c0.2,0.1,0.5,0.2,0.7,0.3
					L114.6,107z"/>
			</g>
			<g>
				<path class="st4" d="M115.8,123.3c-0.9-1.6-3.3-2-5.3-0.8c-2,1.2-2.9,3.4-2,5c0.9,1.6,3.3,2,5.3,0.8
					C115.9,127.1,116.7,124.9,115.8,123.3z"/>
				<path d="M115.8,123.3c0,0-0.1-0.1-0.2-0.2c-0.1-0.1-0.2-0.4-0.5-0.5c-0.2-0.2-0.6-0.4-1-0.5c-0.4-0.1-0.9-0.2-1.5-0.1
					c-0.3,0-0.6,0.1-0.8,0.2c-0.3,0.1-0.6,0.2-0.8,0.3c-0.5,0.2-1.1,0.7-1.6,1.2c-0.4,0.5-0.8,1.1-1,1.8c-0.1,0.7-0.1,1.4,0.3,2
					c0.4,0.6,1,1,1.6,1.2c0.7,0.2,1.4,0.1,2,0c0.6-0.2,1.2-0.4,1.7-0.8c0.3-0.2,0.5-0.4,0.7-0.6c0.2-0.2,0.4-0.4,0.6-0.6
					c0.3-0.4,0.5-0.9,0.7-1.3c0.1-0.4,0.2-0.8,0.1-1.1c0-0.3-0.1-0.6-0.2-0.7C115.8,123.4,115.8,123.3,115.8,123.3z M115.8,123.3
					c0,0,0,0.1,0.1,0.2c0.1,0.2,0.2,0.4,0.2,0.7c0.1,0.3,0.1,0.7,0,1.2c-0.1,0.5-0.3,1-0.6,1.5c-0.2,0.2-0.3,0.5-0.6,0.7
					c-0.2,0.2-0.5,0.5-0.7,0.6c-0.1,0.1-0.2,0.2-0.4,0.3c-0.2,0.1-0.3,0.2-0.5,0.2c-0.3,0.2-0.7,0.2-1,0.4c-0.7,0.1-1.5,0.2-2.2-0.1
					c-0.7-0.2-1.5-0.8-1.8-1.4c-0.4-0.7-0.4-1.5-0.3-2.3c0.2-0.8,0.6-1.4,1.1-1.9c0.5-0.5,1-0.9,1.7-1.2c0.3-0.2,0.6-0.2,0.9-0.3
					c0.3-0.1,0.6-0.1,0.9-0.1c0.6,0,1.1,0,1.5,0.2c0.4,0.2,0.8,0.3,1,0.6c0.3,0.2,0.4,0.4,0.5,0.5
					C115.8,123.2,115.8,123.3,115.8,123.3z"/>
			</g>
			<ellipse cx="104.3" cy="127.1" rx="3.8" ry="9"/>
			<path class="st3" d="M98.8,122.9c0,0,5.5,2.5,9.5-1.6c3.3-3.4-5.2-6.8-5.2-6.8L98.8,122.9z"/>
			<polygon class="st3" points="101.6,133.5 102.9,131.3 99.8,129.9 			"/>
			<polyline class="st3" points="122.5,131.7 124.3,135.4 125.6,133.1 			"/>
			<g>
				<path d="M132.1,136.3c0,0-0.6,0-1.5,0.3c-0.2,0.1-0.4,0.2-0.6,0.3c-0.2,0.1-0.4,0.2-0.7,0.4c-0.2,0.1-0.4,0.3-0.7,0.5
					c-0.2,0.2-0.4,0.4-0.6,0.6c-0.2,0.2-0.4,0.4-0.5,0.7c-0.1,0.2-0.3,0.5-0.4,0.7c-0.2,0.2-0.3,0.4-0.5,0.6
					c-0.2,0.2-0.3,0.4-0.5,0.5c-0.3,0.3-0.6,0.6-0.9,0.8c-0.2,0.2-0.4,0.3-0.4,0.3l-0.2-0.1c0,0,0-0.2,0-0.5c0-0.3,0-0.8,0.1-1.2
					c0.1-0.5,0.3-1.1,0.7-1.6c0.2-0.3,0.5-0.5,0.7-0.7c0.3-0.2,0.6-0.4,0.8-0.6c0.3-0.2,0.6-0.4,0.9-0.5c0.3-0.1,0.6-0.3,0.9-0.4
					c0.3-0.1,0.6-0.2,0.9-0.2c0.3-0.1,0.6-0.1,0.8-0.1c1,0,1.6,0.2,1.6,0.2L132.1,136.3z"/>
			</g>
			<g>
				<path d="M101.9,135.3c0,0,0.1,0,0.2-0.1c0.1,0,0.2-0.1,0.3-0.1c0.1,0,0.3-0.1,0.4-0.1c0.2,0,0.3,0,0.5,0c0.2,0,0.3,0,0.5,0.1
					c0.2,0,0.4,0.1,0.6,0.1c0.2,0.1,0.4,0.1,0.6,0.2c0.4,0.1,0.8,0.3,1.1,0.5c0.1,0.1,0.3,0.2,0.3,0.4c0.1,0.2,0.1,0.3,0.2,0.5
					c0.2,0.6,0.1,1.1,0.1,1.1l-0.2,0.1c0,0-0.6,0-1.1-0.2c-0.3-0.1-0.5-0.2-0.7-0.4c-0.1-0.1-0.2-0.2-0.3-0.4
					c-0.1-0.1-0.2-0.3-0.3-0.4l-0.3-0.3c-0.1-0.1-0.2-0.2-0.4-0.3c-0.2-0.2-0.5-0.3-0.7-0.4c-0.1-0.1-0.2-0.1-0.3-0.1
					c-0.1,0-0.2-0.1-0.3-0.1c-0.1,0-0.2,0-0.2,0L101.9,135.3z"/>
			</g>
			<g>
				<path d="M144.7,130.6c0,0,0.1,0.5,0.6,1.2c0.4,0.7,1.2,1.8,2.4,2.5c0.6,0.3,1.4,0.6,2.1,0.7c0.2,0,0.4,0,0.6,0
					c0.2,0,0.3-0.1,0.5-0.1c0.2-0.1,0.3-0.2,0.5-0.3c0.1-0.1,0.3-0.2,0.4-0.4c0.5-0.6,0.9-1.5,1.2-2.4c0.3-0.9,0.4-1.9,0.5-2.8
					c0.1-1,0.2-2,0.2-2.9c0-1,0.1-1.9,0.1-2.9c0-0.9-0.1-1.8-0.2-2.6c-0.1-0.8-0.4-1.6-0.6-2.2c-0.3-0.7-0.6-1.2-1-1.7
					c-0.4-0.4-0.8-0.7-1.2-0.9c-0.4-0.2-0.7-0.3-0.9-0.3c-0.2,0-0.4-0.1-0.4-0.1c0,0,0.5-0.1,1.4,0.2c0.4,0.2,0.9,0.4,1.4,0.9
					c0.5,0.4,0.9,1,1.3,1.7c0.4,0.7,0.6,1.5,0.9,2.3c0.2,0.8,0.4,1.8,0.4,2.7c0.1,1.9,0,3.9-0.2,5.9c-0.1,1-0.3,2-0.6,3
					c-0.3,1-0.7,1.9-1.4,2.7c-0.2,0.2-0.4,0.3-0.6,0.5c-0.2,0.1-0.5,0.2-0.7,0.4c-0.3,0.1-0.5,0.1-0.8,0.2c-0.2,0-0.4,0-0.7,0
					c-1-0.1-1.7-0.5-2.4-0.9c-1.3-0.9-1.9-2.1-2.3-2.9C144.7,131.1,144.7,130.6,144.7,130.6z"/>
			</g>
			<g>
				<path class="st5" d="M102.1,138.9l3.5,20.2v-6l2.4,6.4l1.1,5.6c0,0,2.5,2.3,10.6,3.1l2-4.4l0.8,5h1.6l0.7-6.3l0.8,4.8l0.9-4.7
					l2.3,6.1c0,0,2.2,0.7,9-8.9v1.9l6.8-2.8c0,0,9.2-20.2,10.4-26.7l-0.7-7.2c0,0,1,9.8-4.7,10l-7.4-2.6c0,0,0.3,13.7-9.2,15.3
					c0,0-19.6-6-28.2-5.4L102.1,138.9z"/>
				<path d="M102.2,139c1.2,6.7,2.4,13.4,3.6,20.1l-0.3,0l0-6l0-1l0.3,0.9l2.4,6.4l0,0l0,0l1.1,5.6l-0.1-0.1
					c0.3,0.3,0.7,0.5,1.1,0.7l0.6,0.3c0.2,0.1,0.4,0.2,0.6,0.3l1.3,0.5l1.3,0.4c0.4,0.1,0.9,0.2,1.3,0.3l1.4,0.3l2.8,0.4l-0.2,0.1
					l2-4.4l0.3-0.6l0.1,0.6l0.8,5l-0.2-0.1l1.6,0l-0.2,0.1l0.8-6.3l0.1-1l0.2,1l0.8,4.8l-0.2,0l0.9-4.7l0.1-0.4l0.1,0.3l2.3,6.1
					l-0.1,0c0.2,0,0.5-0.1,0.7-0.2c0.3-0.1,0.5-0.2,0.7-0.4c0.2-0.1,0.5-0.3,0.7-0.5l0.6-0.5c0.4-0.3,0.8-0.7,1.2-1.1
					c0.4-0.4,0.8-0.8,1.1-1.2c0.7-0.8,1.4-1.6,2-2.5l1.9-2.6l0.2-0.3l0,0.3l0,1.9l-0.2-0.1l6.8-2.8l-0.1,0.1c1-2.2,1.9-4.4,2.9-6.6
					c0.9-2.2,1.9-4.4,2.7-6.6c0.4-1.1,0.9-2.2,1.3-3.3l1.3-3.3l1.2-3.4c0.2-0.6,0.3-1.1,0.5-1.7l0.5-1.7l0,0.1l-0.7-7.2l0.5,0
					c0.1,1,0.1,2.1,0,3.1c0,0.5-0.1,1-0.2,1.5c-0.1,0.5-0.2,1-0.3,1.5c-0.1,0.5-0.3,1-0.6,1.5c-0.1,0.2-0.3,0.5-0.4,0.7
					c-0.1,0.2-0.3,0.4-0.5,0.6c-0.2,0.2-0.4,0.4-0.6,0.5l-0.3,0.2l-0.4,0.2c-0.3,0.1-0.5,0.2-0.8,0.3l-0.8,0.1l0,0l-0.1,0l-7.4-2.6
					l0.3-0.2c0,0.8-0.1,1.6-0.1,2.5c-0.1,0.8-0.2,1.6-0.4,2.4c-0.1,0.4-0.1,0.8-0.3,1.2c-0.1,0.4-0.2,0.8-0.3,1.2l-0.4,1.2
					c-0.2,0.4-0.3,0.8-0.5,1.1c-0.2,0.4-0.4,0.7-0.6,1.1l-0.3,0.5l-0.4,0.5c-0.3,0.3-0.5,0.7-0.8,1l-0.9,0.9l-1,0.7
					c-0.3,0.3-0.7,0.4-1.1,0.6c-0.4,0.2-0.8,0.4-1.2,0.4l-1.2,0.3l0,0l-0.1,0c-4.6-1.4-9.2-2.7-13.9-3.7c-2.3-0.5-4.7-1-7.1-1.3
					c-0.6-0.1-1.2-0.2-1.8-0.2l-1.8-0.2l-1.8-0.1l-1.8,0h0l0,0L102.2,139z M102.1,138.8l2.7,3.8l-0.1,0l1.8-0.1l1.8,0.1l1.8,0.2
					c0.6,0,1.2,0.1,1.8,0.2c2.4,0.3,4.8,0.8,7.1,1.3c4.7,1,9.4,2.2,14,3.6l-0.1,0l1.1-0.3c0.4-0.1,0.8-0.2,1.1-0.4
					c0.3-0.2,0.7-0.3,1-0.5l1-0.7l0.8-0.8c0.3-0.3,0.5-0.6,0.7-0.9l0.4-0.5l0.3-0.5c0.2-0.3,0.4-0.7,0.6-1.1
					c0.2-0.4,0.3-0.7,0.5-1.1l0.4-1.1c0.1-0.4,0.2-0.8,0.3-1.2c0.1-0.4,0.2-0.8,0.3-1.2c0.2-0.8,0.3-1.6,0.4-2.4
					c0.1-0.8,0.1-1.6,0.1-2.4l0-0.4l0.3,0.1l7.4,2.6l-0.1,0l0.7-0.1c0.2,0,0.5-0.1,0.7-0.2l0.3-0.1l0.3-0.2c0.2-0.1,0.4-0.3,0.5-0.5
					c0.2-0.2,0.3-0.3,0.5-0.6c0.1-0.2,0.3-0.4,0.4-0.6c0.2-0.5,0.4-0.9,0.5-1.4c0.1-0.5,0.3-1,0.3-1.5c0.1-0.5,0.1-1,0.2-1.5
					c0.1-1,0.1-2,0-3l0.5,0l0.7,7.2l0,0l0,0l-0.5,1.7c-0.2,0.6-0.3,1.2-0.5,1.7l-1.2,3.4l-1.3,3.3c-0.4,1.1-0.9,2.2-1.3,3.3
					c-0.9,2.2-1.8,4.4-2.8,6.6c-1,2.2-1.9,4.4-2.9,6.5l0,0l0,0l-6.8,2.8l-0.2,0.1l0-0.2l0-1.9l0.2,0.1l-1.9,2.6
					c-0.6,0.9-1.4,1.7-2.1,2.5c-0.3,0.4-0.7,0.8-1.1,1.2c-0.4,0.4-0.7,0.8-1.2,1.1L131,168c-0.2,0.2-0.4,0.3-0.7,0.5
					c-0.2,0.1-0.5,0.3-0.7,0.4c-0.3,0.1-0.5,0.2-0.8,0.2l0,0l0,0l-2.4-6.1l0.2,0l-0.9,4.7l-0.1,0.7l-0.1-0.7l-0.8-4.8l0.3,0
					l-0.7,6.3l0,0.1H124l-1.6,0l-0.1,0l0-0.1l-0.8-5l0.4,0l-1.9,4.4l-0.1,0.1l-0.1,0l-2.8-0.4l-1.4-0.3c-0.5-0.1-0.9-0.2-1.4-0.3
					l-1.4-0.4c-0.4-0.2-0.9-0.3-1.3-0.5c-0.2-0.1-0.4-0.2-0.6-0.3l-0.6-0.3c-0.4-0.2-0.8-0.5-1.2-0.8l-0.1,0l0-0.1l-1.1-5.6l0,0
					l-2.4-6.4l0.3-0.1l0,6l-0.3,0c-1.1-6.7-2.2-13.5-3.3-20.3L102.1,138.8z"/>
			</g>
			<g>
				<path class="st3" d="M123.9,22.6c0,0-1.3,19.4,4,22.9l-7.8,3.3c0,0-5.6-4.3-4.7-24.5"/>
				<path d="M123.9,22.6c-0.1,4-0.1,7.9,0.3,11.9c0.2,2,0.5,3.9,1,5.8c0.1,0.5,0.3,0.9,0.4,1.4c0.2,0.5,0.3,0.9,0.6,1.3
					c0.2,0.4,0.5,0.9,0.8,1.2c0.3,0.4,0.6,0.7,1,1l0.3,0.2l-0.4,0.2l-7.8,3.3l-0.1,0.1L120,49c-0.2-0.2-0.4-0.4-0.6-0.6
					c-0.2-0.2-0.4-0.4-0.5-0.7c-0.3-0.5-0.6-0.9-0.8-1.4l-0.6-1.5c-0.2-0.5-0.4-1-0.5-1.5l-0.4-1.5l-0.2-0.8l-0.1-0.8l-0.5-3.2
					c-0.1-0.5-0.1-1.1-0.1-1.6l-0.1-1.6l-0.1-1.6c0-0.5-0.1-1.1-0.1-1.6l0.2-6.4l0,6.4c0,0.5,0.1,1.1,0.1,1.6l0.1,1.6l0.1,1.6
					c0.1,0.5,0.1,1.1,0.2,1.6l0.6,3.1l0.1,0.8l0.2,0.8l0.4,1.5c0.1,0.5,0.3,1,0.5,1.5l0.6,1.4c0.2,0.5,0.5,0.9,0.8,1.3
					c0.1,0.2,0.3,0.4,0.5,0.6c0.2,0.2,0.3,0.4,0.5,0.5l-0.2,0l7.8-3.3l0,0.4c-0.4-0.3-0.8-0.7-1.1-1.1c-0.3-0.4-0.6-0.8-0.8-1.3
					c-0.2-0.5-0.4-0.9-0.6-1.4c-0.2-0.5-0.3-1-0.4-1.4c-0.5-1.9-0.8-3.9-0.9-5.9C123.6,30.5,123.6,26.5,123.9,22.6z"/>
			</g>
			<g>
				<path class="st3" d="M148.5,25.3c0,0-10.8,16.2-8,21.8l-8.4-1c0,0-2.7-6.6,8.2-23.5"/>
				<path d="M148.5,25.3c-2.1,3.4-4,6.9-5.7,10.5c-0.8,1.8-1.5,3.7-2,5.6c-0.1,0.5-0.2,1-0.3,1.4c-0.1,0.5-0.2,1-0.2,1.5
					c0,0.5,0,1,0,1.4c0.1,0.5,0.2,0.9,0.4,1.4l0.2,0.4l-0.4,0l-8.4-1l-0.1,0l0-0.1c-0.1-0.3-0.1-0.6-0.2-0.8c0-0.3-0.1-0.5-0.1-0.8
					c0-0.5,0-1.1,0-1.6l0.2-1.6c0-0.5,0.2-1.1,0.3-1.6l0.4-1.6l0.2-0.8l0.3-0.7l1.1-3c0.2-0.5,0.5-1,0.7-1.4l0.7-1.4l0.7-1.4
					c0.2-0.5,0.5-1,0.7-1.4l3.3-5.4l-3.1,5.5c-0.3,0.5-0.5,0.9-0.7,1.4l-0.7,1.4l-0.7,1.4c-0.2,0.5-0.5,0.9-0.6,1.4l-1.1,3l-0.3,0.7
					l-0.2,0.8l-0.4,1.5c-0.1,0.5-0.3,1-0.3,1.5l-0.2,1.6c0,0.5,0,1,0,1.6c0,0.3,0,0.5,0.1,0.8c0,0.3,0.1,0.5,0.2,0.7l-0.2-0.1l8.4,1
					l-0.2,0.3c-0.2-0.5-0.4-1-0.4-1.5c-0.1-0.5-0.1-1,0-1.5c0-0.5,0.1-1,0.2-1.5c0.1-0.5,0.2-1,0.3-1.5c0.5-1.9,1.3-3.8,2.1-5.6
					C144.2,32,146.3,28.6,148.5,25.3z"/>
			</g>
			<g>
				<path class="st6" d="M130.1,38.6c0,0-11.9-1.8-18,6.3l7.6,12.4l11.3-2.4L130.1,38.6z"/>
				<path d="M130.1,38.6c-0.8,0-1.6-0.1-2.4,0c-0.8,0-1.6,0.1-2.5,0.2c-0.4,0-0.8,0.1-1.2,0.2c-0.4,0.1-0.8,0.2-1.2,0.2
					c-0.4,0.1-0.8,0.2-1.2,0.3c-0.4,0.1-0.8,0.2-1.2,0.3l-1.2,0.4l-1.1,0.5c-0.4,0.1-0.7,0.4-1.1,0.5c-0.3,0.2-0.7,0.4-1,0.6l-1,0.7
					c-0.3,0.2-0.6,0.5-0.9,0.8l-0.5,0.4l-0.4,0.4l-0.8,0.9l0-0.3c1.2,2.1,2.4,4.2,3.7,6.2c1.3,2.1,2.6,4.1,4,6.1l-0.4-0.2
					c1.9-0.5,3.8-0.9,5.6-1.3c1.9-0.4,3.8-0.9,5.6-1.3l-0.4,0.6c-0.1-2.7-0.2-5.4-0.3-8.2c-0.1-1.4-0.1-2.7-0.1-4.1
					C130.1,41.3,130.1,40,130.1,38.6z M130.2,38.6c0.2,1.4,0.3,2.7,0.4,4.1c0.1,1.4,0.3,2.7,0.4,4.1c0.2,2.7,0.4,5.4,0.6,8.1l0,0.5
					l-0.4,0.1c-1.9,0.4-3.8,0.8-5.7,1.2c-1.9,0.4-3.8,0.8-5.7,1.1l-0.3,0.1l-0.1-0.2c-1.2-2.1-2.4-4.2-3.6-6.3
					c-1.2-2.1-2.5-4.1-3.9-6.2l-0.1-0.1l0.1-0.1l0.8-1l0.4-0.5l0.5-0.4c0.3-0.3,0.6-0.6,0.9-0.9l1-0.8c0.3-0.3,0.7-0.5,1.1-0.7
					c0.4-0.2,0.7-0.4,1.1-0.6c0.4-0.2,0.8-0.3,1.2-0.5l1.2-0.4c0.4-0.1,0.8-0.2,1.2-0.3c0.4-0.1,0.8-0.2,1.2-0.2
					c0.4-0.1,0.8-0.1,1.3-0.2c0.4,0,0.8-0.1,1.3-0.1c0.8,0,1.7-0.1,2.5,0C128.5,38.3,129.3,38.4,130.2,38.6L130.2,38.6L130.2,38.6z"
					/>
			</g>
			<g>
				<path class="st6" d="M116.5,69.4c-2.3-8.4,3.8-17.2,12.2-19.2c8.4-2,16.9,3.1,18.9,11.6c0,0-9,9.8-23.6,9.8
					C124,71.6,117.1,71.7,116.5,69.4z"/>
				<path d="M116.5,69.4c-0.6-2-0.6-4.1-0.3-6.2c0.3-2.1,1.1-4.1,2.2-5.9c1.1-1.8,2.6-3.4,4.3-4.6c1.7-1.2,3.7-2.2,5.7-2.7
					c2-0.5,4.2-0.6,6.3-0.3c2.1,0.3,4.1,1.1,5.9,2.1c1.8,1.1,3.4,2.5,4.7,4.2c1.3,1.7,2.2,3.6,2.7,5.7l0,0.2l-0.1,0.1
					c-1,1.1-2.1,2-3.3,2.9c-1.1,0.9-2.4,1.7-3.6,2.4c-2.5,1.5-5.2,2.6-8,3.4c-1.4,0.4-2.8,0.7-4.3,0.9c-1.4,0.2-2.9,0.3-4.3,0.2
					c-1.4,0-2.9-0.2-4.3-0.4c-0.7-0.1-1.4-0.3-2.1-0.6C117.4,70.6,116.7,70.2,116.5,69.4z M116.5,69.4c0.2,0.7,0.9,1,1.6,1.3
					c0.7,0.2,1.4,0.4,2.1,0.5c1.4,0.2,2.8,0.2,4.3,0.1c0.7,0,1.4-0.1,2.1-0.1c0.7-0.1,1.4-0.2,2.1-0.3c0.7-0.1,1.4-0.3,2.1-0.4
					c0.7-0.1,1.4-0.3,2.1-0.5c1.4-0.4,2.7-0.9,4-1.4c1.3-0.6,2.6-1.2,3.8-1.9c1.2-0.7,2.4-1.5,3.6-2.3c1.1-0.8,2.2-1.8,3.2-2.7
					l-0.1,0.3c-0.4-2-1.3-3.9-2.5-5.6c-1.2-1.7-2.7-3.1-4.5-4.2c-1.8-1.1-3.8-1.8-5.8-2c-2-0.3-4.1-0.1-6.1,0.5
					c-2,0.6-3.8,1.5-5.5,2.7c-1.6,1.2-3.1,2.7-4.2,4.4c-1.2,1.7-2,3.6-2.4,5.6C115.9,65.3,116,67.4,116.5,69.4z"/>
			</g>
			<g>
				<path class="st6" d="M131,57.3c0,0-3.4-2.7-2.5-18.4c0,0,9.7-2.7,16.2,2.7c0,0-1.6,14-2,14.5"/>
				<path d="M131,57.3c-0.3-0.3-0.5-0.6-0.7-0.9c-0.2-0.3-0.4-0.7-0.5-1.1l-0.4-1.1c-0.1-0.4-0.2-0.8-0.3-1.1l-0.3-1.2
					c-0.1-0.4-0.1-0.8-0.2-1.2l-0.3-2.4L128,46c0-0.8-0.1-1.6-0.1-2.4l0.1-4.7l0-0.3l0.3-0.1c0.7-0.2,1.4-0.3,2.1-0.4
					c0.7-0.1,1.4-0.2,2.2-0.2c0.4,0,0.7,0,1.1,0c0.4,0,0.7,0,1.1,0c0.4,0,0.7,0,1.1,0.1c0.4,0,0.7,0.1,1.1,0.1l1.1,0.2l1.1,0.3
					c0.4,0.1,0.7,0.2,1,0.3c0.3,0.1,0.7,0.2,1,0.4l1,0.4c0.3,0.2,0.6,0.4,1,0.5c0.3,0.2,0.6,0.4,0.9,0.6l0.9,0.7l0.2,0.1l0,0.2
					c-0.3,2.4-0.7,4.9-1,7.3c-0.2,1.2-0.4,2.4-0.6,3.6l-0.3,1.8c-0.1,0.3-0.1,0.6-0.2,0.9c-0.1,0.3-0.1,0.6-0.3,0.9
					c0.1-0.3,0.1-0.6,0.2-0.9l0.1-0.9l0.2-1.8l0.4-3.7l0.7-7.3l0.2,0.4l-0.8-0.6c-0.3-0.2-0.6-0.4-0.9-0.5c-0.3-0.2-0.6-0.3-0.9-0.5
					l-0.9-0.4c-0.3-0.2-0.6-0.2-1-0.3c-0.3-0.1-0.7-0.2-1-0.3l-1-0.2l-1-0.2c-0.3-0.1-0.7-0.1-1-0.1c-0.3,0-0.7,0-1-0.1
					c-0.3,0-0.7,0-1,0c-0.3,0-0.7,0-1,0c-0.7,0-1.4,0.1-2.1,0.2c-0.7,0.1-1.4,0.2-2,0.4l0.3-0.4l-0.2,4.7c-0.1,0.8,0,1.6,0,2.3
					l0,2.3l0.2,2.3c0.1,0.4,0.1,0.8,0.1,1.2l0.2,1.1c0.1,0.4,0.1,0.8,0.2,1.1l0.3,1.1c0.1,0.4,0.3,0.7,0.4,1.1
					C130.5,56.7,130.8,57,131,57.3z"/>
			</g>
			<path class="st7" d="M161.7,65.4"/>
			<g>
				<path class="st3" d="M140.7,90.6c0,0,17.8,14.4,8.7,67.1c0,0-6.4-1.3-9,0.5c0,0,10.5-42-2.8-61.6c0,0-3.2-2.3-1.6-4.9
					C137.6,89,140.7,90.6,140.7,90.6z"/>
				<path d="M140.8,90.6c1.1,1,2,2.1,2.8,3.3c0.4,0.6,0.8,1.2,1.2,1.8l1.1,1.9c0.3,0.6,0.6,1.3,0.9,2c0.3,0.7,0.6,1.3,0.9,2
					c0.5,1.4,1.1,2.7,1.4,4.1c0.4,1.4,0.9,2.8,1.1,4.2l0.5,2.1c0.2,0.7,0.3,1.4,0.4,2.1l0.6,4.3c0.1,1.5,0.2,2.9,0.3,4.4
					c0,0.7,0.1,1.5,0.1,2.2l0,2.2l0,4.4c0,1.5-0.1,2.9-0.2,4.4c-0.1,1.5-0.1,2.9-0.2,4.4l-0.4,4.3c-0.2,1.4-0.3,2.9-0.5,4.3
					l-1.2,8.6l0,0.1l-0.1,0c-1.5-0.3-3-0.4-4.6-0.4c-0.8,0-1.5,0-2.3,0.2c-0.2,0-0.4,0.1-0.6,0.1c-0.2,0.1-0.4,0.1-0.5,0.2
					c-0.2,0.1-0.3,0.1-0.5,0.2l-0.5,0.3l-0.3,0.2l0.1-0.3c1.2-5.1,2-10.3,2.7-15.5c0.7-5.2,1.1-10.5,1.1-15.7
					c0.1-5.2-0.3-10.5-1.2-15.7c-0.2-1.3-0.5-2.6-0.8-3.8c-0.3-1.3-0.7-2.5-1.1-3.8c-0.2-0.6-0.4-1.2-0.7-1.8
					c-0.3-0.6-0.5-1.2-0.8-1.8c-0.3-0.6-0.6-1.2-0.9-1.7l-1-1.7l0,0c-0.7-0.6-1.4-1.3-1.8-2.2c-0.1-0.2-0.2-0.4-0.2-0.7
					c-0.1-0.2-0.1-0.5-0.1-0.7c0-0.2,0-0.5,0.1-0.7c0.1-0.2,0.2-0.4,0.3-0.7c0.1-0.2,0.3-0.4,0.4-0.6c0.2-0.2,0.3-0.4,0.5-0.5
					c0.2-0.2,0.4-0.3,0.6-0.4c0.2-0.1,0.4-0.2,0.7-0.2C139,90,139.9,90.2,140.8,90.6L140.8,90.6L140.8,90.6z M140.7,90.6
					c-0.8-0.4-1.8-0.6-2.7-0.4c-0.2,0-0.4,0.1-0.7,0.2c-0.2,0.1-0.4,0.2-0.6,0.4c-0.2,0.1-0.3,0.3-0.5,0.5c-0.1,0.2-0.3,0.4-0.4,0.6
					c-0.1,0.2-0.2,0.4-0.2,0.6c-0.1,0.2-0.1,0.4-0.1,0.7c0,0.2,0,0.5,0.1,0.7c0,0.2,0.1,0.4,0.2,0.6c0.4,0.8,1,1.5,1.7,2.1l0,0l0,0
					l1.1,1.7c0.3,0.6,0.6,1.2,0.9,1.7c0.3,0.6,0.6,1.2,0.8,1.8c0.3,0.6,0.5,1.2,0.7,1.8c0.5,1.2,0.8,2.5,1.2,3.8
					c0.3,1.3,0.6,2.6,0.9,3.9c0.3,1.3,0.5,2.6,0.6,3.9c0.2,1.3,0.3,2.6,0.4,3.9c0.1,1.3,0.2,2.6,0.2,4c0,1.3,0,2.6,0,4
					c-0.1,5.3-0.5,10.5-1.2,15.8c-0.7,5.2-1.6,10.4-2.9,15.5l-0.2-0.2l0.5-0.3c0.2-0.1,0.4-0.1,0.6-0.2c0.2-0.1,0.4-0.1,0.6-0.2
					c0.2-0.1,0.4-0.1,0.6-0.1c0.8-0.1,1.5-0.2,2.3-0.2c1.5,0,3.1,0.2,4.6,0.5l-0.1,0.1l1.3-8.6c0.2-1.4,0.3-2.9,0.4-4.3l0.4-4.3
					c0.1-1.4,0.1-2.9,0.2-4.4c0-1.5,0.1-2.9,0.2-4.4l-0.1-4.4l0-2.2c0-0.7-0.1-1.4-0.2-2.2l-0.4-4.3l-0.6-4.3
					c-0.1-0.7-0.2-1.4-0.4-2.1l-0.4-2.1c-0.2-1.4-0.7-2.8-1.1-4.2c-0.3-1.4-0.9-2.8-1.4-4.1c-0.2-0.7-0.5-1.4-0.8-2
					c-0.3-0.7-0.6-1.3-0.9-2l-1-1.9c-0.4-0.6-0.8-1.2-1.2-1.8C142.7,92.8,141.8,91.6,140.7,90.6z"/>
			</g>
			<g>
				<g>
					<ellipse class="st1" cx="146.3" cy="164.8" rx="9.9" ry="7.6"/>
					<path d="M156.2,164.8c0,0,0-0.2,0-0.6c0-0.4-0.2-1-0.4-1.7c-0.3-0.7-0.8-1.5-1.5-2.2c-0.7-0.7-1.7-1.4-2.9-1.9
						c-1.2-0.5-2.5-0.9-4-1c-1.4-0.1-3,0-4.6,0.4c-1.5,0.4-3.1,1.2-4.3,2.4c-1.2,1.2-1.9,2.8-1.9,4.5c0,1.7,0.8,3.3,2,4.4
						c1.2,1.2,2.7,2,4.2,2.4c1.5,0.4,3.1,0.6,4.5,0.5c1.4-0.1,2.8-0.5,4-1c1.2-0.5,2.2-1.2,2.9-1.9c0.7-0.7,1.3-1.5,1.6-2.2
						c0.3-0.7,0.4-1.3,0.4-1.7C156.2,165,156.2,164.8,156.2,164.8z M156.3,164.8c0,0,0,0.2,0,0.6c0,0.4-0.1,1-0.4,1.7
						c-0.3,0.7-0.8,1.5-1.5,2.3c-0.7,0.8-1.7,1.5-2.9,2.1c-1.2,0.6-2.6,1-4.1,1.1c-1.5,0.1-3.1,0-4.7-0.5c-1.6-0.5-3.1-1.3-4.3-2.6
						c-1.2-1.2-2-3-2-4.7c0-1.8,0.9-3.5,2.1-4.7c1.2-1.2,2.7-2.1,4.3-2.6c1.6-0.5,3.2-0.7,4.7-0.6c1.5,0.1,2.9,0.5,4.1,1.1
						c1.2,0.6,2.2,1.3,2.9,2.1c0.7,0.8,1.2,1.6,1.5,2.3c0.3,0.7,0.4,1.3,0.4,1.7C156.2,164.5,156.3,164.8,156.3,164.8z"/>
				</g>
				<g>
					<path class="st1" d="M137.4,171.4c0,0,0.4-10.8,11.2-10.5c10.8,0.3,17.6,9.4,16.9,11.4l1.5,2.2c0,0,2.1,2.9-0.2,4.6
						c-2.3,1.7-5.7,0-5.7,0s1,1.1-1.6,3c-2.6,1.9-7.3-2.5-7.3-2.5l-7.1-4.8c0,0,0.9,8.4-4.8,8.9c-5.7,0.6-3.8-4.4-3.8-4.4
						S139.5,174.9,137.4,171.4z"/>
					<path d="M137.4,171.4c0.1-1.6,0.5-3.2,1.1-4.7c0.2-0.4,0.3-0.7,0.6-1.1c0.2-0.4,0.4-0.7,0.7-1c0.2-0.3,0.5-0.7,0.8-0.9
						c0.3-0.3,0.6-0.6,0.9-0.8c0.6-0.5,1.4-0.9,2.1-1.3l1.2-0.4c0.4-0.1,0.8-0.2,1.2-0.3l0.6-0.1c0.2,0,0.4,0,0.6,0l1.2-0.1
						c0.8,0,1.6,0.1,2.5,0.2c3.3,0.5,6.4,1.8,9,3.7c1.3,1,2.5,2.1,3.6,3.3c0.5,0.6,1,1.3,1.4,2c0.2,0.4,0.4,0.7,0.5,1.1
						c0.1,0.4,0.2,0.8,0.1,1.3l0-0.1l1,1.4c0.3,0.5,0.7,0.9,0.9,1.4c0.3,0.5,0.5,1.1,0.5,1.7c0,0.3,0,0.6-0.1,0.9
						c-0.1,0.3-0.2,0.6-0.4,0.8c-0.2,0.2-0.4,0.4-0.6,0.6c-0.3,0.2-0.5,0.3-0.8,0.4c-0.3,0.1-0.6,0.2-0.8,0.3
						c-0.3,0.1-0.6,0.1-0.9,0.1c-1.2,0-2.3-0.3-3.4-0.7l0.2-0.2c0.2,0.3,0.2,0.5,0.2,0.8c0,0.1-0.1,0.3-0.1,0.4
						c0,0.1-0.1,0.3-0.2,0.4c-0.1,0.2-0.3,0.5-0.4,0.6c-0.2,0.2-0.3,0.4-0.5,0.6l-0.6,0.5c-0.3,0.1-0.4,0.3-0.7,0.4
						c-0.3,0.1-0.5,0.2-0.8,0.2c-0.3,0-0.5,0-0.8,0c-0.5-0.1-1-0.2-1.5-0.4c-0.5-0.2-0.9-0.4-1.4-0.7c-0.9-0.5-1.7-1.1-2.4-1.8l0,0
						l-7.1-4.7l0.4-0.2c0.1,0.8,0.1,1.6,0,2.4c-0.1,0.8-0.2,1.6-0.4,2.4c-0.1,0.4-0.2,0.8-0.4,1.1c-0.2,0.4-0.3,0.7-0.6,1.1
						l-0.4,0.5c-0.1,0.2-0.3,0.3-0.4,0.4c-0.3,0.3-0.7,0.5-1,0.7c-0.4,0.1-0.7,0.4-1.2,0.4c-0.4,0.1-0.8,0.2-1.2,0.2l-0.6,0
						l-0.6-0.1c-0.2,0-0.4-0.1-0.6-0.1c-0.2,0-0.4-0.1-0.6-0.2c-0.2-0.1-0.4-0.2-0.5-0.3c-0.2-0.1-0.3-0.3-0.4-0.4
						c-0.3-0.3-0.4-0.7-0.5-1.1c-0.1-0.8,0-1.6,0.3-2.4l0,0l0,0c0.7-1.2,1.2-2.5,1.5-3.8c0.1-0.3,0.1-0.7,0.1-1c0-0.3,0-0.7,0-1
						l-0.1-0.5c0-0.2-0.1-0.3-0.1-0.5C137.7,172.1,137.5,171.8,137.4,171.4L137.4,171.4L137.4,171.4z M137.5,171.4
						c0.2,0.3,0.3,0.6,0.4,1c0.1,0.2,0.1,0.3,0.2,0.5l0.1,0.5c0,0.4,0.1,0.7,0.1,1.1c0,0.4,0,0.7-0.1,1.1c-0.2,1.4-0.8,2.7-1.5,4
						l0,0c-0.2,0.7-0.3,1.5-0.2,2.2c0.1,0.4,0.2,0.7,0.4,1c0.1,0.1,0.2,0.3,0.4,0.4c0.1,0.1,0.3,0.2,0.5,0.3
						c0.2,0.1,0.3,0.1,0.5,0.2c0.2,0,0.4,0.1,0.5,0.1l0.6,0l0.6,0c0.4,0,0.7-0.1,1.1-0.2c0.4-0.1,0.7-0.3,1-0.4
						c0.3-0.2,0.6-0.4,0.9-0.7c0.1-0.1,0.3-0.3,0.4-0.4l0.3-0.5c0.2-0.3,0.4-0.7,0.5-1c0.1-0.4,0.3-0.7,0.4-1.1
						c0.2-0.7,0.3-1.5,0.4-2.3c0.1-0.8,0.1-1.5,0-2.3l0-0.5l0.4,0.3l7.1,4.8l0,0l0,0c0.7,0.6,1.5,1.3,2.4,1.8
						c0.8,0.5,1.7,0.9,2.7,1.1c0.2,0,0.5,0.1,0.7,0c0.2,0,0.5,0,0.7-0.1c0.2,0,0.5-0.2,0.6-0.3l0.6-0.5c0.2-0.1,0.4-0.3,0.5-0.5
						c0.2-0.2,0.3-0.4,0.4-0.6c0.1-0.1,0.1-0.2,0.1-0.3c0-0.1,0.1-0.2,0.1-0.3c0-0.2,0-0.4-0.1-0.6l-0.3-0.5l0.5,0.2
						c1,0.5,2.1,0.8,3.2,0.8c0.3,0,0.6,0,0.8-0.1c0.3,0,0.5-0.1,0.8-0.2c0.2-0.1,0.5-0.3,0.7-0.4c0.2-0.2,0.4-0.4,0.6-0.6
						c0.2-0.2,0.3-0.5,0.4-0.7c0.1-0.3,0.1-0.5,0.1-0.8c0-0.6-0.2-1.1-0.5-1.6c-0.2-0.5-0.6-1-0.9-1.4l-1-1.4l0,0l0,0
						c0.1-0.4,0-0.8-0.1-1.1c-0.1-0.4-0.3-0.7-0.5-1.1c-0.4-0.7-0.9-1.3-1.4-2c-1.1-1.2-2.3-2.3-3.6-3.2c-2.6-1.9-5.7-3.1-8.9-3.6
						c-0.8-0.1-1.6-0.2-2.4-0.2l-1.2,0c-0.2,0-0.4,0-0.6,0l-0.6,0.1c-0.4,0.1-0.8,0.1-1.2,0.2l-1.1,0.4c-0.7,0.3-1.5,0.7-2.1,1.2
						c-0.3,0.2-0.6,0.5-0.9,0.8c-0.3,0.3-0.6,0.6-0.8,0.9c-0.3,0.3-0.5,0.6-0.7,1c-0.2,0.3-0.4,0.7-0.6,1.1
						C138,168.2,137.6,169.8,137.5,171.4z"/>
				</g>
				<g>
					<path class="st1" d="M161.1,179c0,0-5.1-6.2-9.7-8.7"/>
					<path d="M161.1,179.1c0,0-0.5-0.6-1.4-1.5c-0.4-0.4-0.9-0.9-1.5-1.5c-0.5-0.5-1.2-1.1-1.8-1.6c-1.3-1-2.5-2.1-3.4-2.9
						c-1-0.7-1.6-1.3-1.6-1.3l0,0c0,0,0.7,0.4,1.8,1c0.5,0.4,1.1,0.8,1.7,1.3c0.6,0.5,1.2,1.1,1.8,1.7c0.6,0.6,1.2,1.2,1.7,1.7
						c0.5,0.6,1,1.1,1.4,1.6C160.6,178.4,161.1,179,161.1,179.1L161.1,179.1z"/>
				</g>
				<g>
					<path class="st1" d="M165.5,172.3c0,0-3.8-4.1-5.3-5.2"/>
					<path d="M165.5,172.3c0,0-0.3-0.3-0.8-0.8c-0.5-0.5-1.1-1.2-1.8-1.8c-0.7-0.6-1.3-1.3-1.9-1.7c-0.5-0.5-0.8-0.8-0.8-0.8l0,0
						c0,0,0.4,0.3,0.9,0.7c0.3,0.2,0.6,0.5,0.9,0.8c0.3,0.3,0.6,0.6,1,1C164.3,170.9,165.5,172.3,165.5,172.3L165.5,172.3z"/>
				</g>
			</g>
		</g>
		<g>
			<g>
				<path class="st1" d="M48.8,171.2c0,0,5.8,4,17.2,0l3.7-21.2c0,0-16.5-2.3-23.5,0L48.8,171.2z"/>
				<path d="M48.9,171.2c1.3,0.7,2.7,1.1,4.1,1.4c0.4,0.1,0.7,0.1,1.1,0.2c0.4,0.1,0.7,0.1,1.1,0.1c0.4,0,0.7,0,1.1,0
					c0.4,0,0.7,0,1.1,0c0.7,0,1.5-0.1,2.2-0.2c0.7-0.1,1.4-0.2,2.2-0.4c0.4-0.1,0.7-0.2,1.1-0.3l1.1-0.3l2.1-0.7l-0.1,0.2
					c0.6-3.5,1.3-7,1.9-10.6c0.7-3.5,1.3-7,1.8-10.6l0.1,0.1c-3.9-0.5-7.8-0.8-11.8-0.9c-1,0-2,0-2.9,0c-1,0-2,0-2.9,0.1
					c-0.5,0-1,0.1-1.5,0.1c-0.5,0.1-1,0.1-1.5,0.2l-1.4,0.3l-1.4,0.4l0.2-0.3c0.5,3.5,0.9,7.1,1.3,10.6
					C48.1,164.1,48.5,167.6,48.9,171.2z M48.8,171.2c-0.5-3.5-1-7-1.5-10.6c-0.5-3.5-1-7-1.4-10.6l0-0.2l0.2-0.1l1.5-0.4l1.5-0.3
					c0.5-0.1,1-0.1,1.5-0.2c0.5-0.1,1-0.1,1.5-0.1c1-0.1,2-0.1,3-0.1c1,0,2,0,3,0.1c3.9,0.2,7.9,0.6,11.8,1.1l0.1,0l0,0.1
					c-0.6,3.5-1.3,7-1.8,10.6c-0.6,3.5-1.1,7.1-1.7,10.6l0,0.1l-0.1,0L64,172l-1.1,0.3c-0.4,0.1-0.7,0.2-1.1,0.3
					c-0.7,0.1-1.5,0.3-2.2,0.4c-0.7,0.1-1.5,0.2-2.2,0.2c-0.4,0-0.7,0-1.1,0c-0.4,0-0.7,0-1.1-0.1c-0.4,0-0.7,0-1.1-0.1
					c-0.4-0.1-0.7-0.1-1.1-0.2c-0.4-0.1-0.7-0.1-1.1-0.3c-0.4-0.1-0.7-0.2-1.1-0.3C50.1,171.9,49.4,171.6,48.8,171.2L48.8,171.2
					L48.8,171.2z"/>
			</g>
			<g>
				<path class="st1" d="M47.5,150.6c0,0,9.4,3.6,21.1,0"/>
				<path d="M47.5,150.6c0,0,1.3,0.4,3.3,0.7c1,0.2,2.1,0.3,3.4,0.4c1.2,0.1,2.6,0.2,3.9,0.2c0.7,0,1.3,0,2,0c0.7,0,1.3-0.1,1.9-0.1
					c0.6-0.1,1.2-0.2,1.8-0.2c0.6-0.1,1.1-0.2,1.6-0.3c0.5-0.1,1-0.2,1.3-0.2c0.4-0.1,0.7-0.2,1-0.2c0.6-0.1,0.9-0.2,0.9-0.2
					s-0.3,0.1-0.9,0.3c-0.3,0.1-0.6,0.2-1,0.3c-0.4,0.1-0.8,0.2-1.3,0.3c-0.5,0.1-1,0.3-1.6,0.3c-0.6,0.1-1.2,0.2-1.8,0.3
					c-0.6,0.1-1.3,0.1-1.9,0.2c-0.7,0-1.3,0.1-2,0.1c-1.3,0-2.7-0.1-4-0.2c-0.6,0-1.2-0.2-1.8-0.3c-0.6-0.1-1.1-0.2-1.6-0.3
					C48.7,151.1,47.5,150.6,47.5,150.6z"/>
			</g>
			<g>
				<path class="st1" d="M48.3,159.6c0,0,8.1,1.9,19.3,0"/>
				<path d="M48.3,159.6c0,0,0.3,0.1,0.8,0.1c0.5,0.1,1.3,0.2,2.2,0.3c0.4,0.1,0.9,0.1,1.5,0.1c0.5,0,1.1,0.1,1.6,0.1
					c0.6,0,1.2,0,1.7,0.1c0.6,0,1.2,0,1.8,0c0.6,0,1.2,0,1.8,0c0.6,0,1.2-0.1,1.7-0.1c0.6,0,1.1-0.1,1.6-0.1c0.5,0,1-0.1,1.5-0.2
					c1.8-0.2,3-0.3,3-0.3s-1.2,0.2-3,0.5c-0.5,0.1-0.9,0.2-1.5,0.2c-0.5,0-1.1,0.1-1.6,0.1c-0.6,0-1.2,0.1-1.7,0.1
					c-0.6,0-1.2,0-1.8,0c-0.6,0-1.2,0-1.8,0c-0.6,0-1.2-0.1-1.8-0.1c-0.6,0-1.1-0.1-1.6-0.1c-0.5-0.1-1-0.1-1.5-0.2
					C49.5,159.9,48.3,159.6,48.3,159.6z"/>
			</g>
			<g>
				<path class="st1" d="M48.5,160.5c0,0,7.9,1.8,18.8,0"/>
				<path d="M48.5,160.5c0,0,0.3,0.1,0.8,0.1c0.5,0.1,1.2,0.2,2.1,0.3c0.4,0.1,0.9,0.1,1.4,0.1c0.5,0,1,0.1,1.6,0.1
					c0.6,0,1.1,0,1.7,0.1c0.6,0,1.2,0,1.8,0c0.6,0,1.2,0,1.8,0c0.6,0,1.1-0.1,1.7-0.1c0.6,0,1.1-0.1,1.6-0.1c0.5,0,1-0.1,1.4-0.2
					c1.8-0.2,2.9-0.3,2.9-0.3s-1.2,0.2-2.9,0.5c-0.4,0.1-0.9,0.2-1.4,0.2c-0.5,0-1,0.1-1.6,0.1c-0.6,0-1.1,0.1-1.7,0.1
					c-0.6,0-1.2,0-1.8,0c-0.6,0-1.2,0-1.8,0c-0.6,0-1.2-0.1-1.7-0.1c-0.6,0-1.1-0.1-1.6-0.1c-0.5-0.1-1-0.1-1.4-0.1
					C49.7,160.8,48.5,160.5,48.5,160.5z"/>
			</g>
			<g>
				<path class="st1" d="M48.8,161.4c0,0,7.7,1.8,18.2,0"/>
				<path d="M48.8,161.4c0,0,0.3,0.1,0.8,0.1c0.5,0.1,1.2,0.1,2.1,0.3c0.4,0,0.9,0.1,1.4,0.1c0.5,0,1,0.1,1.5,0.1
					c0.5,0,1.1,0,1.6,0.1c0.6,0,1.1,0,1.7,0c0.6,0,1.1,0,1.7,0c0.6,0,1.1-0.1,1.6-0.1c0.5,0,1-0.1,1.5-0.1c0.5,0,0.9-0.1,1.4-0.1
					c1.7-0.2,2.8-0.3,2.8-0.3s-1.1,0.2-2.8,0.4c-0.4,0.1-0.9,0.1-1.4,0.2c-0.5,0-1,0.1-1.5,0.1c-0.5,0-1.1,0.1-1.6,0.1
					c-0.6,0-1.1,0-1.7,0c-0.6,0-1.1,0-1.7,0c-0.6,0-1.1-0.1-1.7-0.1c-0.5,0-1.1-0.1-1.5-0.1c-0.5-0.1-1-0.1-1.4-0.1
					C49.9,161.7,48.8,161.4,48.8,161.4z"/>
			</g>
			<g>
				<path class="st1" d="M49.1,162.2c0,0,7.4,1.7,17.6,0"/>
				<path d="M49.1,162.2c0,0,0.3,0.1,0.8,0.1c0.5,0.1,1.2,0.1,2,0.2c0.4,0,0.9,0.1,1.3,0.1c0.5,0,1,0.1,1.5,0.1c0.5,0,1.1,0,1.6,0.1
					c0.5,0,1.1,0,1.6,0c0.6,0,1.1,0,1.6,0c0.5,0,1.1-0.1,1.6-0.1c0.5,0,1-0.1,1.5-0.1c0.5,0,0.9-0.1,1.3-0.1
					c1.6-0.2,2.7-0.3,2.7-0.3s-1.1,0.2-2.7,0.4c-0.4,0.1-0.9,0.1-1.3,0.2c-0.5,0-1,0.1-1.5,0.1c-0.5,0-1.1,0.1-1.6,0.1
					c-0.5,0-1.1,0-1.7,0c-0.6,0-1.1,0-1.7,0c-0.5,0-1.1-0.1-1.6-0.1c-0.5,0-1-0.1-1.5-0.1c-0.5-0.1-0.9-0.1-1.3-0.1
					C50.2,162.4,49.1,162.2,49.1,162.2z"/>
			</g>
			<g>
				<path d="M48.9,152c0,0,0.3,0.1,0.8,0.2c0.5,0.1,1.2,0.2,2,0.3c0.4,0.1,0.9,0.1,1.4,0.2c0.5,0,1,0.1,1.5,0.1c0.5,0,1.1,0,1.6,0.1
					c0.6,0,1.1,0,1.7,0c0.6,0,1.1,0,1.7,0c0.6,0,1.1-0.1,1.6-0.1c0.5,0,1-0.1,1.5-0.1c0.5,0,0.9-0.1,1.4-0.2
					c1.7-0.3,2.8-0.4,2.8-0.4s-1.1,0.2-2.8,0.6c-0.4,0.1-0.9,0.2-1.4,0.2c-0.5,0.1-1,0.1-1.5,0.2c-0.5,0-1.1,0.1-1.6,0.2
					c-0.6,0-1.1,0-1.7,0c-0.6,0-1.1,0-1.7,0c-0.6,0-1.1-0.1-1.6-0.1c-0.5,0-1-0.1-1.5-0.2c-0.5-0.1-1-0.1-1.4-0.2
					C50,152.3,48.9,152,48.9,152z"/>
			</g>
		</g>
	</g>
	<g>
		<path class="st1" d="M12.6,194.5c0.6-0.1,1.6-0.2,2.5-0.2c1.4,0,2.2,0.2,2.9,0.8c0.5,0.4,0.8,1.1,0.8,1.9c0,1.3-0.8,2.2-1.9,2.5v0
			c0.8,0.3,1.2,1,1.5,2c0.3,1.4,0.6,2.3,0.8,2.7h-1.3c-0.2-0.3-0.4-1.1-0.7-2.4c-0.3-1.4-0.8-1.9-2-1.9h-1.2v4.3h-1.3V194.5z
			 M13.9,199h1.3c1.4,0,2.2-0.7,2.2-1.9c0-1.3-0.9-1.8-2.3-1.8c-0.6,0-1.1,0.1-1.3,0.1V199z"/>
		<path class="st1" d="M21.2,200.9c0,1.7,1.1,2.5,2.4,2.5c0.9,0,1.5-0.2,2-0.4l0.2,0.9c-0.5,0.2-1.2,0.4-2.4,0.4
			c-2.2,0-3.5-1.4-3.5-3.6c0-2.1,1.3-3.8,3.3-3.8c2.3,0,2.9,2,2.9,3.3c0,0.3,0,0.5,0,0.6H21.2z M25,200c0-0.8-0.3-2.1-1.8-2.1
			c-1.3,0-1.9,1.2-2,2.1H25z"/>
		<path class="st1" d="M29.4,195.1v2h1.8v1h-1.8v3.8c0,0.9,0.2,1.4,1,1.4c0.3,0,0.6,0,0.7-0.1l0.1,1c-0.2,0.1-0.6,0.2-1.1,0.2
			c-0.6,0-1.1-0.2-1.4-0.5c-0.4-0.4-0.5-1-0.5-1.8v-3.9h-1.1v-1h1.1v-1.7L29.4,195.1z"/>
		<path class="st1" d="M36.7,204.2l-0.1-0.9h0c-0.4,0.6-1.2,1.1-2.2,1.1c-1.4,0-2.2-1-2.2-2c0-1.7,1.5-2.7,4.3-2.6v-0.1
			c0-0.6-0.2-1.6-1.6-1.6c-0.7,0-1.4,0.2-1.8,0.5l-0.3-0.9c0.6-0.4,1.4-0.6,2.3-0.6c2.2,0,2.7,1.5,2.7,2.9v2.7c0,0.6,0,1.2,0.1,1.7
			H36.7z M36.5,200.6c-1.4,0-3,0.2-3,1.6c0,0.8,0.6,1.2,1.2,1.2c0.9,0,1.5-0.6,1.7-1.2c0-0.1,0.1-0.3,0.1-0.4V200.6z"/>
		<path class="st1" d="M46.8,204.2l-0.1-0.9h0c-0.4,0.6-1.2,1.1-2.2,1.1c-1.4,0-2.2-1-2.2-2c0-1.7,1.5-2.7,4.3-2.6v-0.1
			c0-0.6-0.2-1.6-1.6-1.6c-0.7,0-1.4,0.2-1.8,0.5l-0.3-0.9c0.6-0.4,1.4-0.6,2.3-0.6c2.2,0,2.7,1.5,2.7,2.9v2.7c0,0.6,0,1.2,0.1,1.7
			H46.8z M46.7,200.6c-1.4,0-3,0.2-3,1.6c0,0.8,0.6,1.2,1.2,1.2c0.9,0,1.5-0.6,1.7-1.2c0-0.1,0.1-0.3,0.1-0.4V200.6z"/>
		<path class="st1" d="M59,202.3c0,0.7,0,1.4,0.1,1.9H58l-0.1-1.2h0c-0.3,0.6-1.1,1.3-2.3,1.3c-1.1,0-2.5-0.6-2.5-3.1v-4.2h1.3v3.9
			c0,1.4,0.4,2.3,1.6,2.3c0.9,0,1.5-0.6,1.7-1.2c0.1-0.2,0.1-0.4,0.1-0.7v-4.4H59V202.3z"/>
		<path class="st1" d="M61.2,199.1c0-0.7,0-1.3-0.1-1.9h1.1l0.1,1.2h0c0.4-0.7,1.2-1.3,2.3-1.3c1,0,2.5,0.6,2.5,3v4.2h-1.3v-4.1
			c0-1.1-0.4-2.1-1.6-2.1c-0.9,0-1.5,0.6-1.7,1.3c-0.1,0.2-0.1,0.4-0.1,0.6v4.3h-1.3V199.1z"/>
		<path class="st1" d="M70.7,206.3c0.6,0,1.1-0.2,1.4-0.5c0.4-0.4,0.5-1,0.5-2.7v-5.9h1.3v6.4c0,1.4-0.2,2.3-0.9,2.9
			c-0.6,0.6-1.5,0.8-2.2,0.8L70.7,206.3z M74.1,195.1c0,0.4-0.3,0.8-0.8,0.8c-0.5,0-0.8-0.4-0.8-0.8c0-0.5,0.3-0.8,0.8-0.8
			C73.7,194.3,74.1,194.7,74.1,195.1z"/>
		<path class="st1" d="M82,202.3c0,0.7,0,1.4,0.1,1.9h-1.1l-0.1-1.2h0c-0.3,0.6-1.1,1.3-2.3,1.3c-1.1,0-2.5-0.6-2.5-3.1v-4.2h1.3
			v3.9c0,1.4,0.4,2.3,1.6,2.3c0.9,0,1.5-0.6,1.7-1.2c0.1-0.2,0.1-0.4,0.1-0.7v-4.4H82V202.3z"/>
		<path class="st1" d="M90.2,197.1c0,0.5-0.1,1.1-0.1,2v4.1c0,1.6-0.3,2.6-1,3.2c-0.7,0.6-1.7,0.9-2.6,0.9c-0.9,0-1.8-0.2-2.4-0.6
			l0.3-1c0.5,0.3,1.2,0.6,2.1,0.6c1.3,0,2.3-0.7,2.3-2.5V203h0c-0.4,0.7-1.2,1.2-2.3,1.2c-1.8,0-3-1.5-3-3.5c0-2.4,1.6-3.8,3.2-3.8
			c1.2,0,1.9,0.6,2.2,1.2h0l0.1-1.1H90.2z M88.9,199.9c0-0.2,0-0.4-0.1-0.6c-0.2-0.7-0.9-1.4-1.8-1.4c-1.2,0-2.1,1-2.1,2.7
			c0,1.4,0.7,2.6,2.1,2.6c0.8,0,1.5-0.5,1.8-1.3c0.1-0.2,0.1-0.5,0.1-0.7V199.9z"/>
		<path class="st1" d="M96.3,204.2l-0.1-0.9h0c-0.4,0.6-1.2,1.1-2.2,1.1c-1.4,0-2.2-1-2.2-2c0-1.7,1.5-2.7,4.3-2.6v-0.1
			c0-0.6-0.2-1.6-1.6-1.6c-0.7,0-1.4,0.2-1.8,0.5l-0.3-0.9c0.6-0.4,1.4-0.6,2.3-0.6c2.2,0,2.7,1.5,2.7,2.9v2.7c0,0.6,0,1.2,0.1,1.7
			H96.3z M96.1,200.6c-1.4,0-3,0.2-3,1.6c0,0.8,0.6,1.2,1.2,1.2c0.9,0,1.5-0.6,1.7-1.2c0-0.1,0.1-0.3,0.1-0.4V200.6z"/>
		<path class="st1" d="M105.5,193.8v8.6c0,0.6,0,1.4,0.1,1.8h-1.2l-0.1-1.2h0c-0.4,0.8-1.3,1.4-2.4,1.4c-1.7,0-3-1.5-3-3.6
			c0-2.4,1.5-3.8,3.2-3.8c1.1,0,1.8,0.5,2.1,1.1h0v-4.2H105.5z M104.2,200c0-0.2,0-0.4-0.1-0.5c-0.2-0.8-0.9-1.5-1.9-1.5
			c-1.3,0-2.1,1.2-2.1,2.7c0,1.4,0.7,2.6,2.1,2.6c0.9,0,1.7-0.6,1.9-1.5c0-0.2,0.1-0.4,0.1-0.6V200z"/>
		<path class="st1" d="M114.1,200.6c0,2.6-1.8,3.8-3.5,3.8c-1.9,0-3.4-1.4-3.4-3.7c0-2.4,1.6-3.8,3.5-3.8
			C112.7,197,114.1,198.5,114.1,200.6z M108.5,200.7c0,1.6,0.9,2.7,2.2,2.7c1.2,0,2.2-1.2,2.2-2.8c0-1.2-0.6-2.7-2.1-2.7
			C109.1,197.9,108.5,199.4,108.5,200.7z"/>
		<path class="st1" d="M115.7,199.4c0-0.8,0-1.6-0.1-2.2h1.1l0,1.4h0.1c0.3-1,1.1-1.6,2-1.6c0.1,0,0.2,0,0.4,0v1.2
			c-0.1,0-0.3,0-0.4,0c-0.9,0-1.6,0.7-1.7,1.7c0,0.2-0.1,0.4-0.1,0.6v3.8h-1.3V199.4z"/>
		<path class="st1" d="M127.6,204.2l-0.1-0.9h0c-0.4,0.6-1.2,1.1-2.2,1.1c-1.4,0-2.2-1-2.2-2c0-1.7,1.5-2.7,4.3-2.6v-0.1
			c0-0.6-0.2-1.6-1.6-1.6c-0.7,0-1.4,0.2-1.8,0.5l-0.3-0.9c0.6-0.4,1.4-0.6,2.3-0.6c2.2,0,2.7,1.5,2.7,2.9v2.7c0,0.6,0,1.2,0.1,1.7
			H127.6z M127.4,200.6c-1.4,0-3,0.2-3,1.6c0,0.8,0.6,1.2,1.2,1.2c0.9,0,1.5-0.6,1.7-1.2c0-0.1,0.1-0.3,0.1-0.4V200.6z"/>
		<path class="st1" d="M133.8,204.2c0-0.5,0.1-1.2,0.1-1.8v-8.6h1.3v4.5h0c0.5-0.8,1.3-1.3,2.4-1.3c1.8,0,3,1.5,3,3.6
			c0,2.5-1.6,3.8-3.2,3.8c-1,0-1.8-0.4-2.4-1.3h0l-0.1,1.2H133.8z M135.1,201.4c0,0.2,0,0.3,0.1,0.5c0.3,0.9,1,1.5,1.9,1.5
			c1.4,0,2.2-1.1,2.2-2.7c0-1.4-0.7-2.6-2.1-2.6c-0.9,0-1.7,0.6-2,1.6c0,0.1-0.1,0.3-0.1,0.5V201.4z"/>
		<path class="st1" d="M142.9,200.9c0,1.7,1.1,2.5,2.4,2.5c0.9,0,1.5-0.2,2-0.4l0.2,0.9c-0.5,0.2-1.2,0.4-2.4,0.4
			c-2.2,0-3.5-1.4-3.5-3.6c0-2.1,1.3-3.8,3.3-3.8c2.3,0,2.9,2,2.9,3.3c0,0.3,0,0.5,0,0.6H142.9z M146.7,200c0-0.8-0.3-2.1-1.8-2.1
			c-1.3,0-1.9,1.2-2,2.1H146.7z"/>
		<path class="st1" d="M149.5,204.2c0-0.5,0.1-1.2,0.1-1.8v-8.6h1.3v4.5h0c0.5-0.8,1.3-1.3,2.4-1.3c1.8,0,3,1.5,3,3.6
			c0,2.5-1.6,3.8-3.2,3.8c-1,0-1.8-0.4-2.4-1.3h0l-0.1,1.2H149.5z M150.8,201.4c0,0.2,0,0.3,0.1,0.5c0.3,0.9,1,1.5,1.9,1.5
			c1.4,0,2.2-1.1,2.2-2.7c0-1.4-0.7-2.6-2.1-2.6c-0.9,0-1.7,0.6-2,1.6c0,0.1-0.1,0.3-0.1,0.5V201.4z"/>
		<path class="st1" d="M158.6,200.9c0,1.7,1.1,2.5,2.4,2.5c0.9,0,1.5-0.2,2-0.4l0.2,0.9c-0.5,0.2-1.2,0.4-2.4,0.4
			c-2.2,0-3.5-1.4-3.5-3.6c0-2.1,1.3-3.8,3.3-3.8c2.3,0,2.9,2,2.9,3.3c0,0.3,0,0.5,0,0.6H158.6z M162.4,200c0-0.8-0.3-2.1-1.8-2.1
			c-1.3,0-1.9,1.2-2,2.1H162.4z"/>
		<path class="st1" d="M165.3,199.4c0-0.8,0-1.6-0.1-2.2h1.1l0,1.4h0.1c0.3-1,1.1-1.6,2-1.6c0.1,0,0.3,0,0.4,0v1.2
			c-0.1,0-0.3,0-0.4,0c-0.9,0-1.6,0.7-1.7,1.7c0,0.2-0.1,0.4-0.1,0.6v3.8h-1.3V199.4z"/>
		<path class="st1" d="M12.6,221.9c0-0.5,0.1-1.2,0.1-1.8v-8.6h1.3v4.5h0c0.5-0.8,1.3-1.3,2.4-1.3c1.8,0,3,1.5,3,3.6
			c0,2.5-1.6,3.8-3.2,3.8c-1,0-1.8-0.4-2.4-1.3h0l-0.1,1.2H12.6z M13.9,219c0,0.2,0,0.3,0.1,0.5c0.2,0.9,1,1.5,1.9,1.5
			c1.4,0,2.2-1.1,2.2-2.7c0-1.4-0.7-2.6-2.1-2.6c-0.9,0-1.7,0.6-2,1.6c0,0.1-0.1,0.3-0.1,0.5V219z"/>
		<path class="st1" d="M27.4,218.3c0,2.6-1.8,3.8-3.5,3.8c-1.9,0-3.4-1.4-3.4-3.7c0-2.4,1.6-3.8,3.5-3.8
			C26,214.6,27.4,216.1,27.4,218.3z M21.8,218.3c0,1.6,0.9,2.7,2.2,2.7c1.2,0,2.2-1.2,2.2-2.8c0-1.2-0.6-2.7-2.1-2.7
			C22.4,215.6,21.8,217,21.8,218.3z"/>
		<path class="st1" d="M34.1,221.6c-0.3,0.2-1.1,0.4-2,0.4c-2.1,0-3.5-1.5-3.5-3.6c0-2.2,1.5-3.8,3.8-3.8c0.8,0,1.4,0.2,1.8,0.4
			l-0.3,1c-0.3-0.2-0.8-0.3-1.5-0.3c-1.6,0-2.5,1.2-2.5,2.7c0,1.6,1.1,2.7,2.5,2.7c0.7,0,1.2-0.2,1.6-0.4L34.1,221.6z"/>
		<path class="st1" d="M39.5,221.9l-0.1-0.9h0c-0.4,0.6-1.2,1.1-2.2,1.1c-1.4,0-2.2-1-2.2-2c0-1.7,1.5-2.7,4.3-2.6v-0.1
			c0-0.6-0.2-1.6-1.6-1.6c-0.7,0-1.4,0.2-1.8,0.5l-0.3-0.9c0.6-0.4,1.4-0.6,2.3-0.6c2.2,0,2.7,1.5,2.7,2.9v2.7c0,0.6,0,1.2,0.1,1.7
			H39.5z M39.4,218.2c-1.4,0-3,0.2-3,1.6c0,0.8,0.6,1.2,1.2,1.2c0.9,0,1.5-0.6,1.7-1.2c0-0.1,0.1-0.3,0.1-0.4V218.2z"/>
		<path class="st1" d="M49.7,221.9l-0.1-0.9h0c-0.4,0.6-1.2,1.1-2.2,1.1c-1.4,0-2.2-1-2.2-2c0-1.7,1.5-2.7,4.3-2.6v-0.1
			c0-0.6-0.2-1.6-1.6-1.6c-0.7,0-1.4,0.2-1.8,0.5l-0.3-0.9c0.6-0.4,1.4-0.6,2.3-0.6c2.2,0,2.7,1.5,2.7,2.9v2.7c0,0.6,0,1.2,0.1,1.7
			H49.7z M49.5,218.2c-1.4,0-3,0.2-3,1.6c0,0.8,0.6,1.2,1.2,1.2c0.9,0,1.5-0.6,1.7-1.2c0-0.1,0.1-0.3,0.1-0.4V218.2z"/>
		<path class="st1" d="M52.8,221.9c0-0.5,0.1-1.2,0.1-1.8v-8.6h1.3v4.5h0c0.5-0.8,1.3-1.3,2.4-1.3c1.8,0,3,1.5,3,3.6
			c0,2.5-1.6,3.8-3.2,3.8c-1,0-1.8-0.4-2.4-1.3h0l-0.1,1.2H52.8z M54.2,219c0,0.2,0,0.3,0.1,0.5c0.2,0.9,1,1.5,1.9,1.5
			c1.4,0,2.2-1.1,2.2-2.7c0-1.4-0.7-2.6-2.1-2.6c-0.9,0-1.7,0.6-2,1.6c0,0.1-0.1,0.3-0.1,0.5V219z"/>
		<path class="st1" d="M65.2,221.9l-0.1-0.9h0c-0.4,0.6-1.2,1.1-2.2,1.1c-1.4,0-2.2-1-2.2-2c0-1.7,1.5-2.7,4.3-2.6v-0.1
			c0-0.6-0.2-1.6-1.6-1.6c-0.7,0-1.4,0.2-1.8,0.5l-0.3-0.9c0.6-0.4,1.4-0.6,2.3-0.6c2.2,0,2.7,1.5,2.7,2.9v2.7c0,0.6,0,1.2,0.1,1.7
			H65.2z M65,218.2c-1.4,0-3,0.2-3,1.6c0,0.8,0.6,1.2,1.2,1.2c0.9,0,1.5-0.6,1.7-1.2c0-0.1,0.1-0.3,0.1-0.4V218.2z"/>
		<path class="st1" d="M66.6,223.9c0.6,0,1.1-0.2,1.4-0.5c0.4-0.4,0.5-1,0.5-2.7v-5.9h1.3v6.4c0,1.4-0.2,2.3-0.9,2.9
			c-0.6,0.6-1.5,0.8-2.2,0.8L66.6,223.9z M69.9,212.8c0,0.4-0.3,0.8-0.8,0.8c-0.5,0-0.8-0.4-0.8-0.8c0-0.5,0.3-0.8,0.8-0.8
			C69.6,212,69.9,212.3,69.9,212.8z"/>
		<path class="st1" d="M78.3,218.3c0,2.6-1.8,3.8-3.5,3.8c-1.9,0-3.4-1.4-3.4-3.7c0-2.4,1.6-3.8,3.5-3.8
			C76.9,214.6,78.3,216.1,78.3,218.3z M72.7,218.3c0,1.6,0.9,2.7,2.2,2.7c1.2,0,2.2-1.2,2.2-2.8c0-1.2-0.6-2.7-2.1-2.7
			C73.3,215.6,72.7,217,72.7,218.3z"/>
		<path class="st1" d="M78.8,223.7c0.3-0.9,0.7-2.4,0.9-3.5l1.4-0.1c-0.3,1.2-1,2.9-1.4,3.6L78.8,223.7z"/>
		<path class="st1" d="M86.5,218.5c0,1.7,1.1,2.5,2.4,2.5c0.9,0,1.5-0.2,2-0.4l0.2,0.9c-0.5,0.2-1.2,0.4-2.4,0.4
			c-2.2,0-3.5-1.4-3.5-3.6c0-2.1,1.3-3.8,3.3-3.8c2.3,0,2.9,2,2.9,3.3c0,0.3,0,0.5,0,0.6H86.5z M90.2,217.6c0-0.8-0.3-2.1-1.8-2.1
			c-1.3,0-1.9,1.2-2,2.1H90.2z"/>
		<path class="st1" d="M93.1,211.4h1.3v10.4h-1.3V211.4z"/>
		<path class="st1" d="M99.7,217.1c0-0.9,0-1.6-0.1-2.3h1.2l0.1,1.2h0c0.5-0.9,1.4-1.4,2.5-1.4c1.7,0,3,1.5,3,3.6
			c0,2.6-1.6,3.8-3.2,3.8c-0.9,0-1.8-0.4-2.2-1.1h0v3.9h-1.3V217.1z M101,219c0,0.2,0,0.4,0.1,0.5c0.2,0.9,1,1.5,1.9,1.5
			c1.4,0,2.2-1.1,2.2-2.7c0-1.4-0.7-2.6-2.1-2.6c-0.9,0-1.7,0.6-2,1.6c0,0.2-0.1,0.4-0.1,0.5V219z"/>
		<path class="st1" d="M108.8,218.5c0,1.7,1.1,2.5,2.4,2.5c0.9,0,1.5-0.2,2-0.4l0.2,0.9c-0.5,0.2-1.2,0.4-2.4,0.4
			c-2.2,0-3.5-1.4-3.5-3.6c0-2.1,1.3-3.8,3.3-3.8c2.3,0,2.9,2,2.9,3.3c0,0.3,0,0.5,0,0.6H108.8z M112.5,217.6c0-0.8-0.3-2.1-1.8-2.1
			c-1.3,0-1.9,1.2-2,2.1H112.5z"/>
		<path class="st1" d="M115.4,217c0-0.8,0-1.6-0.1-2.2h1.1l0,1.4h0.1c0.3-1,1.1-1.6,2-1.6c0.1,0,0.3,0,0.4,0v1.2c-0.1,0-0.3,0-0.4,0
			c-0.9,0-1.6,0.7-1.7,1.7c0,0.2-0.1,0.4-0.1,0.6v3.8h-1.3V217z"/>
		<path class="st1" d="M126.2,211.4v8.6c0,0.6,0,1.4,0.1,1.8h-1.2l-0.1-1.2h0c-0.4,0.8-1.3,1.4-2.4,1.4c-1.7,0-3-1.5-3-3.6
			c0-2.4,1.5-3.8,3.2-3.8c1.1,0,1.8,0.5,2.1,1.1h0v-4.2H126.2z M124.9,217.6c0-0.2,0-0.4-0.1-0.5c-0.2-0.8-0.9-1.5-1.9-1.5
			c-1.3,0-2.1,1.2-2.1,2.7c0,1.4,0.7,2.6,2.1,2.6c0.9,0,1.7-0.6,1.9-1.5c0-0.2,0.1-0.4,0.1-0.6V217.6z"/>
		<path class="st1" d="M129,218.5c0,1.7,1.1,2.5,2.4,2.5c0.9,0,1.5-0.2,2-0.4l0.2,0.9c-0.5,0.2-1.2,0.4-2.4,0.4
			c-2.2,0-3.5-1.4-3.5-3.6c0-2.1,1.3-3.8,3.3-3.8c2.3,0,2.9,2,2.9,3.3c0,0.3,0,0.5,0,0.6H129z M132.8,217.6c0-0.8-0.3-2.1-1.8-2.1
			c-1.3,0-1.9,1.2-2,2.1H132.8z"/>
		<path class="st1" d="M141.8,211.4v8.6c0,0.6,0,1.4,0.1,1.8h-1.2l-0.1-1.2h0c-0.4,0.8-1.3,1.4-2.4,1.4c-1.7,0-3-1.5-3-3.6
			c0-2.4,1.5-3.8,3.2-3.8c1.1,0,1.8,0.5,2.1,1.1h0v-4.2H141.8z M140.5,217.6c0-0.2,0-0.4-0.1-0.5c-0.2-0.8-0.9-1.5-1.9-1.5
			c-1.3,0-2.1,1.2-2.1,2.7c0,1.4,0.7,2.6,2.1,2.6c0.9,0,1.7-0.6,1.9-1.5c0-0.2,0.1-0.4,0.1-0.6V217.6z"/>
		<path class="st1" d="M150.4,218.3c0,2.6-1.8,3.8-3.5,3.8c-1.9,0-3.4-1.4-3.4-3.7c0-2.4,1.6-3.8,3.5-3.8
			C149,214.6,150.4,216.1,150.4,218.3z M144.8,218.3c0,1.6,0.9,2.7,2.2,2.7c1.2,0,2.2-1.2,2.2-2.8c0-1.2-0.6-2.7-2.1-2.7
			C145.4,215.6,144.8,217,144.8,218.3z"/>
		<path class="st1" d="M152,217c0-0.8,0-1.6-0.1-2.2h1.1l0,1.4h0.1c0.3-1,1.1-1.6,2-1.6c0.1,0,0.2,0,0.4,0v1.2c-0.1,0-0.3,0-0.4,0
			c-0.9,0-1.6,0.7-1.7,1.7c0,0.2-0.1,0.4-0.1,0.6v3.8H152V217z"/>
		<path class="st1" d="M159.8,220.5c0.4,0.3,1.1,0.5,1.7,0.5c0.9,0,1.4-0.5,1.4-1.1c0-0.6-0.4-1-1.3-1.3c-1.3-0.5-1.9-1.2-1.9-2
			c0-1.1,0.9-2.1,2.5-2.1c0.7,0,1.4,0.2,1.7,0.4l-0.3,0.9c-0.3-0.2-0.8-0.4-1.5-0.4c-0.8,0-1.2,0.4-1.2,1c0,0.6,0.4,0.9,1.4,1.2
			c1.2,0.5,1.9,1.1,1.9,2.1c0,1.2-1,2.1-2.7,2.1c-0.8,0-1.5-0.2-2-0.5L159.8,220.5z"/>
		<path class="st1" d="M166.5,218.5c0,1.7,1.1,2.5,2.4,2.5c0.9,0,1.5-0.2,2-0.4l0.2,0.9c-0.5,0.2-1.2,0.4-2.4,0.4
			c-2.2,0-3.5-1.4-3.5-3.6c0-2.1,1.3-3.8,3.3-3.8c2.3,0,2.9,2,2.9,3.3c0,0.3,0,0.5,0,0.6H166.5z M170.3,217.6c0-0.8-0.3-2.1-1.8-2.1
			c-1.3,0-1.9,1.2-2,2.1H170.3z"/>
		<path class="st1" d="M37.7,238.4L37.7,238.4c-0.4,0.7-1.2,1.3-2.3,1.3c-1.7,0-3-1.4-3-3.6c0-2.7,1.7-3.8,3.2-3.8
			c1.1,0,1.8,0.5,2.2,1.2h0l0-1.1H39c0,0.6,0,1.2,0,2v8.1h-1.3V238.4z M37.7,235.3c0-0.2,0-0.4-0.1-0.5c-0.2-0.8-0.9-1.5-1.8-1.5
			c-1.3,0-2.1,1.1-2.1,2.7c0,1.4,0.7,2.6,2.1,2.6c0.8,0,1.6-0.5,1.8-1.4c0.1-0.2,0.1-0.4,0.1-0.6V235.3z"/>
		<path class="st1" d="M47,237.5c0,0.7,0,1.4,0.1,1.9H46l-0.1-1.2h0c-0.3,0.6-1.1,1.3-2.3,1.3c-1.1,0-2.5-0.6-2.5-3.1v-4.2h1.3v3.9
			c0,1.4,0.4,2.3,1.6,2.3c0.9,0,1.5-0.6,1.7-1.2c0.1-0.2,0.1-0.4,0.1-0.7v-4.4H47V237.5z"/>
		<path class="st1" d="M50.6,230.4c0,0.4-0.3,0.8-0.8,0.8c-0.5,0-0.8-0.4-0.8-0.8c0-0.5,0.3-0.8,0.8-0.8
			C50.3,229.6,50.6,229.9,50.6,230.4z M49.2,239.5v-7.1h1.3v7.1H49.2z"/>
		<path class="st1" d="M54.2,230.3v2H56v1h-1.8v3.8c0,0.9,0.2,1.4,1,1.4c0.3,0,0.6,0,0.7-0.1l0.1,1c-0.2,0.1-0.6,0.2-1.1,0.2
			c-0.6,0-1.1-0.2-1.4-0.5c-0.4-0.4-0.5-1-0.5-1.8v-3.9h-1.1v-1h1.1v-1.7L54.2,230.3z"/>
		<path class="st1" d="M61.4,239.5l-0.1-0.9h0c-0.4,0.6-1.2,1.1-2.2,1.1c-1.4,0-2.2-1-2.2-2c0-1.7,1.5-2.7,4.3-2.6v-0.1
			c0-0.6-0.2-1.6-1.6-1.6c-0.7,0-1.4,0.2-1.8,0.5l-0.3-0.9c0.6-0.4,1.4-0.6,2.3-0.6c2.2,0,2.7,1.5,2.7,2.9v2.7c0,0.6,0,1.2,0.1,1.7
			H61.4z M61.2,235.9c-1.4,0-3,0.2-3,1.6c0,0.8,0.6,1.2,1.2,1.2c0.9,0,1.5-0.6,1.7-1.2c0-0.1,0.1-0.3,0.1-0.4V235.9z"/>
		<path class="st1" d="M64.6,234.6c0-0.8,0-1.6-0.1-2.2h1.1l0,1.4h0.1c0.3-1,1.1-1.6,2-1.6c0.1,0,0.2,0,0.4,0v1.2
			c-0.1,0-0.3,0-0.4,0c-0.9,0-1.6,0.7-1.7,1.7c0,0.2-0.1,0.4-0.1,0.6v3.8h-1.3V234.6z"/>
		<path class="st1" d="M73.2,239.5l-0.1-0.9h0c-0.4,0.6-1.2,1.1-2.2,1.1c-1.4,0-2.2-1-2.2-2c0-1.7,1.5-2.7,4.3-2.6v-0.1
			c0-0.6-0.2-1.6-1.6-1.6c-0.7,0-1.4,0.2-1.8,0.5l-0.3-0.9c0.6-0.4,1.4-0.6,2.3-0.6c2.2,0,2.7,1.5,2.7,2.9v2.7c0,0.6,0,1.2,0.1,1.7
			H73.2z M73,235.9c-1.4,0-3,0.2-3,1.6c0,0.8,0.6,1.2,1.2,1.2c0.9,0,1.5-0.6,1.7-1.2c0-0.1,0.1-0.3,0.1-0.4V235.9z"/>
		<path class="st1" d="M85.4,237.5c0,0.7,0,1.4,0.1,1.9h-1.1l-0.1-1.2h0c-0.3,0.6-1.1,1.3-2.3,1.3c-1.1,0-2.5-0.6-2.5-3.1v-4.2h1.3
			v3.9c0,1.4,0.4,2.3,1.6,2.3c0.9,0,1.5-0.6,1.7-1.2c0.1-0.2,0.1-0.4,0.1-0.7v-4.4h1.3V237.5z"/>
		<path class="st1" d="M87.6,234.3c0-0.7,0-1.3-0.1-1.9h1.1l0.1,1.2h0c0.4-0.7,1.2-1.3,2.3-1.3c1,0,2.5,0.6,2.5,3v4.2h-1.3v-4.1
			c0-1.1-0.4-2.1-1.6-2.1c-0.9,0-1.5,0.6-1.7,1.3c-0.1,0.2-0.1,0.4-0.1,0.6v4.3h-1.3V234.3z"/>
		<path class="st1" d="M99.7,239.5l-0.1-0.9h0c-0.4,0.6-1.2,1.1-2.2,1.1c-1.4,0-2.2-1-2.2-2c0-1.7,1.5-2.7,4.3-2.6v-0.1
			c0-0.6-0.2-1.6-1.6-1.6c-0.7,0-1.4,0.2-1.8,0.5l-0.3-0.9c0.6-0.4,1.4-0.6,2.3-0.6c2.2,0,2.7,1.5,2.7,2.9v2.7c0,0.6,0,1.2,0.1,1.7
			H99.7z M99.5,235.9c-1.4,0-3,0.2-3,1.6c0,0.8,0.6,1.2,1.2,1.2c0.9,0,1.5-0.6,1.7-1.2c0-0.1,0.1-0.3,0.1-0.4V235.9z"/>
		<path class="st1" d="M105.9,234.7c0-0.9,0-1.6-0.1-2.3h1.2l0.1,1.2h0c0.5-0.9,1.4-1.4,2.5-1.4c1.7,0,3,1.5,3,3.6
			c0,2.6-1.6,3.8-3.2,3.8c-0.9,0-1.8-0.4-2.2-1.1h0v3.9h-1.3V234.7z M107.2,236.6c0,0.2,0,0.4,0.1,0.5c0.2,0.9,1,1.5,1.9,1.5
			c1.4,0,2.2-1.1,2.2-2.7c0-1.4-0.7-2.6-2.1-2.6c-0.9,0-1.7,0.6-2,1.6c0,0.2-0.1,0.4-0.1,0.5V236.6z"/>
		<path class="st1" d="M114.3,234.6c0-0.8,0-1.6-0.1-2.2h1.1l0,1.4h0.1c0.3-1,1.1-1.6,2-1.6c0.1,0,0.2,0,0.4,0v1.2
			c-0.1,0-0.3,0-0.4,0c-0.9,0-1.6,0.7-1.7,1.7c0,0.2-0.1,0.4-0.1,0.6v3.8h-1.3V234.6z"/>
		<path class="st1" d="M119.6,236.2c0,1.7,1.1,2.5,2.4,2.5c0.9,0,1.5-0.2,2-0.4l0.2,0.9c-0.5,0.2-1.2,0.4-2.4,0.4
			c-2.2,0-3.5-1.4-3.5-3.6c0-2.1,1.3-3.8,3.3-3.8c2.3,0,2.9,2,2.9,3.3c0,0.3,0,0.5,0,0.6H119.6z M123.4,235.2c0-0.8-0.3-2.1-1.8-2.1
			c-1.3,0-1.9,1.2-2,2.1H123.4z"/>
		<path class="st1" d="M126.3,234.3c0-0.7,0-1.3-0.1-1.9h1.1l0.1,1.2h0c0.4-0.7,1.2-1.3,2.3-1.3c1,0,2.5,0.6,2.5,3v4.2H131v-4.1
			c0-1.1-0.4-2.1-1.6-2.1c-0.9,0-1.5,0.6-1.7,1.3c-0.1,0.2-0.1,0.4-0.1,0.6v4.3h-1.3V234.3z"/>
		<path class="st1" d="M140.6,229.1v8.6c0,0.6,0,1.4,0.1,1.8h-1.2l-0.1-1.2h0c-0.4,0.8-1.3,1.4-2.4,1.4c-1.7,0-3-1.5-3-3.6
			c0-2.4,1.5-3.8,3.2-3.8c1.1,0,1.8,0.5,2.1,1.1h0v-4.2H140.6z M139.3,235.3c0-0.2,0-0.4-0.1-0.5c-0.2-0.8-0.9-1.5-1.9-1.5
			c-1.3,0-2.1,1.2-2.1,2.7c0,1.4,0.7,2.6,2.1,2.6c0.9,0,1.7-0.6,1.9-1.5c0-0.2,0.1-0.4,0.1-0.6V235.3z"/>
		<path class="st1" d="M146.6,239.5l-0.1-0.9h0c-0.4,0.6-1.2,1.1-2.2,1.1c-1.4,0-2.2-1-2.2-2c0-1.7,1.5-2.7,4.3-2.6v-0.1
			c0-0.6-0.2-1.6-1.6-1.6c-0.7,0-1.4,0.2-1.8,0.5l-0.3-0.9c0.6-0.4,1.4-0.6,2.3-0.6c2.2,0,2.7,1.5,2.7,2.9v2.7c0,0.6,0,1.2,0.1,1.7
			H146.6z M146.5,235.9c-1.4,0-3,0.2-3,1.6c0,0.8,0.6,1.2,1.2,1.2c0.9,0,1.5-0.6,1.7-1.2c0-0.1,0.1-0.3,0.1-0.4V235.9z"/>
	</g>
</g>
</svg>
