<?xml version="1.0" encoding="utf-8"?>
<!-- Generator: Adobe Illustrator 19.1.1, SVG Export Plug-In . SVG Version: 6.00 Build 0)  -->
<svg version="1.1" xmlns="http://www.w3.org/2000/svg" xmlns:xlink="http://www.w3.org/1999/xlink" x="0px" y="0px"
	 viewBox="0 0 181.4 252.3" style="enable-background:new 0 0 181.4 252.3;" xml:space="preserve">
<style type="text/css">
	.st0{fill:#808285;}
	.st1{fill:#6D6E71;}
	.st2{fill:#808285;stroke:#000000;stroke-miterlimit:10;}
	.st3{fill:#D1D3D4;}
	.st4{fill:#A7A9AC;}
	.st5{fill:#512B8B;}
	.st6{fill:#FFFFFF;}
</style>
<g id="BG">
</g>
<g id="Image_1_">
	<g>
		<path class="st0" d="M108.7,141.3c0,0,9.4,21.7,7.9,36.3l-1.4,6.7h12.2c0,0-1.9-26.8-8.2-39.7"/>
		<path d="M108.7,141.3c1.3,2.8,2.4,5.8,3.5,8.7c0.3,0.7,0.5,1.5,0.8,2.2c0.2,0.7,0.5,1.5,0.7,2.2c0.5,1.5,0.9,3,1.3,4.5
			c0.2,0.8,0.4,1.5,0.6,2.3c0.2,0.8,0.4,1.5,0.5,2.3l0.4,2.3l0.3,2.3c0.1,0.8,0.2,1.6,0.2,2.3c0.1,0.8,0.1,1.6,0.1,2.4
			c0,0.8,0.1,1.6,0,2.4l-0.1,2.4l0,0l0,0l-1.4,6.7l-0.5-0.6c4.1,0,8.1,0,12.2,0l-0.5,0.5c-0.2-3.4-0.6-6.7-1-10.1
			c-0.4-3.4-0.9-6.7-1.4-10c-0.1-0.8-0.3-1.7-0.4-2.5c-0.2-0.8-0.3-1.7-0.5-2.5c-0.4-1.7-0.7-3.3-1.1-4.9c-0.2-0.8-0.4-1.6-0.7-2.5
			c-0.2-0.8-0.4-1.6-0.7-2.4c-0.3-0.8-0.5-1.6-0.8-2.4l-1-2.4l1.1,2.3c0.3,0.8,0.6,1.6,0.9,2.4c0.3,0.8,0.6,1.6,0.8,2.4
			c0.3,0.8,0.5,1.6,0.7,2.4c0.2,0.8,0.5,1.6,0.7,2.5l0.6,2.5c0.2,0.8,0.4,1.7,0.5,2.5c0.2,0.8,0.3,1.7,0.5,2.5
			c0.6,3.3,1.2,6.7,1.6,10.1c0.4,3.4,0.8,6.7,1.1,10.1l0,0.5l-0.5,0c-4.1,0-8.1,0-12.2,0l-0.6,0l0.1-0.6l1.5-6.7l0,0l0.1-2.3
			c0.1-0.8,0-1.5,0-2.3c0-0.8,0-1.5-0.1-2.3c-0.1-0.8-0.1-1.5-0.2-2.3l-0.3-2.3l-0.4-2.3c-0.1-0.8-0.3-1.5-0.4-2.3
			c-0.2-0.8-0.3-1.5-0.5-2.3c-0.4-1.5-0.7-3-1.2-4.5c-0.2-0.8-0.4-1.5-0.7-2.2c-0.2-0.8-0.4-1.5-0.7-2.2
			C110.9,147.2,109.9,144.2,108.7,141.3z"/>
	</g>
	<g>
		<path class="st1" d="M140.3,94.3c0,0,20.9,9.3,7.8,35.3c0,0,7.1-4,0,13s-11.8,4.8-11.8,4.8L140.3,94.3z"/>
		<path d="M140.4,94.3c1.6,0.7,3,1.6,4.3,2.7c0.7,0.5,1.3,1.1,1.9,1.7c0.6,0.6,1.2,1.2,1.7,1.9c0.5,0.7,1,1.4,1.5,2.1
			c0.2,0.4,0.4,0.7,0.6,1.1c0.2,0.4,0.4,0.8,0.6,1.2c0.2,0.4,0.3,0.8,0.5,1.2c0.2,0.4,0.3,0.8,0.4,1.2c0.3,0.8,0.4,1.7,0.6,2.5
			c0.1,0.9,0.3,1.7,0.3,2.6c0.1,0.9,0,1.7,0,2.6c-0.1,0.9-0.1,1.7-0.3,2.6c-0.1,0.9-0.3,1.7-0.5,2.5c-0.2,0.8-0.4,1.7-0.7,2.5
			c-0.3,0.8-0.6,1.6-0.9,2.4l-1,2.4l-1.1,2.3l-0.4-0.4c0.7-0.3,1.5-0.6,2.3-0.3c0.4,0.2,0.7,0.5,0.9,0.9c0.2,0.4,0.2,0.8,0.3,1.1
			c0.1,1.5-0.2,3-0.6,4.4c-0.4,1.4-0.9,2.8-1.4,4.2c-0.5,1.4-1,2.7-1.6,4.1c-0.3,0.7-0.6,1.3-0.9,2c-0.3,0.7-0.7,1.3-1.1,1.9
			c-0.4,0.6-0.8,1.2-1.2,1.8c-0.5,0.6-1,1.2-1.6,1.6c-0.6,0.5-1.4,0.8-2.2,0.9c-0.8,0-1.6-0.3-2.3-0.8c-0.6-0.5-1.1-1.1-1.6-1.7
			c-0.4-0.6-0.8-1.3-1.1-2l0-0.1l0-0.1l0.9-13.3l1-13.3l1.2-13.3C139.4,103.2,139.8,98.7,140.4,94.3L140.4,94.3L140.4,94.3z
			 M140.4,94.4c-0.2,4.4-0.4,8.8-0.7,13.2l-0.8,13.3l-1,13.3l-1.1,13.3l0-0.2c0.5,1.3,1.3,2.5,2.3,3.4c0.5,0.4,1.1,0.7,1.8,0.7
			c0.6,0,1.3-0.3,1.8-0.7c0.6-0.4,1.1-0.9,1.5-1.4c0.5-0.6,0.9-1.1,1.3-1.7c0.4-0.6,0.7-1.2,1.1-1.9c0.3-0.6,0.7-1.3,1-2
			c0.6-1.3,1.1-2.7,1.7-4c0.5-1.4,1-2.7,1.4-4.1c0.4-1.4,0.7-2.9,0.5-4.3c-0.1-0.7-0.3-1.4-0.9-1.6c-0.6-0.2-1.3,0-1.9,0.3l-0.7,0.4
			l0.3-0.7l1-2.3l0.9-2.4c0.3-0.8,0.5-1.6,0.8-2.4c0.2-0.8,0.5-1.6,0.6-2.4c0.2-0.8,0.3-1.6,0.4-2.5c0.1-0.8,0.2-1.7,0.2-2.5
			c0-0.8,0.1-1.7,0-2.5c0-0.8-0.1-1.7-0.2-2.5c-0.2-0.8-0.3-1.6-0.6-2.4c-0.1-0.4-0.2-0.8-0.4-1.2c-0.1-0.4-0.3-0.8-0.5-1.2
			c-0.3-0.8-0.7-1.5-1.1-2.2c-0.4-0.7-0.9-1.4-1.4-2.1c-0.5-0.7-1-1.3-1.6-1.9c-0.6-0.6-1.2-1.2-1.8-1.8
			C143.2,96.2,141.9,95.2,140.4,94.4z"/>
	</g>
	<path class="st2" d="M115.8,53c0,0-46.5,2.3-46.5,52.1s46.5,52.5,46.5,52.5"/>
	<g>
		<ellipse class="st3" cx="118.1" cy="105.3" rx="30.8" ry="52.3"/>
		<path d="M148.9,105.3c0,0,0,1,0,3c-0.1,1.9-0.2,4.8-0.7,8.4c-0.5,3.6-1.2,8-2.7,12.8c-1.5,4.8-3.6,10.2-7.1,15.4
			c-1.7,2.6-3.8,5.1-6.4,7.3c-2.5,2.2-5.6,4.1-9.1,5c-3.5,0.9-7.4,0.9-11-0.3c-3.6-1.2-6.9-3.4-9.7-6.2c-5.6-5.6-9.4-13-11.8-20.8
			c-2.5-7.9-3.6-16.2-3.6-24.6c0-8.3,1.2-16.7,3.6-24.5c2.5-7.8,6.2-15.3,11.8-20.8c2.8-2.8,6.1-5,9.7-6.2c3.6-1.2,7.5-1.3,11-0.3
			c3.5,1,6.6,2.8,9.1,5c2.6,2.2,4.6,4.7,6.4,7.3c3.5,5.2,5.6,10.6,7.1,15.4c1.5,4.8,2.2,9.2,2.7,12.8c0.5,3.6,0.6,6.5,0.7,8.4
			C148.8,104.3,148.9,105.3,148.9,105.3z M148.9,105.3c0,0,0-1-0.1-3c-0.1-1.9-0.2-4.8-0.7-8.4c-0.5-3.6-1.3-7.9-2.8-12.8
			c-1.5-4.8-3.7-10.2-7.2-15.3c-1.8-2.6-3.8-5.1-6.4-7.2c-2.5-2.2-5.6-3.9-9-4.8c-3.4-0.9-7.2-0.8-10.7,0.5
			c-3.5,1.2-6.7,3.4-9.4,6.2c-2.7,2.7-5,6-6.9,9.5c-1.9,3.5-3.4,7.2-4.6,11.1c-2.4,7.8-3.5,16-3.5,24.3c0,8.2,1.1,16.5,3.5,24.3
			c1.2,3.9,2.7,7.6,4.6,11.1c1.9,3.5,4.1,6.7,6.9,9.5c2.7,2.8,5.9,4.9,9.4,6.2c3.5,1.2,7.2,1.3,10.7,0.5c3.4-0.9,6.5-2.7,9-4.8
			c2.6-2.2,4.6-4.7,6.4-7.2c3.5-5.1,5.7-10.5,7.2-15.3c1.5-4.8,2.3-9.2,2.8-12.8c0.5-3.6,0.6-6.5,0.7-8.4
			C148.8,106.4,148.9,105.3,148.9,105.3z"/>
	</g>
	<g>
		<path class="st0" d="M87.3,141.3c0,0,9.4,21.7,7.9,36.3l-1.4,6.7h12.2c0,0-1.9-26.8-8.2-39.7"/>
		<path d="M87.3,141.3c1.3,2.8,2.4,5.8,3.5,8.7c0.3,0.7,0.5,1.5,0.8,2.2c0.2,0.7,0.5,1.5,0.7,2.2c0.5,1.5,0.9,3,1.3,4.5
			c0.2,0.8,0.4,1.5,0.6,2.3c0.2,0.8,0.4,1.5,0.5,2.3l0.4,2.3l0.3,2.3c0.1,0.8,0.2,1.6,0.2,2.3c0.1,0.8,0.1,1.6,0.1,2.4
			c0,0.8,0.1,1.6,0,2.4l-0.1,2.4l0,0l0,0l-1.4,6.7l-0.5-0.6c4.1,0,8.1,0,12.2,0l-0.5,0.5c-0.2-3.4-0.6-6.7-1-10.1
			c-0.4-3.4-0.9-6.7-1.4-10c-0.1-0.8-0.3-1.7-0.4-2.5c-0.2-0.8-0.3-1.7-0.5-2.5c-0.4-1.7-0.7-3.3-1.1-4.9c-0.2-0.8-0.4-1.6-0.7-2.5
			c-0.2-0.8-0.4-1.6-0.7-2.4c-0.3-0.8-0.5-1.6-0.8-2.4l-1-2.4l1.1,2.3c0.3,0.8,0.6,1.6,0.9,2.4c0.3,0.8,0.6,1.6,0.8,2.4
			c0.3,0.8,0.5,1.6,0.7,2.4c0.2,0.8,0.5,1.6,0.7,2.5l0.6,2.5c0.2,0.8,0.4,1.7,0.5,2.5c0.2,0.8,0.3,1.7,0.5,2.5
			c0.6,3.3,1.2,6.7,1.6,10.1c0.4,3.4,0.8,6.7,1.1,10.1l0,0.5l-0.5,0c-4.1,0-8.1,0-12.2,0l-0.6,0l0.1-0.6l1.5-6.7l0,0l0.1-2.3
			c0.1-0.8,0-1.5,0-2.3c0-0.8,0-1.5-0.1-2.3c-0.1-0.8-0.1-1.5-0.2-2.3l-0.3-2.3l-0.4-2.3c-0.1-0.8-0.3-1.5-0.4-2.3
			c-0.2-0.8-0.3-1.5-0.5-2.3c-0.4-1.5-0.7-3-1.2-4.5c-0.2-0.8-0.4-1.5-0.7-2.2c-0.2-0.8-0.4-1.5-0.7-2.2
			C89.5,147.2,88.4,144.2,87.3,141.3z"/>
	</g>
	<g>
		<path class="st4" d="M108.6,58c0,0,8.5,43.3,17.4,43s8-37,8-37s-7-8-13-8C115,56,108.6,58,108.6,58z"/>
		<path d="M108.6,58c1.6,7.1,3.4,14.1,5.5,21.1c1.1,3.5,2.2,6.9,3.6,10.3c0.7,1.7,1.4,3.3,2.2,4.9c0.8,1.6,1.8,3.2,2.9,4.5
			c1.1,1.3,2.7,2.3,4.2,1.5c0.7-0.3,1.3-0.9,1.8-1.7c0.5-0.7,0.9-1.5,1.2-2.3c0.7-1.6,1.1-3.4,1.5-5.2c0.4-1.8,0.7-3.5,0.9-5.3
			c0.5-3.6,0.8-7.2,0.9-10.8c0.2-3.6,0.2-7.3,0.2-10.9l0.1,0.2c-1.5-1.7-3.3-3.3-5.1-4.7c-0.5-0.3-0.9-0.7-1.4-1
			c-0.5-0.3-1-0.6-1.5-0.9c-0.5-0.3-1-0.5-1.6-0.7l-0.8-0.3c-0.3-0.1-0.6-0.1-0.8-0.2c-0.3-0.1-0.6-0.1-0.8-0.1
			c-0.3,0-0.6-0.1-0.9-0.1l-1.8,0c-0.6,0-1.2,0.1-1.7,0.1c-0.6,0-1.2,0.1-1.7,0.2c-0.6,0.1-1.2,0.2-1.7,0.3
			c-0.6,0.1-1.2,0.2-1.7,0.3C110.9,57.4,109.8,57.7,108.6,58z M108.6,58c1.1-0.4,2.3-0.7,3.4-1c0.6-0.2,1.1-0.3,1.7-0.4
			c0.6-0.1,1.2-0.2,1.7-0.3c0.6-0.1,1.2-0.2,1.8-0.3c0.6-0.1,1.2-0.2,1.8-0.2l1.8-0.1c0.3,0,0.6,0,0.9,0c0.3,0,0.6,0,0.9,0.1
			c0.3,0.1,0.6,0.1,0.9,0.2l0.9,0.3c0.6,0.2,1.1,0.5,1.6,0.7c0.5,0.3,1.1,0.6,1.6,0.9c0.5,0.3,1,0.7,1.5,1c1.9,1.4,3.7,3,5.3,4.7
			l0.1,0.1l0,0.1c0.1,3.7,0.1,7.3-0.1,10.9c-0.1,3.6-0.4,7.3-0.9,10.9c-0.2,1.8-0.5,3.6-0.9,5.4c-0.4,1.8-0.9,3.6-1.6,5.3
			c-0.4,0.9-0.8,1.7-1.3,2.5c-0.5,0.8-1.2,1.5-2.2,2c-0.2,0.1-0.5,0.3-0.7,0.3l-0.3,0.1l-0.2,0l-0.1,0l0,0l0,0c-0.1,0,0,0-0.1,0
			c-0.5,0-1.1-0.1-1.5-0.3c-0.9-0.4-1.7-1.1-2.3-1.8c-1.3-1.4-2.2-3-3-4.7c-0.8-1.6-1.6-3.3-2.2-5c-1.3-3.4-2.4-6.9-3.4-10.4
			c-1-3.5-1.9-7-2.7-10.6C110,65.1,109.3,61.6,108.6,58z"/>
	</g>
	<g>
		<path class="st4" d="M108.6,151.7c0,0,8.2-41.4,17.1-41c8.9,0.3,8,37,8,37s-7,8-13,8C114.7,155.7,108.6,151.7,108.6,151.7z"/>
		<path d="M108.6,151.7c0.6-3.5,1.4-7,2.2-10.5c0.8-3.5,1.7-6.9,2.7-10.3c1-3.4,2.1-6.8,3.5-10.1c0.7-1.7,1.4-3.3,2.3-4.9
			c0.9-1.6,1.9-3.1,3.3-4.4c0.7-0.6,1.6-1.2,2.6-1.3c0.1,0,0.3,0,0.4,0c0.1,0,0.1,0,0.2,0l0.2,0c0.2,0,0.4,0.1,0.7,0.1
			c0.2,0.1,0.5,0.2,0.7,0.3c0.2,0.1,0.4,0.3,0.6,0.4c0.2,0.1,0.4,0.3,0.5,0.5c0.2,0.2,0.3,0.3,0.5,0.5c0.3,0.4,0.6,0.8,0.8,1.2
			c0.2,0.4,0.5,0.8,0.6,1.2c0.2,0.4,0.4,0.8,0.5,1.3c1.3,3.4,1.8,7,2.3,10.5c0.4,3.6,0.7,7.1,0.8,10.7c0.1,3.6,0.2,7.1,0.1,10.7
			l0,0.1l-0.1,0.1c-1.6,1.8-3.4,3.4-5.4,4.8c-1,0.7-2,1.3-3.1,1.9c-0.5,0.3-1.1,0.5-1.7,0.7l-0.9,0.3l-0.9,0.2
			c-0.3,0.1-0.6,0.1-0.9,0.1c-0.3,0-0.6,0-0.9,0l-1.8-0.2c-0.6-0.1-1.2-0.3-1.8-0.4c-0.6-0.1-1.1-0.3-1.7-0.5l-0.9-0.3l-0.8-0.3
			c-0.6-0.2-1.1-0.5-1.6-0.7C110.7,152.9,109.6,152.3,108.6,151.7z M108.6,151.7c1,0.6,2.1,1.2,3.2,1.6c0.5,0.3,1.1,0.5,1.6,0.7
			l0.8,0.3l0.9,0.3c0.6,0.2,1.1,0.4,1.7,0.4c0.6,0.1,1.1,0.2,1.7,0.3l1.8,0.1c0.3,0,0.6,0,0.9,0c0.3,0,0.6,0,0.9-0.1l0.8-0.2
			l0.8-0.3c0.5-0.2,1.1-0.5,1.6-0.7c1-0.5,2-1.2,3-1.9c1.9-1.4,3.6-3,5.2-4.8l-0.1,0.2c0-3.5,0-7.1-0.2-10.6
			c-0.2-3.5-0.4-7.1-0.9-10.6c-0.2-1.8-0.5-3.5-0.8-5.2c-0.4-1.7-0.8-3.4-1.4-5.1c-0.1-0.4-0.3-0.8-0.5-1.2
			c-0.2-0.4-0.4-0.8-0.6-1.1c-0.2-0.4-0.5-0.7-0.7-1.1c-0.1-0.2-0.3-0.3-0.4-0.5c-0.1-0.2-0.3-0.3-0.4-0.4c-0.2-0.1-0.3-0.3-0.5-0.3
			c-0.2-0.1-0.3-0.1-0.5-0.2c-0.2-0.1-0.4-0.1-0.6-0.1l-0.2,0c0.1,0-0.1,0-0.1,0c-0.1,0-0.2,0-0.3,0c-0.8,0.1-1.5,0.5-2.1,1.1
			c-1.3,1.1-2.2,2.6-3.1,4.1c-0.9,1.5-1.6,3.1-2.3,4.8c-1.4,3.3-2.6,6.6-3.7,10C112,137.9,110.2,144.8,108.6,151.7z"/>
	</g>
	<g>
		<path class="st4" d="M91.2,90.8c0,0,29.5,6,29.2,14.9c-0.3,8.9-28.1,15-28.1,15s-1.5-9.3-1.5-15.3C90.7,99.3,91.2,90.8,91.2,90.8z
			"/>
		<path d="M91.2,90.8c2.8,0.5,5.5,1.1,8.2,1.8c2.7,0.7,5.4,1.5,8.1,2.5c2.6,1,5.3,2.1,7.7,3.5c1.2,0.7,2.4,1.6,3.4,2.6
			c1,1,2,2.3,2.1,3.9c0,0.2,0,0.4,0,0.6c0,0.2,0,0.3-0.1,0.5c-0.1,0.4-0.2,0.8-0.3,1.1c-0.3,0.7-0.7,1.4-1.1,1.9
			c-0.9,1.2-2.1,2.1-3.2,2.9c-2.4,1.6-5,2.8-7.6,3.9c-2.6,1.1-5.3,2-8,2.8c-2.7,0.8-5.4,1.5-8.2,2.1l-0.4,0.1l-0.1-0.4
			c-0.4-2.5-0.7-5-0.9-7.5c-0.1-0.6-0.1-1.2-0.2-1.9c-0.1-0.6-0.1-1.2-0.1-1.9l-0.1-1.9l0-1.9c0-0.6,0-1.3,0-1.9l0.1-1.9
			c0-1.2,0.1-2.5,0.2-3.7C90.9,95.8,91,93.3,91.2,90.8z M91.2,90.8c-0.1,2.5-0.2,5-0.2,7.5c0,1.2-0.1,2.5-0.1,3.7l0,1.9
			c0,0.6,0,1.3,0,1.9c0,1.2,0.1,2.5,0.2,3.7c0,0.6,0.1,1.2,0.2,1.9c0.1,0.6,0.1,1.2,0.2,1.9c0.3,2.5,0.7,4.9,1.1,7.4l-0.5-0.3
			c2.7-0.7,5.4-1.4,8.1-2.2c2.7-0.8,5.3-1.7,7.9-2.8c2.6-1.1,5.1-2.3,7.4-3.8c1.1-0.8,2.2-1.6,3.1-2.7c0.8-1,1.4-2.2,1.3-3.5
			c-0.1-1.3-0.9-2.4-1.8-3.4c-1-1-2.1-1.8-3.3-2.5c-2.4-1.4-4.9-2.6-7.5-3.6c-2.6-1-5.3-1.9-7.9-2.7C96.7,92.2,94,91.5,91.2,90.8z"
			/>
	</g>
	<g>
		<path class="st4" d="M146.3,92.5c0,0-16.4,4.1-16.1,13s16.8,8.1,16.8,8.1s0.7-5.4,0.7-11.4C147.7,96.2,146.3,92.5,146.3,92.5z"/>
		<path d="M146.3,92.5c-1.7,0.5-3.4,1.2-5,1.9c-1.6,0.7-3.2,1.5-4.7,2.5c-1.5,1-2.9,2.1-3.9,3.4c-1.1,1.3-1.9,2.9-2,4.5
			c-0.1,0.8,0.1,1.7,0.3,2.4c0.3,0.8,0.7,1.5,1.3,2.1c1.2,1.2,2.7,2,4.4,2.6c1.6,0.6,3.4,0.9,5.1,1.1c1.7,0.2,3.5,0.3,5.3,0.3
			l-0.4,0.3c0.1-0.9,0.2-1.8,0.3-2.6c0.1-0.9,0.2-1.8,0.2-2.6c0.1-0.9,0.2-1.8,0.2-2.7l0.1-2.7c0.1-0.9,0-1.8,0-2.7
			c0-0.4,0-0.9-0.1-1.3c0-0.4,0-0.9-0.1-1.3c-0.1-0.9-0.2-1.8-0.4-2.6C146.7,94.2,146.6,93.3,146.3,92.5z M146.3,92.5
			c0.3,0.8,0.6,1.7,0.8,2.6c0.2,0.9,0.4,1.7,0.5,2.6c0.1,0.4,0.1,0.9,0.2,1.3c0,0.4,0.1,0.9,0.1,1.3c0,0.9,0.1,1.8,0.1,2.7l0,2.7
			c0,0.9-0.1,1.8-0.1,2.7c-0.1,0.9-0.1,1.8-0.2,2.7c-0.1,0.9-0.1,1.8-0.2,2.7l0,0.3l-0.3,0c-1.8,0.1-3.6,0-5.4-0.2
			c-1.8-0.2-3.6-0.5-5.3-1.1c-1.7-0.6-3.5-1.4-4.8-2.8c-0.6-0.7-1.2-1.5-1.5-2.4c-0.3-0.9-0.4-1.9-0.3-2.8c0.2-1.9,1-3.7,2.3-5
			c1.2-1.4,2.7-2.5,4.3-3.4c1.6-0.9,3.2-1.7,4.9-2.3C142.8,93.4,144.5,92.9,146.3,92.5z"/>
	</g>
	<path class="st2" d="M74.5,96.7c0,0-15.9,13.7-5.5,38.3c0,0-11.2-2-6.2,11.7c4.9,13.7,21,11.1,23.6,5c2.6-6.1-4.7-18.5-4.7-18.5
		s-12.5-13.6-3.2-24.5"/>
</g>
<g id="Layer_2">
	<g id="Layer_3">
		<rect y="184.3" class="st5" width="181.4" height="67.9"/>
	</g>
	<g id="Layer_4">
		<g>
			<path class="st5" d="M0,22.5h29.7c0.4,0,0.7,0.1,0.9,0.4c0.3,0.2,0.4,0.6,0.4,1c0,0.4-0.1,0.8-0.3,1c-0.2,0.2-0.5,0.4-1,0.4H23
				L32.6,147l13-110.5c0.1-1,0.2-2,0.2-3.1c0-2.4-0.3-4.2-1-5.5c-0.7-1.2-1.6-2-2.9-2.3l-3.5-0.3c-0.4-0.3-0.7-0.7-0.7-1.3
				c0-0.4,0.4-0.9,1.2-1.4h16.6c0.4,0,0.7,0.1,0.9,0.3c0.2,0.2,0.3,0.5,0.3,0.9c0,0.4-0.1,0.7-0.3,0.9c-0.2,0.2-0.5,0.4-0.9,0.4
				c-1.8,0.2-3.1,1-4.1,2.3c-1.5,2.3-2.6,6-3.2,11.3l-16.7,139c-0.7,5.7-1.1,8.8-1.4,9.3c-0.3,0.5-0.8,0.8-1.6,0.8H18.2
				c-0.6,0-1-0.3-1.3-0.9c-0.3-0.6-0.8-4.8-1.6-12.6l-15-149H0"/>
		</g>
	</g>
</g>
<g id="Text">
	<g id="Effect">
		<g>
			<path class="st6" d="M15.8,195.9H13v2.6h3.1v0.8h-4v-7.2H16v0.8h-3v2.3h2.8V195.9z"/>
			<path class="st6" d="M17.2,198.4c0.3,0.2,0.8,0.4,1.2,0.4c0.7,0,1-0.3,1-0.8c0-0.4-0.3-0.7-1-1c-0.9-0.3-1.4-0.8-1.4-1.5
				c0-0.8,0.7-1.5,1.8-1.5c0.5,0,1,0.1,1.3,0.3l-0.2,0.7c-0.2-0.1-0.6-0.3-1.1-0.3c-0.6,0-0.9,0.3-0.9,0.7c0,0.4,0.3,0.6,1,0.9
				c0.9,0.3,1.4,0.8,1.4,1.6c0,0.9-0.7,1.5-1.9,1.5c-0.6,0-1.1-0.1-1.5-0.4L17.2,198.4z"/>
			<path class="st6" d="M25.2,199.1c-0.2,0.1-0.8,0.3-1.5,0.3c-1.6,0-2.6-1.1-2.6-2.6c0-1.6,1.1-2.7,2.8-2.7c0.6,0,1,0.1,1.3,0.3
				L25,195c-0.2-0.1-0.6-0.2-1.1-0.2c-1.2,0-1.8,0.9-1.8,2c0,1.2,0.8,1.9,1.8,1.9c0.5,0,0.9-0.1,1.2-0.3L25.2,199.1z"/>
			<path class="st6" d="M30.9,196.7c0,1.9-1.3,2.7-2.6,2.7c-1.4,0-2.5-1-2.5-2.7c0-1.7,1.1-2.7,2.6-2.7
				C29.9,194,30.9,195.1,30.9,196.7z M26.8,196.8c0,1.1,0.7,2,1.6,2c0.9,0,1.6-0.8,1.6-2c0-0.9-0.4-2-1.5-2
				C27.3,194.7,26.8,195.8,26.8,196.8z"/>
			<path class="st6" d="M36.6,194.2c0,0.4,0,0.8,0,1.4v3c0,1.2-0.2,1.9-0.7,2.4c-0.5,0.5-1.2,0.6-1.9,0.6c-0.6,0-1.3-0.1-1.7-0.4
				l0.2-0.7c0.3,0.2,0.9,0.4,1.5,0.4c1,0,1.7-0.5,1.7-1.8v-0.6h0c-0.3,0.5-0.8,0.9-1.6,0.9c-1.3,0-2.2-1.1-2.2-2.5
				c0-1.8,1.1-2.7,2.3-2.7c0.9,0,1.4,0.5,1.6,0.9h0l0-0.8H36.6z M35.6,196.2c0-0.2,0-0.3-0.1-0.4c-0.2-0.5-0.6-1-1.3-1
				c-0.9,0-1.5,0.8-1.5,2c0,1,0.5,1.9,1.5,1.9c0.6,0,1.1-0.4,1.3-1c0.1-0.2,0.1-0.3,0.1-0.5V196.2z"/>
			<path class="st6" d="M38.6,196.9c0,1.3,0.8,1.8,1.8,1.8c0.7,0,1.1-0.1,1.4-0.3l0.2,0.7c-0.3,0.1-0.9,0.3-1.7,0.3
				c-1.6,0-2.5-1-2.5-2.6c0-1.6,0.9-2.8,2.4-2.8c1.7,0,2.1,1.5,2.1,2.4c0,0.2,0,0.3,0,0.4H38.6z M41.4,196.2c0-0.6-0.2-1.5-1.3-1.5
				c-1,0-1.4,0.9-1.4,1.5H41.4z"/>
			<path class="st6" d="M50,197.9c0,0.5,0,1,0,1.4h-0.8l-0.1-0.8h0c-0.2,0.4-0.8,1-1.7,1c-0.8,0-1.8-0.4-1.8-2.3v-3h0.9v2.9
				c0,1,0.3,1.6,1.2,1.6c0.6,0,1.1-0.4,1.2-0.9c0.1-0.1,0.1-0.3,0.1-0.5v-3.2H50V197.9z"/>
			<path class="st6" d="M51.6,195.6c0-0.5,0-1,0-1.4h0.8l0.1,0.9h0c0.3-0.5,0.9-1,1.7-1c0.7,0,1.8,0.4,1.8,2.2v3.1H55v-3
				c0-0.8-0.3-1.5-1.2-1.5c-0.6,0-1.1,0.4-1.3,1c0,0.1-0.1,0.3-0.1,0.4v3.1h-0.9V195.6z"/>
			<path class="st6" d="M63.4,199.1c-0.2,0.1-0.8,0.3-1.5,0.3c-1.6,0-2.6-1.1-2.6-2.6c0-1.6,1.1-2.7,2.8-2.7c0.6,0,1,0.1,1.3,0.3
				l-0.2,0.7c-0.2-0.1-0.6-0.2-1.1-0.2c-1.2,0-1.8,0.9-1.8,2c0,1.2,0.8,1.9,1.8,1.9c0.5,0,0.9-0.1,1.2-0.3L63.4,199.1z"/>
			<path class="st6" d="M69.1,196.7c0,1.9-1.3,2.7-2.6,2.7c-1.4,0-2.5-1-2.5-2.7c0-1.7,1.1-2.7,2.6-2.7
				C68.1,194,69.1,195.1,69.1,196.7z M65,196.8c0,1.1,0.7,2,1.6,2c0.9,0,1.6-0.8,1.6-2c0-0.9-0.4-2-1.5-2
				C65.5,194.7,65,195.8,65,196.8z"/>
			<path class="st6" d="M70.3,195.6c0-0.5,0-1,0-1.4h0.8l0,0.8h0c0.3-0.5,0.8-1,1.6-1c0.7,0,1.2,0.4,1.5,1h0
				c0.2-0.3,0.4-0.5,0.6-0.7c0.3-0.2,0.7-0.4,1.1-0.4c0.7,0,1.7,0.4,1.7,2.2v3h-0.9v-2.9c0-1-0.4-1.6-1.1-1.6c-0.5,0-1,0.4-1.1,0.9
				c0,0.1-0.1,0.3-0.1,0.5v3.2h-0.9v-3.1c0-0.8-0.4-1.4-1.1-1.4c-0.6,0-1,0.5-1.2,0.9c-0.1,0.1-0.1,0.3-0.1,0.5v3.1h-0.9V195.6z"/>
			<path class="st6" d="M79.2,195.8c0-0.7,0-1.2,0-1.7H80l0,0.9h0c0.4-0.6,1-1,1.8-1c1.2,0,2.2,1.1,2.2,2.6c0,1.9-1.1,2.8-2.3,2.8
				c-0.7,0-1.3-0.3-1.6-0.8h0v2.8h-0.9V195.8z M80.2,197.2c0,0.1,0,0.3,0,0.4c0.2,0.7,0.7,1.1,1.4,1.1c1,0,1.6-0.8,1.6-2
				c0-1-0.5-1.9-1.5-1.9c-0.6,0-1.2,0.5-1.4,1.2c0,0.1-0.1,0.3-0.1,0.4V197.2z"/>
			<path class="st6" d="M88.2,199.3l-0.1-0.7h0c-0.3,0.4-0.8,0.8-1.6,0.8c-1,0-1.6-0.7-1.6-1.5c0-1.2,1.1-1.9,3.1-1.9v-0.1
				c0-0.4-0.1-1.2-1.2-1.2c-0.5,0-1,0.1-1.3,0.4l-0.2-0.6c0.4-0.3,1-0.5,1.7-0.5c1.6,0,2,1.1,2,2.1v1.9c0,0.4,0,0.9,0.1,1.2H88.2z
				 M88,196.7c-1,0-2.2,0.2-2.2,1.2c0,0.6,0.4,0.9,0.9,0.9c0.7,0,1.1-0.4,1.2-0.9c0-0.1,0.1-0.2,0.1-0.3V196.7z"/>
			<path class="st6" d="M90.5,195.6c0-0.5,0-1,0-1.4h0.8l0.1,0.9h0c0.3-0.5,0.9-1,1.7-1c0.7,0,1.8,0.4,1.8,2.2v3.1h-0.9v-3
				c0-0.8-0.3-1.5-1.2-1.5c-0.6,0-1.1,0.4-1.3,1c0,0.1-0.1,0.3-0.1,0.4v3.1h-0.9V195.6z M91.3,193.3c0-0.7,0.3-1.1,0.7-1.1
				c0.2,0,0.4,0.1,0.7,0.2c0.2,0.1,0.3,0.2,0.4,0.2c0.2,0,0.3-0.1,0.3-0.5H94c0,0.7-0.2,1.1-0.7,1.1c-0.2,0-0.4-0.1-0.7-0.2
				c-0.2-0.1-0.3-0.2-0.5-0.2c-0.2,0-0.3,0.2-0.3,0.5H91.3z"/>
			<path class="st6" d="M96.9,196.9c0,1.3,0.8,1.8,1.8,1.8c0.7,0,1.1-0.1,1.4-0.3l0.2,0.7c-0.3,0.1-0.9,0.3-1.7,0.3
				c-1.6,0-2.5-1-2.5-2.6c0-1.6,0.9-2.8,2.4-2.8c1.7,0,2.1,1.5,2.1,2.4c0,0.2,0,0.3,0,0.4H96.9z M99.7,196.2c0-0.6-0.2-1.5-1.3-1.5
				c-1,0-1.4,0.9-1.4,1.5H99.7z"/>
			<path class="st6" d="M101.7,195.8c0-0.6,0-1.1,0-1.6h0.8l0,1h0c0.2-0.7,0.8-1.1,1.4-1.1c0.1,0,0.2,0,0.3,0v0.9
				c-0.1,0-0.2,0-0.3,0c-0.7,0-1.1,0.5-1.3,1.2c0,0.1,0,0.3,0,0.4v2.8h-0.9V195.8z"/>
			<path class="st6" d="M110,200c-0.6,0.3-1.2,0.4-1.9,0.4c-1.8,0-3.2-1.3-3.2-3.3c0-2.2,1.5-4.1,3.9-4.1c1.9,0,3.1,1.3,3.1,3.1
				c0,1.6-0.9,2.5-1.9,2.5c-0.4,0-0.8-0.3-0.8-0.9h0c-0.4,0.6-0.9,0.9-1.5,0.9c-0.6,0-1.2-0.5-1.2-1.3c0-1.3,1-2.5,2.5-2.5
				c0.5,0,0.9,0.1,1.1,0.2l-0.4,1.9c-0.2,0.8,0,1.2,0.3,1.2c0.5,0,1.2-0.7,1.2-2c0-1.5-0.9-2.7-2.6-2.7c-1.7,0-3.2,1.4-3.2,3.5
				c0,1.8,1.2,2.9,2.7,2.9c0.6,0,1.2-0.1,1.6-0.4L110,200z M109.4,195.4c-0.1,0-0.3-0.1-0.5-0.1c-0.9,0-1.7,0.9-1.7,1.9
				c0,0.5,0.2,0.8,0.7,0.8c0.6,0,1.2-0.8,1.3-1.5L109.4,195.4z"/>
			<path class="st6" d="M112.5,200.6c0.2-0.6,0.5-1.8,0.6-2.6l1-0.1c-0.2,0.9-0.7,2.1-1,2.6L112.5,200.6z"/>
			<path class="st6" d="M117.9,194.2l1.1,3.1c0.1,0.3,0.2,0.7,0.3,1.1h0c0.1-0.3,0.2-0.7,0.3-1.1l1-3h1l-1.4,3.7
				c-0.7,1.8-1.1,2.7-1.8,3.2c-0.5,0.4-0.9,0.6-1.2,0.6l-0.2-0.8c0.2-0.1,0.5-0.2,0.8-0.5c0.3-0.2,0.6-0.6,0.8-1
				c0-0.1,0.1-0.2,0.1-0.2c0-0.1,0-0.1-0.1-0.2l-1.9-4.8H117.9z"/>
			<path class="st6" d="M129.5,196.7c0,1.9-1.3,2.7-2.6,2.7c-1.4,0-2.5-1-2.5-2.7c0-1.7,1.1-2.7,2.6-2.7
				C128.5,194,129.5,195.1,129.5,196.7z M125.4,196.8c0,1.1,0.7,2,1.6,2c0.9,0,1.6-0.8,1.6-2c0-0.9-0.4-2-1.5-2
				C125.9,194.7,125.4,195.8,125.4,196.8z"/>
			<path class="st6" d="M131.8,192.7v1.5h1.3v0.7h-1.3v2.8c0,0.6,0.2,1,0.7,1c0.2,0,0.4,0,0.5-0.1l0,0.7c-0.2,0.1-0.5,0.1-0.8,0.1
				c-0.4,0-0.8-0.1-1-0.4c-0.3-0.3-0.4-0.7-0.4-1.3v-2.8h-0.8v-0.7h0.8v-1.2L131.8,192.7z"/>
			<path class="st6" d="M134.2,195.8c0-0.6,0-1.1,0-1.6h0.8l0,1h0c0.2-0.7,0.8-1.1,1.4-1.1c0.1,0,0.2,0,0.3,0v0.9
				c-0.1,0-0.2,0-0.3,0c-0.7,0-1.1,0.5-1.3,1.2c0,0.1,0,0.3,0,0.4v2.8h-0.9V195.8z"/>
			<path class="st6" d="M140.5,199.3l-0.1-0.7h0c-0.3,0.4-0.8,0.8-1.6,0.8c-1,0-1.6-0.7-1.6-1.5c0-1.2,1.1-1.9,3.1-1.9v-0.1
				c0-0.4-0.1-1.2-1.2-1.2c-0.5,0-1,0.1-1.3,0.4l-0.2-0.6c0.4-0.3,1-0.5,1.7-0.5c1.6,0,2,1.1,2,2.1v1.9c0,0.4,0,0.9,0.1,1.2H140.5z
				 M140.4,196.7c-1,0-2.2,0.2-2.2,1.2c0,0.6,0.4,0.9,0.9,0.9c0.7,0,1.1-0.4,1.2-0.9c0-0.1,0.1-0.2,0.1-0.3V196.7z"/>
			<path class="st6" d="M145.1,195.8c0-0.7,0-1.2,0-1.7h0.8l0,0.9h0c0.4-0.6,1-1,1.8-1c1.3,0,2.2,1.1,2.2,2.6c0,1.9-1.1,2.8-2.3,2.8
				c-0.7,0-1.3-0.3-1.6-0.8h0v2.8h-0.9V195.8z M146,197.2c0,0.1,0,0.3,0,0.4c0.2,0.7,0.7,1.1,1.4,1.1c1,0,1.6-0.8,1.6-2
				c0-1-0.5-1.9-1.5-1.9c-0.6,0-1.2,0.5-1.4,1.2c0,0.1-0.1,0.3-0.1,0.4V197.2z"/>
			<path class="st6" d="M154,199.3l-0.1-0.7h0c-0.3,0.4-0.8,0.8-1.6,0.8c-1,0-1.6-0.7-1.6-1.5c0-1.2,1.1-1.9,3.1-1.9v-0.1
				c0-0.4-0.1-1.2-1.2-1.2c-0.5,0-1,0.1-1.3,0.4l-0.2-0.6c0.4-0.3,1-0.5,1.7-0.5c1.6,0,2,1.1,2,2.1v1.9c0,0.4,0,0.9,0.1,1.2H154z
				 M153.9,196.7c-1,0-2.2,0.2-2.2,1.2c0,0.6,0.4,0.9,0.9,0.9c0.7,0,1.1-0.4,1.2-0.9c0-0.1,0.1-0.2,0.1-0.3V196.7z"/>
			<path class="st6" d="M156.3,195.8c0-0.6,0-1.1,0-1.6h0.8l0,1h0c0.2-0.7,0.8-1.1,1.4-1.1c0.1,0,0.2,0,0.3,0v0.9
				c-0.1,0-0.2,0-0.3,0c-0.7,0-1.1,0.5-1.3,1.2c0,0.1,0,0.3,0,0.4v2.8h-0.9V195.8z"/>
			<path class="st6" d="M160.2,196.9c0,1.3,0.8,1.8,1.8,1.8c0.7,0,1.1-0.1,1.4-0.3l0.2,0.7c-0.3,0.1-0.9,0.3-1.7,0.3
				c-1.6,0-2.5-1-2.5-2.6c0-1.6,0.9-2.8,2.4-2.8c1.7,0,2.1,1.5,2.1,2.4c0,0.2,0,0.3,0,0.4H160.2z M163,196.2c0-0.6-0.2-1.5-1.3-1.5
				c-1,0-1.4,0.9-1.4,1.5H163z"/>
			<path class="st6" d="M163.8,200.8c0.4,0,0.8-0.1,1-0.4c0.3-0.3,0.4-0.7,0.4-1.9v-4.3h0.9v4.7c0,1-0.2,1.7-0.6,2.1
				c-0.4,0.4-1.1,0.6-1.6,0.6L163.8,200.8z M166.2,192.7c0,0.3-0.2,0.6-0.6,0.6c-0.4,0-0.6-0.3-0.6-0.6c0-0.3,0.2-0.6,0.6-0.6
				C166,192.1,166.2,192.4,166.2,192.7z"/>
			<path class="st6" d="M170.5,199.3l-0.1-0.7h0c-0.3,0.4-0.8,0.8-1.6,0.8c-1,0-1.6-0.7-1.6-1.5c0-1.2,1.1-1.9,3.1-1.9v-0.1
				c0-0.4-0.1-1.2-1.2-1.2c-0.5,0-1,0.1-1.3,0.4l-0.2-0.6c0.4-0.3,1-0.5,1.7-0.5c1.6,0,2,1.1,2,2.1v1.9c0,0.4,0,0.9,0.1,1.2H170.5z
				 M170.3,196.7c-1,0-2.2,0.2-2.2,1.2c0,0.6,0.4,0.9,0.9,0.9c0.7,0,1.1-0.4,1.2-0.9c0-0.1,0.1-0.2,0.1-0.3V196.7z"/>
			<path class="st6" d="M14.3,208.7c0-0.7,0-1.2,0-1.7h0.8l0,0.9h0c0.4-0.6,1-1,1.8-1c1.2,0,2.2,1.1,2.2,2.6c0,1.9-1.1,2.8-2.3,2.8
				c-0.7,0-1.3-0.3-1.6-0.8h0v2.8h-0.9V208.7z M15.2,210c0,0.1,0,0.3,0,0.4c0.2,0.7,0.7,1.1,1.4,1.1c1,0,1.6-0.8,1.6-2
				c0-1-0.5-1.9-1.5-1.9c-0.6,0-1.2,0.5-1.4,1.2c0,0.1-0.1,0.3-0.1,0.4V210z"/>
			<path class="st6" d="M20.9,209.7c0,1.3,0.8,1.8,1.8,1.8c0.7,0,1.1-0.1,1.4-0.3l0.2,0.7c-0.3,0.1-0.9,0.3-1.7,0.3
				c-1.6,0-2.5-1-2.5-2.6c0-1.6,0.9-2.8,2.4-2.8c1.7,0,2.1,1.5,2.1,2.4c0,0.2,0,0.3,0,0.4H20.9z M23.6,209c0-0.6-0.2-1.5-1.3-1.5
				c-1,0-1.4,0.9-1.4,1.5H23.6z"/>
			<path class="st6" d="M25.7,208.6c0-0.6,0-1.1,0-1.6h0.8l0,1h0c0.2-0.7,0.8-1.1,1.4-1.1c0.1,0,0.2,0,0.3,0v0.9c-0.1,0-0.2,0-0.3,0
				c-0.7,0-1.1,0.5-1.3,1.2c0,0.1,0,0.3,0,0.4v2.8h-0.9V208.6z"/>
			<path class="st6" d="M29.2,208.4c0-0.5,0-1,0-1.4H30l0,0.8h0c0.3-0.5,0.8-1,1.6-1c0.7,0,1.2,0.4,1.5,1h0c0.2-0.3,0.4-0.5,0.6-0.7
				c0.3-0.2,0.7-0.4,1.1-0.4c0.7,0,1.7,0.4,1.7,2.2v3h-0.9v-2.9c0-1-0.4-1.6-1.1-1.6c-0.5,0-1,0.4-1.1,0.9c0,0.1-0.1,0.3-0.1,0.5
				v3.2h-0.9V209c0-0.8-0.4-1.4-1.1-1.4c-0.6,0-1,0.5-1.2,0.9c-0.1,0.1-0.1,0.3-0.1,0.5v3.1h-0.9V208.4z"/>
			<path class="st6" d="M41,212.1l-0.1-0.7h0c-0.3,0.4-0.8,0.8-1.6,0.8c-1,0-1.6-0.7-1.6-1.5c0-1.2,1.1-1.9,3.1-1.9v-0.1
				c0-0.4-0.1-1.2-1.2-1.2c-0.5,0-1,0.1-1.3,0.4l-0.2-0.6c0.4-0.3,1-0.5,1.7-0.5c1.6,0,2,1.1,2,2.1v1.9c0,0.4,0,0.9,0.1,1.2H41z
				 M40.8,209.5c-1,0-2.2,0.2-2.2,1.2c0,0.6,0.4,0.9,0.9,0.9c0.7,0,1.1-0.4,1.2-0.9c0-0.1,0.1-0.2,0.1-0.3V209.5z"/>
			<path class="st6" d="M43.3,208.4c0-0.5,0-1,0-1.4H44l0.1,0.9h0c0.3-0.5,0.9-1,1.7-1c0.7,0,1.8,0.4,1.8,2.2v3.1h-0.9v-3
				c0-0.8-0.3-1.5-1.2-1.5c-0.6,0-1.1,0.4-1.3,1c0,0.1-0.1,0.3-0.1,0.4v3.1h-0.9V208.4z"/>
			<path class="st6" d="M49.7,209.7c0,1.3,0.8,1.8,1.8,1.8c0.7,0,1.1-0.1,1.4-0.3l0.2,0.7c-0.3,0.1-0.9,0.3-1.7,0.3
				c-1.6,0-2.5-1-2.5-2.6c0-1.6,0.9-2.8,2.4-2.8c1.7,0,2.1,1.5,2.1,2.4c0,0.2,0,0.3,0,0.4H49.7z M52.5,209c0-0.6-0.2-1.5-1.3-1.5
				c-1,0-1.4,0.9-1.4,1.5H52.5z"/>
			<path class="st6" d="M54.4,211.2c0.3,0.2,0.8,0.4,1.2,0.4c0.7,0,1-0.3,1-0.8c0-0.4-0.3-0.7-1-1c-0.9-0.3-1.4-0.8-1.4-1.5
				c0-0.8,0.7-1.5,1.8-1.5c0.5,0,1,0.1,1.3,0.3l-0.2,0.7c-0.2-0.1-0.6-0.3-1.1-0.3c-0.6,0-0.9,0.3-0.9,0.7c0,0.4,0.3,0.6,1,0.9
				c0.9,0.3,1.4,0.8,1.4,1.6c0,0.9-0.7,1.5-1.9,1.5c-0.6,0-1.1-0.1-1.5-0.4L54.4,211.2z"/>
			<path class="st6" d="M62.4,211.9c-0.2,0.1-0.8,0.3-1.5,0.3c-1.6,0-2.6-1.1-2.6-2.6c0-1.6,1.1-2.7,2.8-2.7c0.6,0,1,0.1,1.3,0.3
				l-0.2,0.7c-0.2-0.1-0.6-0.2-1.1-0.2c-1.2,0-1.8,0.9-1.8,2c0,1.2,0.8,1.9,1.8,1.9c0.5,0,0.9-0.1,1.2-0.3L62.4,211.9z"/>
			<path class="st6" d="M66.4,212.1l-0.1-0.7h0c-0.3,0.4-0.8,0.8-1.6,0.8c-1,0-1.6-0.7-1.6-1.5c0-1.2,1.1-1.9,3.1-1.9v-0.1
				c0-0.4-0.1-1.2-1.2-1.2c-0.5,0-1,0.1-1.3,0.4l-0.2-0.6c0.4-0.3,1-0.5,1.7-0.5c1.6,0,2,1.1,2,2.1v1.9c0,0.4,0,0.9,0.1,1.2H66.4z
				 M66.3,209.5c-1,0-2.2,0.2-2.2,1.2c0,0.6,0.4,0.9,0.9,0.9c0.7,0,1.1-0.4,1.2-0.9c0-0.1,0.1-0.2,0.1-0.3V209.5z"/>
			<path class="st6" d="M68.7,208.4c0-0.5,0-1,0-1.4h0.8l0.1,0.9h0c0.3-0.5,0.9-1,1.7-1c0.7,0,1.8,0.4,1.8,2.2v3.1h-0.9v-3
				c0-0.8-0.3-1.5-1.2-1.5c-0.6,0-1.1,0.4-1.3,1c0,0.1-0.1,0.3-0.1,0.4v3.1h-0.9V208.4z"/>
			<path class="st6" d="M78.6,206.1L78.6,206.1l-1.2,0.7l-0.2-0.7l1.5-0.8h0.8v6.9h-0.9V206.1z"/>
			<path class="st6" d="M84.6,208.4c0-0.5,0-1,0-1.4h0.8l0,0.8h0c0.3-0.5,0.8-1,1.6-1c0.7,0,1.2,0.4,1.5,1h0
				c0.2-0.3,0.4-0.5,0.6-0.7c0.3-0.2,0.7-0.4,1.1-0.4c0.7,0,1.7,0.4,1.7,2.2v3h-0.9v-2.9c0-1-0.4-1.6-1.1-1.6c-0.5,0-1,0.4-1.1,0.9
				c0,0.1-0.1,0.3-0.1,0.5v3.2h-0.9V209c0-0.8-0.4-1.4-1.1-1.4c-0.6,0-1,0.5-1.2,0.9c-0.1,0.1-0.1,0.3-0.1,0.5v3.1h-0.9V208.4z"/>
			<path class="st6" d="M94.6,205.5c0,0.3-0.2,0.6-0.6,0.6c-0.3,0-0.6-0.3-0.6-0.6c0-0.3,0.2-0.6,0.6-0.6
				C94.3,204.9,94.6,205.2,94.6,205.5z M93.5,212.1V207h0.9v5.2H93.5z"/>
			<path class="st6" d="M96,208.4c0-0.5,0-1,0-1.4h0.8l0.1,0.9h0c0.3-0.5,0.9-1,1.7-1c0.7,0,1.8,0.4,1.8,2.2v3.1h-0.9v-3
				c0-0.8-0.3-1.5-1.2-1.5c-0.6,0-1.1,0.4-1.3,1c0,0.1-0.1,0.3-0.1,0.4v3.1H96V208.4z"/>
			<path class="st6" d="M106.3,210.7c0,0.5,0,1,0,1.4h-0.8l-0.1-0.8h0c-0.2,0.4-0.8,1-1.7,1c-0.8,0-1.8-0.4-1.8-2.3v-3h0.9v2.9
				c0,1,0.3,1.6,1.2,1.6c0.6,0,1.1-0.4,1.2-0.9c0.1-0.1,0.1-0.3,0.1-0.5V207h0.9V210.7z"/>
			<path class="st6" d="M108.9,205.5v1.5h1.3v0.7h-1.3v2.8c0,0.6,0.2,1,0.7,1c0.2,0,0.4,0,0.5-0.1l0,0.7c-0.2,0.1-0.5,0.1-0.8,0.1
				c-0.4,0-0.8-0.1-1-0.4c-0.3-0.3-0.4-0.7-0.4-1.3v-2.8h-0.8V207h0.8v-1.2L108.9,205.5z"/>
			<path class="st6" d="M116,209.5c0,1.9-1.3,2.7-2.6,2.7c-1.4,0-2.5-1-2.5-2.7c0-1.7,1.1-2.7,2.6-2.7
				C115,206.8,116,207.9,116,209.5z M111.9,209.6c0,1.1,0.7,2,1.6,2c0.9,0,1.6-0.8,1.6-2c0-0.9-0.4-2-1.5-2
				C112.3,207.6,111.9,208.6,111.9,209.6z"/>
			<path class="st6" d="M123.1,211.9c-0.2,0.1-0.8,0.3-1.5,0.3c-1.6,0-2.6-1.1-2.6-2.6c0-1.6,1.1-2.7,2.8-2.7c0.6,0,1,0.1,1.3,0.3
				l-0.2,0.7c-0.2-0.1-0.6-0.2-1.1-0.2c-1.2,0-1.8,0.9-1.8,2c0,1.2,0.8,1.9,1.8,1.9c0.5,0,0.9-0.1,1.2-0.3L123.1,211.9z"/>
			<path class="st6" d="M127,212.1l-0.1-0.7h0c-0.3,0.4-0.8,0.8-1.6,0.8c-1,0-1.6-0.7-1.6-1.5c0-1.2,1.1-1.9,3.1-1.9v-0.1
				c0-0.4-0.1-1.2-1.2-1.2c-0.5,0-1,0.1-1.3,0.4l-0.2-0.6c0.4-0.3,1-0.5,1.7-0.5c1.6,0,2,1.1,2,2.1v1.9c0,0.4,0,0.9,0.1,1.2H127z
				 M126.9,209.5c-1,0-2.2,0.2-2.2,1.2c0,0.6,0.4,0.9,0.9,0.9c0.7,0,1.1-0.4,1.2-0.9c0-0.1,0.1-0.2,0.1-0.3V209.5z"/>
			<path class="st6" d="M129.3,208.6c0-0.6,0-1.1,0-1.6h0.8l0,1h0c0.2-0.7,0.8-1.1,1.4-1.1c0.1,0,0.2,0,0.3,0v0.9
				c-0.1,0-0.2,0-0.3,0c-0.7,0-1.1,0.5-1.3,1.2c0,0.1,0,0.3,0,0.4v2.8h-0.9V208.6z"/>
			<path class="st6" d="M135.6,212.1l-0.1-0.7h0c-0.3,0.4-0.8,0.8-1.6,0.8c-1,0-1.6-0.7-1.6-1.5c0-1.2,1.1-1.9,3.1-1.9v-0.1
				c0-0.4-0.1-1.2-1.2-1.2c-0.5,0-1,0.1-1.3,0.4l-0.2-0.6c0.4-0.3,1-0.5,1.7-0.5c1.6,0,2,1.1,2,2.1v1.9c0,0.4,0,0.9,0.1,1.2H135.6z
				 M135.5,209.5c-1,0-2.2,0.2-2.2,1.2c0,0.6,0.4,0.9,0.9,0.9c0.7,0,1.1-0.4,1.2-0.9c0-0.1,0.1-0.2,0.1-0.3V209.5z"/>
			<path class="st6" d="M143,212.1l-0.1-0.7h0c-0.3,0.4-0.8,0.8-1.6,0.8c-1,0-1.6-0.7-1.6-1.5c0-1.2,1.1-1.9,3.1-1.9v-0.1
				c0-0.4-0.1-1.2-1.2-1.2c-0.5,0-1,0.1-1.3,0.4l-0.2-0.6c0.4-0.3,1-0.5,1.7-0.5c1.6,0,2,1.1,2,2.1v1.9c0,0.4,0,0.9,0.1,1.2H143z
				 M142.9,209.5c-1,0-2.2,0.2-2.2,1.2c0,0.6,0.4,0.9,0.9,0.9c0.7,0,1.1-0.4,1.2-0.9c0-0.1,0.1-0.2,0.1-0.3V209.5z"/>
			<path class="st6" d="M151.3,211.9c-0.2,0.1-0.8,0.3-1.5,0.3c-1.6,0-2.6-1.1-2.6-2.6c0-1.6,1.1-2.7,2.8-2.7c0.6,0,1,0.1,1.3,0.3
				l-0.2,0.7c-0.2-0.1-0.6-0.2-1.1-0.2c-1.2,0-1.8,0.9-1.8,2c0,1.2,0.8,1.9,1.8,1.9c0.5,0,0.9-0.1,1.2-0.3L151.3,211.9z"/>
			<path class="st6" d="M155.2,212.1l-0.1-0.7h0c-0.3,0.4-0.8,0.8-1.6,0.8c-1,0-1.6-0.7-1.6-1.5c0-1.2,1.1-1.9,3.1-1.9v-0.1
				c0-0.4-0.1-1.2-1.2-1.2c-0.5,0-1,0.1-1.3,0.4l-0.2-0.6c0.4-0.3,1-0.5,1.7-0.5c1.6,0,2,1.1,2,2.1v1.9c0,0.4,0,0.9,0.1,1.2H155.2z
				 M155.1,209.5c-1,0-2.2,0.2-2.2,1.2c0,0.6,0.4,0.9,0.9,0.9c0.7,0,1.1-0.4,1.2-0.9c0-0.1,0.1-0.2,0.1-0.3V209.5z"/>
			<path class="st6" d="M157.5,208.6c0-0.6,0-1.1,0-1.6h0.8l0,1h0c0.2-0.7,0.8-1.1,1.4-1.1c0.1,0,0.2,0,0.3,0v0.9
				c-0.1,0-0.2,0-0.3,0c-0.7,0-1.1,0.5-1.3,1.2c0,0.1,0,0.3,0,0.4v2.8h-0.9V208.6z"/>
			<path class="st6" d="M163.8,212.1l-0.1-0.7h0c-0.3,0.4-0.8,0.8-1.6,0.8c-1,0-1.6-0.7-1.6-1.5c0-1.2,1.1-1.9,3.1-1.9v-0.1
				c0-0.4-0.1-1.2-1.2-1.2c-0.5,0-1,0.1-1.3,0.4l-0.2-0.6c0.4-0.3,1-0.5,1.7-0.5c1.6,0,2,1.1,2,2.1v1.9c0,0.4,0,0.9,0.1,1.2H163.8z
				 M163.7,209.5c-1,0-2.2,0.2-2.2,1.2c0,0.6,0.4,0.9,0.9,0.9c0.7,0,1.1-0.4,1.2-0.9c0-0.1,0.1-0.2,0.1-0.3V209.5z"/>
			<path class="st6" d="M165.5,213.4c0.2-0.6,0.5-1.8,0.6-2.6l1-0.1c-0.2,0.9-0.7,2.1-1,2.6L165.5,213.4z"/>
			<path class="st6" d="M29.1,217.4h0.9v7.6h-0.9V217.4z"/>
			<path class="st6" d="M36.3,222.3c0,1.9-1.3,2.7-2.6,2.7c-1.4,0-2.5-1-2.5-2.7c0-1.7,1.1-2.7,2.6-2.7
				C35.3,219.7,36.3,220.7,36.3,222.3z M32.2,222.4c0,1.1,0.7,2,1.6,2c0.9,0,1.6-0.8,1.6-2c0-0.9-0.4-2-1.5-2
				C32.7,220.4,32.2,221.4,32.2,222.4z"/>
			<path class="st6" d="M37.4,224c0.3,0.2,0.8,0.4,1.2,0.4c0.7,0,1-0.3,1-0.8c0-0.4-0.3-0.7-1-1c-0.9-0.3-1.4-0.8-1.4-1.5
				c0-0.8,0.7-1.5,1.8-1.5c0.5,0,1,0.1,1.3,0.3l-0.2,0.7c-0.2-0.1-0.6-0.3-1.1-0.3c-0.6,0-0.9,0.3-0.9,0.7c0,0.4,0.3,0.6,1,0.9
				c0.9,0.3,1.4,0.8,1.4,1.6c0,0.9-0.7,1.5-1.9,1.5c-0.6,0-1.1-0.1-1.5-0.4L37.4,224z"/>
			<path class="st6" d="M44,221.5c0-0.7,0-1.2,0-1.7h0.8l0,0.9h0c0.4-0.6,1-1,1.8-1c1.2,0,2.2,1.1,2.2,2.6c0,1.9-1.1,2.8-2.3,2.8
				c-0.7,0-1.3-0.3-1.6-0.8h0v2.8H44V221.5z M44.9,222.8c0,0.1,0,0.3,0,0.4c0.2,0.7,0.7,1.1,1.4,1.1c1,0,1.6-0.8,1.6-2
				c0-1-0.5-1.9-1.5-1.9c-0.6,0-1.2,0.5-1.4,1.2c0,0.1-0.1,0.3-0.1,0.4V222.8z"/>
			<path class="st6" d="M50.1,221.4c0-0.6,0-1.1,0-1.6h0.8l0,1h0c0.2-0.7,0.8-1.1,1.4-1.1c0.1,0,0.2,0,0.3,0v0.9c-0.1,0-0.2,0-0.3,0
				c-0.7,0-1.1,0.5-1.3,1.2c0,0.1,0,0.3,0,0.4v2.8h-0.9V221.4z"/>
			<path class="st6" d="M54.7,218.3c0,0.3-0.2,0.6-0.6,0.6c-0.3,0-0.6-0.3-0.6-0.6c0-0.3,0.2-0.6,0.6-0.6
				C54.4,217.7,54.7,218,54.7,218.3z M53.6,224.9v-5.2h0.9v5.2H53.6z"/>
			<path class="st6" d="M56.1,221.2c0-0.5,0-1,0-1.4h0.8l0,0.8h0c0.3-0.5,0.8-1,1.6-1c0.7,0,1.2,0.4,1.5,1h0
				c0.2-0.3,0.4-0.5,0.6-0.7c0.3-0.2,0.7-0.4,1.1-0.4c0.7,0,1.7,0.4,1.7,2.2v3h-0.9V222c0-1-0.4-1.6-1.1-1.6c-0.5,0-1,0.4-1.1,0.9
				c0,0.1-0.1,0.3-0.1,0.5v3.2h-0.9v-3.1c0-0.8-0.4-1.4-1.1-1.4c-0.6,0-1,0.5-1.2,0.9c-0.1,0.1-0.1,0.3-0.1,0.5v3.1h-0.9V221.2z"/>
			<path class="st6" d="M65.5,222.5c0,1.3,0.8,1.8,1.8,1.8c0.7,0,1.1-0.1,1.4-0.3l0.2,0.7c-0.3,0.1-0.9,0.3-1.7,0.3
				c-1.6,0-2.5-1-2.5-2.6c0-1.6,0.9-2.8,2.4-2.8c1.7,0,2.1,1.5,2.1,2.4c0,0.2,0,0.3,0,0.4H65.5z M68.3,221.9c0-0.6-0.2-1.5-1.3-1.5
				c-1,0-1.4,0.9-1.4,1.5H68.3z"/>
			<path class="st6" d="M70.4,221.4c0-0.6,0-1.1,0-1.6h0.8l0,1h0c0.2-0.7,0.8-1.1,1.4-1.1c0.1,0,0.2,0,0.3,0v0.9c-0.1,0-0.2,0-0.3,0
				c-0.7,0-1.1,0.5-1.3,1.2c0,0.1,0,0.3,0,0.4v2.8h-0.9V221.4z"/>
			<path class="st6" d="M78.4,222.3c0,1.9-1.3,2.7-2.6,2.7c-1.4,0-2.5-1-2.5-2.7c0-1.7,1.1-2.7,2.6-2.7
				C77.4,219.7,78.4,220.7,78.4,222.3z M74.3,222.4c0,1.1,0.7,2,1.6,2c0.9,0,1.6-0.8,1.6-2c0-0.9-0.4-2-1.5-2
				C74.8,220.4,74.3,221.4,74.3,222.4z"/>
			<path class="st6" d="M79.5,224c0.3,0.2,0.8,0.4,1.2,0.4c0.7,0,1-0.3,1-0.8c0-0.4-0.3-0.7-1-1c-0.9-0.3-1.4-0.8-1.4-1.5
				c0-0.8,0.7-1.5,1.8-1.5c0.5,0,1,0.1,1.3,0.3l-0.2,0.7c-0.2-0.1-0.6-0.3-1.1-0.3c-0.6,0-0.9,0.3-0.9,0.7c0,0.4,0.3,0.6,1,0.9
				c0.9,0.3,1.4,0.8,1.4,1.6c0,0.9-0.7,1.5-1.9,1.5c-0.6,0-1.1-0.1-1.5-0.4L79.5,224z"/>
			<path class="st6" d="M86.6,222.5c0,1.3,0.8,1.8,1.8,1.8c0.7,0,1.1-0.1,1.4-0.3l0.2,0.7c-0.3,0.1-0.9,0.3-1.7,0.3
				c-1.6,0-2.5-1-2.5-2.6c0-1.6,0.9-2.8,2.4-2.8c1.7,0,2.1,1.5,2.1,2.4c0,0.2,0,0.3,0,0.4H86.6z M89.4,221.9c0-0.6-0.2-1.5-1.3-1.5
				c-1,0-1.4,0.9-1.4,1.5H89.4z"/>
			<path class="st6" d="M91.4,221.2c0-0.5,0-1,0-1.4h0.8l0.1,0.9h0c0.3-0.5,0.9-1,1.7-1c0.7,0,1.8,0.4,1.8,2.2v3.1h-0.9v-3
				c0-0.8-0.3-1.5-1.2-1.5c-0.6,0-1.1,0.4-1.3,1c0,0.1-0.1,0.3-0.1,0.4v3.1h-0.9V221.2z"/>
			<path class="st6" d="M99.6,221.4c0-0.6,0-1.1,0-1.6h0.8l0,1h0c0.2-0.7,0.8-1.1,1.4-1.1c0.1,0,0.2,0,0.3,0v0.9c-0.1,0-0.2,0-0.3,0
				c-0.7,0-1.1,0.5-1.3,1.2c0,0.1,0,0.3,0,0.4v2.8h-0.9V221.4z"/>
			<path class="st6" d="M103.5,222.5c0,1.3,0.8,1.8,1.8,1.8c0.7,0,1.1-0.1,1.4-0.3l0.2,0.7c-0.3,0.1-0.9,0.3-1.7,0.3
				c-1.6,0-2.5-1-2.5-2.6c0-1.6,0.9-2.8,2.4-2.8c1.7,0,2.1,1.5,2.1,2.4c0,0.2,0,0.3,0,0.4H103.5z M106.3,221.9
				c0-0.6-0.2-1.5-1.3-1.5c-1,0-1.4,0.9-1.4,1.5H106.3z"/>
			<path class="st6" d="M109.4,218.3c0,0.3-0.2,0.6-0.6,0.6c-0.3,0-0.6-0.3-0.6-0.6c0-0.3,0.2-0.6,0.6-0.6
				C109.2,217.7,109.4,218,109.4,218.3z M108.4,224.9v-5.2h0.9v5.2H108.4z"/>
			<path class="st6" d="M110.9,221.4c0-0.6,0-1.1,0-1.6h0.8l0,1h0c0.2-0.7,0.8-1.1,1.4-1.1c0.1,0,0.2,0,0.3,0v0.9
				c-0.1,0-0.2,0-0.3,0c-0.7,0-1.1,0.5-1.3,1.2c0,0.1,0,0.3,0,0.4v2.8h-0.9V221.4z"/>
			<path class="st6" d="M116.6,221.5c0-0.7,0-1.2,0-1.7h0.8l0,0.9h0c0.4-0.6,1-1,1.8-1c1.2,0,2.2,1.1,2.2,2.6c0,1.9-1.1,2.8-2.3,2.8
				c-0.7,0-1.3-0.3-1.6-0.8h0v2.8h-0.9V221.5z M117.5,222.8c0,0.1,0,0.3,0,0.4c0.2,0.7,0.7,1.1,1.4,1.1c1,0,1.6-0.8,1.6-2
				c0-1-0.5-1.9-1.5-1.9c-0.6,0-1.2,0.5-1.4,1.2c0,0.1-0.1,0.3-0.1,0.4V222.8z"/>
			<path class="st6" d="M123.7,218.3c0,0.3-0.2,0.6-0.6,0.6c-0.3,0-0.6-0.3-0.6-0.6c0-0.3,0.2-0.6,0.6-0.6
				C123.5,217.7,123.7,218,123.7,218.3z M122.7,224.9v-5.2h0.9v5.2H122.7z"/>
			<path class="st6" d="M125.7,222.5c0,1.3,0.8,1.8,1.8,1.8c0.7,0,1.1-0.1,1.4-0.3l0.2,0.7c-0.3,0.1-0.9,0.3-1.7,0.3
				c-1.6,0-2.5-1-2.5-2.6c0-1.6,0.9-2.8,2.4-2.8c1.7,0,2.1,1.5,2.1,2.4c0,0.2,0,0.3,0,0.4H125.7z M128.5,221.9
				c0-0.6-0.2-1.5-1.3-1.5c-1,0-1.4,0.9-1.4,1.5H128.5z"/>
			<path class="st6" d="M130.5,221.4c0-0.6,0-1.1,0-1.6h0.8l0,1h0c0.2-0.7,0.8-1.1,1.4-1.1c0.1,0,0.2,0,0.3,0v0.9
				c-0.1,0-0.2,0-0.3,0c-0.7,0-1.1,0.5-1.3,1.2c0,0.1,0,0.3,0,0.4v2.8h-0.9V221.4z"/>
			<path class="st6" d="M138.4,217.4v6.2c0,0.5,0,1,0,1.3h-0.8l0-0.9h0c-0.3,0.6-0.9,1-1.8,1c-1.2,0-2.2-1.1-2.2-2.6
				c0-1.7,1.1-2.8,2.3-2.8c0.8,0,1.3,0.4,1.6,0.8h0v-3.1H138.4z M137.4,221.9c0-0.1,0-0.3,0-0.4c-0.1-0.6-0.7-1.1-1.4-1.1
				c-1,0-1.5,0.9-1.5,2c0,1,0.5,1.9,1.5,1.9c0.6,0,1.2-0.4,1.4-1.1c0-0.1,0-0.3,0-0.4V221.9z"/>
			<path class="st6" d="M140.5,222.5c0,1.3,0.8,1.8,1.8,1.8c0.7,0,1.1-0.1,1.4-0.3l0.2,0.7c-0.3,0.1-0.9,0.3-1.7,0.3
				c-1.6,0-2.5-1-2.5-2.6c0-1.6,0.9-2.8,2.4-2.8c1.7,0,2.1,1.5,2.1,2.4c0,0.2,0,0.3,0,0.4H140.5z M143.2,221.9
				c0-0.6-0.2-1.5-1.3-1.5c-1,0-1.4,0.9-1.4,1.5H143.2z"/>
			<path class="st6" d="M145.3,221.2c0-0.5,0-1,0-1.4h0.8l0.1,0.9h0c0.3-0.5,0.9-1,1.7-1c0.7,0,1.8,0.4,1.8,2.2v3.1h-0.9v-3
				c0-0.8-0.3-1.5-1.2-1.5c-0.6,0-1.1,0.4-1.3,1c0,0.1-0.1,0.3-0.1,0.4v3.1h-0.9V221.2z"/>
			<path class="st6" d="M151,224.4c0-0.4,0.3-0.7,0.6-0.7c0.4,0,0.6,0.3,0.6,0.7c0,0.4-0.2,0.7-0.6,0.7
				C151.2,225.1,151,224.8,151,224.4z"/>
			<path class="st6" d="M13.2,230.6h0.9v6.4h3.1v0.8h-4V230.6z"/>
			<path class="st6" d="M22.7,235.1c0,1.9-1.3,2.7-2.6,2.7c-1.4,0-2.5-1-2.5-2.7c0-1.7,1.1-2.7,2.6-2.7
				C21.7,232.5,22.7,233.5,22.7,235.1z M18.6,235.2c0,1.1,0.7,2,1.6,2c0.9,0,1.6-0.8,1.6-2c0-0.9-0.4-2-1.5-2
				C19.1,233.2,18.6,234.2,18.6,235.2z"/>
			<path class="st6" d="M23.8,236.8c0.3,0.2,0.8,0.4,1.2,0.4c0.7,0,1-0.3,1-0.8c0-0.4-0.3-0.7-1-1c-0.9-0.3-1.4-0.8-1.4-1.5
				c0-0.8,0.7-1.5,1.8-1.5c0.5,0,1,0.1,1.3,0.3l-0.2,0.7c-0.2-0.1-0.6-0.3-1.1-0.3c-0.6,0-0.9,0.3-0.9,0.7c0,0.4,0.3,0.6,1,0.9
				c0.9,0.3,1.4,0.8,1.4,1.6c0,0.9-0.7,1.5-1.9,1.5c-0.6,0-1.1-0.1-1.5-0.4L23.8,236.8z"/>
			<path class="st6" d="M30.4,234.3c0-0.7,0-1.2,0-1.7h0.8l0,0.9h0c0.4-0.6,1-1,1.8-1c1.2,0,2.2,1.1,2.2,2.6c0,1.9-1.1,2.8-2.3,2.8
				c-0.7,0-1.3-0.3-1.6-0.8h0v2.8h-0.9V234.3z M31.3,235.6c0,0.1,0,0.3,0,0.4c0.2,0.7,0.7,1.1,1.4,1.1c1,0,1.6-0.8,1.6-2
				c0-1-0.5-1.9-1.5-1.9c-0.6,0-1.2,0.5-1.4,1.2c0,0.1-0.1,0.3-0.1,0.4V235.6z"/>
			<path class="st6" d="M37,235.3c0,1.3,0.8,1.8,1.8,1.8c0.7,0,1.1-0.1,1.4-0.3l0.2,0.7c-0.3,0.1-0.9,0.3-1.7,0.3
				c-1.6,0-2.5-1-2.5-2.6c0-1.6,0.9-2.8,2.4-2.8c1.7,0,2.1,1.5,2.1,2.4c0,0.2,0,0.3,0,0.4H37z M39.8,234.7c0-0.6-0.2-1.5-1.3-1.5
				c-1,0-1.4,0.9-1.4,1.5H39.8z"/>
			<path class="st6" d="M41.8,234.2c0-0.6,0-1.1,0-1.6h0.8l0,1h0c0.2-0.7,0.8-1.1,1.4-1.1c0.1,0,0.2,0,0.3,0v0.9c-0.1,0-0.2,0-0.3,0
				c-0.7,0-1.1,0.5-1.3,1.2c0,0.1,0,0.3,0,0.4v2.8h-0.9V234.2z"/>
			<path class="st6" d="M49.7,230.2v6.2c0,0.5,0,1,0,1.3h-0.8l0-0.9h0c-0.3,0.6-0.9,1-1.8,1c-1.2,0-2.2-1.1-2.2-2.6
				c0-1.7,1.1-2.8,2.3-2.8c0.8,0,1.3,0.4,1.6,0.8h0v-3.1H49.7z M48.7,234.7c0-0.1,0-0.3,0-0.4c-0.1-0.6-0.7-1.1-1.4-1.1
				c-1,0-1.5,0.9-1.5,2c0,1,0.5,1.9,1.5,1.9c0.6,0,1.2-0.4,1.4-1.1c0-0.1,0-0.3,0-0.4V234.7z"/>
			<path class="st6" d="M51.8,235.3c0,1.3,0.8,1.8,1.8,1.8c0.7,0,1.1-0.1,1.4-0.3l0.2,0.7c-0.3,0.1-0.9,0.3-1.7,0.3
				c-1.6,0-2.5-1-2.5-2.6c0-1.6,0.9-2.8,2.4-2.8c1.7,0,2.1,1.5,2.1,2.4c0,0.2,0,0.3,0,0.4H51.8z M54.5,234.7c0-0.6-0.2-1.5-1.3-1.5
				c-1,0-1.4,0.9-1.4,1.5H54.5z"/>
			<path class="st6" d="M61,230.2v6.2c0,0.5,0,1,0,1.3h-0.8l0-0.9h0c-0.3,0.6-0.9,1-1.8,1c-1.2,0-2.2-1.1-2.2-2.6
				c0-1.7,1.1-2.8,2.3-2.8c0.8,0,1.3,0.4,1.6,0.8h0v-3.1H61z M60.1,234.7c0-0.1,0-0.3,0-0.4c-0.1-0.6-0.7-1.1-1.4-1.1
				c-1,0-1.5,0.9-1.5,2c0,1,0.5,1.9,1.5,1.9c0.6,0,1.2-0.4,1.4-1.1c0-0.1,0-0.3,0-0.4V234.7z"/>
			<path class="st6" d="M67.3,235.1c0,1.9-1.3,2.7-2.6,2.7c-1.4,0-2.5-1-2.5-2.7c0-1.7,1.1-2.7,2.6-2.7
				C66.3,232.5,67.3,233.5,67.3,235.1z M63.2,235.2c0,1.1,0.7,2,1.6,2c0.9,0,1.6-0.8,1.6-2c0-0.9-0.4-2-1.5-2
				C63.7,233.2,63.2,234.2,63.2,235.2z"/>
			<path class="st6" d="M68.5,234.2c0-0.6,0-1.1,0-1.6h0.8l0,1h0c0.2-0.7,0.8-1.1,1.4-1.1c0.1,0,0.2,0,0.3,0v0.9c-0.1,0-0.2,0-0.3,0
				c-0.7,0-1.1,0.5-1.3,1.2c0,0.1,0,0.3,0,0.4v2.8h-0.9V234.2z"/>
			<path class="st6" d="M72.4,235.3c0,1.3,0.8,1.8,1.8,1.8c0.7,0,1.1-0.1,1.4-0.3l0.2,0.7c-0.3,0.1-0.9,0.3-1.7,0.3
				c-1.6,0-2.5-1-2.5-2.6c0-1.6,0.9-2.8,2.4-2.8c1.7,0,2.1,1.5,2.1,2.4c0,0.2,0,0.3,0,0.4H72.4z M75.1,234.7c0-0.6-0.2-1.5-1.3-1.5
				c-1,0-1.4,0.9-1.4,1.5H75.1z"/>
			<path class="st6" d="M77.1,236.8c0.3,0.2,0.8,0.4,1.2,0.4c0.7,0,1-0.3,1-0.8c0-0.4-0.3-0.7-1-1c-0.9-0.3-1.4-0.8-1.4-1.5
				c0-0.8,0.7-1.5,1.8-1.5c0.5,0,1,0.1,1.3,0.3l-0.2,0.7c-0.2-0.1-0.6-0.3-1.1-0.3c-0.6,0-0.9,0.3-0.9,0.7c0,0.4,0.3,0.6,1,0.9
				c0.9,0.3,1.4,0.8,1.4,1.6c0,0.9-0.7,1.5-1.9,1.5c-0.6,0-1.1-0.1-1.5-0.4L77.1,236.8z"/>
			<path class="st6" d="M83.7,234.3c0-0.7,0-1.2,0-1.7h0.8l0,0.9h0c0.4-0.6,1-1,1.8-1c1.2,0,2.2,1.1,2.2,2.6c0,1.9-1.1,2.8-2.3,2.8
				c-0.7,0-1.3-0.3-1.6-0.8h0v2.8h-0.9V234.3z M84.6,235.6c0,0.1,0,0.3,0,0.4c0.2,0.7,0.7,1.1,1.4,1.1c1,0,1.6-0.8,1.6-2
				c0-1-0.5-1.9-1.5-1.9c-0.6,0-1.2,0.5-1.4,1.2c0,0.1-0.1,0.3-0.1,0.4V235.6z"/>
			<path class="st6" d="M90.8,231.1c0,0.3-0.2,0.6-0.6,0.6c-0.3,0-0.6-0.3-0.6-0.6c0-0.3,0.2-0.6,0.6-0.6
				C90.6,230.5,90.8,230.8,90.8,231.1z M89.8,237.8v-5.2h0.9v5.2H89.8z"/>
			<path class="st6" d="M92.8,235.3c0,1.3,0.8,1.8,1.8,1.8c0.7,0,1.1-0.1,1.4-0.3l0.2,0.7c-0.3,0.1-0.9,0.3-1.7,0.3
				c-1.6,0-2.5-1-2.5-2.6c0-1.6,0.9-2.8,2.4-2.8c1.7,0,2.1,1.5,2.1,2.4c0,0.2,0,0.3,0,0.4H92.8z M95.5,234.7c0-0.6-0.2-1.5-1.3-1.5
				c-1,0-1.4,0.9-1.4,1.5H95.5z"/>
			<path class="st6" d="M97.6,234.2c0-0.6,0-1.1,0-1.6h0.8l0,1h0c0.2-0.7,0.8-1.1,1.4-1.1c0.1,0,0.2,0,0.3,0v0.9c-0.1,0-0.2,0-0.3,0
				c-0.7,0-1.1,0.5-1.3,1.2c0,0.1,0,0.3,0,0.4v2.8h-0.9V234.2z"/>
			<path class="st6" d="M105.5,230.2v6.2c0,0.5,0,1,0,1.3h-0.8l0-0.9h0c-0.3,0.6-0.9,1-1.8,1c-1.2,0-2.2-1.1-2.2-2.6
				c0-1.7,1.1-2.8,2.3-2.8c0.8,0,1.3,0.4,1.6,0.8h0v-3.1H105.5z M104.5,234.7c0-0.1,0-0.3,0-0.4c-0.1-0.6-0.7-1.1-1.4-1.1
				c-1,0-1.5,0.9-1.5,2c0,1,0.5,1.9,1.5,1.9c0.6,0,1.2-0.4,1.4-1.1c0-0.1,0-0.3,0-0.4V234.7z"/>
			<path class="st6" d="M107.5,235.3c0,1.3,0.8,1.8,1.8,1.8c0.7,0,1.1-0.1,1.4-0.3l0.2,0.7c-0.3,0.1-0.9,0.3-1.7,0.3
				c-1.6,0-2.5-1-2.5-2.6c0-1.6,0.9-2.8,2.4-2.8c1.7,0,2.1,1.5,2.1,2.4c0,0.2,0,0.3,0,0.4H107.5z M110.3,234.7
				c0-0.6-0.2-1.5-1.3-1.5c-1,0-1.4,0.9-1.4,1.5H110.3z"/>
			<path class="st6" d="M112.4,234c0-0.5,0-1,0-1.4h0.8l0.1,0.9h0c0.3-0.5,0.9-1,1.7-1c0.7,0,1.8,0.4,1.8,2.2v3.1h-0.9v-3
				c0-0.8-0.3-1.5-1.2-1.5c-0.6,0-1.1,0.4-1.3,1c0,0.1-0.1,0.3-0.1,0.4v3.1h-0.9V234z"/>
			<path class="st6" d="M124.9,236.3c0,0.5,0,1,0,1.4h-0.8l-0.1-0.8h0c-0.2,0.4-0.8,1-1.7,1c-0.8,0-1.8-0.4-1.8-2.3v-3h0.9v2.9
				c0,1,0.3,1.6,1.2,1.6c0.6,0,1.1-0.4,1.2-0.9c0.1-0.1,0.1-0.3,0.1-0.5v-3.2h0.9V236.3z"/>
			<path class="st6" d="M126.4,234c0-0.5,0-1,0-1.4h0.8l0.1,0.9h0c0.3-0.5,0.9-1,1.7-1c0.7,0,1.8,0.4,1.8,2.2v3.1h-0.9v-3
				c0-0.8-0.3-1.5-1.2-1.5c-0.6,0-1.1,0.4-1.3,1c0,0.1-0.1,0.3-0.1,0.4v3.1h-0.9V234z"/>
			<path class="st6" d="M135.2,237.8l-0.1-0.7h0c-0.3,0.4-0.8,0.8-1.6,0.8c-1,0-1.6-0.7-1.6-1.5c0-1.2,1.1-1.9,3.1-1.9v-0.1
				c0-0.4-0.1-1.2-1.2-1.2c-0.5,0-1,0.2-1.3,0.4l-0.2-0.6c0.4-0.3,1-0.5,1.7-0.5c1.6,0,2,1.1,2,2.1v1.9c0,0.4,0,0.9,0.1,1.2H135.2z
				 M135.1,235.1c-1,0-2.2,0.2-2.2,1.2c0,0.6,0.4,0.9,0.9,0.9c0.7,0,1.1-0.4,1.2-0.9c0-0.1,0.1-0.2,0.1-0.3V235.1z"/>
			<path class="st6" d="M139.8,234.3c0-0.7,0-1.2,0-1.7h0.8l0,0.9h0c0.4-0.6,1-1,1.8-1c1.2,0,2.2,1.1,2.2,2.6c0,1.9-1.1,2.8-2.3,2.8
				c-0.7,0-1.3-0.3-1.6-0.8h0v2.8h-0.9V234.3z M140.7,235.6c0,0.1,0,0.3,0,0.4c0.2,0.7,0.7,1.1,1.4,1.1c1,0,1.6-0.8,1.6-2
				c0-1-0.5-1.9-1.5-1.9c-0.6,0-1.2,0.5-1.4,1.2c0,0.1-0.1,0.3-0.1,0.4V235.6z"/>
			<path class="st6" d="M145.8,234.2c0-0.6,0-1.1,0-1.6h0.8l0,1h0c0.2-0.7,0.8-1.1,1.4-1.1c0.1,0,0.2,0,0.3,0v0.9
				c-0.1,0-0.2,0-0.3,0c-0.7,0-1.1,0.5-1.3,1.2c0,0.1,0,0.3,0,0.4v2.8h-0.9V234.2z"/>
			<path class="st6" d="M149.7,235.3c0,1.3,0.8,1.8,1.8,1.8c0.7,0,1.1-0.1,1.4-0.3l0.2,0.7c-0.3,0.1-0.9,0.3-1.7,0.3
				c-1.6,0-2.5-1-2.5-2.6c0-1.6,0.9-2.8,2.4-2.8c1.7,0,2.1,1.5,2.1,2.4c0,0.2,0,0.3,0,0.4H149.7z M152.5,234.7
				c0-0.6-0.2-1.5-1.3-1.5c-1,0-1.4,0.9-1.4,1.5H152.5z"/>
			<path class="st6" d="M154.6,234c0-0.5,0-1,0-1.4h0.8l0.1,0.9h0c0.3-0.5,0.9-1,1.7-1c0.7,0,1.8,0.4,1.8,2.2v3.1H158v-3
				c0-0.8-0.3-1.5-1.2-1.5c-0.6,0-1.1,0.4-1.3,1c0,0.1-0.1,0.3-0.1,0.4v3.1h-0.9V234z"/>
			<path class="st6" d="M164.9,230.2v6.2c0,0.5,0,1,0,1.3h-0.8l0-0.9h0c-0.3,0.6-0.9,1-1.8,1c-1.2,0-2.2-1.1-2.2-2.6
				c0-1.7,1.1-2.8,2.3-2.8c0.8,0,1.3,0.4,1.6,0.8h0v-3.1H164.9z M164,234.7c0-0.1,0-0.3,0-0.4c-0.1-0.6-0.7-1.1-1.4-1.1
				c-1,0-1.5,0.9-1.5,2c0,1,0.5,1.9,1.5,1.9c0.6,0,1.2-0.4,1.4-1.1c0-0.1,0-0.3,0-0.4V234.7z"/>
			<path class="st6" d="M169.4,237.8l-0.1-0.7h0c-0.3,0.4-0.8,0.8-1.6,0.8c-1,0-1.6-0.7-1.6-1.5c0-1.2,1.1-1.9,3.1-1.9v-0.1
				c0-0.4-0.1-1.2-1.2-1.2c-0.5,0-1,0.2-1.3,0.4l-0.2-0.6c0.4-0.3,1-0.5,1.7-0.5c1.6,0,2,1.1,2,2.1v1.9c0,0.4,0,0.9,0.1,1.2H169.4z
				 M169.2,235.1c-1,0-2.2,0.2-2.2,1.2c0,0.6,0.4,0.9,0.9,0.9c0.7,0,1.1-0.4,1.2-0.9c0-0.1,0.1-0.2,0.1-0.3V235.1z"/>
		</g>
	</g>
	<g id="Title">
		<g id="Image">
			<g>
				<path d="M79.5,17.3h-1.1v-6.6c0-0.5,0-1.2,0.1-1.9h0c-0.1,0.4-0.2,0.8-0.3,1l-3.3,7.5h-0.6l-3.3-7.5c-0.1-0.2-0.2-0.6-0.3-1h0
					c0,0.4,0.1,1,0.1,1.9v6.6h-1.1V7.5H71l3,6.8c0.2,0.5,0.4,0.9,0.5,1.2h0c0.2-0.5,0.4-0.9,0.5-1.2l3.1-6.8h1.4V17.3z"/>
				<path d="M87.3,17.3h-5.2V7.5h5v1h-3.8v3.3h3.5v1h-3.5v3.4h4V17.3z"/>
				<path d="M89.2,17.3V7.5h2.7c3.5,0,5.2,1.6,5.2,4.8c0,1.5-0.5,2.7-1.4,3.6c-1,0.9-2.2,1.4-3.9,1.4H89.2z M90.3,8.5v7.7h1.5
					c1.3,0,2.3-0.3,3-1c0.7-0.7,1.1-1.7,1.1-2.9c0-2.5-1.3-3.8-4-3.8H90.3z"/>
				<path d="M101.1,7.5v1h-1v7.8h1v1H98v-1h1V8.5h-1v-1H101.1z"/>
				<path d="M110.3,17.3H109l-1-2.7h-4.2l-1,2.7h-1.3l3.8-9.8h1.2L110.3,17.3z M107.6,13.5l-1.5-4.2c0-0.1-0.1-0.4-0.2-0.7h0
					c0,0.3-0.1,0.5-0.2,0.7l-1.5,4.2H107.6z"/>
				<path d="M123.5,17.3h-1.4l-5-7.8c-0.1-0.2-0.2-0.4-0.3-0.6h0c0,0.2,0.1,0.7,0.1,1.3v7.1h-1.1V7.5h1.5l4.9,7.7
					c0.2,0.3,0.3,0.5,0.4,0.7h0c0-0.3-0.1-0.8-0.1-1.4V7.5h1.1V17.3z"/>
				<path d="M133.6,17.3h-1.3l-1-2.7h-4.2l-1,2.7h-1.3l3.8-9.8h1.2L133.6,17.3z M131,13.5l-1.5-4.2c0-0.1-0.1-0.4-0.2-0.7h0
					c0,0.3-0.1,0.5-0.2,0.7l-1.5,4.2H131z"/>
				<path d="M142.1,17.3h-1.4l-1.6-2.7c-0.2-0.3-0.3-0.5-0.4-0.7c-0.1-0.2-0.3-0.3-0.4-0.4c-0.1-0.1-0.3-0.2-0.5-0.2
					c-0.2-0.1-0.4-0.1-0.6-0.1h-0.9v4.2h-1.1V7.5h2.9c0.4,0,0.8,0.1,1.2,0.2c0.4,0.1,0.7,0.3,0.9,0.5c0.3,0.2,0.5,0.5,0.6,0.8
					c0.2,0.3,0.2,0.7,0.2,1.1c0,0.3-0.1,0.7-0.2,0.9c-0.1,0.3-0.2,0.5-0.4,0.8c-0.2,0.2-0.4,0.4-0.7,0.6c-0.3,0.2-0.6,0.3-0.9,0.4v0
					c0.2,0.1,0.3,0.2,0.4,0.2c0.1,0.1,0.2,0.2,0.3,0.3c0.1,0.1,0.2,0.3,0.3,0.4c0.1,0.2,0.2,0.3,0.4,0.6L142.1,17.3z M136.2,8.5v3.6
					h1.6c0.3,0,0.6,0,0.8-0.1c0.2-0.1,0.5-0.2,0.6-0.4c0.2-0.2,0.3-0.4,0.4-0.6c0.1-0.2,0.2-0.5,0.2-0.8c0-0.5-0.2-0.9-0.5-1.2
					c-0.3-0.3-0.8-0.4-1.5-0.4H136.2z"/>
				<path d="M151,17.3h-1.3l-1-2.7h-4.2l-1,2.7h-1.3l3.8-9.8h1.2L151,17.3z M148.4,13.5l-1.5-4.2c0-0.1-0.1-0.4-0.2-0.7h0
					c0,0.3-0.1,0.5-0.2,0.7l-1.5,4.2H148.4z"/>
				<path d="M160.4,17.3H159l-5-7.8c-0.1-0.2-0.2-0.4-0.3-0.6h0c0,0.2,0.1,0.7,0.1,1.3v7.1h-1.1V7.5h1.5l4.9,7.7
					c0.2,0.3,0.3,0.5,0.4,0.7h0c0-0.3-0.1-0.8-0.1-1.4V7.5h1.1V17.3z"/>
				<path d="M165.5,13.8c0,1.2-0.2,2.1-0.7,2.7c-0.5,0.6-1.2,1-2,1c-0.4,0-0.7-0.1-0.9-0.2v-1.1c0.2,0.2,0.6,0.3,1,0.3
					c1,0,1.6-0.9,1.6-2.6V7.5h1.1V13.8z"/>
				<path d="M175.3,17.3H174l-1-2.7h-4.2l-1,2.7h-1.3l3.8-9.8h1.2L175.3,17.3z M172.6,13.5l-1.5-4.2c0-0.1-0.1-0.4-0.2-0.7h0
					c0,0.3-0.1,0.5-0.2,0.7l-1.5,4.2H172.6z"/>
			</g>
		</g>
	</g>
</g>
</svg>
