<?xml version="1.0" encoding="utf-8"?>
<!-- Generator: Adobe Illustrator 19.1.1, SVG Export Plug-In . SVG Version: 6.00 Build 0)  -->
<svg version="1.1" xmlns="http://www.w3.org/2000/svg" xmlns:xlink="http://www.w3.org/1999/xlink" x="0px" y="0px"
	 viewBox="0 0 181.4 252.3" style="enable-background:new 0 0 181.4 252.3;" xml:space="preserve">
<style type="text/css">
	.st0{fill:#FFFFFF;}
	.st1{fill:#FFFFFF;stroke:#000000;stroke-miterlimit:10;}
	.st2{fill:#414042;}
	.st3{fill:#512B8B;}
</style>
<g id="BG">
</g>
<g id="Image">
	<g>
		<g>
			<path class="st0" d="M52.6,184.3l-16.1-10.1c0,0,31.3-36.2,30.5-122.7c0,0,64.1,3,90.7-15.1c0,0,23.4,18.1,20.5,44.8
				c-2.9,26.7-44.4,103.1-47.8,103.1H52.6z"/>
			<path d="M52.6,184.3l-16.2-10l-0.1,0l0.1-0.1c1.7-2.1,3.1-4.3,4.6-6.6c1.4-2.3,2.7-4.6,3.9-7c1.3-2.3,2.4-4.8,3.5-7.2
				c0.6-1.2,1.1-2.5,1.6-3.7l1.5-3.7c1-2.5,1.8-5,2.7-7.5c0.5-1.2,0.8-2.5,1.2-3.8l1.2-3.8c0.8-2.5,1.4-5.2,2.1-7.7
				c0.7-2.6,1.4-5.2,1.8-7.8l1.6-7.9l1.2-7.9l0.6-4c0.2-1.3,0.3-2.7,0.5-4l0.8-8l0.2-2l0.1-2l0.2-4l0.5-8c0.1-2.7,0.1-5.3,0.1-8
				l0.1-8l0-0.4l0.4,0c7.7,0.3,15.5,0.2,23.2-0.1c7.7-0.3,15.5-0.9,23.2-1.8c1.9-0.3,3.8-0.5,5.8-0.8c1.9-0.3,3.8-0.6,5.7-0.9
				c1.9-0.4,3.8-0.7,5.7-1.2c1.9-0.4,3.8-0.9,5.6-1.4l2.8-0.8c0.9-0.3,1.8-0.6,2.8-0.9c0.9-0.3,1.8-0.6,2.7-0.9
				c0.9-0.3,1.8-0.7,2.7-1c1.8-0.7,3.5-1.5,5.3-2.4c0.8-0.5,1.7-0.9,2.5-1.4l2.4-1.5l0.3-0.2l0.3,0.2c4,3.3,7.4,7.1,10.5,11.2
				c3,4.1,5.6,8.6,7.4,13.4c1.8,4.8,2.9,9.9,3,15c0,2.5-0.1,5.1-0.5,7.7c-0.4,2.5-1,5-1.7,7.5c-1.4,4.9-3.1,9.7-4.9,14.4
				c-1.8,4.7-3.8,9.4-5.8,14.1c-4.1,9.3-8.5,18.4-13.1,27.5c-4.6,9-9.4,18-14.5,26.7c-1.3,2.2-2.6,4.4-4,6.5
				c-0.7,1.1-1.4,2.1-2.2,3.1c-0.4,0.5-0.8,1-1.4,1.4c-0.3,0.1-0.4,0.1-0.6,0.1h-0.5l-1,0l-15.2,0L52.6,184.3z M52.6,184.3l60.8-0.2
				l15.2,0l1,0h0.5c0.2,0,0.3,0,0.4,0c0.4-0.3,0.8-0.8,1.2-1.3c0.8-1,1.5-2,2.2-3.1c1.4-2.1,2.7-4.3,4-6.5
				c5.1-8.7,9.9-17.7,14.4-26.8c4.6-9.1,8.9-18.2,13-27.5c2-4.6,4-9.3,5.8-14.1c1.8-4.7,3.5-9.5,4.8-14.4c0.7-2.4,1.3-4.9,1.7-7.4
				c0.4-2.5,0.5-5,0.5-7.5c-0.1-5-1.2-10-3-14.7c-1.8-4.7-4.3-9.1-7.3-13.1c-3-4-6.4-7.8-10.3-11l0.6,0l-2.5,1.6
				c-0.9,0.5-1.7,0.9-2.6,1.4c-1.8,0.9-3.5,1.7-5.3,2.4c-0.9,0.4-1.8,0.7-2.7,1c-0.9,0.3-1.8,0.7-2.8,1c-0.9,0.3-1.9,0.6-2.8,0.9
				l-2.8,0.8c-1.9,0.5-3.8,1-5.7,1.4c-1.9,0.4-3.8,0.8-5.7,1.1c-1.9,0.3-3.8,0.7-5.8,0.9c-1.9,0.3-3.9,0.5-5.8,0.8
				c-7.7,0.9-15.5,1.5-23.2,1.8c-7.8,0.3-15.5,0.3-23.3,0l0.4-0.4l-0.1,8c0,2.7-0.1,5.4-0.1,8l-0.5,8l-0.2,4l-0.1,2l-0.2,2l-0.9,8
				c-0.2,1.3-0.3,2.7-0.5,4l-0.6,4l-1.3,7.9l-1.6,7.9c-0.5,2.6-1.2,5.2-1.9,7.8c-0.7,2.6-1.3,5.2-2.1,7.8c-0.8,2.6-1.5,5.1-2.4,7.7
				c-0.9,2.5-1.8,5-2.8,7.5l-1.6,3.7c-0.5,1.2-1,2.5-1.6,3.7c-1.2,2.4-2.3,4.9-3.6,7.2c-1.2,2.4-2.6,4.7-4,7
				c-1.5,2.3-2.9,4.5-4.6,6.6l0-0.1L52.6,184.3z"/>
		</g>
		<path class="st1" d="M178.2,81.2c0,0-19.3-34.2-26.4-34.2c0,0,13.5-16-0.8-6.7"/>
		<g>
			<g>
				<g>
					<g>
						<g>
							<path class="st2" d="M154.8,95c0.1-0.2-0.3-0.2-0.4-0.3C154.4,95.1,154.9,95,154.8,95z"/>
							<polygon class="st2" points="154.6,99.2 154.5,99.1 154.7,99.8 							"/>
							<path class="st2" d="M153.3,102.9c0.8-0.1,0.4-1.4,0.8-1.9l0.2-0.1l-0.4-0.5C153.7,101.2,153.7,102.4,153.3,102.9z"/>
							<path class="st2" d="M151.2,104.2c0.3,0,0.1,0.5,0.3-0.4c0,0-0.1,0-0.1,0.1C151.3,104,151.3,104.1,151.2,104.2z"/>
							<path class="st2" d="M151.3,103.9C151.5,103.5,151,104,151.3,103.9L151.3,103.9z"/>
							<path class="st2" d="M150.8,105.6l0-0.6c-0.2,0-0.4,0.4-0.5,0.2C150.2,105.8,150.4,105.8,150.8,105.6z"/>
							<path class="st2" d="M151.1,106.3l0-0.3C151,106,150.9,106.1,151.1,106.3z"/>
							<path class="st2" d="M151.1,105.4l0,0.6c0.1,0,0.4,0.1,0-0.3C151.3,105.9,151.1,105.7,151.1,105.4z"/>
							<path class="st2" d="M151.3,105.1c0.3-0.2,0.5-0.5,0.5,0.1C152.1,104.2,151.6,104.2,151.3,105.1z"/>
							<path class="st2" d="M154,103.3l0.3-0.3l-0.1-0.4C154.3,102.8,153.8,103.3,154,103.3z"/>
							<path class="st2" d="M149.1,108.4c0.1,0.1,0.4,0,0.6,0.1l0-0.4C149.6,108.2,149.3,108.5,149.1,108.4z"/>
							<path class="st2" d="M149.7,108.5l0,0.6C150,108.7,149.9,108.5,149.7,108.5z"/>
							<polygon class="st2" points="151.8,106.7 151.6,105.6 151.7,106.9 							"/>
							<polygon class="st2" points="148.1,110.4 147.9,109.9 148.1,110.7 							"/>
							<path class="st2" d="M147.4,111.6c-0.1-0.3-0.6,0-0.6-0.3c-0.2,0.4-0.1,0.8-0.1,1.1C146.8,112.2,147,111.9,147.4,111.6z"/>
							<path class="st2" d="M146.7,113.1c0-0.2,0-0.4,0-0.6C146.7,112.7,146.7,112.9,146.7,113.1z"/>
							<path class="st2" d="M149.2,110c-0.1,0-0.4,0-0.6,0.2l0.5,0C149.1,110.1,149.1,110.1,149.2,110z"/>
							<path class="st2" d="M149.1,110.2L149.1,110.2c-0.1,0.2-0.2,0.4-0.3,0.4C148.9,110.6,148.9,110.4,149.1,110.2z"/>
							<path class="st2" d="M149.2,109.9L149.2,109.9C149.2,110,149.2,110,149.2,109.9z"/>
							<path class="st2" d="M150.8,108c0.1,0.4,0,1.2,0.6,0.7C151.2,108.3,150.9,108.6,150.8,108z"/>
							<path class="st2" d="M149.8,109.9l0.4-0.5c-0.1,0-0.3,0-0.3-0.2L149.8,109.9z"/>
							<polygon class="st2" points="149.8,110.3 149.8,109.9 149.7,110.1 							"/>
							<path class="st2" d="M147.6,112.4c0,0.3-0.1,0.6-0.3,0.9c0.3-0.2,0.5-0.5,0.7-0.8C147.9,112.4,147.8,112.1,147.6,112.4z"/>
							<path class="st2" d="M148.4,111.4C148.4,111.4,148.4,111.4,148.4,111.4C148.4,111.4,148.4,111.4,148.4,111.4z"/>
							<polygon class="st2" points="145.6,116 145.7,116 145.6,115.9 							"/>
							<path class="st2" d="M148.1,112.5c0.2-0.2,0.2-0.4,0.2-0.6C148.2,112.1,148.1,112.3,148.1,112.5
								C148.1,112.5,148.1,112.5,148.1,112.5z"/>
							<path class="st2" d="M146.4,114c0.1-0.1,0.3-0.2,0.4-0.3C146.7,113.8,146.4,113.9,146.4,114z"/>
							<path class="st2" d="M148.2,111.5C148.2,111.4,148.2,111.4,148.2,111.5C148.1,111.4,148.2,111.5,148.2,111.5z"/>
							<path class="st2" d="M148.2,111.5c0,0.1,0,0.3,0.1,0.4c0-0.2,0.1-0.3,0.1-0.5C148.3,111.5,148.3,111.5,148.2,111.5z"/>
							<path class="st2" d="M147.2,118.4c-0.3-0.3-0.1-1.1,0.6-1.3c0.1-0.7-1.2-1.1-2.1-1.1c0.1,0.1,0.3,0.2,0.1,0.8
								c0.3,0,1.2-0.8,1.2-0.2c-0.3,0.8-0.5,0.5-0.9,0.7c0.6,0-0.1,1.3,0.6,1.6l0.3-0.7C147,118.2,147,118.5,147.2,118.4z"/>
							<path class="st2" d="M146.4,115.1l0.1-0.2c-0.2,0.2-0.5,0.3-0.9,0.4c-0.1,0.4,0,0.6,0.1,0.7c0,0,0.2-0.2,0.4-0.5
								c0.2-0.2,0.4-0.5,0.4-0.5L146.4,115.1z"/>
							<path class="st2" d="M147.1,113.9c0.3,0.4,0.1,1,0.7,1c0.4-0.6,0-0.6,0.1-1.1C147.3,114.8,147.8,113.3,147.1,113.9
								c0.1-0.2,0.2-0.4,0.3-0.6c-0.2,0.2-0.3,0.3-0.5,0.4c0,0,0,0,0,0l0,0l0,0c0.1,0,0.1,0,0.1,0c0,0,0,0,0,0
								C147,113.8,147,113.8,147.1,113.9c-0.3,0.2-0.1,0-0.1-0.1c0,0,0,0,0,0l0,0c0,0-0.1,0.3-0.2,0.6c-0.1,0.3-0.2,0.6-0.2,0.6
								C146.7,114.7,146.8,114.4,147.1,113.9z"/>
							<path class="st2" d="M151.9,109.6c-0.1,0-0.1,0-0.1,0C151.8,109.7,151.9,109.8,151.9,109.6z"/>
							<path class="st2" d="M151.5,110c0-0.1-0.1-0.3,0-0.5c0.2-0.2,0.2,0.1,0.3,0.1c0-0.2,0-0.7-0.4-0.3l0,0.1
								c-0.3,0.4-1.1,0.7-1.1,0.6C150.7,110.1,151,110.1,151.5,110z"/>
							<path class="st2" d="M149.4,112.1c0,0-0.1,0.2-0.2,0.5c-0.1,0.2-0.2,0.5-0.2,0.5l0.6-0.3l-0.2-0.1
								C149.8,112.3,149.5,112.3,149.4,112.1z"/>
							<polygon class="st2" points="145.3,115.9 145,115.6 145.2,116.4 							"/>
							<polygon class="st2" points="144.6,117 144.3,116.7 144.3,117.1 							"/>
							<path class="st2" d="M126.5,72.3l0-0.3C126.5,72.1,126.5,72.2,126.5,72.3z"/>
							<path class="st2" d="M125.5,74.3l0.2,0.1C125.6,74.3,125.6,74.3,125.5,74.3z"/>
							<path class="st2" d="M125.3,114.3c0.2-0.5,0.7-1.1,0.3-0.9l-0.4,0.2C125.4,113.9,125.4,114.1,125.3,114.3z"/>
							<path class="st2" d="M122.5,92.5l-0.2,0.1c0.1,0.1,0.3,0.3,0.4,0.4C122.7,92.8,122.6,92.7,122.5,92.5z"/>
							<path class="st2" d="M120.8,91.9l0.4-0.5C121.1,91.5,120.9,91.6,120.8,91.9z"/>
							<path class="st2" d="M132.8,61.4l-0.1-0.6C132.4,61.2,132.7,61.2,132.8,61.4z"/>
							<path class="st2" d="M135.3,124.2c-0.3-0.1-0.5-0.2-0.7-0.1C134.9,124.2,135.2,124.6,135.3,124.2z"/>
							<path class="st2" d="M130.3,75c0-0.2,0-0.3-0.1-0.3C130.2,74.9,130.2,75,130.3,75z"/>
							<path class="st2" d="M133.8,124.1c0,0,0.1,0.1,0.1,0.1c0.2-0.1,0.4-0.1,0.6-0.1C134.3,123.9,134,123.7,133.8,124.1z"/>
							<path class="st2" d="M161.8,79.2c0,0,0,0.1-0.1,0.1C161.8,79.3,161.8,79.3,161.8,79.2z"/>
							<path class="st2" d="M156.1,91.4c0-0.1,0-0.3,0.1-0.5C156.1,91,156.1,91.2,156.1,91.4z"/>
							<path class="st2" d="M141.1,120.5C141.3,120.3,141.1,120.4,141.1,120.5L141.1,120.5z"/>
							<path class="st2" d="M143.2,120.8c0,0.1,0,0.2,0.1,0.2C143.3,121,143.2,120.9,143.2,120.8z"/>
							<path class="st2" d="M130.9,126.2L130.9,126.2C130.9,126.3,130.9,126.3,130.9,126.2z"/>
							<path class="st2" d="M141.5,120.3c-0.1,0-0.2,0.1-0.3,0.1C141.3,120.5,141.4,120.4,141.5,120.3z"/>
							<path class="st2" d="M141.4,120.2c0.1,0,0.1-0.1,0.2-0.1C141.5,120,141.5,120,141.4,120.2z"/>
							<path class="st2" d="M140.9,120.7c0.1-0.1,0.2-0.2,0.3-0.2c-0.1,0-0.1,0-0.1,0C141.1,120.5,141,120.6,140.9,120.7z"/>
							<path class="st2" d="M153.1,56.7C153.1,56.7,153.1,56.7,153.1,56.7C153.5,56.8,153.4,56.7,153.1,56.7z"/>
							<path class="st2" d="M119.8,107.8C119.8,107.8,119.8,107.8,119.8,107.8L119.8,107.8L119.8,107.8z"/>
							<path class="st2" d="M119.4,106.7c0.6,0.4,0.5,0.7,0.4,1l1.2-0.4L119.4,106.7z"/>
							<path class="st2" d="M129,67.4l-0.7,0.5c-0.1-1.1,0.5-1.6-0.4-1.2c1.1,0.8-1.4,2.6-0.2,3.4l-0.5,0.3c0.1-0.1,0-0.2,0.1-0.3
								c-1,0.6,0.5,1.1-0.2,2.1c-0.3,0.3-0.6,0.5-0.6,0.2c0,0,0,0.3-0.1,0.5c0,0.3,0,0.5,0,0.5c-0.1,0.2-0.3,0.1-0.2-0.2l-0.5,1.4
								l0,0c0.1,0.3,0.2,0.8,0.3,1.1c-0.3,0.3-0.1-0.2-0.3-0.2l0,0.9c-0.5,0.2-0.5-0.6-0.2-1.1c-1.5,0.2,0,0.7-1.3,2l0.1-0.8
								c-0.9,0.2-0.9,0.8-1.6,1.5c0.3-0.1,1.7-1.2,1.7-0.3c-0.2,0.2-0.3,0.5-0.2,1c-0.5-0.2-0.5,0.3-0.7,0.9l-0.6-0.2
								c0,0.7,0.3,0.7,0.5,1.2c-0.3,0.6-0.8,0.6-1.2,0.6c-0.4,1,1-0.5,0.7,0.8c-0.5,0.8-0.4,1.5-0.4,2.7c-0.4,0.6-0.3-0.2-0.6,0
								l0.3,0.7c0,0.1-0.2,0-0.3,0c0.1,0.5,0.6,0.2,0.6,1c0.6,0.4-1.4,1.2-0.8,2.3c-0.2,0.2-0.4-0.2-0.6-0.2
								c0.2,1.4,0.1,1.2,0.6,2.3l-0.6,0.8c0.6-0.6,1,0.4,1.3,1.2c0.3-0.2,0.5-0.3,0.6-0.5c0,0,0,0.3,0.1,0.6c0,0.3,0.1,0.6,0.1,0.6
								c-0.1,0.1-0.3,0-0.6-0.3c0,0.1,0.1,0.2,0.1,0.2c-0.3,0.4-0.6,0.1-0.9-0.2c0.1-0.1,0.3-0.2,0.5-0.3c-0.3-0.3-0.7-0.7-1.1-0.7
								c0.1,0.1,0.1,0.2,0.1,0.4c-0.1-0.1-0.2-0.2-0.2-0.1c-0.1,0,0,0.2,0.2,0.4l-0.7,0.1l0.3,0.1c0,0-0.2,0.4-0.3,0.7
								c-0.2,0.4-0.3,0.7-0.3,0.7c0.6,1.2,1.5,2.3,1.6,4c-0.5-0.5-0.8-0.2-1.5-0.2c0.7-0.4-0.1-1.4,0.1-2.3
								c-0.1,0.5-0.4,0.3-0.5,0.2l0.4,1.7c-0.5-0.1-0.4,0.3-0.7,0.7c1-0.2,0.6,1.2,0.8,1.9c-0.3,0-0.7-0.2-0.5-0.9
								c-0.8,0.8,1.1,1.2,0.4,2c0-0.2,0.1-0.3-0.1-0.4c0.3,0.5,0,1.6-0.3,1.3l0-0.2c-0.2,1.3,0,4,0.9,4.1c-0.1,0-1-0.1-1.2-0.2
								c0,0,0.7,0.6,1.5,1.1c0.7,0.5,1.5,1,1.5,1c-0.7-0.1-2.4,0.8-2.9-0.3c-0.1,0.3-0.2,0.7,0.1,1.4c0.1-0.2,1-0.6,1.1-0.3
								c-0.7,0.9-0.4,0.6-1,1.6c0.1-0.3,1.3-0.1,1.3,0.4c-0.2-0.1-1.1,0.2-1.3,0l1.3,1.1c-0.2-0.3-1,0.1-1.2,0.4
								c0.2-0.2,0.2,1.1,0.4,1.4l0.2-0.6c0.1,1.4,1.8,1,2.1,2.4c-0.3-0.1-1.5,0-1.4,0.7c0.7,0.2,3.1,0.6,3.9,1.4l-0.2,0.3l0.7,0.7
								c-0.5-0.1-1.3-0.3-2.1-0.6c-0.8-0.3-1.6-0.7-2.1-1.1c-0.1,0.6-0.3,0.3,0,1c-0.2,0.4-0.6-0.3-0.7-0.5c0,0,0.1,0.5,0.2,1
								c0.1,0.5,0.3,1,0.3,1c0.6-0.3,1.2,1.1,1.7,0.8c0,0-0.4-0.4-0.7-0.8c-0.4-0.4-0.7-0.9-0.7-0.9c0.6-0.3,2.2,0.4,2.6,1.6
								c-0.1,0.4-1.2,0.3-1.4,0.4c0.3,0.1,1,1,0.9,1.2l-0.6-0.3c0.2,0.8,1.4,0.7,1.4,1.8c0.2,0.3-0.1,1.3,0.3,1.1
								c0.3-0.9,2.1-2.4,2.8-2.5c0,0.1,0.3,1.5,0.3,2c-0.1,0.8-1.5,0.5-1.6,1.2c0.1-0.1,0.5-0.1,0.7,0c0.1,0.3-0.5,0.3,0.1,0.8
								c0.5-0.4,1.2,1,0.6-0.2c0.7,0.3,0.5,0.6,1.3,1c0-0.5,1.4-0.9,2-0.9c-0.1,0.1,0,0.4,0,0.5c1.2,0.5,2,0.9,3.3,0.9
								c0.1,0.2,0.8,0.3,0.5,0.6c0.2-0.1,0.3-0.4,0.7-0.5c0.4,0.2,0.2,0.3,0,0.4c-0.3,0.1-0.5,0.2-0.2,0.5c0-0.4,1-0.7,1.5-1.1
								c-0.3-0.5-1.3,0.2-1.9,0.5c-0.1-0.8,0.8-1.8,1.7-2.5c0.8-0.5,0.6,0.4,0.7,0.2c0.9-0.3,1.1-0.8,1.2-1.2c0.1-0.5,0.3-0.8,1-0.9
								c0.8,0.1,0.6,0.9,0.9,1.1c-0.6,0.6-1.3,0.4-1.7,0.7l0.7-0.1c-0.1,0.3-0.6,0.7-0.9,0.7c0.3,0.1,1.1-0.3,1.9-0.8
								c0.8-0.5,1.6-1.2,2.4-1.5c0.1-0.3,0.3-0.8,0-0.8l-0.3,0.4c-0.6,0,0.3-1-0.3-0.8c0.3-0.6,0.4-1.4,1.2-1.9l0.6,0.3
								c-0.1-0.1-0.7,0.1-0.7,0.5c0.1-0.4,1.5-0.4,1.2-1.2l-0.7,0.2c0.2-0.7,0.2-1.6,0.8-2.1c-0.7-0.1-0.1,0.2-0.9,0.1
								c1,0.2-1.3,1.4-0.1,1.5c-1-0.2-0.9,0.4-1.9,0.4c0.2,0.1,0.4,0.1-0.1,0.5c0,0.1,0,0.2,0,0.2c0,0,0,0,0,0l0,0c0,0,0,0,0,0
								c0.2,0,0.3,0,0.4,0c0.1,0.5-0.6,1.2-0.8,1.6c-0.3,0.2,0-0.3-0.3-0.3l-0.2,0.6c-0.3-0.3-1.2,0-0.7-0.7l-0.6,0.4
								c-0.5,0-1,0.3-1.2,0.6c-0.3,0.1-0.5,0.9-0.4,0.4c0,0-0.2,0.2-0.4,0.4c-0.2,0.2-0.4,0.4-0.4,0.4l-0.1-0.1
								c-0.5,0.2-0.9,0.5-1.4,0.7c-0.5,0.2-1.1,0.3-1.6-0.1c-0.2,0.1-0.3,0.1-0.5,0.1c-0.2,0-0.4,0-0.6-0.1l0-0.4
								c-0.4,0.1-0.9-0.7-1.2-0.4c0-0.6-0.3-0.8-0.7-1c-0.4-0.2-0.9-0.5-1.1-0.8l-0.4,0.3c-0.3-0.4-0.8-0.7-1.4-1.2l-0.3,0.3
								c-0.7-0.3-0.6-1.6-1.1-2.5c0.2,0,0.3,0.2,0.2,0.5c0.2-0.8-0.2-1.3-0.7-1.8c-0.4-0.5-0.9-1.1-0.7-1.7
								c-0.2-0.2-0.2-0.4-0.2-0.7c0,0,0,0,0,0.1c0,0,0-0.1,0-0.1c0-0.1,0.1-0.3,0.1-0.4c-0.1,0.1-0.1,0.3-0.1,0.4
								c-0.1-0.2-0.2-0.5-0.4-0.8l0.4-0.2c0,0,0,0,0-0.1c0.1-0.4-0.3-0.2-0.6,0c-0.1-0.1-0.2-0.3-0.4-0.4c0.7-0.4-0.4-0.8,0.3-1.3
								c-0.5-0.1-0.6-1.6-1.4-1.7c0.1,0,0.1-0.1,0.2,0.1c0.1-0.4,0.1-0.8-0.2-1.1l0.6-0.2l-0.9-0.8c0.3-0.5,0.5-0.8,1-0.3
								c-0.8-1.2-0.3-1-1.1-2l0.4,0c0-0.4-0.6-1-0.3-1.2c0.7-0.8,0.1-4.2,1-6.2c-1.2,0.3,0.6-0.9-0.3-1.1c0.3-0.1,0.5-0.4,0.7,0
								c-0.2-1.1,0.6-1.6,0-2.4c0.3-0.1,0.4,0.3,0.5,0.2c0-0.1-0.2-0.4,0-0.5c0.2-0.1,0.2,0.2,0.3,0.4c0.1-1.1-0.7-1.3-1.5-1.5
								c0.5-0.5,0.5-0.8,0-1.3c0.3-0.2,0.6-0.4,0.6,0.3c0.1-0.4,0.8-2.3,0.2-2.4c0.2-0.1,0.2-0.5,0.1-0.6c0.2-0.9,0.3-0.9,0.4-1.8
								l-0.2,0.2c-0.7-0.5,0-0.7,0.1-1.4l0.1,0c0.9-1.4-0.1-0.7,1-2.1l-0.5-0.1c-1-0.4,1-1.2,0.9-2.2l-0.4,0.2
								c-0.2-0.6,1.8-0.9,2.1-1.3c0.1-0.1,0.1,0.2,0.1,0.4c1-1-0.5-0.4-0.3-1.3c0.4-0.1,0.7,0.5,1-0.1c0.4-0.2-0.4-2.2,0.6-2.7
								c-0.3,0.1-0.6,0.2-0.6-0.3c0.2-0.7,1.6-1.3,1.2-2.2c0.1-0.1,0.2-0.1,0.2,0c0-0.6,0.4-1.7,0.2-2.2c1.7,0.3,0.9-3.3,2.2-2.5
								c0,0,0.2-0.4,0.4-0.7c0.2-0.4,0.4-0.7,0.4-0.7l0.1,0.1c0.6-0.8,0.5-1.3,0.4-1.8c0.2-0.1,0.2,0.1,0.3,0.1
								c1.1-1.1,1.1-1.2,1.3-2.7l0.5,0.2c0-0.5,1.9-1.1,2.6-2.5c0,0.1,0.1,0.1,0,0.3c0.4-0.8,1.3-1.2,2.1-1.5
								c0.8-0.3,1.3-0.6,1.1-1.6c0,0,0.2-0.2,0.3-0.5c0.2-0.2,0.3-0.5,0.3-0.5c-1.3,0.6-0.2-0.8-0.8-0.8c0.5-0.4,1.6-0.2,1,0.2
								l-0.1,0c0.1,0.5,0.5,0.4,0.9,0.2c0.4-0.1,0.9-0.3,0.9,0c1.2-0.4,2.4-0.5,3.5-0.2c1.1,0.2,2,0.8,2.9,1.4c0,0,0-0.2,0.1-0.4
								c0-0.2,0.1-0.4,0.1-0.4s0.6,0.5,0.6,0.5c0.1,0.3-0.1,0.6-0.6,0.3c0,0.5,0.9,0.3,1.1,0.2c0.6,1-0.9,0.3-0.6,0.6
								c0,0,0.4,0.3,0.4,0.3l0-0.1c0.5,0,0.7-0.2,1.2,0.4c0.2,0.4-0.2,0.5-0.1,0.6c0,0,0,0.1,0.1,0.2c0,0,0.1,0.2,0.3,0.4
								c0.1,0.2,0.3,0.5,0.3,0.5l0.3-0.7c0.5,0.2,0.5,0.9,0.8,0.1c-0.2,0.6,0.2,1.5,0.6,2.4c0.4,0.9,0.8,1.8,0.7,2.1
								c0.6,0.5,0.8,1.2,1,2.1c0.1-0.2,0.7-0.5,0.8,0.2c-1.4,0-0.3,1.5-1.1,2.3c0.6-0.6,0.5,2.1,1.3,1.1c0,0.6-0.5,0.1-0.7,0.6
								c0.7,1.4,0,3.3,0.2,5.1c0.2,0,0.4-0.3,0.7,0.1c0,0-0.2,0.3-0.4,0.5c-0.2,0.2-0.4,0.5-0.4,0.5c0.1,0.4,1,0.3,0.4,1
								c0.1-0.1,0.4-0.2,0.4,0c-0.5,1.8-0.4,3.7-0.5,5.6c-0.1,1.9-0.4,3.8-1.5,5.5c0.4-0.4,0.4-0.1,0.3,0.3c0.1-0.2,0.4,0.1,0.7,0.1
								c0,0-0.2,0.4-0.5,0.7c-0.2,0.3-0.5,0.7-0.5,0.7c0.6,0.4-0.3,1.6,0.3,1.9l0-0.5c0.6,0.8,1.8-0.5,2.7-0.3
								c-0.7-0.9,1.6-1.7,0.7-3.2c0.2-0.2,0.3,0.3,0.5,0.2c-0.3-0.4-0.4-0.8-0.1-1.5l0.1,0.1c0.2-2,0.7-2.8,1.2-5.1l-0.5,0.1
								c0.1-0.5,0.3-0.6,0.4-0.8c-0.7-0.6-0.2,1.4-0.9,0.8c1-0.6,0.2-3.4,1.3-3.8c0-0.8-0.6,0.2-0.5-0.5l0.3-0.2l-0.4-0.2
								c0.1-0.5,0.4-0.7,0.7-0.8c0,0.1,0.1,0.3,0.1,0.5c0.4-0.7-0.1-1.8,0-2.1l-0.2,0.7c-0.3-2.1-0.1-4.6-1-6.6l-0.2,0.2
								c-0.6-1.4,0.1-1.3-0.5-2.9l0.1,0c-0.3-0.3-0.5-0.7-0.6-1.2c0.4,0.4,0.3-0.9,0.7-0.4c-0.9-1.5-0.6-0.7-1.7-1.5l0.3-0.4
								c-0.4-0.2-0.6-0.2-1-1c0.5,0.5,0.3-0.7,1-0.1c0.1-1-0.4-1.6-0.8-2c-0.4-0.4-0.7-0.8-0.4-1.4c-1.3-0.2,0.3,1.7-0.2,1.4
								c-0.1,0.5-1-0.3-1.2-0.8c-0.1-0.3,0-0.6,0.1-1.1c0.1-0.5,0.1-1.1-0.4-1.7c0.1,0.1,0.2,0.1,0.2,0.2c-0.1-0.6-1-0.7-1.2-1.5
								c-0.7,0.2-0.7-0.7-1.3-0.2c0,0,1.1,0.8,1.1,0.8c-0.7-0.4-1.8-0.3-2.6-1.3c0.2-0.1,0.6,0,0.9,0c-0.2-0.4-0.7-0.3-0.9-0.7
								c0.3-0.3,0.7-0.1,1.1,0.2c0.4,0.3,0.9,0.7,1.5,0.8c-0.1-0.6-1.7-0.7-0.8-1.1c-0.6,0.2-0.9,0-1.2-0.4
								c-0.3-0.3-0.8-0.7-1.5-0.5l0.3-0.4c-0.2,0-0.6,0.1-0.9-0.1c0,0,0.2-0.1,0.4-0.2c0.2-0.1,0.4-0.2,0.4-0.2
								c-0.5,0-0.9-0.2-1.3-0.5c-0.4-0.3-0.8-0.5-1.3-0.5c1,0.2,1.1,0.3,1,0.5c-0.1,0.2-0.3,0.4,0,0.6c-1.2,0-1.4-0.3-1.7-0.7
								c-0.3-0.4-0.8-0.9-2.1-0.6c0.4-0.1,1.4,0.2,0.8,0.5c-0.5-0.1-1.2-0.2-1.5-0.4c-1.7,0.4,0.3,0.4-0.3,0.9
								c-0.7-0.4-0.8,0.4-1.3,0.8l-0.2-0.5c-0.9,0.1-0.9,0.5-0.9,0.7c0,0.3,0,0.5-0.8,0.7c0,0,0.1-0.2,0.2-0.4
								c0.1-0.2,0.2-0.4,0.2-0.4s-0.2,0.1-0.3,0.3c-0.2,0.1-0.3,0.3-0.3,0.3l-0.1-0.6c-0.7,0.8-0.9,0.8-1.8,1.2
								c0.4,0.2,0.4,0.8-0.2,1.2c-0.6,0.1,0-0.5-0.9,0.1c0-0.4,0-0.9,0.7-0.8c0-0.2,0-0.4,0-0.5c-0.7,0-1.2,0.8-1.5,1
								c0.1-0.1,0.3-0.2,0.4-0.2c0,0-0.2,0.4-0.4,0.8c-0.2,0.4-0.4,0.8-0.4,0.8c-0.3,0-0.3-0.2-0.2-0.4c-0.2,0.2-0.2,0.6-0.5,0.9
								c-0.2-0.4-0.5-0.6-0.1-1.2c0,0-0.2,0.3-0.4,0.7c-0.2,0.3-0.4,0.7-0.4,0.7c-0.2-0.1-0.9,0.2-0.8,0c-0.8,0.4-0.8,2-1.8,2.6
								c0,0.1,0,0.2-0.1,0.4c-0.7,0.7-1.6,1.1-1.9,2.4l-1,0.2c-0.4,0.9,1.2-0.2,0.6,1.2c-0.4,1-0.7,0-1.1,0.2c0,0.6,0.1,1.8-0.9,2.4
								C128.7,67.9,128.9,67.7,129,67.4z M124.4,77.6c0-0.2-0.2-0.7,0.2-0.8C125,77.2,124.7,77.3,124.4,77.6z M121.4,93.9
								c-0.1-0.2,0-0.4,0.2-0.6C121.6,93.5,121.5,93.7,121.4,93.9z M139.2,122.5L139.2,122.5C138.8,122.6,138.9,122.5,139.2,122.5z
								 M140,122.1c0-0.1,0-0.2-0.1-0.2c0,0.1-0.1,0.3-0.3,0.4C139.7,122.4,139.9,122.4,140,122.1z M152.9,61l0-0.2
								C153.3,61,153.1,61,152.9,61z"/>
							<path class="st2" d="M121,92c0.1,0,0.2,0,0.3,0C121.2,91.8,121.1,91.8,121,92z"/>
							<path class="st2" d="M132.9,61.5L132.9,61.5c0-0.1,0-0.1,0-0.1L132.9,61.5z"/>
							<path class="st2" d="M126.4,125.5c-0.1-0.2-0.1-0.4-0.1-0.5C126.1,125.1,126.1,125.3,126.4,125.5z"/>
							<path class="st2" d="M142.9,118.4l-0.3,0.5c0.2-0.2,0.3-0.2,0.5-0.3C142.9,118.6,142.7,118.6,142.9,118.4z"/>
							<path class="st2" d="M148.4,116.2c0-0.1,0.1-0.2,0.1-0.3l-0.2-0.1C148.1,116.2,148.1,116.5,148.4,116.2z"/>
							<path class="st2" d="M144.4,119.1c0.3,0.2,0.5-0.1,0.7-0.5c0,0,0,0,0,0.1C144.7,118.2,144.5,118.6,144.4,119.1z"/>
							<path class="st2" d="M145.1,118.5c0.1-0.1,0.1-0.2,0.2-0.3C145.2,118,145.3,118.3,145.1,118.5z"/>
							<path class="st2" d="M140.7,121.3c0.2,0-0.2-0.5-0.1-0.4C140.5,120.3,140.1,122.1,140.7,121.3z"/>
							<polygon class="st2" points="145.6,119.7 145.2,119.5 145.3,120 							"/>
							<path class="st2" d="M143,121.9c0,0,0.1-0.1,0.3-0.2c0.1-0.1,0.3-0.2,0.3-0.2c-0.1-0.1,0-0.1,0-0.3
								C143.3,121.6,142.9,121.8,143,121.9z"/>
							<path class="st2" d="M143.6,121.3c0.2-0.1,0.3-0.3,0.3-0.4C143.9,120.9,143.7,121.1,143.6,121.3z"/>
							<polygon class="st2" points="145.1,120.5 144.9,120.6 144.6,120.9 							"/>
							<path class="st2" d="M136.9,125.7l-0.7,0.4c0,0.2,0.2,0.2,0.4,0.1C136.8,126,137.1,125.8,136.9,125.7z"/>
							<path class="st2" d="M139.6,126c-0.2,0-0.3-0.1-0.5-0.2l0.3,0.6c0,0,0.1-0.1,0.1-0.2C139.5,126.1,139.6,126,139.6,126z"/>
							<path class="st2" d="M137.5,127.1c0,0.2-1,0.8,0,0.5C137.5,127.4,138.2,127,137.5,127.1z"/>
							<polygon class="st2" points="126.7,123.5 126.9,123.6 127.6,122.9 							"/>
							<path class="st2" d="M120.1,114.9c0,1,0.7,0.1,0.6,1c0.3,0.2,0.1-0.7,0.3-0.6C120.6,114.8,120.7,114.5,120.1,114.9z"/>
							<path class="st2" d="M121,115.3c0.1,0.1,0.1,0.2,0.2,0.2C121.2,115.4,121.1,115.3,121,115.3z"/>
							<polygon class="st2" points="155.2,93.3 154.8,93.8 155.2,93.5 							"/>
							<path class="st2" d="M155.7,94.5l-0.7,0l0.5,0.5C155.5,94.8,155.5,94.6,155.7,94.5z"/>
							<path class="st2" d="M122.6,78.7l0.1,0.1c0.2,0,0.3-0.2,0.4-0.4L122.6,78.7z"/>
							<polygon class="st2" points="126.3,71.3 126.2,71.5 126.8,71.5 							"/>
							<path class="st2" d="M129.1,64.9c-0.2,0.2-0.2,0.6-0.4,0.8C128.9,65.2,129.7,65.3,129.1,64.9z"/>
						</g>
					</g>
				</g>
			</g>
		</g>
		<path class="st1" d="M70.1,81.2c0,0,1.7-0.5,6.2-9.6c0,0-3.5,11.6-0.8,11.6s3.3-5.8,3.3-5.8l5.3,5.8l2.3-2l0.9,4.5h4l5.5-7l-2.5,7
			h3.1h5l0.9,3"/>
		<path class="st1" d="M66.9,110.4l4.7-9l3.9-7.5c0,0-3.5,7.4-1.1,12.5c2.4,5-0.7,9.1,2.4,5c3-4,3.1-11.1,3.1-11.1l-0.1,7
			c0,0,0.2,2.5,1.6,3c1.4,0.5,1.4,0.5,1.4,0.5l2.6-3c0,0-0.4,4.8,0,5.2c0.4,0.4-0.2-2.4,1.9,0c2.1,2.4,2.1,2.4,2.1,2.4s2.9-1,4.2,0
			c1.3,1-0.7-0.5,1.3,1c2,1.5-1.5,1.5,2,1.5c3.5,0,3.5-1.5,5.8,0c2.3,1.5,2.3,1.5,2.3,1.5"/>
		<path class="st1" d="M62.3,132l2-8.6h1.4c0,0,4.2-4,2.1-2c-2.1,2,0,10.6,0,10.6l5-5.6c0,0-1.5,0.5-1.6,5.6c-0.1,5-4.6,7.5-0.1,5
			c4.5-2.5,7.6-7.6,7.6-7.6l2.7-2.8l-0.2,2.8c0,0-3.3,3.5-3.7,8.6c-0.4,5-1.8,7.1-1.8,7.1s1.1,3,1.5-2c0.2-2,1-3.9,2-5.5
			c1.5-2.4,3.4-4.1,3.4-4.1l0.6,5.6c0,0,4-2.5,6-1c2.1,1.5,2.1,1.5,2.1,1.5s1.7,1,0.3,2.5c-1.3,1.5-2.7,3-1.3,1.5
			c1.3-1.5,4.1-1,5.3,0c1.2,1,1.2,1,1.2,1s4.3,0.8,5.4,1.4c1.1,0.6-0.9-1.4,1.1,0.6c2,2,3.7,1.5,5.6,2c1.9,0.5,1.8,1.5,4.4,0
			c2.6-1.5,5-3.5,5-3.5l-3.9,7.5h4.4c0,0,0.7-1.5,2.7,0"/>
	</g>
</g>
<g id="Layer_2">
	<g id="Layer_3">
		<rect y="184.3" class="st3" width="181.4" height="67.9"/>
	</g>
	<g id="Layer_4">
		<g>
			<path class="st3" d="M0,22.5h29.7c0.4,0,0.7,0.1,0.9,0.4c0.3,0.2,0.4,0.6,0.4,1c0,0.4-0.1,0.8-0.3,1c-0.2,0.2-0.5,0.4-1,0.4H23
				L32.6,147l13-110.5c0.1-1,0.2-2,0.2-3.1c0-2.4-0.3-4.2-1-5.5c-0.7-1.2-1.6-2-2.9-2.3l-3.5-0.3c-0.4-0.3-0.7-0.7-0.7-1.3
				c0-0.4,0.4-0.9,1.2-1.4h16.6c0.4,0,0.7,0.1,0.9,0.3c0.2,0.2,0.3,0.5,0.3,0.9c0,0.4-0.1,0.7-0.3,0.9c-0.2,0.2-0.5,0.4-0.9,0.4
				c-1.8,0.2-3.1,1-4.1,2.3c-1.5,2.3-2.6,6-3.2,11.3l-16.7,139c-0.7,5.7-1.1,8.8-1.4,9.3c-0.3,0.5-0.8,0.8-1.6,0.8H18.2
				c-0.6,0-1-0.3-1.3-0.9c-0.3-0.6-0.8-4.8-1.6-12.6l-15-149H0"/>
		</g>
	</g>
</g>
<g id="Text">
	<g id="Effect">
	</g>
	<g id="Title">
		<g>
			<path d="M105.3,13.6v3.7h-1.1V7.5h2.7c1,0,1.9,0.3,2.4,0.8c0.6,0.5,0.9,1.2,0.9,2.2c0,0.9-0.3,1.7-1,2.3
				c-0.6,0.6-1.5,0.9-2.6,0.9H105.3z M105.3,8.5v4h1.2c0.8,0,1.4-0.2,1.8-0.5c0.4-0.4,0.6-0.9,0.6-1.5c0-1.3-0.8-1.9-2.3-1.9H105.3z
				"/>
			<path d="M116,17.5c-1.4,0-2.5-0.5-3.3-1.4c-0.8-0.9-1.3-2.1-1.3-3.6c0-1.6,0.4-2.8,1.3-3.8c0.9-0.9,2-1.4,3.5-1.4
				c1.4,0,2.4,0.5,3.3,1.4c0.8,0.9,1.2,2.1,1.2,3.6c0,1.6-0.4,2.9-1.3,3.8C118.5,17,117.4,17.5,116,17.5z M116.1,8.4
				c-1,0-1.9,0.4-2.5,1.1c-0.6,0.7-1,1.7-1,2.9c0,1.2,0.3,2.2,0.9,2.9c0.6,0.7,1.4,1.1,2.5,1.1c1.1,0,1.9-0.4,2.5-1.1
				c0.6-0.7,0.9-1.7,0.9-2.9c0-1.3-0.3-2.3-0.9-3S117.1,8.4,116.1,8.4z"/>
			<path d="M130.5,17.3h-1.4l-5-7.8c-0.1-0.2-0.2-0.4-0.3-0.6h0c0,0.2,0.1,0.7,0.1,1.3v7.1h-1.1V7.5h1.5l4.9,7.7
				c0.2,0.3,0.3,0.5,0.4,0.7h0c0-0.3-0.1-0.8-0.1-1.4V7.5h1.1V17.3z"/>
			<path d="M140.4,16.6c-1,0.6-2.1,0.8-3.3,0.8c-1.4,0-2.5-0.5-3.4-1.4c-0.9-0.9-1.3-2.1-1.3-3.6c0-1.5,0.5-2.8,1.4-3.7
				c1-1,2.2-1.5,3.6-1.5c1.1,0,2,0.2,2.7,0.5v1.3c-0.8-0.5-1.7-0.8-2.8-0.8c-1.1,0-2,0.4-2.7,1.1c-0.7,0.8-1.1,1.7-1.1,2.9
				c0,1.2,0.3,2.2,1,2.9c0.7,0.7,1.5,1.1,2.7,1.1c0.8,0,1.4-0.2,2-0.5v-2.7h-2.1v-1h3.3V16.6z"/>
			<path d="M150.2,17.3H149l-1-2.7h-4.2l-1,2.7h-1.3l3.8-9.8h1.2L150.2,17.3z M147.6,13.5L146,9.3c0-0.1-0.1-0.4-0.2-0.7h0
				c0,0.3-0.1,0.5-0.2,0.7l-1.5,4.2H147.6z"/>
			<path d="M156.8,17.3h-5.1V7.5h1.1v8.8h3.9V17.3z"/>
			<path d="M163.5,17.3h-5.2V7.5h5v1h-3.8v3.3h3.5v1h-3.5v3.4h4V17.3z"/>
			<path d="M171.6,17.5c-1,0-1.7-0.4-2.3-1.3c-0.5-0.8-0.8-2-0.8-3.6c0-1.7,0.3-3,0.9-3.9c0.6-0.9,1.4-1.3,2.5-1.3
				c2.1,0,3.1,1.7,3.1,5c0,1.7-0.3,2.9-0.9,3.8C173.4,17,172.6,17.5,171.6,17.5z M171.7,8.3c-1.4,0-2.1,1.4-2.1,4.3
				c0,2.7,0.7,4,2.1,4c1.4,0,2-1.3,2-4C173.7,9.7,173.1,8.3,171.7,8.3z"/>
		</g>
	</g>
	<g>
		<path class="st0" d="M40.9,193.5h-3.2v3h3.6v0.9h-4.6v-8.2h4.4v0.9h-3.4v2.6h3.2V193.5z"/>
		<path class="st0" d="M42.5,196.3c0.3,0.2,0.9,0.4,1.4,0.4c0.8,0,1.1-0.4,1.1-0.9c0-0.5-0.3-0.8-1.1-1.1c-1.1-0.4-1.6-1-1.6-1.7
			c0-1,0.8-1.7,2-1.7c0.6,0,1.1,0.2,1.4,0.4l-0.3,0.8c-0.2-0.1-0.7-0.3-1.2-0.3c-0.6,0-1,0.4-1,0.8c0,0.5,0.4,0.7,1.1,1
			c1,0.4,1.5,0.9,1.5,1.8c0,1-0.8,1.8-2.2,1.8c-0.6,0-1.2-0.2-1.7-0.4L42.5,196.3z"/>
		<path class="st0" d="M51.6,197.1c-0.3,0.1-0.9,0.3-1.7,0.3c-1.8,0-2.9-1.2-2.9-3c0-1.8,1.2-3.1,3.2-3.1c0.6,0,1.2,0.2,1.5,0.3
			l-0.2,0.8c-0.3-0.1-0.7-0.3-1.2-0.3c-1.4,0-2.1,1-2.1,2.2c0,1.4,0.9,2.2,2,2.2c0.6,0,1-0.2,1.3-0.3L51.6,197.1z"/>
		<path class="st0" d="M58.1,194.3c0,2.2-1.5,3.1-2.9,3.1c-1.6,0-2.8-1.2-2.8-3c0-2,1.3-3.1,2.9-3.1C57,191.3,58.1,192.5,58.1,194.3
			z M53.5,194.4c0,1.3,0.7,2.3,1.8,2.3c1,0,1.8-1,1.8-2.3c0-1-0.5-2.3-1.8-2.3S53.5,193.3,53.5,194.4z"/>
		<path class="st0" d="M64.6,191.5c0,0.4,0,0.9,0,1.6v3.4c0,1.4-0.3,2.2-0.8,2.7c-0.6,0.5-1.4,0.7-2.1,0.7c-0.7,0-1.5-0.2-2-0.5
			l0.3-0.8c0.4,0.2,1,0.5,1.7,0.5c1.1,0,1.9-0.6,1.9-2.1v-0.7h0c-0.3,0.5-1,1-1.9,1c-1.5,0-2.5-1.2-2.5-2.9c0-2,1.3-3.1,2.7-3.1
			c1,0,1.6,0.5,1.8,1h0l0-0.9H64.6z M63.5,193.8c0-0.2,0-0.3-0.1-0.5c-0.2-0.6-0.7-1.1-1.5-1.1c-1,0-1.8,0.9-1.8,2.2
			c0,1.2,0.6,2.1,1.7,2.1c0.7,0,1.3-0.4,1.5-1.1c0.1-0.2,0.1-0.4,0.1-0.6V193.8z"/>
		<path class="st0" d="M66.9,194.6c0,1.5,0.9,2,2,2c0.8,0,1.2-0.1,1.6-0.3l0.2,0.8c-0.4,0.2-1,0.4-2,0.4c-1.8,0-2.9-1.2-2.9-3
			c0-1.8,1-3.2,2.8-3.2c1.9,0,2.4,1.7,2.4,2.8c0,0.2,0,0.4,0,0.5H66.9z M70,193.8c0-0.7-0.3-1.7-1.5-1.7c-1.1,0-1.6,1-1.6,1.7H70z"
			/>
		<path class="st0" d="M78.2,197.3l-0.1-0.7h0c-0.3,0.5-1,0.9-1.8,0.9c-1.2,0-1.8-0.8-1.8-1.7c0-1.4,1.3-2.2,3.5-2.2v-0.1
			c0-0.5-0.1-1.4-1.3-1.4c-0.5,0-1.1,0.2-1.5,0.4l-0.2-0.7c0.5-0.3,1.2-0.5,1.9-0.5c1.8,0,2.2,1.2,2.2,2.4v2.2c0,0.5,0,1,0.1,1.4
			H78.2z M78.1,194.3c-1.2,0-2.5,0.2-2.5,1.3c0,0.7,0.5,1,1,1c0.8,0,1.3-0.5,1.4-1c0-0.1,0.1-0.2,0.1-0.3V194.3z"/>
		<path class="st0" d="M88.8,194.3c0,2.2-1.5,3.1-2.9,3.1c-1.6,0-2.8-1.2-2.8-3c0-2,1.3-3.1,2.9-3.1
			C87.6,191.3,88.8,192.5,88.8,194.3z M84.1,194.4c0,1.3,0.7,2.3,1.8,2.3c1,0,1.8-1,1.8-2.3c0-1-0.5-2.3-1.8-2.3
			C84.6,192.1,84.1,193.3,84.1,194.4z"/>
		<path class="st0" d="M91.4,189.8v1.7h1.5v0.8h-1.5v3.2c0,0.7,0.2,1.1,0.8,1.1c0.3,0,0.5,0,0.6-0.1l0,0.8c-0.2,0.1-0.5,0.1-0.9,0.1
			c-0.5,0-0.9-0.2-1.2-0.4c-0.3-0.3-0.4-0.8-0.4-1.5v-3.2h-0.9v-0.8h0.9V190L91.4,189.8z"/>
		<path class="st0" d="M94.1,193.3c0-0.7,0-1.3,0-1.8H95l0,1.2h0c0.3-0.8,0.9-1.3,1.6-1.3c0.1,0,0.2,0,0.3,0v1c-0.1,0-0.2,0-0.4,0
			c-0.8,0-1.3,0.6-1.4,1.4c0,0.1,0,0.3,0,0.5v3.1h-1.1V193.3z"/>
		<path class="st0" d="M103.3,194.3c0,2.2-1.5,3.1-2.9,3.1c-1.6,0-2.8-1.2-2.8-3c0-2,1.3-3.1,2.9-3.1
			C102.2,191.3,103.3,192.5,103.3,194.3z M98.6,194.4c0,1.3,0.7,2.3,1.8,2.3c1,0,1.8-1,1.8-2.3c0-1-0.5-2.3-1.8-2.3
			S98.6,193.3,98.6,194.4z"/>
		<path class="st0" d="M105.8,199.1c0.5,0,0.9-0.2,1.2-0.5c0.3-0.3,0.4-0.8,0.4-2.2v-4.9h1.1v5.3c0,1.1-0.2,1.9-0.7,2.4
			c-0.5,0.5-1.3,0.7-1.8,0.7L105.8,199.1z M108.6,189.8c0,0.4-0.2,0.7-0.7,0.7c-0.4,0-0.7-0.3-0.7-0.7c0-0.4,0.3-0.7,0.7-0.7
			C108.3,189.1,108.6,189.4,108.6,189.8z"/>
		<path class="st0" d="M115.1,195.7c0,0.6,0,1.1,0,1.6h-1l-0.1-1h0c-0.3,0.5-0.9,1.1-1.9,1.1c-0.9,0-2-0.5-2-2.6v-3.4h1.1v3.3
			c0,1.1,0.3,1.9,1.3,1.9c0.7,0,1.2-0.5,1.4-1c0.1-0.2,0.1-0.4,0.1-0.5v-3.6h1.1V195.7z"/>
		<path class="st0" d="M122,191.5c0,0.4,0,0.9,0,1.6v3.4c0,1.4-0.3,2.2-0.8,2.7c-0.6,0.5-1.4,0.7-2.1,0.7c-0.7,0-1.5-0.2-2-0.5
			l0.3-0.8c0.4,0.2,1,0.5,1.7,0.5c1.1,0,1.9-0.6,1.9-2.1v-0.7h0c-0.3,0.5-1,1-1.9,1c-1.5,0-2.5-1.2-2.5-2.9c0-2,1.3-3.1,2.7-3.1
			c1,0,1.6,0.5,1.8,1h0l0-0.9H122z M120.9,193.8c0-0.2,0-0.3-0.1-0.5c-0.2-0.6-0.7-1.1-1.5-1.1c-1,0-1.8,0.9-1.8,2.2
			c0,1.2,0.6,2.1,1.7,2.1c0.7,0,1.3-0.4,1.5-1.1c0.1-0.2,0.1-0.4,0.1-0.6V193.8z"/>
		<path class="st0" d="M127,197.3l-0.1-0.7h0c-0.3,0.5-1,0.9-1.8,0.9c-1.2,0-1.8-0.8-1.8-1.7c0-1.4,1.3-2.2,3.5-2.2v-0.1
			c0-0.5-0.1-1.4-1.3-1.4c-0.5,0-1.1,0.2-1.5,0.4l-0.2-0.7c0.5-0.3,1.2-0.5,1.9-0.5c1.8,0,2.2,1.2,2.2,2.4v2.2c0,0.5,0,1,0.1,1.4
			H127z M126.8,194.3c-1.2,0-2.5,0.2-2.5,1.3c0,0.7,0.5,1,1,1c0.8,0,1.3-0.5,1.4-1c0-0.1,0.1-0.2,0.1-0.3V194.3z"/>
		<path class="st0" d="M134.7,188.7v7.1c0,0.5,0,1.1,0,1.5h-1l0-1h0c-0.3,0.7-1,1.2-2,1.2c-1.4,0-2.5-1.2-2.5-3c0-2,1.2-3.2,2.6-3.2
			c0.9,0,1.5,0.4,1.8,0.9h0v-3.5H134.7z M133.6,193.9c0-0.1,0-0.3,0-0.5c-0.2-0.7-0.7-1.2-1.5-1.2c-1.1,0-1.8,1-1.8,2.3
			c0,1.2,0.6,2.2,1.7,2.2c0.7,0,1.4-0.5,1.6-1.3c0-0.1,0-0.3,0-0.5V193.9z"/>
		<path class="st0" d="M141.8,194.3c0,2.2-1.5,3.1-2.9,3.1c-1.6,0-2.8-1.2-2.8-3c0-2,1.3-3.1,2.9-3.1
			C140.6,191.3,141.8,192.5,141.8,194.3z M137.1,194.4c0,1.3,0.7,2.3,1.8,2.3c1,0,1.8-1,1.8-2.3c0-1-0.5-2.3-1.8-2.3
			S137.1,193.3,137.1,194.4z"/>
		<path class="st0" d="M143.1,193.3c0-0.7,0-1.3,0-1.8h0.9l0,1.2h0c0.3-0.8,0.9-1.3,1.6-1.3c0.1,0,0.2,0,0.3,0v1c-0.1,0-0.2,0-0.4,0
			c-0.8,0-1.3,0.6-1.4,1.4c0,0.1,0,0.3,0,0.5v3.1h-1.1V193.3z"/>
		<path class="st0" d="M145.8,198.8c0.3-0.7,0.6-2,0.7-2.9l1.2-0.1c-0.3,1-0.8,2.4-1.2,3L145.8,198.8z"/>
		<path class="st0" d="M16,203.3h1.1v3.7h0c0.2-0.3,0.4-0.6,0.8-0.8c0.3-0.2,0.7-0.3,1.1-0.3c0.8,0,2.1,0.5,2.1,2.5v3.5H20v-3.4
			c0-0.9-0.4-1.8-1.4-1.8c-0.7,0-1.2,0.5-1.4,1.1c-0.1,0.1-0.1,0.3-0.1,0.5v3.6H16V203.3z"/>
		<path class="st0" d="M26,212l-0.1-0.7h0c-0.3,0.5-1,0.9-1.8,0.9c-1.2,0-1.8-0.8-1.8-1.7c0-1.4,1.3-2.2,3.5-2.2v-0.1
			c0-0.5-0.1-1.4-1.3-1.4c-0.5,0-1.1,0.2-1.5,0.4l-0.2-0.7c0.5-0.3,1.2-0.5,1.9-0.5c1.8,0,2.2,1.2,2.2,2.4v2.2c0,0.5,0,1,0.1,1.4H26
			z M25.9,208.9c-1.2,0-2.5,0.2-2.5,1.3c0,0.7,0.5,1,1,1c0.8,0,1.3-0.5,1.4-1c0-0.1,0.1-0.2,0.1-0.3V208.9z M26.4,203.5l-1.5,1.7
			h-0.8l1.1-1.7H26.4z"/>
		<path class="st0" d="M33.7,206.1c0,0.4,0,0.9,0,1.6v3.4c0,1.4-0.3,2.2-0.8,2.7c-0.6,0.5-1.4,0.7-2.1,0.7c-0.7,0-1.5-0.2-2-0.5
			l0.3-0.8c0.4,0.2,1,0.5,1.7,0.5c1.1,0,1.9-0.6,1.9-2.1v-0.7h0c-0.3,0.5-1,1-1.9,1c-1.5,0-2.5-1.2-2.5-2.9c0-2,1.3-3.1,2.7-3.1
			c1,0,1.6,0.5,1.8,1h0l0-0.9H33.7z M32.6,208.4c0-0.2,0-0.3-0.1-0.5c-0.2-0.6-0.7-1.1-1.5-1.1c-1,0-1.8,0.9-1.8,2.2
			c0,1.2,0.6,2.1,1.7,2.1c0.7,0,1.3-0.4,1.5-1.1c0.1-0.2,0.1-0.4,0.1-0.6V208.4z"/>
		<path class="st0" d="M38.7,212l-0.1-0.7h0c-0.3,0.5-1,0.9-1.8,0.9c-1.2,0-1.8-0.8-1.8-1.7c0-1.4,1.3-2.2,3.5-2.2v-0.1
			c0-0.5-0.1-1.4-1.3-1.4c-0.5,0-1.1,0.2-1.5,0.4l-0.2-0.7c0.5-0.3,1.2-0.5,1.9-0.5c1.8,0,2.2,1.2,2.2,2.4v2.2c0,0.5,0,1,0.1,1.4
			H38.7z M38.6,208.9c-1.2,0-2.5,0.2-2.5,1.3c0,0.7,0.5,1,1,1c0.8,0,1.3-0.5,1.4-1c0-0.1,0.1-0.2,0.1-0.3V208.9z"/>
		<path class="st0" d="M41.3,207.7c0-0.6,0-1.1,0-1.6h1l0.1,1h0c0.3-0.6,1-1.1,1.9-1.1c0.8,0,2.1,0.5,2.1,2.5v3.5h-1.1v-3.4
			c0-1-0.4-1.7-1.4-1.7c-0.7,0-1.3,0.5-1.4,1.1c0,0.1-0.1,0.3-0.1,0.5v3.5h-1.1V207.7z"/>
		<path class="st0" d="M47.9,210.9c0.3,0.2,0.9,0.4,1.4,0.4c0.8,0,1.1-0.4,1.1-0.9c0-0.5-0.3-0.8-1.1-1.1c-1.1-0.4-1.6-1-1.6-1.7
			c0-1,0.8-1.7,2-1.7c0.6,0,1.1,0.2,1.4,0.4l-0.3,0.8c-0.2-0.1-0.7-0.3-1.2-0.3c-0.6,0-1,0.4-1,0.8c0,0.5,0.4,0.7,1.1,1
			c1,0.4,1.5,0.9,1.5,1.8c0,1-0.8,1.8-2.2,1.8c-0.6,0-1.2-0.2-1.7-0.4L47.9,210.9z"/>
		<path class="st0" d="M53.5,209.2c0,1.4,0.9,2,2,2c0.8,0,1.2-0.1,1.6-0.3l0.2,0.8c-0.4,0.2-1,0.4-2,0.4c-1.8,0-2.9-1.2-2.9-3
			c0-1.8,1-3.2,2.8-3.2c1.9,0,2.4,1.7,2.4,2.8c0,0.2,0,0.4,0,0.5H53.5z M56.6,208.4c0-0.7-0.3-1.7-1.5-1.7c-1.1,0-1.6,1-1.6,1.7
			H56.6z"/>
		<path class="st0" d="M61.6,208c0-0.8,0-1.4,0-1.9h1l0,1h0c0.4-0.7,1.1-1.1,2.1-1.1c1.4,0,2.5,1.2,2.5,3c0,2.1-1.3,3.2-2.7,3.2
			c-0.8,0-1.5-0.3-1.8-0.9h0v3.2h-1.1V208z M62.6,209.6c0,0.2,0,0.3,0,0.4c0.2,0.7,0.8,1.3,1.6,1.3c1.1,0,1.8-0.9,1.8-2.3
			c0-1.2-0.6-2.2-1.8-2.2c-0.7,0-1.4,0.5-1.6,1.3c0,0.1-0.1,0.3-0.1,0.4V209.6z"/>
		<path class="st0" d="M68.5,207.9c0-0.7,0-1.3,0-1.8h0.9l0,1.2h0c0.3-0.8,0.9-1.3,1.6-1.3c0.1,0,0.2,0,0.3,0v1c-0.1,0-0.2,0-0.4,0
			c-0.8,0-1.3,0.6-1.4,1.4c0,0.1,0,0.3,0,0.5v3.1h-1.1V207.9z"/>
		<path class="st0" d="M73,209.2c0,1.4,1,2,2,2c0.8,0,1.2-0.1,1.6-0.3l0.2,0.8c-0.4,0.2-1,0.4-2,0.4c-1.8,0-2.9-1.2-2.9-3
			c0-1.8,1-3.2,2.8-3.2c1.9,0,2.4,1.7,2.4,2.8c0,0.2,0,0.4,0,0.5H73z M76.1,208.4c0-0.7-0.3-1.7-1.5-1.7c-1.1,0-1.6,1-1.6,1.7H76.1z
			"/>
		<path class="st0" d="M83.5,206.1c0,0.4,0,0.9,0,1.6v3.4c0,1.4-0.3,2.2-0.8,2.7c-0.6,0.5-1.4,0.7-2.1,0.7c-0.7,0-1.5-0.2-2-0.5
			l0.3-0.8c0.4,0.2,1,0.5,1.7,0.5c1.1,0,1.9-0.6,1.9-2.1v-0.7h0c-0.3,0.5-1,1-1.9,1c-1.5,0-2.5-1.2-2.5-2.9c0-2,1.3-3.1,2.7-3.1
			c1,0,1.6,0.5,1.8,1h0l0-0.9H83.5z M82.4,208.4c0-0.2,0-0.3-0.1-0.5c-0.2-0.6-0.7-1.1-1.5-1.1c-1,0-1.8,0.9-1.8,2.2
			c0,1.2,0.6,2.1,1.7,2.1c0.7,0,1.3-0.4,1.5-1.1c0.1-0.2,0.1-0.4,0.1-0.6V208.4z"/>
		<path class="st0" d="M90.2,210.3c0,0.6,0,1.1,0,1.6h-0.9l-0.1-1h0c-0.3,0.5-0.9,1.1-1.9,1.1c-0.9,0-2-0.5-2-2.6v-3.4h1.1v3.3
			c0,1.1,0.3,1.9,1.3,1.9c0.7,0,1.2-0.5,1.4-1c0.1-0.2,0.1-0.4,0.1-0.5v-3.6h1.1V210.3z"/>
		<path class="st0" d="M92,207.7c0-0.6,0-1.1,0-1.6h0.9l0.1,1h0c0.3-0.6,1-1.1,1.9-1.1c0.8,0,2.1,0.5,2.1,2.5v3.5h-1.1v-3.4
			c0-1-0.4-1.7-1.4-1.7c-0.7,0-1.3,0.5-1.4,1.1c0,0.1-0.1,0.3-0.1,0.5v3.5H92V207.7z"/>
		<path class="st0" d="M100,204.4v1.7h1.5v0.8H100v3.2c0,0.7,0.2,1.1,0.8,1.1c0.3,0,0.5,0,0.6-0.1l0,0.8c-0.2,0.1-0.5,0.1-1,0.1
			c-0.5,0-0.9-0.2-1.2-0.5c-0.3-0.3-0.4-0.8-0.4-1.5v-3.2H98v-0.8h0.9v-1.4L100,204.4z"/>
		<path class="st0" d="M106,212l-0.1-0.7h0c-0.3,0.5-1,0.9-1.8,0.9c-1.2,0-1.8-0.8-1.8-1.7c0-1.4,1.3-2.2,3.5-2.2v-0.1
			c0-0.5-0.1-1.4-1.3-1.4c-0.5,0-1.1,0.2-1.5,0.4l-0.2-0.7c0.5-0.3,1.2-0.5,1.9-0.5c1.8,0,2.2,1.2,2.2,2.4v2.2c0,0.5,0,1,0.1,1.4
			H106z M105.8,208.9c-1.2,0-2.5,0.2-2.5,1.3c0,0.7,0.5,1,1,1c0.8,0,1.3-0.5,1.4-1c0-0.1,0.1-0.2,0.1-0.3V208.9z"/>
		<path class="st0" d="M108.4,210.9c0.3,0.2,0.9,0.4,1.4,0.4c0.8,0,1.1-0.4,1.1-0.9c0-0.5-0.3-0.8-1.1-1.1c-1.1-0.4-1.6-1-1.6-1.7
			c0-1,0.8-1.7,2-1.7c0.6,0,1.1,0.2,1.5,0.4l-0.3,0.8c-0.2-0.1-0.7-0.3-1.2-0.3c-0.6,0-1,0.4-1,0.8c0,0.5,0.4,0.7,1.1,1
			c1,0.4,1.5,0.9,1.5,1.8c0,1-0.8,1.8-2.2,1.8c-0.6,0-1.2-0.2-1.7-0.4L108.4,210.9z"/>
		<path class="st0" d="M121.1,203.3v7.1c0,0.5,0,1.1,0,1.5h-1l0-1h0c-0.3,0.7-1,1.2-2,1.2c-1.4,0-2.5-1.2-2.5-3c0-2,1.2-3.2,2.6-3.2
			c0.9,0,1.5,0.4,1.8,0.9h0v-3.5H121.1z M120,208.5c0-0.1,0-0.3,0-0.5c-0.2-0.7-0.7-1.2-1.5-1.2c-1.1,0-1.8,1-1.8,2.3
			c0,1.2,0.6,2.2,1.7,2.2c0.7,0,1.4-0.5,1.6-1.3c0-0.1,0-0.3,0-0.5V208.5z"/>
		<path class="st0" d="M123.4,209.2c0,1.4,1,2,2,2c0.8,0,1.2-0.1,1.6-0.3l0.2,0.8c-0.4,0.2-1,0.4-2,0.4c-1.8,0-2.9-1.2-2.9-3
			c0-1.8,1-3.2,2.8-3.2c1.9,0,2.4,1.7,2.4,2.8c0,0.2,0,0.4,0,0.5H123.4z M126.6,208.4c0-0.7-0.3-1.7-1.5-1.7c-1.1,0-1.6,1-1.6,1.7
			H126.6z"/>
		<path class="st0" d="M135.7,211.7c-0.3,0.1-0.9,0.3-1.7,0.3c-1.8,0-2.9-1.2-2.9-3c0-1.8,1.2-3.1,3.2-3.1c0.6,0,1.2,0.2,1.5,0.3
			l-0.2,0.8c-0.3-0.1-0.7-0.3-1.2-0.3c-1.4,0-2.1,1-2.1,2.2c0,1.4,0.9,2.2,2,2.2c0.6,0,1-0.2,1.3-0.3L135.7,211.7z"/>
		<path class="st0" d="M141.9,210.3c0,0.6,0,1.1,0,1.6h-1l-0.1-1h0c-0.3,0.5-0.9,1.1-1.9,1.1c-0.9,0-2-0.5-2-2.6v-3.4h1.1v3.3
			c0,1.1,0.3,1.9,1.3,1.9c0.7,0,1.2-0.5,1.4-1c0.1-0.2,0.1-0.4,0.1-0.5v-3.6h1.1V210.3z"/>
		<path class="st0" d="M143.7,203.3h1.1v8.6h-1.1V203.3z"/>
		<path class="st0" d="M147.8,204.4v1.7h1.5v0.8h-1.5v3.2c0,0.7,0.2,1.1,0.8,1.1c0.3,0,0.5,0,0.6-0.1l0,0.8c-0.2,0.1-0.5,0.1-1,0.1
			c-0.5,0-0.9-0.2-1.2-0.5c-0.3-0.3-0.4-0.8-0.4-1.5v-3.2h-0.9v-0.8h0.9v-1.4L147.8,204.4z"/>
		<path class="st0" d="M155.5,210.3c0,0.6,0,1.1,0,1.6h-0.9l-0.1-1h0c-0.3,0.5-0.9,1.1-1.9,1.1c-0.9,0-2-0.5-2-2.6v-3.4h1.1v3.3
			c0,1.1,0.3,1.9,1.3,1.9c0.7,0,1.2-0.5,1.4-1c0.1-0.2,0.1-0.4,0.1-0.5v-3.6h1.1V210.3z"/>
		<path class="st0" d="M157.3,207.9c0-0.7,0-1.3,0-1.8h0.9l0,1.2h0c0.3-0.8,0.9-1.3,1.6-1.3c0.1,0,0.2,0,0.3,0v1c-0.1,0-0.2,0-0.4,0
			c-0.8,0-1.3,0.6-1.4,1.4c0,0.1,0,0.3,0,0.5v3.1h-1.1V207.9z"/>
		<path class="st0" d="M164.5,212l-0.1-0.7h0c-0.3,0.5-1,0.9-1.8,0.9c-1.2,0-1.8-0.8-1.8-1.7c0-1.4,1.3-2.2,3.5-2.2v-0.1
			c0-0.5-0.1-1.4-1.3-1.4c-0.5,0-1.1,0.2-1.5,0.4l-0.2-0.7c0.5-0.3,1.2-0.5,1.9-0.5c1.8,0,2.2,1.2,2.2,2.4v2.2c0,0.5,0,1,0.1,1.4
			H164.5z M164.3,208.9c-1.2,0-2.5,0.2-2.5,1.3c0,0.7,0.5,1,1,1c0.8,0,1.3-0.5,1.4-1c0-0.1,0.1-0.2,0.1-0.3V208.9z"/>
		<path class="st0" d="M166.4,213.5c0.3-0.7,0.6-2,0.7-2.9l1.2-0.1c-0.3,1-0.8,2.4-1.2,3L166.4,213.5z"/>
		<path class="st0" d="M27.8,223.8c0,1.5,0.9,2,2,2c0.8,0,1.2-0.1,1.6-0.3l0.2,0.8c-0.4,0.2-1,0.4-2,0.4c-1.8,0-2.9-1.2-2.9-3
			s1-3.2,2.8-3.2c1.9,0,2.4,1.7,2.4,2.8c0,0.2,0,0.4,0,0.5H27.8z M30.9,223c0-0.7-0.3-1.7-1.5-1.7c-1.1,0-1.6,1-1.6,1.7H30.9z"/>
		<path class="st0" d="M33.3,217.9h1.1v8.6h-1.1V217.9z"/>
		<path class="st0" d="M38.7,222.6c0-0.8,0-1.4,0-1.9h1l0,1h0c0.4-0.7,1.1-1.1,2.1-1.1c1.4,0,2.5,1.2,2.5,3c0,2.1-1.3,3.2-2.7,3.2
			c-0.8,0-1.5-0.3-1.8-0.9h0v3.2h-1.1V222.6z M39.8,224.2c0,0.2,0,0.3,0,0.4c0.2,0.7,0.8,1.3,1.6,1.3c1.1,0,1.8-0.9,1.8-2.3
			c0-1.2-0.6-2.2-1.8-2.2c-0.7,0-1.4,0.5-1.6,1.3c0,0.1-0.1,0.3-0.1,0.4V224.2z"/>
		<path class="st0" d="M45.6,222.5c0-0.7,0-1.3,0-1.8h0.9l0,1.2h0c0.3-0.8,0.9-1.3,1.6-1.3c0.1,0,0.2,0,0.3,0v1c-0.1,0-0.2,0-0.4,0
			c-0.8,0-1.3,0.6-1.4,1.4c0,0.1,0,0.3,0,0.5v3.1h-1.1V222.5z"/>
		<path class="st0" d="M50.9,219c0,0.4-0.3,0.7-0.7,0.7c-0.4,0-0.6-0.3-0.6-0.7c0-0.4,0.3-0.7,0.7-0.7
			C50.6,218.3,50.9,218.6,50.9,219z M49.7,226.6v-5.9h1.1v5.9H49.7z"/>
		<path class="st0" d="M52.5,222.3c0-0.6,0-1.1,0-1.6h0.9l0,0.9h0c0.3-0.6,0.9-1.1,1.9-1.1c0.8,0,1.4,0.5,1.7,1.2h0
			c0.2-0.3,0.4-0.6,0.7-0.8c0.4-0.3,0.7-0.4,1.3-0.4c0.8,0,1.9,0.5,1.9,2.6v3.5h-1v-3.3c0-1.1-0.4-1.8-1.3-1.8c-0.6,0-1.1,0.5-1.3,1
			c0,0.1-0.1,0.3-0.1,0.5v3.6h-1V223c0-0.9-0.4-1.6-1.2-1.6c-0.7,0-1.2,0.5-1.3,1.1c-0.1,0.2-0.1,0.3-0.1,0.5v3.6h-1V222.3z"/>
		<path class="st0" d="M63.3,223.8c0,1.5,1,2,2,2c0.8,0,1.2-0.1,1.6-0.3l0.2,0.8c-0.4,0.2-1,0.4-2,0.4c-1.8,0-2.9-1.2-2.9-3
			s1-3.2,2.8-3.2c1.9,0,2.4,1.7,2.4,2.8c0,0.2,0,0.4,0,0.5H63.3z M66.4,223c0-0.7-0.3-1.7-1.5-1.7c-1.1,0-1.6,1-1.6,1.7H66.4z"/>
		<path class="st0" d="M68.8,222.5c0-0.7,0-1.3,0-1.8h0.9l0,1.2h0c0.3-0.8,0.9-1.3,1.6-1.3c0.1,0,0.2,0,0.3,0v1c-0.1,0-0.2,0-0.4,0
			c-0.8,0-1.3,0.6-1.4,1.4c0,0.1,0,0.3,0,0.5v3.1h-1.1V222.5z"/>
		<path class="st0" d="M78,223.6c0,2.2-1.5,3.1-2.9,3.1c-1.6,0-2.8-1.2-2.8-3c0-2,1.3-3.1,2.9-3.1C76.8,220.5,78,221.8,78,223.6z
			 M73.3,223.6c0,1.3,0.7,2.3,1.8,2.3c1,0,1.8-1,1.8-2.3c0-1-0.5-2.3-1.8-2.3C73.8,221.3,73.3,222.5,73.3,223.6z"/>
		<path class="st0" d="M82.5,223.8c0,1.5,0.9,2,2,2c0.8,0,1.2-0.1,1.6-0.3l0.2,0.8c-0.4,0.2-1,0.4-2,0.4c-1.8,0-2.9-1.2-2.9-3
			s1-3.2,2.8-3.2c1.9,0,2.4,1.7,2.4,2.8c0,0.2,0,0.4,0,0.5H82.5z M85.6,223c0-0.7-0.3-1.7-1.5-1.7c-1.1,0-1.6,1-1.6,1.7H85.6z"/>
		<path class="st0" d="M88,222.3c0-0.6,0-1.1,0-1.6h1l0.1,1h0c0.3-0.6,1-1.1,1.9-1.1c0.8,0,2.1,0.5,2.1,2.5v3.5h-1.1v-3.4
			c0-1-0.4-1.7-1.4-1.7c-0.7,0-1.3,0.5-1.4,1.1c0,0.1-0.1,0.3-0.1,0.5v3.5H88V222.3z"/>
		<path class="st0" d="M97.9,223.8c0,1.5,0.9,2,2,2c0.8,0,1.2-0.1,1.6-0.3l0.2,0.8c-0.4,0.2-1,0.4-2,0.4c-1.8,0-2.9-1.2-2.9-3
			s1-3.2,2.8-3.2c1.9,0,2.4,1.7,2.4,2.8c0,0.2,0,0.4,0,0.5H97.9z M101.1,223c0-0.7-0.3-1.7-1.5-1.7c-1.1,0-1.6,1-1.6,1.7H101.1z"/>
		<path class="st0" d="M107.4,225.6L107.4,225.6c-0.3,0.6-1,1-1.9,1c-1.4,0-2.5-1.2-2.5-3c0-2.2,1.4-3.2,2.7-3.2
			c0.9,0,1.5,0.5,1.8,1h0l0-0.9h1c0,0.5,0,1,0,1.6v6.7h-1.1V225.6z M107.4,223.1c0-0.1,0-0.3,0-0.5c-0.2-0.7-0.7-1.2-1.5-1.2
			c-1.1,0-1.8,0.9-1.8,2.3c0,1.2,0.6,2.2,1.7,2.2c0.7,0,1.3-0.4,1.5-1.2c0-0.1,0.1-0.4,0.1-0.5V223.1z"/>
		<path class="st0" d="M115.2,225c0,0.6,0,1.1,0,1.6h-0.9l-0.1-1h0c-0.3,0.5-0.9,1.1-1.9,1.1c-0.9,0-2-0.5-2-2.6v-3.4h1.1v3.3
			c0,1.1,0.3,1.9,1.3,1.9c0.7,0,1.2-0.5,1.4-1c0.1-0.2,0.1-0.4,0.1-0.5v-3.6h1.1V225z"/>
		<path class="st0" d="M118.2,219c0,0.4-0.3,0.7-0.7,0.7c-0.4,0-0.6-0.3-0.6-0.7c0-0.4,0.3-0.7,0.7-0.7
			C117.9,218.3,118.2,218.6,118.2,219z M117,226.6v-5.9h1.1v5.9H117z"/>
		<path class="st0" d="M120.2,220.7l1.2,3.3c0.2,0.5,0.4,1,0.5,1.5h0c0.1-0.5,0.3-1,0.5-1.5l1.1-3.3h1.1l-2.3,5.9h-1l-2.2-5.9H120.2
			z"/>
		<path class="st0" d="M130.9,223.6c0,2.2-1.5,3.1-2.9,3.1c-1.6,0-2.8-1.2-2.8-3c0-2,1.3-3.1,2.9-3.1
			C129.7,220.5,130.9,221.8,130.9,223.6z M126.2,223.6c0,1.3,0.7,2.3,1.8,2.3c1,0,1.8-1,1.8-2.3c0-1-0.5-2.3-1.8-2.3
			C126.8,221.3,126.2,222.5,126.2,223.6z"/>
		<path class="st0" d="M136.4,226.3c-0.3,0.1-0.9,0.3-1.7,0.3c-1.8,0-2.9-1.2-2.9-3c0-1.8,1.2-3.1,3.2-3.1c0.6,0,1.2,0.2,1.5,0.3
			l-0.2,0.8c-0.3-0.1-0.7-0.3-1.2-0.3c-1.4,0-2.1,1-2.1,2.2c0,1.4,0.9,2.2,2,2.2c0.6,0,1-0.2,1.3-0.3L136.4,226.3z"/>
		<path class="st0" d="M141,226.6l-0.1-0.7h0c-0.3,0.5-1,0.9-1.8,0.9c-1.2,0-1.8-0.8-1.8-1.7c0-1.4,1.3-2.2,3.5-2.2v-0.1
			c0-0.5-0.1-1.4-1.3-1.4c-0.5,0-1.1,0.2-1.5,0.4l-0.2-0.7c0.5-0.3,1.2-0.5,1.9-0.5c1.8,0,2.2,1.2,2.2,2.4v2.2c0,0.5,0,1,0.1,1.4
			H141z M140.8,223.6c-1.2,0-2.5,0.2-2.5,1.3c0,0.7,0.5,1,1,1c0.8,0,1.3-0.5,1.4-1c0-0.1,0.1-0.2,0.1-0.3V223.6z"/>
		<path class="st0" d="M143.6,222.5c0-0.7,0-1.3,0-1.8h0.9l0,1.2h0c0.3-0.8,0.9-1.3,1.6-1.3c0.1,0,0.2,0,0.3,0v1c-0.1,0-0.2,0-0.4,0
			c-0.8,0-1.3,0.6-1.4,1.4c0,0.1,0,0.3,0,0.5v3.1h-1.1V222.5z"/>
		<path class="st0" d="M147.4,225.5c0.3,0.2,0.9,0.4,1.4,0.4c0.8,0,1.1-0.4,1.1-0.9c0-0.5-0.3-0.8-1.1-1.1c-1.1-0.4-1.6-1-1.6-1.7
			c0-1,0.8-1.7,2-1.7c0.6,0,1.1,0.2,1.4,0.4l-0.3,0.8c-0.2-0.1-0.7-0.3-1.2-0.3c-0.6,0-1,0.4-1,0.8c0,0.5,0.4,0.7,1.1,1
			c1,0.4,1.5,0.9,1.5,1.8c0,1-0.8,1.8-2.2,1.8c-0.6,0-1.2-0.2-1.7-0.4L147.4,225.5z"/>
		<path class="st0" d="M153,223.8c0,1.5,1,2,2,2c0.8,0,1.2-0.1,1.6-0.3l0.2,0.8c-0.4,0.2-1,0.4-2,0.4c-1.8,0-2.9-1.2-2.9-3
			s1-3.2,2.8-3.2c1.9,0,2.4,1.7,2.4,2.8c0,0.2,0,0.4,0,0.5H153z M156.1,223c0-0.7-0.3-1.7-1.5-1.7c-1.1,0-1.6,1-1.6,1.7H156.1z"/>
		<path class="st0" d="M59.9,233.6v1.7h1.5v0.8h-1.5v3.2c0,0.7,0.2,1.1,0.8,1.1c0.3,0,0.5,0,0.6-0.1l0,0.8c-0.2,0.1-0.5,0.1-0.9,0.1
			c-0.5,0-0.9-0.2-1.2-0.5c-0.3-0.3-0.4-0.8-0.4-1.5v-3.2H58v-0.8h0.9v-1.4L59.9,233.6z"/>
		<path class="st0" d="M67.9,238.2c0,2.2-1.5,3.1-2.9,3.1c-1.6,0-2.8-1.2-2.8-3c0-2,1.3-3.1,2.9-3.1
			C66.8,235.1,67.9,236.4,67.9,238.2z M63.2,238.2c0,1.3,0.7,2.3,1.8,2.3c1,0,1.8-1,1.8-2.3c0-1-0.5-2.3-1.8-2.3
			C63.8,235.9,63.2,237.1,63.2,238.2z"/>
		<path class="st0" d="M69.3,236.9c0-0.6,0-1.1,0-1.6h0.9l0,0.9h0c0.3-0.6,0.9-1.1,1.9-1.1c0.8,0,1.4,0.5,1.7,1.2h0
			c0.2-0.3,0.4-0.6,0.7-0.8c0.4-0.3,0.7-0.4,1.3-0.4c0.8,0,1.9,0.5,1.9,2.6v3.5h-1v-3.3c0-1.1-0.4-1.8-1.3-1.8c-0.6,0-1.1,0.5-1.3,1
			c0,0.1-0.1,0.3-0.1,0.5v3.6h-1v-3.5c0-0.9-0.4-1.6-1.2-1.6c-0.7,0-1.2,0.5-1.3,1.1c-0.1,0.2-0.1,0.3-0.1,0.5v3.6h-1V236.9z"/>
		<path class="st0" d="M82.7,241.2l-0.1-0.7h0c-0.3,0.5-1,0.9-1.8,0.9c-1.2,0-1.8-0.8-1.8-1.7c0-1.4,1.3-2.2,3.5-2.2v-0.1
			c0-0.5-0.1-1.4-1.3-1.4c-0.5,0-1.1,0.2-1.5,0.4l-0.2-0.7c0.5-0.3,1.2-0.5,1.9-0.5c1.8,0,2.2,1.2,2.2,2.4v2.2c0,0.5,0,1,0.1,1.4
			H82.7z M82.5,238.2c-1.2,0-2.5,0.2-2.5,1.3c0,0.7,0.5,1,1,1c0.8,0,1.3-0.5,1.4-1c0-0.1,0.1-0.2,0.1-0.3V238.2z"/>
		<path class="st0" d="M87.5,241.2v-0.7l0.8-0.8c2-1.9,2.9-2.9,2.9-4.1c0-0.8-0.4-1.5-1.6-1.5c-0.7,0-1.3,0.4-1.7,0.7l-0.3-0.8
			c0.5-0.5,1.3-0.8,2.2-0.8c1.7,0,2.4,1.2,2.4,2.3c0,1.5-1.1,2.6-2.7,4.3l-0.6,0.6v0h3.6v0.9H87.5z"/>
		<path class="st0" d="M100.9,240.9c-0.3,0.1-0.9,0.3-1.7,0.3c-1.8,0-2.9-1.2-2.9-3c0-1.8,1.2-3.1,3.2-3.1c0.6,0,1.2,0.2,1.5,0.3
			l-0.2,0.8c-0.3-0.1-0.7-0.3-1.2-0.3c-1.4,0-2.1,1-2.1,2.2c0,1.4,0.9,2.2,2,2.2c0.6,0,1-0.2,1.3-0.3L100.9,240.9z"/>
		<path class="st0" d="M105.4,241.2l-0.1-0.7h0c-0.3,0.5-1,0.9-1.8,0.9c-1.2,0-1.8-0.8-1.8-1.7c0-1.4,1.3-2.2,3.5-2.2v-0.1
			c0-0.5-0.1-1.4-1.3-1.4c-0.5,0-1.1,0.2-1.5,0.4l-0.2-0.7c0.5-0.3,1.2-0.5,1.9-0.5c1.8,0,2.2,1.2,2.2,2.4v2.2c0,0.5,0,1,0.1,1.4
			H105.4z M105.2,238.2c-1.2,0-2.5,0.2-2.5,1.3c0,0.7,0.5,1,1,1c0.8,0,1.3-0.5,1.4-1c0-0.1,0.1-0.2,0.1-0.3V238.2z"/>
		<path class="st0" d="M108,237.1c0-0.7,0-1.3,0-1.8h0.9l0,1.2h0c0.3-0.8,0.9-1.3,1.6-1.3c0.1,0,0.2,0,0.3,0v1c-0.1,0-0.2,0-0.4,0
			c-0.8,0-1.3,0.6-1.4,1.4c0,0.1,0,0.3,0,0.5v3.1H108V237.1z"/>
		<path class="st0" d="M113.6,233.6v1.7h1.5v0.8h-1.5v3.2c0,0.7,0.2,1.1,0.8,1.1c0.3,0,0.5,0,0.6-0.1l0,0.8c-0.2,0.1-0.5,0.1-1,0.1
			c-0.5,0-0.9-0.2-1.2-0.5c-0.3-0.3-0.4-0.8-0.4-1.5v-3.2h-0.9v-0.8h0.9v-1.4L113.6,233.6z"/>
		<path class="st0" d="M119.6,241.2l-0.1-0.7h0c-0.3,0.5-1,0.9-1.8,0.9c-1.2,0-1.8-0.8-1.8-1.7c0-1.4,1.3-2.2,3.5-2.2v-0.1
			c0-0.5-0.1-1.4-1.3-1.4c-0.5,0-1.1,0.2-1.5,0.4l-0.2-0.7c0.5-0.3,1.2-0.5,1.9-0.5c1.8,0,2.2,1.2,2.2,2.4v2.2c0,0.5,0,1,0.1,1.4
			H119.6z M119.4,238.2c-1.2,0-2.5,0.2-2.5,1.3c0,0.7,0.5,1,1,1c0.8,0,1.3-0.5,1.4-1c0-0.1,0.1-0.2,0.1-0.3V238.2z"/>
		<path class="st0" d="M122,240.1c0.3,0.2,0.9,0.4,1.4,0.4c0.8,0,1.1-0.4,1.1-0.9c0-0.5-0.3-0.8-1.1-1.1c-1.1-0.4-1.6-1-1.6-1.7
			c0-1,0.8-1.7,2-1.7c0.6,0,1.1,0.2,1.5,0.4l-0.3,0.8c-0.2-0.1-0.7-0.3-1.2-0.3c-0.6,0-1,0.4-1,0.8c0,0.5,0.4,0.7,1.1,1
			c1,0.4,1.5,0.9,1.5,1.8c0,1-0.8,1.8-2.2,1.8c-0.6,0-1.2-0.2-1.7-0.4L122,240.1z"/>
	</g>
</g>
</svg>
