<?xml version="1.0" encoding="utf-8"?>
<!-- Generator: Adobe Illustrator 19.1.1, SVG Export Plug-In . SVG Version: 6.00 Build 0)  -->
<svg version="1.1" xmlns="http://www.w3.org/2000/svg" xmlns:xlink="http://www.w3.org/1999/xlink" x="0px" y="0px"
	 viewBox="0 0 181.4 252.3" style="enable-background:new 0 0 181.4 252.3;" xml:space="preserve">
<style type="text/css">
	.st0{fill:#512B8B;}
	.st1{fill:#FFFFFF;}
	.st2{fill:#6D6E71;}
	.st3{fill:#939598;}
</style>
<g id="BG">
</g>
<g id="Layer_2">
	<g id="Layer_3">
		<rect y="184.3" class="st0" width="181.4" height="67.9"/>
		<g>
			<path class="st1" d="M15.4,198h-2.8v-1h6.9v1h-2.8v8.3h-1.2V198z"/>
			<path class="st1" d="M25.5,202.9c0,2.5-1.7,3.5-3.3,3.5c-1.8,0-3.2-1.3-3.2-3.4c0-2.2,1.5-3.5,3.3-3.5
				C24.2,199.5,25.5,200.9,25.5,202.9z M20.2,203c0,1.5,0.8,2.6,2,2.6c1.2,0,2-1.1,2-2.6c0-1.1-0.6-2.6-2-2.6
				C20.8,200.4,20.2,201.7,20.2,203z"/>
			<path class="st1" d="M32.7,196.5v8.1c0,0.6,0,1.3,0.1,1.7h-1.1l-0.1-1.2h0c-0.4,0.7-1.2,1.3-2.3,1.3c-1.6,0-2.8-1.4-2.8-3.4
				c0-2.2,1.4-3.6,3-3.6c1,0,1.7,0.5,2,1h0v-4H32.7z M31.5,202.3c0-0.2,0-0.4-0.1-0.5c-0.2-0.8-0.8-1.4-1.7-1.4c-1.3,0-2,1.1-2,2.6
				c0,1.3,0.7,2.5,2,2.5c0.8,0,1.6-0.5,1.8-1.4c0-0.2,0.1-0.3,0.1-0.5V202.3z"/>
			<path class="st1" d="M40.8,202.9c0,2.5-1.7,3.5-3.3,3.5c-1.8,0-3.2-1.3-3.2-3.4c0-2.2,1.5-3.5,3.3-3.5
				C39.5,199.5,40.8,200.9,40.8,202.9z M35.5,203c0,1.5,0.8,2.6,2,2.6c1.2,0,2-1.1,2-2.6c0-1.1-0.6-2.6-2-2.6
				C36.1,200.4,35.5,201.7,35.5,203z"/>
			<path class="st1" d="M42.1,205c0.4,0.2,1,0.5,1.6,0.5c0.9,0,1.3-0.4,1.3-1c0-0.6-0.3-0.9-1.2-1.2c-1.2-0.4-1.8-1.1-1.8-1.9
				c0-1.1,0.9-2,2.3-2c0.7,0,1.3,0.2,1.6,0.4l-0.3,0.9c-0.3-0.2-0.7-0.4-1.4-0.4c-0.7,0-1.1,0.4-1.1,0.9c0,0.6,0.4,0.8,1.3,1.1
				c1.2,0.4,1.7,1,1.7,2c0,1.2-0.9,2-2.5,2c-0.7,0-1.4-0.2-1.9-0.5L42.1,205z"/>
			<path class="st1" d="M50.7,196.5h1.2v4.2h0c0.2-0.3,0.5-0.6,0.9-0.9c0.4-0.2,0.8-0.3,1.2-0.3c0.9,0,2.3,0.5,2.3,2.8v4h-1.2v-3.8
				c0-1.1-0.4-2-1.5-2c-0.8,0-1.4,0.6-1.6,1.2c-0.1,0.2-0.1,0.3-0.1,0.6v4h-1.2V196.5z"/>
			<path class="st1" d="M62,206.3l-0.1-0.8h0c-0.4,0.5-1.1,1-2,1c-1.3,0-2-0.9-2-1.9c0-1.6,1.4-2.5,4-2.5v-0.1
				c0-0.6-0.2-1.5-1.5-1.5c-0.6,0-1.3,0.2-1.7,0.5l-0.3-0.8c0.6-0.4,1.3-0.6,2.2-0.6c2,0,2.5,1.4,2.5,2.7v2.5c0,0.6,0,1.1,0.1,1.6
				H62z M61.8,202.9c-1.3,0-2.8,0.2-2.8,1.5c0,0.8,0.5,1.2,1.1,1.2c0.9,0,1.4-0.6,1.6-1.1c0-0.1,0.1-0.3,0.1-0.4V202.9z"/>
			<path class="st1" d="M64.9,206.3c0-0.5,0.1-1.1,0.1-1.7v-8.1h1.2v4.2h0c0.4-0.7,1.2-1.2,2.3-1.2c1.7,0,2.8,1.4,2.8,3.4
				c0,2.4-1.5,3.6-3,3.6c-1,0-1.7-0.4-2.2-1.3h0l-0.1,1.1H64.9z M66.1,203.6c0,0.2,0,0.3,0.1,0.4c0.2,0.8,0.9,1.4,1.8,1.4
				c1.3,0,2-1,2-2.6c0-1.3-0.7-2.5-2-2.5c-0.8,0-1.6,0.6-1.8,1.5c0,0.1-0.1,0.3-0.1,0.5V203.6z"/>
			<path class="st1" d="M72.8,196.5H74v9.8h-1.2V196.5z"/>
			<path class="st1" d="M76.7,203.2c0,1.6,1.1,2.3,2.3,2.3c0.9,0,1.4-0.2,1.8-0.3L81,206c-0.4,0.2-1.2,0.4-2.2,0.4
				c-2.1,0-3.3-1.3-3.3-3.4c0-2,1.2-3.6,3.1-3.6c2.2,0,2.8,1.9,2.8,3.1c0,0.2,0,0.4,0,0.6H76.7z M80.2,202.3c0-0.8-0.3-2-1.7-2
				c-1.2,0-1.8,1.1-1.9,2H80.2z"/>
			<path class="st1" d="M82.9,201.4c0-0.7,0-1.3-0.1-1.8h1.1l0.1,1.1h0c0.3-0.6,1.1-1.3,2.2-1.3c0.9,0,2.4,0.5,2.4,2.8v4h-1.2v-3.8
				c0-1.1-0.4-2-1.5-2c-0.8,0-1.4,0.6-1.6,1.2c-0.1,0.2-0.1,0.4-0.1,0.6v4h-1.2V201.4z"/>
			<path class="st1" d="M99.2,196.5v8.1c0,0.6,0,1.3,0.1,1.7h-1.1l-0.1-1.2h0c-0.4,0.7-1.2,1.3-2.3,1.3c-1.6,0-2.8-1.4-2.8-3.4
				c0-2.2,1.4-3.6,3-3.6c1,0,1.7,0.5,2,1h0v-4H99.2z M98,202.3c0-0.2,0-0.4-0.1-0.5c-0.2-0.8-0.8-1.4-1.7-1.4c-1.3,0-2,1.1-2,2.6
				c0,1.3,0.7,2.5,2,2.5c0.8,0,1.6-0.5,1.8-1.4c0-0.2,0.1-0.3,0.1-0.5V202.3z"/>
			<path class="st1" d="M101.9,203.2c0,1.6,1.1,2.3,2.3,2.3c0.9,0,1.4-0.2,1.8-0.3l0.2,0.9c-0.4,0.2-1.2,0.4-2.2,0.4
				c-2.1,0-3.3-1.3-3.3-3.4c0-2,1.2-3.6,3.1-3.6c2.2,0,2.8,1.9,2.8,3.1c0,0.2,0,0.4,0,0.6H101.9z M105.4,202.3c0-0.8-0.3-2-1.7-2
				c-1.2,0-1.8,1.1-1.9,2H105.4z"/>
			<path class="st1" d="M110.9,205c0.4,0.2,1,0.5,1.6,0.5c0.9,0,1.3-0.4,1.3-1c0-0.6-0.3-0.9-1.2-1.2c-1.2-0.4-1.8-1.1-1.8-1.9
				c0-1.1,0.9-2,2.3-2c0.7,0,1.3,0.2,1.6,0.4l-0.3,0.9c-0.3-0.2-0.7-0.4-1.4-0.4c-0.7,0-1.1,0.4-1.1,0.9c0,0.6,0.4,0.8,1.3,1.1
				c1.2,0.4,1.7,1,1.7,2c0,1.2-0.9,2-2.5,2c-0.7,0-1.4-0.2-1.9-0.5L110.9,205z"/>
			<path class="st1" d="M122,204.5c0,0.7,0,1.3,0.1,1.8H121l-0.1-1.1h0c-0.3,0.5-1,1.2-2.2,1.2c-1,0-2.3-0.6-2.3-2.9v-3.9h1.2v3.7
				c0,1.3,0.4,2.1,1.5,2.1c0.8,0,1.4-0.6,1.6-1.1c0.1-0.2,0.1-0.4,0.1-0.6v-4.1h1.2V204.5z"/>
			<path class="st1" d="M123.9,205c0.4,0.2,1,0.5,1.6,0.5c0.9,0,1.3-0.4,1.3-1c0-0.6-0.3-0.9-1.2-1.2c-1.2-0.4-1.8-1.1-1.8-1.9
				c0-1.1,0.9-2,2.3-2c0.7,0,1.3,0.2,1.6,0.4l-0.3,0.9c-0.3-0.2-0.7-0.4-1.4-0.4c-0.7,0-1.1,0.4-1.1,0.9c0,0.6,0.4,0.8,1.3,1.1
				c1.2,0.4,1.7,1,1.7,2c0,1.2-0.9,2-2.5,2c-0.7,0-1.4-0.2-1.9-0.5L123.9,205z"/>
			<path class="st1" d="M132.5,206.3v-5.7h-0.9v-0.9h0.9v-0.3c0-0.9,0.2-1.8,0.8-2.3c0.5-0.4,1.1-0.6,1.6-0.6c0.4,0,0.8,0.1,1,0.2
				l-0.2,0.9c-0.2-0.1-0.4-0.2-0.8-0.2c-1,0-1.3,0.9-1.3,1.9v0.4h1.6v0.9h-1.6v5.7H132.5z"/>
			<path class="st1" d="M142.3,202.9c0,2.5-1.7,3.5-3.3,3.5c-1.8,0-3.2-1.3-3.2-3.4c0-2.2,1.5-3.5,3.3-3.5
				C141,199.5,142.3,200.9,142.3,202.9z M137,203c0,1.5,0.8,2.6,2,2.6c1.2,0,2-1.1,2-2.6c0-1.1-0.6-2.6-2-2.6
				C137.6,200.4,137,201.7,137,203z"/>
			<path class="st1" d="M143.8,206.3c0-0.5,0.1-1.1,0.1-1.7v-8.1h1.2v4.2h0c0.4-0.7,1.2-1.2,2.3-1.2c1.7,0,2.8,1.4,2.8,3.4
				c0,2.4-1.5,3.6-3,3.6c-1,0-1.7-0.4-2.2-1.3h0l-0.1,1.1H143.8z M145,203.6c0,0.2,0,0.3,0.1,0.4c0.2,0.8,0.9,1.4,1.8,1.4
				c1.3,0,2-1,2-2.6c0-1.3-0.7-2.5-2-2.5c-0.8,0-1.6,0.6-1.8,1.5c0,0.1-0.1,0.3-0.1,0.5V203.6z"/>
			<path class="st1" d="M153,197.8c0,0.4-0.3,0.7-0.8,0.7c-0.4,0-0.7-0.3-0.7-0.7c0-0.4,0.3-0.8,0.8-0.8
				C152.7,197,153,197.3,153,197.8z M151.6,206.3v-6.7h1.2v6.7H151.6z"/>
			<path class="st1" d="M158.5,206.3l-0.1-0.8h0c-0.4,0.5-1.1,1-2,1c-1.3,0-2-0.9-2-1.9c0-1.6,1.4-2.5,4-2.5v-0.1
				c0-0.6-0.2-1.5-1.5-1.5c-0.6,0-1.3,0.2-1.7,0.5l-0.3-0.8c0.6-0.4,1.3-0.6,2.2-0.6c2,0,2.5,1.4,2.5,2.7v2.5c0,0.6,0,1.1,0.1,1.6
				H158.5z M158.4,202.9c-1.3,0-2.8,0.2-2.8,1.5c0,0.8,0.5,1.2,1.1,1.2c0.9,0,1.4-0.6,1.6-1.1c0-0.1,0.1-0.3,0.1-0.4V202.9z"/>
			<path class="st1" d="M161.3,205c0.4,0.2,1,0.5,1.6,0.5c0.9,0,1.3-0.4,1.3-1c0-0.6-0.3-0.9-1.2-1.2c-1.2-0.4-1.8-1.1-1.8-1.9
				c0-1.1,0.9-2,2.3-2c0.7,0,1.3,0.2,1.6,0.4l-0.3,0.9c-0.3-0.2-0.7-0.4-1.4-0.4c-0.7,0-1.1,0.4-1.1,0.9c0,0.6,0.4,0.8,1.3,1.1
				c1.2,0.4,1.7,1,1.7,2c0,1.2-0.9,2-2.5,2c-0.7,0-1.4-0.2-1.9-0.5L161.3,205z"/>
			<path class="st1" d="M166,208c0.3-0.8,0.7-2.3,0.8-3.3l1.3-0.1c-0.3,1.2-0.9,2.7-1.3,3.3L166,208z"/>
			<path class="st1" d="M19.9,219.7c0,1.6,1.1,2.3,2.3,2.3c0.9,0,1.4-0.2,1.8-0.3l0.2,0.9c-0.4,0.2-1.2,0.4-2.2,0.4
				c-2.1,0-3.3-1.3-3.3-3.4c0-2,1.2-3.6,3.1-3.6c2.2,0,2.8,1.9,2.8,3.1c0,0.2,0,0.4,0,0.6H19.9z M23.4,218.8c0-0.8-0.3-2-1.7-2
				c-1.2,0-1.8,1.1-1.9,2H23.4z"/>
			<path class="st1" d="M26.1,213h1.2v9.8h-1.2V213z"/>
			<path class="st1" d="M36.8,221.8L36.8,221.8c-0.4,0.7-1.1,1.2-2.2,1.2c-1.6,0-2.8-1.3-2.8-3.4c0-2.5,1.6-3.6,3-3.6
				c1,0,1.7,0.5,2,1.2h0l0-1h1.1c0,0.6,0,1.1,0,1.8v7.6h-1.2V221.8z M36.8,218.8c0-0.2,0-0.4-0.1-0.5c-0.2-0.7-0.8-1.4-1.7-1.4
				c-1.3,0-2,1.1-2,2.6c0,1.3,0.6,2.5,2,2.5c0.8,0,1.5-0.5,1.7-1.3c0.1-0.2,0.1-0.4,0.1-0.6V218.8z"/>
			<path class="st1" d="M45.6,221c0,0.7,0,1.3,0.1,1.8h-1.1l-0.1-1.1h0c-0.3,0.5-1,1.2-2.2,1.2c-1,0-2.3-0.6-2.3-2.9v-3.9h1.2v3.7
				c0,1.3,0.4,2.1,1.5,2.1c0.8,0,1.4-0.6,1.6-1.1c0.1-0.2,0.1-0.4,0.1-0.6v-4.1h1.2V221z"/>
			<path class="st1" d="M48.3,219.7c0,1.6,1.1,2.3,2.3,2.3c0.9,0,1.4-0.2,1.8-0.3l0.2,0.9c-0.4,0.2-1.2,0.4-2.2,0.4
				c-2.1,0-3.3-1.3-3.3-3.4c0-2,1.2-3.6,3.1-3.6c2.2,0,2.8,1.9,2.8,3.1c0,0.2,0,0.4,0,0.6H48.3z M51.8,218.8c0-0.8-0.3-2-1.7-2
				c-1.2,0-1.8,1.1-1.9,2H51.8z"/>
			<path class="st1" d="M58.9,214.2v1.9h1.7v0.9h-1.7v3.6c0,0.8,0.2,1.3,0.9,1.3c0.3,0,0.6,0,0.7-0.1l0.1,0.9
				c-0.2,0.1-0.6,0.2-1.1,0.2c-0.6,0-1-0.2-1.3-0.5c-0.3-0.4-0.5-0.9-0.5-1.7v-3.6h-1v-0.9h1v-1.6L58.9,214.2z"/>
			<path class="st1" d="M62.6,219.7c0,1.6,1.1,2.3,2.3,2.3c0.9,0,1.4-0.2,1.8-0.3l0.2,0.9c-0.4,0.2-1.2,0.4-2.2,0.4
				c-2.1,0-3.3-1.3-3.3-3.4c0-2,1.2-3.6,3.1-3.6c2.2,0,2.8,1.9,2.8,3.1c0,0.2,0,0.4,0,0.6H62.6z M66.1,218.8c0-0.8-0.3-2-1.7-2
				c-1.2,0-1.8,1.1-1.9,2H66.1z"/>
			<path class="st1" d="M68.8,217.9c0-0.7,0-1.3-0.1-1.8h1.1l0.1,1.1h0c0.3-0.6,1.1-1.3,2.2-1.3c0.9,0,2.4,0.5,2.4,2.8v4h-1.2V219
				c0-1.1-0.4-2-1.5-2c-0.8,0-1.4,0.6-1.6,1.2c-0.1,0.2-0.1,0.4-0.1,0.6v4h-1.2V217.9z"/>
			<path class="st1" d="M82.2,216.1c0,0.5-0.1,1-0.1,1.8v3.9c0,1.5-0.3,2.5-0.9,3c-0.6,0.6-1.6,0.8-2.4,0.8c-0.8,0-1.7-0.2-2.2-0.5
				l0.3-0.9c0.4,0.3,1.1,0.5,2,0.5c1.2,0,2.1-0.6,2.1-2.3v-0.7h0c-0.4,0.6-1.1,1.1-2.1,1.1c-1.7,0-2.8-1.4-2.8-3.2
				c0-2.3,1.5-3.5,3-3.5c1.2,0,1.8,0.6,2.1,1.2h0l0.1-1H82.2z M80.9,218.8c0-0.2,0-0.4-0.1-0.6c-0.2-0.7-0.8-1.3-1.7-1.3
				c-1.2,0-2,1-2,2.5c0,1.3,0.7,2.4,2,2.4c0.7,0,1.4-0.5,1.7-1.2c0.1-0.2,0.1-0.4,0.1-0.6V218.8z"/>
			<path class="st1" d="M87.8,222.8l-0.1-0.8h0c-0.4,0.5-1.1,1-2,1c-1.3,0-2-0.9-2-1.9c0-1.6,1.4-2.5,4-2.5v-0.1
				c0-0.5-0.2-1.5-1.5-1.5c-0.6,0-1.3,0.2-1.7,0.5l-0.3-0.8c0.6-0.4,1.3-0.6,2.2-0.6c2,0,2.5,1.4,2.5,2.7v2.5c0,0.6,0,1.1,0.1,1.6
				H87.8z M87.6,219.4c-1.3,0-2.8,0.2-2.8,1.5c0,0.8,0.5,1.2,1.1,1.2c0.9,0,1.4-0.6,1.6-1.1c0-0.1,0.1-0.3,0.1-0.4V219.4z"/>
			<path class="st1" d="M93.7,213h1.2v9.8h-1.2V213z"/>
			<path class="st1" d="M100.6,222.8l-0.1-0.8h0c-0.4,0.5-1.1,1-2,1c-1.3,0-2-0.9-2-1.9c0-1.6,1.4-2.5,4-2.5v-0.1
				c0-0.5-0.2-1.5-1.5-1.5c-0.6,0-1.3,0.2-1.7,0.5l-0.3-0.8c0.5-0.4,1.3-0.6,2.2-0.6c2,0,2.5,1.4,2.5,2.7v2.5c0,0.6,0,1.1,0.1,1.6
				H100.6z M100.4,219.4c-1.3,0-2.8,0.2-2.8,1.5c0,0.8,0.5,1.2,1.1,1.2c0.9,0,1.4-0.6,1.6-1.1c0-0.1,0.1-0.3,0.1-0.4V219.4z"/>
			<path class="st1" d="M106.4,217.9c0-0.7,0-1.3-0.1-1.8h1.1l0.1,1.1h0c0.4-0.6,1-1.2,2.1-1.2c0.9,0,1.6,0.5,1.9,1.3h0
				c0.2-0.4,0.5-0.7,0.7-0.9c0.4-0.3,0.8-0.5,1.5-0.5c0.9,0,2.2,0.6,2.2,2.9v3.9h-1.2V219c0-1.3-0.5-2-1.4-2c-0.7,0-1.2,0.5-1.4,1.1
				c-0.1,0.2-0.1,0.4-0.1,0.6v4.1h-1.2v-4c0-1.1-0.5-1.8-1.4-1.8c-0.8,0-1.3,0.6-1.5,1.2c-0.1,0.2-0.1,0.4-0.1,0.6v4h-1.2V217.9z"/>
			<path class="st1" d="M121.6,222.8l-0.1-0.8h0c-0.4,0.5-1.1,1-2,1c-1.3,0-2-0.9-2-1.9c0-1.6,1.4-2.5,4-2.5v-0.1
				c0-0.5-0.2-1.5-1.5-1.5c-0.6,0-1.3,0.2-1.7,0.5l-0.3-0.8c0.6-0.4,1.3-0.6,2.2-0.6c2,0,2.5,1.4,2.5,2.7v2.5c0,0.6,0,1.1,0.1,1.6
				H121.6z M121.4,219.4c-1.3,0-2.8,0.2-2.8,1.5c0,0.8,0.5,1.2,1.1,1.2c0.9,0,1.4-0.6,1.6-1.1c0-0.1,0.1-0.3,0.1-0.4V219.4z
				 M122,213.3l-1.7,2h-0.9l1.2-2H122z"/>
			<path class="st1" d="M124.4,221.6c0.4,0.2,1,0.5,1.6,0.5c0.9,0,1.3-0.4,1.3-1c0-0.6-0.3-0.9-1.2-1.2c-1.2-0.4-1.8-1.1-1.8-1.9
				c0-1.1,0.9-2,2.3-2c0.7,0,1.3,0.2,1.6,0.4l-0.3,0.9c-0.3-0.2-0.7-0.4-1.4-0.4c-0.7,0-1.1,0.4-1.1,0.9c0,0.5,0.4,0.8,1.3,1.1
				c1.2,0.4,1.7,1,1.7,2c0,1.2-0.9,2-2.5,2c-0.7,0-1.4-0.2-1.9-0.5L124.4,221.6z"/>
			<path class="st1" d="M137.7,222.5c-0.3,0.2-1,0.4-1.9,0.4c-2,0-3.3-1.4-3.3-3.4c0-2.1,1.4-3.5,3.6-3.5c0.7,0,1.3,0.2,1.7,0.3
				l-0.3,0.9c-0.3-0.2-0.7-0.3-1.4-0.3c-1.5,0-2.4,1.1-2.4,2.5c0,1.5,1,2.5,2.3,2.5c0.7,0,1.1-0.2,1.5-0.3L137.7,222.5z"/>
			<path class="st1" d="M139.1,213h1.2v4.2h0c0.2-0.3,0.5-0.6,0.9-0.9c0.4-0.2,0.8-0.3,1.2-0.3c0.9,0,2.3,0.5,2.3,2.8v4h-1.2V219
				c0-1.1-0.4-2-1.5-2c-0.8,0-1.4,0.6-1.6,1.2c-0.1,0.2-0.1,0.3-0.1,0.6v4h-1.2V213z"/>
			<path class="st1" d="M150.4,222.8l-0.1-0.8h0c-0.4,0.5-1.1,1-2,1c-1.3,0-2-0.9-2-1.9c0-1.6,1.4-2.5,4-2.5v-0.1
				c0-0.5-0.2-1.5-1.5-1.5c-0.6,0-1.3,0.2-1.7,0.5l-0.3-0.8c0.6-0.4,1.3-0.6,2.2-0.6c2,0,2.5,1.4,2.5,2.7v2.5c0,0.6,0,1.1,0.1,1.6
				H150.4z M150.2,219.4c-1.3,0-2.8,0.2-2.8,1.5c0,0.8,0.5,1.2,1.1,1.2c0.9,0,1.4-0.6,1.6-1.1c0-0.1,0.1-0.3,0.1-0.4V219.4z"/>
			<path class="st1" d="M153.5,222.8v-5.7h-0.9v-0.9h0.9v-0.3c0-0.9,0.2-1.8,0.8-2.3c0.5-0.4,1.1-0.6,1.6-0.6c0.4,0,0.8,0.1,1,0.2
				l-0.2,0.9c-0.2-0.1-0.4-0.2-0.8-0.2c-1,0-1.3,0.9-1.3,1.9v0.4h1.6v0.9h-1.6v5.7H153.5z"/>
			<path class="st1" d="M161,222.8L161,222h0c-0.4,0.5-1.1,1-2,1c-1.3,0-2-0.9-2-1.9c0-1.6,1.4-2.5,4-2.5v-0.1
				c0-0.5-0.2-1.5-1.5-1.5c-0.6,0-1.3,0.2-1.7,0.5l-0.3-0.8c0.5-0.4,1.3-0.6,2.2-0.6c2,0,2.5,1.4,2.5,2.7v2.5c0,0.6,0,1.1,0.1,1.6
				H161z M160.9,219.4c-1.3,0-2.8,0.2-2.8,1.5c0,0.8,0.5,1.2,1.1,1.2c0.9,0,1.4-0.6,1.6-1.1c0-0.1,0.1-0.3,0.1-0.4V219.4z"/>
			<path class="st1" d="M34.8,238.1c0.4,0.2,1,0.5,1.6,0.5c0.9,0,1.3-0.4,1.3-1c0-0.6-0.3-0.9-1.2-1.2c-1.2-0.4-1.8-1.1-1.8-1.9
				c0-1.1,0.9-2,2.3-2c0.7,0,1.3,0.2,1.6,0.4l-0.3,0.9c-0.3-0.2-0.7-0.4-1.4-0.4c-0.7,0-1.1,0.4-1.1,0.9c0,0.5,0.4,0.8,1.3,1.1
				c1.2,0.4,1.7,1,1.7,2c0,1.2-0.9,2-2.5,2c-0.7,0-1.4-0.2-1.9-0.5L34.8,238.1z"/>
			<path class="st1" d="M41.1,236.2c0,1.6,1.1,2.3,2.3,2.3c0.9,0,1.4-0.2,1.8-0.3l0.2,0.9c-0.4,0.2-1.2,0.4-2.2,0.4
				c-2.1,0-3.3-1.3-3.3-3.4c0-2,1.2-3.6,3.1-3.6c2.2,0,2.8,1.9,2.8,3.1c0,0.2,0,0.4,0,0.6H41.1z M44.6,235.3c0-0.8-0.3-2-1.7-2
				c-1.2,0-1.8,1.1-1.9,2H44.6z"/>
			<path class="st1" d="M54.8,238.3L54.8,238.3c-0.4,0.7-1.1,1.2-2.2,1.2c-1.6,0-2.8-1.3-2.8-3.4c0-2.5,1.6-3.6,3-3.6
				c1,0,1.7,0.5,2.1,1.2h0l0-1H56c0,0.6,0,1.1,0,1.8v7.6h-1.2V238.3z M54.8,235.3c0-0.2,0-0.4-0.1-0.5c-0.2-0.7-0.8-1.4-1.7-1.4
				c-1.3,0-2,1.1-2,2.6c0,1.3,0.6,2.5,2,2.5c0.8,0,1.5-0.5,1.7-1.3c0.1-0.2,0.1-0.4,0.1-0.6V235.3z"/>
			<path class="st1" d="M63.5,237.5c0,0.7,0,1.3,0.1,1.8h-1.1l-0.1-1.1h0c-0.3,0.5-1,1.2-2.2,1.2c-1,0-2.3-0.6-2.3-2.9v-3.9h1.2v3.7
				c0,1.3,0.4,2.1,1.5,2.1c0.8,0,1.4-0.6,1.6-1.1c0.1-0.2,0.1-0.4,0.1-0.6v-4.1h1.2V237.5z"/>
			<path class="st1" d="M66.9,230.8c0,0.4-0.3,0.7-0.8,0.7c-0.4,0-0.7-0.3-0.7-0.7c0-0.4,0.3-0.8,0.8-0.8
				C66.6,230,66.9,230.3,66.9,230.8z M65.5,239.3v-6.7h1.2v6.7H65.5z"/>
			<path class="st1" d="M70.2,230.7v1.9H72v0.9h-1.7v3.6c0,0.8,0.2,1.3,0.9,1.3c0.3,0,0.6,0,0.7-0.1l0.1,0.9
				c-0.2,0.1-0.6,0.2-1.1,0.2c-0.6,0-1-0.2-1.3-0.5c-0.3-0.4-0.5-0.9-0.5-1.7v-3.6h-1v-0.9h1V231L70.2,230.7z"/>
			<path class="st1" d="M77,239.3l-0.1-0.8h0c-0.4,0.5-1.1,1-2,1c-1.3,0-2-0.9-2-1.9c0-1.6,1.4-2.5,4-2.5v-0.1
				c0-0.5-0.2-1.5-1.5-1.5c-0.6,0-1.3,0.2-1.7,0.5l-0.3-0.8c0.6-0.4,1.3-0.6,2.2-0.6c2,0,2.5,1.4,2.5,2.7v2.5c0,0.6,0,1.1,0.1,1.6
				H77z M76.8,235.9c-1.3,0-2.8,0.2-2.8,1.5c0,0.8,0.5,1.2,1.1,1.2c0.9,0,1.4-0.5,1.6-1.1c0-0.1,0.1-0.3,0.1-0.4V235.9z"/>
			<path class="st1" d="M88,237.5c0,0.7,0,1.3,0.1,1.8h-1.1l-0.1-1.1h0c-0.3,0.5-1,1.2-2.2,1.2c-1,0-2.3-0.6-2.3-2.9v-3.9h1.2v3.7
				c0,1.3,0.4,2.1,1.5,2.1c0.8,0,1.4-0.6,1.6-1.1c0.1-0.2,0.1-0.4,0.1-0.6v-4.1H88V237.5z"/>
			<path class="st1" d="M90,234.4c0-0.7,0-1.3-0.1-1.8H91l0.1,1.1h0c0.3-0.6,1.1-1.3,2.2-1.3c0.9,0,2.4,0.5,2.4,2.8v4h-1.2v-3.8
				c0-1.1-0.4-2-1.5-2c-0.8,0-1.4,0.6-1.6,1.2c-0.1,0.2-0.1,0.4-0.1,0.6v4H90V234.4z"/>
			<path class="st1" d="M101.3,239.3l-0.1-0.8h0c-0.4,0.5-1.1,1-2,1c-1.3,0-2-0.9-2-1.9c0-1.6,1.4-2.5,4-2.5v-0.1
				c0-0.5-0.2-1.5-1.5-1.5c-0.6,0-1.3,0.2-1.7,0.5l-0.3-0.8c0.6-0.4,1.3-0.6,2.2-0.6c2,0,2.5,1.4,2.5,2.7v2.5c0,0.6,0,1.1,0.1,1.6
				H101.3z M101.1,235.9c-1.3,0-2.8,0.2-2.8,1.5c0,0.8,0.5,1.2,1.1,1.2c0.9,0,1.4-0.5,1.6-1.1c0-0.1,0.1-0.3,0.1-0.4V235.9z"/>
			<path class="st1" d="M107.1,234.8c0-0.9,0-1.5-0.1-2.2h1.1l0.1,1.1h0c0.5-0.8,1.3-1.3,2.4-1.3c1.6,0,2.8,1.4,2.8,3.4
				c0,2.4-1.5,3.6-3,3.6c-0.9,0-1.7-0.4-2-1h0v3.6h-1.2V234.8z M108.3,236.6c0,0.2,0,0.3,0.1,0.5c0.2,0.8,0.9,1.4,1.8,1.4
				c1.3,0,2-1,2-2.6c0-1.3-0.7-2.5-2-2.5c-0.8,0-1.6,0.6-1.8,1.5c0,0.2-0.1,0.3-0.1,0.5V236.6z"/>
			<path class="st1" d="M115,234.7c0-0.8,0-1.5-0.1-2.1h1.1l0,1.3h0.1c0.3-0.9,1-1.5,1.8-1.5c0.1,0,0.2,0,0.3,0v1.1
				c-0.1,0-0.2,0-0.4,0c-0.9,0-1.5,0.6-1.6,1.6c0,0.2-0.1,0.4-0.1,0.6v3.5H115V234.7z"/>
			<path class="st1" d="M120,236.2c0,1.6,1.1,2.3,2.3,2.3c0.9,0,1.4-0.2,1.8-0.3l0.2,0.9c-0.4,0.2-1.2,0.4-2.2,0.4
				c-2.1,0-3.3-1.3-3.3-3.4c0-2,1.2-3.6,3.1-3.6c2.2,0,2.8,1.9,2.8,3.1c0,0.2,0,0.4,0,0.6H120z M123.6,235.3c0-0.8-0.3-2-1.7-2
				c-1.2,0-1.8,1.1-1.9,2H123.6z"/>
			<path class="st1" d="M126.2,234.4c0-0.7,0-1.3-0.1-1.8h1.1l0.1,1.1h0c0.3-0.6,1.1-1.3,2.2-1.3c0.9,0,2.4,0.5,2.4,2.8v4h-1.2v-3.8
				c0-1.1-0.4-2-1.5-2c-0.8,0-1.4,0.6-1.6,1.2c-0.1,0.2-0.1,0.4-0.1,0.6v4h-1.2V234.4z"/>
			<path class="st1" d="M139.6,229.5v8c0,0.6,0,1.3,0.1,1.7h-1.1l-0.1-1.2h0c-0.4,0.7-1.2,1.3-2.3,1.3c-1.6,0-2.8-1.4-2.8-3.4
				c0-2.2,1.4-3.6,3-3.6c1,0,1.7,0.5,2,1h0v-4H139.6z M138.4,235.4c0-0.2,0-0.4-0.1-0.5c-0.2-0.8-0.8-1.4-1.7-1.4
				c-1.3,0-2,1.1-2,2.6c0,1.3,0.7,2.5,2,2.5c0.8,0,1.6-0.5,1.8-1.4c0-0.2,0.1-0.3,0.1-0.5V235.4z"/>
			<path class="st1" d="M145.3,239.3l-0.1-0.8h0c-0.4,0.5-1.1,1-2,1c-1.3,0-2-0.9-2-1.9c0-1.6,1.4-2.5,4-2.5v-0.1
				c0-0.5-0.2-1.5-1.5-1.5c-0.6,0-1.3,0.2-1.7,0.5l-0.3-0.8c0.5-0.4,1.3-0.6,2.2-0.6c2,0,2.5,1.4,2.5,2.7v2.5c0,0.6,0,1.1,0.1,1.6
				H145.3z M145.1,235.9c-1.3,0-2.8,0.2-2.8,1.5c0,0.8,0.5,1.2,1.1,1.2c0.9,0,1.4-0.5,1.6-1.1c0-0.1,0.1-0.3,0.1-0.4V235.9z"/>
		</g>
	</g>
	<g id="Layer_4">
		<g>
			<path class="st0" d="M0,22.5h29.7c0.4,0,0.7,0.1,0.9,0.4c0.3,0.2,0.4,0.6,0.4,1c0,0.4-0.1,0.8-0.3,1c-0.2,0.2-0.5,0.4-1,0.4H23
				L32.6,147l13-110.5c0.1-1,0.2-2,0.2-3.1c0-2.4-0.3-4.2-1-5.5c-0.7-1.2-1.6-2-2.9-2.3l-3.5-0.3c-0.4-0.3-0.7-0.7-0.7-1.3
				c0-0.4,0.4-0.9,1.2-1.4h16.6c0.4,0,0.7,0.1,0.9,0.3c0.2,0.2,0.3,0.5,0.3,0.9c0,0.4-0.1,0.7-0.3,0.9c-0.2,0.2-0.5,0.4-0.9,0.4
				c-1.8,0.2-3.1,1-4.1,2.3c-1.5,2.3-2.6,6-3.2,11.3l-16.7,139c-0.7,5.7-1.1,8.8-1.4,9.3c-0.3,0.5-0.8,0.8-1.6,0.8H18.2
				c-0.6,0-1-0.3-1.3-0.9c-0.3-0.6-0.8-4.8-1.6-12.6l-15-149H0"/>
		</g>
	</g>
</g>
<g id="Text">
	<g>
		<path d="M129,16.6c-1,0.6-2.1,0.8-3.3,0.8c-1.4,0-2.5-0.5-3.4-1.4c-0.9-0.9-1.3-2.1-1.3-3.6c0-1.5,0.5-2.8,1.4-3.7
			c1-1,2.2-1.5,3.6-1.5c1.1,0,2,0.2,2.7,0.5v1.3c-0.8-0.5-1.7-0.8-2.8-0.8c-1.1,0-2,0.4-2.7,1.1c-0.7,0.8-1.1,1.7-1.1,2.9
			c0,1.2,0.3,2.2,1,2.9c0.7,0.7,1.5,1.1,2.7,1.1c0.8,0,1.4-0.2,2-0.5v-2.7h-2.1v-1h3.3V16.6z"/>
		<path d="M138.9,17.3h-1.3l-1-2.7h-4.2l-1,2.7h-1.3l3.8-9.8h1.2L138.9,17.3z M136.2,13.5l-1.5-4.2c0-0.1-0.1-0.4-0.2-0.7h0
			c0,0.3-0.1,0.5-0.2,0.7l-1.5,4.2H136.2z"/>
		<path d="M145.4,17.3h-5.1V7.5h1.1v8.8h3.9V17.3z"/>
		<path d="M152,17.3h-5.1V7.5h1.1v8.8h3.9V17.3z"/>
		<path d="M155.6,7.5v1h-1v7.8h1v1h-3.1v-1h1V8.5h-1v-1H155.6z"/>
		<path d="M165.1,17.3h-1.4l-5-7.8c-0.1-0.2-0.2-0.4-0.3-0.6h0c0,0.2,0.1,0.7,0.1,1.3v7.1h-1.1V7.5h1.5l4.9,7.7
			c0.2,0.3,0.3,0.5,0.4,0.7h0c0-0.3-0.1-0.8-0.1-1.4V7.5h1.1V17.3z"/>
		<path d="M175.3,17.3H174l-1-2.7h-4.2l-1,2.7h-1.3l3.8-9.8h1.2L175.3,17.3z M172.6,13.5l-1.5-4.2c0-0.1-0.1-0.4-0.2-0.7h0
			c0,0.3-0.1,0.5-0.2,0.7l-1.5,4.2H172.6z"/>
	</g>
</g>
<g id="Image">
	<g id="Layer_9">
		<g>
			<g>
				<path class="st1" d="M159.5,176.1c0,0-3.3-118.1-48.9-118.1c0,0-21.6,0-21.6,27.2c0,27.2,0,80.8,0,80.8L73,161.4"/>
				<path d="M159.5,176.1c-0.2-5.3-0.6-10.7-1.1-16c-0.5-5.3-1.1-10.6-1.8-15.9c-0.7-5.3-1.5-10.6-2.5-15.8c-1-5.3-2-10.5-3.3-15.7
					c-1.3-5.2-2.7-10.3-4.4-15.4c-1.7-5.1-3.7-10-6.1-14.8c-2.4-4.8-5.2-9.3-8.7-13.3c-3.5-4-7.7-7.4-12.7-9.2
					c-2.5-0.9-5.1-1.4-7.7-1.4c-1.3-0.1-2.6,0.1-3.9,0.4c-1.3,0.3-2.5,0.6-3.8,1.1c-4.9,1.9-9,5.7-11.2,10.4c-2.3,4.7-3,10.1-3,15.4
					l0,16L89.2,134c0,10.7-0.1,21.4-0.2,32.1l0,0.2l-0.2,0L73,161.4l16,4.6l-0.2,0.1c-0.1-10.7-0.2-21.4-0.2-32.1l-0.1-32.1l0-16
					c0-5.4,0.6-10.9,3-15.8c1.2-2.5,2.8-4.7,4.8-6.6c2-1.9,4.4-3.3,6.9-4.3c1.3-0.5,2.6-0.9,3.9-1.2c1.3-0.3,2.7-0.5,4.1-0.4
					c2.7,0.1,5.4,0.6,8,1.5c5.1,1.9,9.5,5.4,13,9.5c3.5,4.1,6.3,8.7,8.7,13.6c2.4,4.8,4.3,9.8,6,14.9c1.7,5.1,3.1,10.3,4.4,15.5
					c2.5,10.4,4.3,21,5.6,31.6c0.6,5.3,1.2,10.6,1.6,16C159,165.4,159.4,170.8,159.5,176.1z"/>
			</g>
			<g>
				<path class="st2" d="M89.8,75.2C81,78.2,68.4,72.3,77.3,62c0,0-9.7-14.2,6.3-16.8l-6.4-3.3c0,0-7.7-3.6-4.7-11.6
					c3-8,16.8-2.3,16.8-2.3s20.5,9.3,22.6,30.1c0,0-16.3,0-21.7,15.9L89.8,75.2z"/>
				<path d="M89.8,75.3c-0.5,0.2-1.1,0.3-1.6,0.5c-0.5,0.1-1.1,0.2-1.7,0.3c-1.1,0.1-2.3,0.1-3.4,0c-1.1-0.1-2.2-0.3-3.3-0.7
					c-1.1-0.4-2.1-0.9-3.1-1.5c-0.5-0.3-0.9-0.7-1.3-1.2c-0.4-0.4-0.7-0.9-1-1.5c-0.3-0.5-0.4-1.1-0.6-1.7c-0.1-0.6-0.1-1.2,0-1.8
					c0.1-1.2,0.6-2.3,1.1-3.3c0.3-0.5,0.6-1,0.9-1.5c0.3-0.5,0.7-0.9,1-1.4l0,0.5c-0.5-0.8-1-1.7-1.4-2.5c-0.4-0.9-0.8-1.8-1-2.7
					C74.2,56,74.1,55,74,54c-0.1-1,0-2,0.3-3c0.1-0.2,0.2-0.5,0.3-0.7c0.1-0.2,0.2-0.5,0.3-0.7c0.1-0.2,0.2-0.4,0.4-0.6
					c0.1-0.2,0.3-0.4,0.5-0.6c0.3-0.4,0.7-0.7,1.1-1c0.4-0.3,0.8-0.6,1.2-0.8c0.4-0.3,0.9-0.4,1.3-0.6c0.4-0.2,0.9-0.3,1.4-0.5
					l1.4-0.4l1.4-0.3l-0.1,0.5l-4.4-2.3l-2.2-1.1c-0.7-0.4-1.4-0.9-2-1.5c-1.3-1.1-2.3-2.5-2.8-4.1c-0.5-1.6-0.5-3.3-0.1-5
					c0.4-1.6,1.2-3.2,2.6-4.2c1.4-1,3.1-1.4,4.8-1.5c1.7-0.1,3.4,0.1,5,0.4c1.6,0.3,3.2,0.8,4.8,1.4c1.6,0.7,3,1.5,4.4,2.4
					c1.4,0.9,2.8,1.9,4.1,2.9c2.6,2.1,5,4.4,7.1,7c4.2,5.2,7,11.6,7.6,18.3l0,0.5l-0.5,0c-1.1,0-2.3,0.2-3.5,0.4
					c-1.2,0.2-2.3,0.5-3.4,0.8c-2.2,0.7-4.4,1.8-6.3,3.1c-0.5,0.3-1,0.7-1.4,1.1c-0.5,0.4-0.9,0.8-1.3,1.2c-0.4,0.4-0.8,0.8-1.2,1.3
					c-0.4,0.4-0.7,0.9-1.1,1.4c-0.3,0.5-0.7,1-1,1.5c-0.3,0.5-0.6,1-0.9,1.5c-0.6,1-1,2.1-1.5,3.3l0,0L89.8,75.3L89.8,75.3z
					 M89.8,75.2L90,74l0,0l0,0c0.4-1.1,0.8-2.3,1.3-3.4c0.3-0.5,0.5-1.1,0.8-1.6c0.3-0.5,0.7-1,1-1.5c0.4-0.5,0.7-1,1.1-1.4
					c0.4-0.5,0.8-0.9,1.2-1.3c0.4-0.4,0.9-0.9,1.3-1.2c0.5-0.4,0.9-0.8,1.4-1.1c2-1.4,4.2-2.5,6.5-3.3c1.1-0.4,2.3-0.7,3.5-1
					c0.6-0.1,1.2-0.2,1.8-0.3c0.6-0.1,1.2-0.1,1.8-0.2l-0.5,0.5c-0.2-1.6-0.5-3.2-0.9-4.8c-0.4-1.6-0.9-3.1-1.6-4.6
					c-1.3-3-3-5.8-5-8.3c-2-2.6-4.4-4.9-6.9-6.9c-1.3-1-2.6-2-4-2.9c-1.4-0.9-2.8-1.8-4.2-2.4c-1.5-0.6-3.1-1.1-4.7-1.4
					c-1.6-0.3-3.2-0.6-4.8-0.5c-1.6,0.1-3.3,0.4-4.6,1.3c-1.3,0.9-2.1,2.4-2.5,4c-0.4,1.6-0.4,3.2,0.1,4.8c0.5,1.5,1.5,2.9,2.7,3.9
					c0.6,0.5,1.3,1,2,1.4l2.2,1.1l4.4,2.2l0.7,0.3l-0.8,0.2l-1.4,0.3L81,46.1c-0.4,0.2-0.9,0.3-1.3,0.5c-0.4,0.2-0.8,0.4-1.2,0.6
					c-0.4,0.2-0.8,0.5-1.1,0.8c-0.3,0.3-0.7,0.6-0.9,1c-0.3,0.3-0.5,0.7-0.7,1.1c-0.1,0.2-0.2,0.4-0.3,0.6c-0.1,0.2-0.2,0.4-0.2,0.6
					c-0.2,0.9-0.3,1.8-0.3,2.7c0.1,0.9,0.2,1.8,0.5,2.7c0.3,0.9,0.6,1.8,1,2.6c0.4,0.8,0.8,1.7,1.3,2.4l0.2,0.3l-0.2,0.3
					c-0.3,0.4-0.7,0.8-1,1.3c-0.3,0.4-0.6,0.9-0.9,1.4c-0.5,0.9-0.9,2-1,3c-0.1,0.5-0.1,1,0,1.6c0.1,0.5,0.2,1,0.5,1.5
					c0.2,0.5,0.5,0.9,0.9,1.3c0.3,0.4,0.7,0.8,1.2,1.1C78,74,79,74.5,80,74.9c1,0.4,2.1,0.6,3.2,0.8c1.1,0.1,2.2,0.2,3.3,0.1
					c0.6,0,1.1-0.1,1.6-0.2C88.7,75.5,89.3,75.4,89.8,75.2z"/>
			</g>
			<g>
				<path class="st3" d="M133.3,113.6c0,0,5.2-7.8,8.8-9.3c0,0,3.3-0.3,6.7,1.9c0,0-5.3-12.2-18.6-12.6c0,0-11.3,6.2-8.4,16.3
					c0,0,1-1.3,1.9-1.6C123.7,108.3,127.5,114,133.3,113.6z"/>
				<path d="M133.3,113.6c1.2-1.8,2.5-3.6,3.8-5.2c0.7-0.8,1.4-1.6,2.2-2.4c0.4-0.4,0.8-0.7,1.3-1.1l0.7-0.5l0.7-0.4l0,0l0,0
					c0.6,0,1.2,0,1.8,0.1c0.3,0,0.6,0.1,0.9,0.1c0.3,0,0.6,0.1,0.9,0.2c0.3,0.1,0.6,0.2,0.9,0.3l0.8,0.3c0.3,0.1,0.5,0.3,0.8,0.4
					l0.8,0.4l-0.4,0.3c-0.4-0.9-0.9-1.7-1.5-2.5c-0.5-0.8-1.1-1.6-1.8-2.3l-1-1.1c-0.3-0.4-0.7-0.7-1-1c-0.3-0.3-0.7-0.6-1.1-0.9
					c-0.4-0.3-0.8-0.6-1.2-0.9c-0.4-0.3-0.8-0.6-1.2-0.8l-1.3-0.7l-1.3-0.6c-0.4-0.2-0.9-0.4-1.4-0.5c-0.5-0.1-0.9-0.3-1.4-0.4
					l-1.4-0.3c-0.5-0.1-1-0.1-1.4-0.2l-1.4-0.1l0.2,0c-0.7,0.4-1.4,0.9-2,1.3c-0.7,0.5-1.3,1-1.9,1.6c-0.3,0.3-0.6,0.6-0.9,0.9
					c-0.3,0.3-0.6,0.6-0.8,0.9c-0.2,0.3-0.5,0.6-0.7,1c-0.2,0.3-0.5,0.7-0.7,1l-0.6,1.1c-0.2,0.4-0.3,0.7-0.5,1.1
					c-0.2,0.4-0.3,0.8-0.4,1.1c-0.1,0.4-0.2,0.8-0.3,1.2l-0.1,1.2c0,0.4,0,0.8,0,1.2c0,0.2,0,0.4,0,0.6l0.1,0.6l0.2,1.2l-0.4-0.1
					c0.3-0.3,0.6-0.7,0.9-0.9c0.2-0.1,0.3-0.3,0.5-0.4c0.1-0.1,0.2-0.1,0.3-0.2l0.3-0.1l0.1,0l0.1,0.1c0.5,0.8,1.2,1.5,1.8,2.1
					c0.7,0.7,1.4,1.2,2.2,1.7c0.4,0.2,0.8,0.5,1.2,0.7c0.2,0.1,0.4,0.2,0.7,0.3c0.2,0.1,0.4,0.2,0.7,0.2c0.5,0.1,0.9,0.2,1.4,0.3
					C132.3,113.6,132.8,113.6,133.3,113.6z M133.3,113.6c-0.5,0-1,0.1-1.4,0c-0.5,0-0.9-0.1-1.4-0.2c-0.2,0-0.5-0.1-0.7-0.2
					c-0.2-0.1-0.5-0.1-0.7-0.2c-0.4-0.2-0.9-0.4-1.3-0.6c-0.8-0.5-1.6-1.1-2.3-1.7c-0.7-0.6-1.4-1.3-1.9-2.1l0.2,0.1l-0.3,0.1
					c-0.1,0-0.2,0.1-0.2,0.1c-0.2,0.1-0.3,0.2-0.5,0.4c-0.3,0.3-0.6,0.6-0.8,0.9l-0.3,0.4l-0.1-0.4l-0.3-1.2l-0.1-0.6
					c0-0.2,0-0.4,0-0.6c0-0.4-0.1-0.8-0.1-1.3l0.1-1.3c0-0.4,0.2-0.8,0.2-1.2c0.1-0.4,0.2-0.8,0.4-1.2c0.2-0.4,0.3-0.8,0.5-1.2
					l0.6-1.1c0.2-0.4,0.5-0.7,0.7-1.1c0.2-0.4,0.5-0.7,0.8-1c0.3-0.3,0.5-0.6,0.8-0.9c0.3-0.3,0.6-0.6,0.9-0.9
					c0.6-0.6,1.2-1.1,1.9-1.6c0.7-0.5,1.3-1,2.1-1.4l0.1,0l0.1,0l1.5,0.1c0.5,0,1,0.1,1.5,0.2l1.5,0.3c0.5,0.1,1,0.3,1.4,0.4
					c0.5,0.2,1,0.3,1.4,0.5l1.4,0.6l1.3,0.7c0.4,0.2,0.8,0.5,1.2,0.8c0.4,0.3,0.8,0.6,1.2,0.9c0.4,0.3,0.8,0.6,1.1,1
					c0.4,0.4,0.7,0.7,1.1,1l1,1.1c0.6,0.8,1.2,1.6,1.8,2.4c0.6,0.8,1,1.7,1.5,2.6l0.4,0.8l-0.8-0.5l-0.7-0.4
					c-0.2-0.1-0.5-0.3-0.8-0.4l-0.8-0.3c-0.3-0.1-0.5-0.2-0.8-0.3c-0.3-0.1-0.5-0.2-0.8-0.2c-0.3-0.1-0.6-0.1-0.8-0.2
					c-0.6-0.1-1.2-0.1-1.7-0.1l0.1,0l-0.7,0.3l-0.7,0.4c-0.4,0.3-0.8,0.6-1.2,1c-0.8,0.7-1.6,1.5-2.3,2.3
					C135.8,110.1,134.5,111.8,133.3,113.6z"/>
			</g>
			<g>
				<path class="st1" d="M123.7,108.1c0,0,2.2,2.8,4.3,1.9c2.1-0.9,6-4.6,14.1-5.8C142.1,104.3,129.4,104.5,123.7,108.1z"/>
				<path d="M123.7,108.2c0.6,0.6,1.2,1.1,2,1.5c0.7,0.4,1.6,0.5,2.3,0.2c0.4-0.2,0.7-0.4,1.1-0.6l1.1-0.7c0.7-0.4,1.5-0.9,2.2-1.3
					c0.8-0.4,1.6-0.7,2.3-1.1c0.8-0.3,1.6-0.6,2.4-0.9c0.8-0.3,1.6-0.5,2.5-0.7c0.8-0.2,1.7-0.4,2.5-0.6l0,0.4
					c-1.6,0.1-3.2,0.3-4.7,0.4c-1.6,0.2-3.1,0.4-4.7,0.7c-1.6,0.3-3.1,0.6-4.6,1C126.6,106.9,125.1,107.4,123.7,108.2z M123.7,108.1
					c0.7-0.5,1.4-0.9,2.1-1.2c0.7-0.3,1.5-0.6,2.2-0.9c1.5-0.5,3.1-0.9,4.6-1.2c1.6-0.3,3.2-0.5,4.7-0.6c1.6-0.1,3.2-0.2,4.8-0.2
					l0,0.4c-0.8,0.1-1.7,0.2-2.5,0.4c-0.4,0.1-0.8,0.2-1.2,0.3c-0.4,0.1-0.8,0.2-1.2,0.4c-1.6,0.5-3.1,1.3-4.6,2.2
					c-0.7,0.4-1.5,0.9-2.2,1.3l-1.1,0.7c-0.4,0.2-0.8,0.4-1.2,0.6c-0.4,0.2-0.9,0.2-1.4,0.2c-0.5-0.1-0.9-0.3-1.2-0.5
					C124.8,109.5,124.2,108.9,123.7,108.1L123.7,108.1L123.7,108.1z"/>
			</g>
			<path d="M126,110c0,0-0.6-1-0.4-1.4c0,0-0.6,0.2-1.3-0.8l-1.4,0.7c0,0,1.1,0.2,1.6,0.7C125.2,109.6,125.9,109.9,126,110z"/>
			<g>
				<path d="M120.9,103.1c0,0-0.8,2.2-1,4.5c-0.1,0.6-0.1,1.1,0,1.7c0,0.5,0.1,1,0.1,1.4c0.1,0.4,0.2,0.8,0.3,1
					c0.1,0.2,0.1,0.4,0.1,0.4l0,0c0,0-0.1-0.1-0.2-0.3c-0.1-0.1-0.2-0.2-0.2-0.4c-0.1-0.2-0.1-0.4-0.2-0.6c-0.1-0.4-0.2-0.9-0.2-1.5
					c0-0.3,0-0.6,0-0.8c0-0.3,0-0.6,0.1-0.9C120,105.2,120.9,103.1,120.9,103.1L120.9,103.1z"/>
			</g>
			<ellipse cx="113.4" cy="90" rx="6.9" ry="14.7"/>
			<ellipse transform="matrix(0.9322 -0.362 0.362 0.9322 -21.1313 54.1431)" cx="133.9" cy="83.5" rx="5" ry="10.5"/>
			<polygon class="st1" points="128,83.1 130.4,80.4 127.1,77.6 127.8,83.1 			"/>
			<polygon class="st1" points="106.1,87.1 110.7,83.8 106.4,79.7 106.1,85.8 			"/>
			<g>
				<path d="M134,73.3c0,0-0.1,0.1-0.4,0.2c-0.1,0.1-0.3,0.1-0.5,0.1c-0.2,0-0.4,0.1-0.6,0.1c-0.2,0-0.5,0-0.8,0
					c-0.3,0-0.5-0.1-0.8-0.1c-0.3-0.1-0.6-0.1-0.9-0.3c-0.3-0.1-0.6-0.3-0.8-0.4l-0.4-0.2l-0.4-0.2c-0.3-0.2-0.5-0.3-0.7-0.5
					c-0.2-0.2-0.4-0.4-0.5-0.7c-0.1-0.2-0.2-0.5-0.2-0.7c-0.1-0.5-0.1-0.9-0.1-1.2c0-0.3,0.1-0.5,0.1-0.5l0.3-0.2c0,0,0.2,0,0.5,0.1
					c0.3,0.1,0.7,0.2,1.1,0.4c0.2,0.1,0.4,0.2,0.5,0.3c0.2,0.1,0.4,0.2,0.5,0.4c0.1,0.2,0.3,0.4,0.4,0.6l0.2,0.3
					c0.1,0.1,0.1,0.2,0.2,0.3c0.2,0.2,0.3,0.3,0.5,0.5c0.2,0.2,0.3,0.3,0.5,0.4c0.2,0.1,0.3,0.3,0.5,0.4c0.2,0.1,0.4,0.2,0.5,0.3
					c0.2,0.1,0.3,0.1,0.5,0.2c0.2,0.1,0.3,0.1,0.4,0.1c0.2,0.1,0.4,0.1,0.4,0.1L134,73.3z"/>
			</g>
			<g>
				<path d="M118.5,73.2c0,0,0.1-0.1,0.2-0.2c0.1-0.1,0.1-0.2,0.2-0.3c0.1-0.1,0.1-0.2,0.2-0.4c0-0.1,0.1-0.3,0.1-0.5
					c0-0.2,0-0.3,0-0.5c0-0.2,0-0.4,0-0.6c0-0.2,0-0.4-0.1-0.6c-0.1-0.4-0.2-0.8-0.3-1.1c0-0.2-0.1-0.4-0.1-0.5
					c0-0.2-0.1-0.3-0.1-0.5c-0.1-0.6-0.1-1-0.1-1l0.1,0c0,0,0.2,0.3,0.5,0.9c0.1,0.3,0.3,0.6,0.4,1c0.1,0.4,0.1,0.8,0.2,1.2
					c0,0.2,0,0.4,0,0.6c0,0.2,0,0.4,0,0.6c0,0.2-0.1,0.4-0.1,0.6c0,0.2-0.1,0.3-0.2,0.5c-0.1,0.1-0.1,0.3-0.2,0.4
					c-0.1,0.1-0.1,0.2-0.2,0.3C118.6,73.3,118.5,73.3,118.5,73.2L118.5,73.2z"/>
			</g>
			<g>
				<path d="M92.8,119.2c0,0-0.2,0.8-0.4,2.2c-0.1,0.7-0.2,1.6-0.1,2.6c0,0.5,0.1,1,0.3,1.5c0.2,0.5,0.5,1,1,1.2
					c1,0.4,2.5,0.1,3.3-0.8c0.9-1,1.3-2.5,1.4-3.9c0-0.2,0-0.4,0-0.6l0-0.1l0,0v0c0-0.2-0.1,0.3,0.4,0.3c0.4-0.4,0.1-0.1,0.2-0.2
					l0,0l0,0l0,0.1l0,0.3c-0.1,0.4-0.1,0.8-0.1,1.1c0,0.8,0,1.6,0.1,2.3c0.1,0.8,0.3,1.5,0.8,2.1c0.5,0.5,1.2,0.7,1.9,0.6
					c0.7-0.1,1.4-0.5,1.9-1c0.5-0.5,1-1.2,1.3-1.9c0.3-0.7,0.6-1.4,0.8-2.2c0.1-0.4,0.2-0.8,0.3-1.1l0-0.1c0,0,0-0.1,0.1-0.1l0,0
					c0.4-0.1,0.1,0,0.2-0.1c0,0,0.3,0.1,0.3,0.2c0,0.1,0,0.1,0,0.1l0,0.3l0,0.6c0.1,1.5,0.3,3,1.3,3.9c0.9,0.9,2.4,1,3.5,0.8
					c1.1-0.3,2-1.1,2.4-2c0.4-0.9,0.6-1.7,0.6-2.5c0-0.7,0-1.3,0-1.6c-0.1-0.4-0.1-0.6-0.1-0.6s0.3,0.8,0.3,2.2
					c0,0.7-0.1,1.6-0.5,2.6c-0.4,0.9-1.2,1.9-2.5,2.3c-0.6,0.2-1.3,0.2-2,0.1c-0.7-0.1-1.4-0.4-2-0.9c-1.1-1.1-1.4-2.7-1.5-4.3
					l0-0.6l0-0.3c0,0,0-0.1,0,0c0,0.1,0.3,0.2,0.3,0.2c0.1,0-0.2,0.1,0.2-0.1l0,0c0-0.1,0,0,0,0l0,0c-0.1,0.4-0.2,0.7-0.3,1.1
					c-0.2,0.8-0.5,1.5-0.9,2.3c-0.4,0.7-0.8,1.5-1.4,2.1c-0.6,0.6-1.4,1.1-2.3,1.2c-0.8,0.1-1.9-0.1-2.5-0.9c-0.6-0.7-0.8-1.6-1-2.4
					c-0.1-0.8-0.1-1.7-0.1-2.5c0-0.4,0.1-0.8,0.1-1.2l0.1-0.3l0-0.1l0,0l0,0c0.1-0.1-0.2,0.2,0.2-0.2c0.5,0,0.4,0.5,0.4,0.3v0l0,0
					l0,0.1c0,0.2,0,0.4,0,0.6c-0.1,1.6-0.6,3.1-1.6,4.2c-0.5,0.5-1.2,0.9-1.9,1c-0.7,0.1-1.4,0.1-2-0.2c-0.6-0.3-1-0.9-1.1-1.5
					c-0.2-0.6-0.2-1.1-0.3-1.6c0-1,0.1-1.9,0.2-2.6C92.5,120,92.8,119.2,92.8,119.2z"/>
			</g>
			<g>
				<path d="M77.7,61.7c0,0,0.1,0.1,0.2,0.3c0.1,0.2,0.4,0.5,0.6,0.8c0.3,0.3,0.7,0.7,1.1,1.2c0.5,0.4,1,0.9,1.7,1.3
					c0.7,0.4,1.4,0.8,2.3,1c0.2,0,0.4,0.1,0.6,0.1c0.2,0,0.4,0,0.7,0c0.5,0.1,0.9,0,1.4-0.1c0.5-0.1,0.9-0.3,1.4-0.4
					c0.5-0.2,0.9-0.5,1.3-0.7c0.4-0.3,0.8-0.6,1.3-0.9c0.4-0.3,0.8-0.7,1.1-1.1c0.2-0.2,0.4-0.4,0.5-0.6l0.5-0.6
					c0.3-0.4,0.5-0.9,0.7-1.4c0.3-1,0.5-2,0.2-3c-0.1-1-0.6-1.9-1-2.6c-0.3-0.4-0.5-0.7-0.8-1.1c-0.3-0.3-0.5-0.7-0.8-0.9
					c-0.6-0.6-1.1-1-1.7-1.4c-0.5-0.4-1-0.6-1.5-0.9c-0.4-0.2-0.8-0.3-1-0.3c-0.2,0-0.4-0.1-0.4-0.1s0.1,0,0.4,0.1
					c0.3,0,0.6,0.2,1,0.3c0.4,0.2,0.9,0.5,1.5,0.8c0.5,0.4,1.1,0.8,1.7,1.4c0.3,0.3,0.6,0.6,0.9,0.9c0.3,0.3,0.5,0.7,0.8,1.1
					c0.5,0.8,0.9,1.7,1.1,2.7c0.2,1,0.1,2.1-0.2,3.1c-0.2,0.5-0.4,1-0.7,1.5l-0.5,0.7c-0.2,0.2-0.3,0.5-0.5,0.6
					c-0.4,0.4-0.7,0.8-1.1,1.2c-0.4,0.3-0.8,0.7-1.3,1c-0.5,0.3-0.9,0.5-1.4,0.8c-0.5,0.2-1,0.4-1.5,0.5c-0.5,0.1-1,0.2-1.5,0.2
					c-0.3,0-0.5,0-0.8,0c-0.2,0-0.5-0.1-0.7-0.1c-1-0.2-1.8-0.6-2.5-1c-0.7-0.4-1.3-0.9-1.8-1.3c-0.5-0.4-0.9-0.9-1.2-1.2
					c-0.3-0.4-0.6-0.7-0.7-0.9c-0.2-0.2-0.2-0.3-0.2-0.3L77.7,61.7z"/>
			</g>
			<g>
				<path class="st2" d="M91.5,53.6c0,0-0.3-2.8-3-4.5"/>
				<path d="M91.4,53.6c0,0,0-0.3-0.2-0.8c-0.1-0.2-0.2-0.5-0.3-0.8c-0.2-0.3-0.3-0.6-0.5-0.9l-0.3-0.4c-0.1-0.1-0.2-0.3-0.3-0.4
					c-0.2-0.2-0.4-0.5-0.6-0.6c-0.4-0.3-0.7-0.5-0.7-0.5s0.3,0.2,0.7,0.5c0.2,0.1,0.4,0.4,0.7,0.6c0.1,0.1,0.2,0.2,0.3,0.4l0.3,0.4
					c0.2,0.3,0.4,0.6,0.5,0.9c0.1,0.3,0.3,0.6,0.4,0.8c0.2,0.5,0.2,0.9,0.2,0.9L91.4,53.6z"/>
			</g>
			<g>
				<path d="M103.8,77.4c0,0,1-0.4,2.4-1.1c0.3-0.2,0.7-0.4,1.1-0.6c0.4-0.2,0.8-0.4,1.2-0.7c0.4-0.2,0.8-0.5,1.2-0.8
					c0.4-0.3,0.7-0.6,1.1-0.9c0.3-0.3,0.7-0.7,0.9-1c0.2-0.4,0.5-0.7,0.8-1c0.2-0.3,0.6-0.5,0.8-0.8c0.3-0.3,0.6-0.5,0.8-0.7
					c0.3-0.2,0.5-0.4,0.8-0.6c0.2-0.2,0.4-0.4,0.6-0.6c0.4-0.3,0.7-0.5,0.7-0.5l0.4,0.1c0,0,0.2,0.3,0.3,0.8c0.1,0.3,0.1,0.6,0.2,1
					c0,0.4,0,0.8-0.1,1.3c-0.1,0.5-0.3,0.9-0.5,1.4c-0.2,0.5-0.6,1-0.9,1.4c-0.4,0.5-0.9,0.7-1.4,1.1c-0.5,0.3-1,0.6-1.6,0.8
					c-0.5,0.2-1,0.5-1.6,0.7c-0.5,0.2-1,0.4-1.5,0.5c-1,0.3-2,0.4-2.8,0.5c-1.6,0.2-2.7,0.1-2.7,0.1L103.8,77.4z"/>
			</g>
			<g>
				<path d="M147.7,119.6c0.3,1,0.5,2.1,0.9,3.1c0.2,0.5,0.3,1,0.6,1.5c0.1,0.2,0.2,0.5,0.4,0.7c0.1,0.2,0.3,0.4,0.4,0.4l0,0
					c-0.1,0,0,0,0,0c0,0,0.1,0,0.1,0c0,0,0,0,0,0c0,0,0.1-0.1,0.1-0.2c0.1-0.2,0.2-0.5,0.2-0.7c0.1-0.5,0.2-1,0.2-1.6
					c0.1-1.1,0.1-2.1,0.1-3.2l0.7-0.1c0.2,0.9,0.4,1.9,0.6,2.8c0.1,0.5,0.2,0.9,0.4,1.4c0.1,0.2,0.1,0.5,0.2,0.7
					c0.1,0.2,0.2,0.4,0.3,0.5c0,0,0,0,0,0c0,0,0,0-0.1,0l0,0c0,0,0,0,0,0c0,0,0,0,0,0c0-0.1,0-0.2,0.1-0.3c0-0.2,0-0.5,0-0.7
					c0-0.5-0.1-1-0.1-1.4c-0.1-1-0.2-1.9-0.4-2.9c0.3,0.9,0.5,1.9,0.7,2.8c0.1,0.5,0.2,1,0.2,1.5c0,0.2,0,0.5,0,0.8
					c0,0.1,0,0.3-0.1,0.4c0,0,0,0.1-0.1,0.1c0,0.1-0.2,0.2-0.2,0.2l0,0c-0.1,0-0.1,0-0.2,0c-0.1,0-0.1,0-0.2-0.1
					c-0.3-0.3-0.4-0.5-0.5-0.7c-0.1-0.2-0.2-0.5-0.3-0.7c-0.2-0.5-0.3-0.9-0.4-1.4c-0.3-0.9-0.5-1.9-0.7-2.9l0.7-0.1
					c0,1.1,0,2.2-0.1,3.3c-0.1,0.5-0.1,1.1-0.3,1.6c-0.1,0.3-0.1,0.5-0.3,0.8c-0.1,0.1-0.1,0.3-0.3,0.4c-0.1,0.1-0.2,0.1-0.4,0.2
					c-0.1,0-0.1,0-0.1,0c0,0,0,0-0.1,0l-0.1,0c-0.1,0-0.2-0.1-0.2-0.2l-0.2-0.2c-0.1-0.1-0.2-0.2-0.3-0.4c-0.1-0.3-0.3-0.5-0.3-0.8
					c-0.2-0.5-0.3-1-0.5-1.6C148,121.7,147.8,120.6,147.7,119.6z"/>
			</g>
		</g>
	</g>
</g>
</svg>
